<svg width="29" height="30" viewBox="0 0 29 30" fill="none" xmlns="http://www.w3.org/2000/svg">
<path d="M15.6486 12.3712V10.144L15.9154 10.4108C16.1323 10.6292 16.4271 10.7525 16.7349 10.7536C17.0427 10.7547 17.3384 10.6335 17.5568 10.4166C17.7752 10.1997 17.8986 9.90491 17.8997 9.59709C17.9007 9.28927 17.7795 8.99362 17.5626 8.77519L15.3354 6.51319C15.2313 6.42244 15.1139 6.34812 14.9874 6.29279H14.8714C14.7789 6.28161 14.6855 6.28161 14.593 6.29279C14.5507 6.28706 14.5077 6.28706 14.4654 6.29279C14.3501 6.27529 14.2327 6.27529 14.1174 6.29279C13.9905 6.35231 13.8732 6.43051 13.7694 6.52479L11.4378 8.75199C11.2749 8.91354 11.1636 9.11977 11.1179 9.34459C11.0722 9.56942 11.0942 9.80274 11.1811 10.0151C11.2681 10.2274 11.416 10.4092 11.6062 10.5374C11.7964 10.6657 12.0204 10.7346 12.2498 10.7356C12.4025 10.7365 12.5538 10.7072 12.6951 10.6495C12.8365 10.5918 12.965 10.5067 13.0734 10.3992L13.3402 10.1324V12.3712C11.9319 12.6587 10.6805 13.4588 9.82866 14.6165C8.97679 15.7742 8.58511 17.2069 8.72958 18.637C8.87404 20.067 9.54435 21.3925 10.6106 22.3564C11.6767 23.3203 13.0629 23.854 14.5002 23.854C15.9375 23.854 17.3237 23.3203 18.3899 22.3564C19.4561 21.3925 20.1264 20.067 20.2708 18.637C20.4153 17.2069 20.0236 15.7742 19.1718 14.6165C18.3199 13.4588 17.0685 12.6587 15.6602 12.3712H15.6486ZM14.4886 21.4192C13.8143 21.4191 13.155 21.2198 12.5936 20.8463C12.0322 20.4727 11.5936 19.9417 11.333 19.3198C11.0724 18.6979 11.0013 18.0128 11.1287 17.3506C11.2561 16.6885 11.5763 16.0787 12.0491 15.5979C12.5219 15.1171 13.1262 14.7867 13.7862 14.6482C14.4461 14.5096 15.1323 14.5692 15.7585 14.8193C16.3847 15.0695 16.923 15.499 17.3059 16.0541C17.6888 16.6092 17.8992 17.265 17.9106 17.9392C17.9183 18.3925 17.8358 18.8427 17.668 19.2639C17.5002 19.685 17.2504 20.0686 16.9331 20.3924C16.6158 20.7161 16.2374 20.9736 15.8197 21.1499C15.4021 21.3262 14.9535 21.4177 14.5002 21.4192H14.4886Z" fill="#5C6DFF"/>
<path d="M14.5005 18.902C15.0002 18.902 15.4053 18.4969 15.4053 17.9972C15.4053 17.4975 15.0002 17.0924 14.5005 17.0924C14.0008 17.0924 13.5957 17.4975 13.5957 17.9972C13.5957 18.4969 14.0008 18.902 14.5005 18.902Z" fill="#5C6DFF"/>
<path d="M24.3602 1.61804H4.64016C3.7172 1.61804 2.83205 1.98468 2.17942 2.63731C1.5268 3.28994 1.16016 4.17509 1.16016 5.09804V24.818C1.16016 25.741 1.5268 26.6261 2.17942 27.2788C2.83205 27.9314 3.7172 28.298 4.64016 28.298H24.3602C25.2831 28.298 26.1683 27.9314 26.8209 27.2788C27.4735 26.6261 27.8402 25.741 27.8402 24.818V5.09804C27.8402 4.17509 27.4735 3.28994 26.8209 2.63731C26.1683 1.98468 25.2831 1.61804 24.3602 1.61804ZM25.5202 24.818C25.5202 25.1257 25.3979 25.4207 25.1804 25.6383C24.9629 25.8558 24.6678 25.978 24.3602 25.978H4.64016C4.3325 25.978 4.03745 25.8558 3.81991 25.6383C3.60237 25.4207 3.48016 25.1257 3.48016 24.818V5.09804C3.48016 4.79039 3.60237 4.49534 3.81991 4.2778C4.03745 4.06026 4.3325 3.93804 4.64016 3.93804H24.3602C24.6678 3.93804 24.9629 4.06026 25.1804 4.2778C25.3979 4.49534 25.5202 4.79039 25.5202 5.09804V24.818Z" fill="#5C6DFF"/>
</svg>
