<svg width="26" height="26" viewBox="0 0 26 26" fill="none" xmlns="http://www.w3.org/2000/svg">
<g clip-path="url(#clip0_88_2300)">
<path d="M10.9291 12.2078C11.1864 12.5112 11.5485 12.7565 12.0154 12.9439C12.2705 13.0764 12.572 13.1544 12.8913 13.1544C13.2293 13.1519 13.5551 13.1008 13.8622 13.0081L13.8379 13.0146C14.0507 12.9578 14.2376 12.8741 14.4066 12.7644L14.3993 12.7693C14.5845 12.6539 14.7454 12.5263 14.89 12.3833C15.1387 12.1436 15.3491 11.8658 15.5124 11.5603L15.5214 11.5424C15.6546 11.2694 15.7318 10.9484 15.7318 10.6096C15.7318 10.5926 15.7318 10.5755 15.731 10.5584V10.5609V5.61926C15.731 5.61519 15.731 5.60951 15.731 5.60382C15.731 5.39744 15.7058 5.19757 15.657 5.00582L15.6603 5.02288C15.4832 4.47363 15.1671 4.01051 14.7535 3.65951L14.7495 3.65626C14.3292 3.3058 13.8151 3.10728 13.2074 3.06069C13.1074 3.03794 12.992 3.02576 12.8742 3.02576C12.7564 3.02576 12.641 3.03876 12.5305 3.06313L12.5411 3.06151C12.2819 3.12163 12.0601 3.19394 11.8464 3.28251L11.8757 3.27194C11.3849 3.48644 10.9803 3.82282 10.6902 4.24369L10.6845 4.25263C10.4205 4.65238 10.2637 5.14232 10.2637 5.66963C10.2637 5.68913 10.2637 5.70863 10.2645 5.72813V5.72488V10.3513C10.2645 10.3553 10.2645 10.3602 10.2645 10.3651C10.2645 10.4967 10.2775 10.6251 10.3019 10.7494L10.2994 10.7372C10.3197 10.8314 10.3327 10.9403 10.3344 11.0516V11.0533C10.4595 11.4977 10.6642 11.8844 10.9348 12.2159L10.9299 12.2103L10.9291 12.2078Z" fill="#AF6AF3"/>
<path d="M25.9649 5.79392C25.9876 5.63629 25.9998 5.45348 25.9998 5.26823C25.9998 5.08298 25.9868 4.90017 25.9625 4.72223L25.9649 4.74254C25.9178 4.55567 25.8715 4.34523 25.8243 4.11204C25.778 3.87398 25.7049 3.66273 25.6074 3.46611L25.6139 3.48073C25.4278 3.10454 25.2296 2.78361 25.0061 2.48217L25.0183 2.49923C24.7892 2.20104 24.5227 1.94673 24.2237 1.73548L24.2123 1.72817C23.9905 1.54942 23.7362 1.39586 23.4624 1.28048L23.4413 1.27236C23.1772 1.16023 22.8701 1.07411 22.55 1.02942L22.5305 1.02698C22.3086 0.982294 22.0527 0.957106 21.7919 0.957106C21.7805 0.957106 21.7691 0.957106 21.7578 0.957106H21.7594C21.462 0.957106 21.1711 0.982294 20.8876 1.03186L20.9176 1.02779C20.5163 1.12854 20.1661 1.26017 19.837 1.42673L19.8663 1.41292C19.5088 1.59086 19.2106 1.76554 18.9246 1.95729L18.9546 1.93861C18.6741 2.12548 18.3938 2.30071 18.1137 2.46429C17.8643 2.61217 17.5653 2.76492 17.2557 2.89898L17.2021 2.92011L17.1322 2.95504V10.3504C17.1322 10.3553 17.1322 10.361 17.1322 10.3667C17.1322 10.6462 17.107 10.9192 17.0583 11.184L17.0623 11.1564C17.0111 11.4359 16.938 11.6829 16.843 11.9185L16.8519 11.8925C16.6211 12.4052 16.3278 12.8448 15.9728 13.2275L15.976 13.2242C15.6153 13.602 15.1855 13.9092 14.7045 14.1253L14.6793 14.1359C14.516 14.2195 14.3193 14.3024 14.1154 14.3715L14.0829 14.3812C13.8871 14.4479 13.662 14.486 13.428 14.486C13.424 14.486 13.4207 14.486 13.4166 14.486C13.3265 14.5161 13.2241 14.5332 13.1168 14.5332C13.0624 14.5332 13.0088 14.5291 12.9568 14.5202L12.9625 14.521C12.8089 14.499 12.631 14.486 12.4506 14.486C12.4457 14.486 12.4408 14.486 12.436 14.486H12.4368C12.1345 14.4365 11.8745 14.3755 11.621 14.2992L11.6657 14.3105C11.3984 14.2277 11.166 14.1204 10.9515 13.9872L10.9645 13.9945C10.538 13.7556 10.1772 13.4509 9.88309 13.0902L9.8774 13.0837C9.58246 12.7213 9.33465 12.3045 9.15265 11.8544L9.14127 11.8219C9.09415 11.6813 9.04784 11.5537 9.00071 11.4359C8.95602 11.3254 8.93084 11.197 8.93084 11.063C8.93084 11.0589 8.93084 11.054 8.93084 11.05C8.88425 10.6995 8.86096 10.5251 8.86096 10.5251V2.95423C8.86096 2.93148 8.83821 2.91929 8.79109 2.91929C8.55763 2.779 8.34746 2.66227 8.16059 2.56911C7.94609 2.45942 7.76246 2.34323 7.59102 2.21242L7.59996 2.21892C7.31938 2.07863 7.05071 1.93834 6.79396 1.79804C6.53721 1.65775 6.29184 1.51746 6.05784 1.37717C5.73365 1.20817 5.35827 1.07492 4.9634 0.996106L4.93659 0.991231C4.72209 0.950606 4.4759 0.927856 4.22402 0.927856C4.05502 0.927856 3.88927 0.938419 3.72515 0.958731L3.74465 0.957106C3.35221 1.00504 2.99715 1.09117 2.65834 1.21304L2.69246 1.20248C2.34227 1.33086 2.04002 1.50879 1.77677 1.73223L1.78084 1.72898C1.49809 1.91829 1.25596 2.13848 1.04959 2.38954L1.04471 2.39523C0.849711 2.63004 0.675023 2.89492 0.530398 3.17686L0.519023 3.20123C0.398773 3.43198 0.280961 3.70986 0.181836 3.99748L0.168023 4.04217C0.0786484 4.30704 0.0274609 4.61173 0.0274609 4.92942C0.0274609 4.93836 0.0274609 4.94648 0.0274609 4.95461V4.95298C0.00958594 5.06754 -0.000976562 5.19917 -0.000976562 5.33323C-0.000976562 5.53392 0.0217734 5.72892 0.0656484 5.91661L0.0623984 5.89954C0.132273 6.20342 0.214065 6.49538 0.307773 6.77542C0.466211 7.13698 0.653898 7.44817 0.875711 7.73173L0.868398 7.72198C1.10971 8.03154 1.38677 8.29804 1.69796 8.51986L1.71015 8.52798L3.39284 9.64923C3.57565 9.83286 3.77065 10.0043 3.97459 10.1644L3.9884 10.1749C4.20696 10.3455 4.40115 10.517 4.58396 10.7006L5.28515 11.4018C5.51509 11.6317 5.72227 11.8844 5.90427 12.155L5.91565 12.1729C6.10252 12.4063 6.26611 12.6284 6.4064 12.8391C6.54669 13.0498 6.68698 13.2719 6.82727 13.5054C7.04665 13.8092 7.24571 14.1545 7.40821 14.5202L7.42284 14.5575C7.58642 14.9313 7.73836 15.305 7.87865 15.6788C8.06552 16.1928 8.22911 16.6952 8.3694 17.186C8.4994 17.6215 8.59852 18.1334 8.64727 18.6607L8.64971 18.6932C8.69359 18.8183 8.71959 18.9629 8.71959 19.1132C8.71959 19.2635 8.74559 19.4082 8.79271 19.543L8.79027 19.5341C8.79027 19.7324 8.80327 19.9265 8.82765 20.1175L8.82521 20.0947C8.84715 20.2629 8.86015 20.4579 8.86015 20.6554L9.00071 21.4963C9.05596 21.8205 9.12909 22.1032 9.22252 22.377L9.21115 22.338C9.31596 22.698 9.45977 23.0124 9.64096 23.3L9.63202 23.2846C9.82621 23.5966 10.0586 23.8623 10.3275 24.0865L10.3332 24.0906C10.8784 24.5814 11.5771 24.912 12.349 25.0006L12.3661 25.0022C12.5546 25.0445 12.7723 25.0697 12.995 25.0721H12.9974C13.1965 25.0721 13.3898 25.0461 13.5743 24.9982L13.558 25.0014C13.5653 25.0014 13.5735 25.0014 13.5816 25.0014C13.8505 25.0014 14.1073 24.9502 14.3429 24.856L14.3291 24.8609C14.5625 24.7671 14.8196 24.6504 15.1001 24.5107C15.5885 24.2076 15.9882 23.807 16.2831 23.3342L16.2921 23.3187C16.5163 23.0514 16.6951 22.7362 16.8121 22.3925L16.8178 22.3722C16.9258 22.0602 17.012 21.6929 17.0599 21.3135L17.0631 21.285C17.064 21.1234 17.077 20.9657 17.1005 20.8114L17.0981 20.8292C17.1192 20.6927 17.1322 20.5351 17.133 20.375C17.1796 20.0945 17.2145 19.8133 17.2378 19.5333C17.2606 19.2416 17.298 18.9775 17.35 18.7192L17.3426 18.7622C17.3892 18.4816 17.4361 18.1897 17.4832 17.8864C17.5352 17.5524 17.6083 17.2567 17.705 16.9723L17.6936 17.0105C17.9271 16.263 18.0438 15.8892 18.0438 15.8892L18.4647 14.768C18.6516 14.3942 18.8385 14.0321 19.0253 13.6817C19.2374 13.2876 19.4462 12.9553 19.6753 12.6376L19.6566 12.6652C19.9372 12.3381 20.2059 12.0225 20.4626 11.7187C20.7194 11.4148 20.9881 11.0993 21.2686 10.7721C21.4555 10.6318 21.6308 10.4915 21.7943 10.3512C21.9579 10.2109 22.1099 10.0706 22.2501 9.93036L22.8108 9.50948C22.9733 9.38436 23.1577 9.26817 23.3511 9.16823L23.3714 9.15848L24.0726 8.66773L24.7738 8.10711C24.9623 7.91698 25.1353 7.71142 25.2897 7.49123L25.2995 7.47661C25.4563 7.25479 25.5871 6.99967 25.6789 6.72667L25.6854 6.70554V6.77542C25.813 6.49104 25.9105 6.16117 25.9633 5.81586L25.9649 5.79392Z" fill="#AF6AF3"/>
</g>
<defs>
<clipPath id="clip0_88_2300">
<rect width="26" height="26" fill="white"/>
</clipPath>
</defs>
</svg>
