<svg width="295" height="202" viewBox="0 0 295 202" fill="none" xmlns="http://www.w3.org/2000/svg">
<path d="M277.985 136.937C266.173 135.026 268.107 152.304 251.257 152.304C235.867 152.304 230.934 86.5163 219.736 105.323C162.309 201.729 195.66 64.3285 149.988 62.5799C129.329 61.7924 115.571 85.8331 110.499 128.414C103.146 166.895 86.0762 99.0577 68.5205 105.357C57.3687 109.376 58.6426 152.304 43.2524 152.304C26.403 152.304 28.337 135.026 16.5251 136.937C3.79833 138.998 0 169.57 0 169.57H294.51C294.51 169.57 290.711 138.998 277.985 136.937Z" fill="#F4E0DD" fill-opacity="0.5"/>
<path d="M267.528 155.639C256.654 154.828 258.425 162.205 242.943 162.205C228.78 162.205 229.162 145.668 219.689 142.16C202.226 135.686 187.844 168.435 181.069 152.003C168.215 108.391 130.73 86.5163 113.44 152.003C106.666 168.435 90.8472 139.102 74.8201 142.16C64.9652 144.036 65.7295 162.205 51.5668 162.205C36.084 162.205 37.8558 154.828 26.9819 155.639C15.2858 156.519 11.7886 169.57 11.7886 169.57H282.721C282.721 169.57 279.224 156.519 267.528 155.639Z" fill="#F4E0DD"/>
<path opacity="0.7" d="M0.21983 169.57C0.21983 169.57 -1.84146 177.097 6.71637 178.985C18.424 181.556 87.153 188.33 70.4542 193.472C61.0279 196.378 75.2601 200.316 121.164 201.775C167.08 203.222 245.849 197.536 219.354 189.118C192.869 180.699 300.786 187.079 294.22 169.57H0.21983Z" fill="#EFD3CE"/>
<path d="M155.245 178.695C155.245 179.436 154.284 180.27 152.733 180.93C151.146 181.59 148.946 182.065 146.514 182.065C141.696 182.065 137.794 180.201 137.794 178.695C137.794 178.568 140.214 167.416 140.214 167.416H152.814C152.814 167.416 155.245 178.568 155.245 178.695Z" fill="#163356"/>
<path d="M152.79 180.56C152.79 180.676 152.771 180.799 152.733 180.93C151.146 181.59 148.946 182.065 146.514 182.065C141.696 182.065 137.794 180.201 137.794 178.695C137.794 178.568 140.214 167.416 140.214 167.416H150.359C150.359 167.416 152.79 180.409 152.79 180.56Z" fill="#1D3F70"/>
<path d="M163.734 159.889C163.734 169.408 156.033 177.12 146.514 177.12C142.461 177.12 138.72 175.708 135.779 173.357C131.83 170.207 129.294 165.343 129.294 159.889C129.294 150.382 137.006 142.669 146.514 142.669C149.513 142.669 152.339 143.433 154.794 144.788C160.132 147.718 163.734 153.381 163.734 159.889Z" fill="#8A9EDD"/>
<path d="M161.29 158.256C161.29 167.775 153.578 175.476 144.059 175.476C141.673 175.476 139.404 175.001 137.342 174.121C136.81 173.89 136.288 173.635 135.779 173.357C131.83 170.207 129.294 165.343 129.294 159.889C129.294 150.382 137.006 142.669 146.514 142.669C149.513 142.669 152.339 143.433 154.794 144.788C154.825 144.804 154.852 144.823 154.875 144.846C158.789 148.008 161.29 152.837 161.29 158.256Z" fill="white"/>
<path d="M161.29 158.256C161.29 167.775 153.578 175.476 144.059 175.476C141.673 175.476 139.404 175.001 137.342 174.121C133.428 170.96 130.927 166.131 130.927 160.711C130.927 151.192 138.639 143.48 148.147 143.48C150.532 143.48 152.802 143.966 154.875 144.846C158.789 148.008 161.29 152.837 161.29 158.256Z" fill="#B0C8FF"/>
<path d="M156.021 153.346L156.206 154.296C156.38 155.153 156.994 155.859 157.816 156.149C156.994 156.438 156.38 157.144 156.206 158.001L156.021 158.951L155.824 158.001C155.651 157.144 155.037 156.438 154.215 156.149C155.037 155.859 155.651 155.153 155.824 154.296L156.021 153.346Z" fill="#E9F4FF"/>
<path d="M152.79 146.479C153.126 148.1 154.388 149.374 156.021 149.71C154.388 150.034 153.126 151.308 152.79 152.929C152.454 151.308 151.192 150.034 149.559 149.71C151.192 149.374 152.454 148.1 152.79 146.479Z" fill="#E9F4FF"/>
<path d="M239.944 92.2717L240.326 94.1477C240.673 95.85 241.877 97.2397 243.499 97.8187C241.877 98.3977 240.673 99.7873 240.326 101.478L239.944 103.366L239.561 101.478C239.214 99.7873 238.01 98.3977 236.388 97.8187C238.01 97.2397 239.214 95.85 239.561 94.1477L239.944 92.2717Z" fill="white"/>
<path d="M233.574 78.7112C234.223 81.9305 236.736 84.4318 239.943 85.0919C236.736 85.7404 234.223 88.2533 233.574 91.4611C232.926 88.2533 230.413 85.7404 227.205 85.0919C230.413 84.4318 232.926 81.9305 233.574 78.7112Z" fill="white"/>
<path d="M48.3939 91.0442L48.0117 92.9202C47.6643 94.6109 46.46 96.0006 44.8271 96.5796C46.46 97.1702 47.6643 98.5598 48.0117 100.251L48.3939 102.127L48.776 100.251C49.1119 98.5598 50.3162 97.1702 51.949 96.5796C50.3162 96.0006 49.1119 94.6109 48.776 92.9202L48.3939 91.0442Z" fill="white"/>
<path d="M54.7632 77.4837C54.1147 80.6914 51.6018 83.2044 48.394 83.8529C51.6018 84.5129 54.1147 87.0143 54.7632 90.2336C55.4117 87.0143 57.9246 84.5129 61.1324 83.8529C57.9246 83.2044 55.4117 80.6914 54.7632 77.4837Z" fill="white"/>
<path d="M203.859 13.549L204.241 15.4365C204.589 17.1273 205.793 18.5169 207.414 19.0959C205.793 19.6749 204.589 21.0761 204.241 22.7669L203.859 24.6429L203.477 22.7669C203.13 21.0761 201.925 19.6749 200.304 19.0959C201.925 18.5169 203.13 17.1273 203.477 15.4365L203.859 13.549Z" fill="#C0DAF9"/>
<path d="M197.49 0C198.139 3.20774 200.652 5.72066 203.859 6.36916C200.652 7.02923 198.139 9.53057 197.49 12.7383C196.842 9.53057 194.329 7.02923 191.121 6.36916C194.329 5.72066 196.842 3.20774 197.49 0Z" fill="#C0DAF9"/>
<path d="M76.4298 25.6851L76.0476 27.5611C75.7002 29.2634 74.4959 30.653 72.863 31.232C74.4959 31.811 75.7002 33.2007 76.0476 34.8914L76.4298 36.779L76.8119 34.8914C77.1477 33.2007 78.3521 31.811 79.9849 31.232C78.3521 30.653 77.1477 29.2634 76.8119 27.5611L76.4298 25.6851Z" fill="#C0DAF9"/>
<path d="M82.7991 12.1245C82.1506 15.3438 79.6377 17.8452 76.4299 18.5052C79.6377 19.1537 82.1506 21.6667 82.7991 24.8744C83.4476 21.6667 85.9605 19.1537 89.1682 18.5052C85.9605 17.8452 83.4476 15.3438 82.7991 12.1245Z" fill="#C0DAF9"/>
<path d="M36.4896 152.315C36.0263 152.315 35.5979 152.478 35.2505 152.732L22.4311 145.101C22.5006 144.892 22.5353 144.684 22.5353 144.464C22.5353 143.897 22.3037 143.387 21.9447 143.016L31.7648 129.375C31.9732 129.444 32.1933 129.491 32.4249 129.491C33.5713 129.491 34.4862 128.564 34.4862 127.429C34.4862 126.295 33.5713 125.38 32.4249 125.38C31.29 125.38 30.3752 126.295 30.3752 127.429C30.3752 127.893 30.5257 128.31 30.7689 128.645L20.833 142.437C20.7172 142.414 20.5976 142.403 20.474 142.403C19.3392 142.403 18.4243 143.329 18.4243 144.464C18.4243 145.599 19.3392 146.525 20.474 146.525C20.9372 146.525 21.3657 146.363 21.7131 146.108L34.5325 153.74C34.463 153.937 34.4283 154.157 34.4283 154.377C34.4283 155.512 35.3547 156.426 36.4896 156.426C37.6244 156.426 38.5508 155.512 38.5508 154.377C38.5508 153.242 37.6244 152.315 36.4896 152.315Z" fill="#B0C8FF"/>
<path d="M113.915 53.6282C110.673 59.1984 108.832 65.6486 108.832 72.5504H79.8694C79.8694 66.5866 80.6568 60.6691 82.2202 54.96C83.7372 49.413 85.9722 44.0745 88.8557 39.1066L113.915 53.6282Z" fill="#8A9EDD"/>
<path d="M113.881 91.4032L88.8094 105.902C85.9259 100.934 83.714 95.6184 82.2086 90.083C80.6568 84.3855 79.8694 78.4912 79.8694 72.5505H108.832C108.832 79.4176 110.661 85.8562 113.881 91.4032Z" fill="#B0C8FF"/>
<path d="M127.163 104.894L112.305 129.746C112.298 129.746 112.29 129.742 112.282 129.734C102.59 123.932 94.4718 115.699 88.8207 105.925C88.8129 105.917 88.8091 105.909 88.8091 105.902L113.88 91.4032C117.088 96.9502 121.674 101.605 127.163 104.894Z" fill="#8A9EDD"/>
<path d="M146.514 110.233V139.195C134.447 139.195 122.612 135.929 112.306 129.746L127.163 104.894C132.826 108.287 139.438 110.233 146.514 110.233Z" fill="#B0C8FF"/>
<path d="M179.402 130.521C174.492 133.312 169.234 135.466 163.791 136.925C158.175 138.431 152.362 139.195 146.514 139.195V110.233C153.277 110.233 159.623 108.461 165.112 105.334L179.402 130.521Z" fill="#8A9EDD"/>
<path d="M204.172 105.994C204.164 106.002 204.16 106.01 204.16 106.017C198.231 116.208 189.685 124.685 179.425 130.51C179.417 130.517 179.409 130.521 179.402 130.521L165.112 105.334C170.925 102.034 175.765 97.2396 179.124 91.4611L204.172 105.994Z" fill="#B0C8FF"/>
<path d="M213.17 72.5505C213.17 78.5027 212.371 84.4203 210.807 90.1409C209.29 95.6879 207.067 101.015 204.172 105.994L179.124 91.4611C182.355 85.9025 184.208 79.4407 184.208 72.5505H213.17Z" fill="#8A9EDD"/>
<path d="M213.17 72.5504H184.208C184.208 65.6717 182.366 59.2331 179.147 53.6862L204.23 39.1992C207.102 44.1672 209.325 49.4825 210.831 55.0179C212.382 60.7154 213.17 66.6097 213.17 72.5504Z" fill="#B0C8FF"/>
<path d="M204.23 39.1993L179.147 53.6862C175.939 48.1392 171.353 43.4955 165.864 40.1952L180.733 15.3439C180.741 15.3516 180.749 15.3555 180.757 15.3555C190.438 21.1688 198.555 29.4023 204.218 39.1761C204.218 39.1838 204.222 39.1915 204.23 39.1993Z" fill="#8A9EDD"/>
<path d="M180.733 15.3439L165.864 40.1952C159.785 36.5706 153.149 34.8567 146.514 34.8567V5.89441C158.58 5.89441 170.415 9.16005 180.733 15.3439Z" fill="#B0C8FF"/>
<path d="M146.514 5.89441V34.8567C139.751 34.8567 133.405 36.6401 127.916 39.7667L113.626 14.568C118.536 11.7772 123.793 9.62326 129.248 8.16414C134.864 6.65871 140.666 5.89441 146.514 5.89441Z" fill="#8A9EDD"/>
<path d="M127.916 39.7667C122.265 42.9745 117.378 47.6877 113.915 53.6283C87.6859 38.4234 88.8439 39.1182 88.867 39.0835C94.7962 28.8929 103.354 20.4161 113.603 14.5796C113.637 14.568 112.942 13.3637 127.916 39.7667Z" fill="#B0C8FF"/>
<path fill-rule="evenodd" clip-rule="evenodd" d="M203.651 65.9033C203.512 66.2508 203.118 66.4013 202.782 66.2623C202.701 66.2276 196.992 63.9463 190.531 66.2739C190.453 66.3048 190.376 66.3202 190.299 66.3202C190.033 66.3202 189.778 66.1465 189.674 65.8802C189.546 65.5328 189.732 65.1506 190.079 65.0232C191.237 64.6064 192.372 64.3168 193.46 64.1431V53.7788C191.445 53.4545 190.16 52.9334 190.044 52.8871C189.708 52.7481 189.546 52.3544 189.685 52.0186C189.824 51.6712 190.218 51.5091 190.554 51.648C190.635 51.6828 196.344 53.9641 202.806 51.6364C203.153 51.5206 203.535 51.6943 203.663 52.0417C203.79 52.3892 203.605 52.7713 203.257 52.8987C202.134 53.304 201.034 53.5819 199.968 53.7556V64.1547C201.937 64.479 203.176 64.9885 203.292 65.0348C203.628 65.1738 203.79 65.5675 203.651 65.9033ZM198.637 63.981V53.9409C197.965 54.0104 197.305 54.0336 196.68 54.0336C196.02 54.0336 195.383 53.9988 194.792 53.9409V63.9694C196.205 63.8421 197.502 63.8652 198.637 63.981Z" fill="#4867AA"/>
<path fill-rule="evenodd" clip-rule="evenodd" d="M188.539 83.9108C188.539 82.6022 189.361 81.4673 190.519 81.0157C193.449 79.2323 196.83 78.7691 200.328 79.684C202.956 80.3788 204.705 81.5947 204.786 81.641C205.087 81.8495 205.157 82.2664 204.948 82.5675C204.821 82.7527 204.612 82.857 204.404 82.857C204.265 82.857 204.137 82.8222 204.022 82.7296C203.998 82.718 202.354 81.5831 199.945 80.9694C197.548 80.344 195.29 80.4251 193.194 81.1894C194.144 81.7337 194.792 82.7527 194.792 83.9108C194.792 85.6362 193.391 87.0374 191.665 87.0374C189.94 87.0374 188.539 85.6362 188.539 83.9108ZM189.882 83.9108C189.882 84.9067 190.681 85.7057 191.665 85.7057C192.65 85.7057 193.46 84.9067 193.46 83.9108C193.46 82.9264 192.65 82.1274 191.665 82.1274C190.681 82.1274 189.882 82.9264 189.882 83.9108Z" fill="white"/>
<path fill-rule="evenodd" clip-rule="evenodd" d="M205.064 86.8869C205.064 88.207 204.242 89.3303 203.095 89.7935C201.15 90.9747 198.996 91.5769 196.749 91.5769C195.614 91.5769 194.456 91.4263 193.287 91.1137C190.658 90.4304 188.898 89.2145 188.828 89.1566C188.527 88.9482 188.458 88.5313 188.666 88.2302C188.875 87.9291 189.292 87.8596 189.593 88.0681C189.616 88.0796 191.26 89.2145 193.669 89.8398C196.054 90.4536 198.324 90.3725 200.42 89.6082C199.471 89.0755 198.822 88.0565 198.822 86.8869C198.822 85.1614 200.223 83.7602 201.949 83.7602C203.663 83.7602 205.064 85.1614 205.064 86.8869ZM203.732 86.8869C203.732 85.9025 202.933 85.1035 201.949 85.1035C200.953 85.1035 200.154 85.9025 200.154 86.8869C200.154 87.8712 200.953 88.6702 201.949 88.6702C202.933 88.6702 203.732 87.8712 203.732 86.8869Z" fill="white"/>
<path d="M125.009 124.592H130.788C131.019 124.604 131.251 124.476 131.378 124.256C131.378 124.256 131.382 124.253 131.39 124.245C131.39 124.245 131.39 124.241 131.39 124.233C131.39 124.226 131.394 124.218 131.401 124.21C131.409 124.202 131.413 124.195 131.413 124.187C131.421 124.172 131.425 124.156 131.425 124.141C131.432 124.133 131.436 124.125 131.436 124.117C131.436 124.11 131.44 124.098 131.448 124.083C131.448 124.075 131.448 124.067 131.448 124.06C131.455 124.044 131.459 124.029 131.459 124.013C131.459 124.006 131.459 123.998 131.459 123.99C131.459 123.975 131.459 123.959 131.459 123.944C131.459 123.936 131.459 123.932 131.459 123.932C131.459 123.932 131.459 123.928 131.459 123.921C131.459 123.905 131.459 123.89 131.459 123.874C131.459 123.867 131.459 123.863 131.459 123.863C131.459 123.847 131.459 123.836 131.459 123.828C131.425 123.608 131.286 123.434 131.1 123.33C130 122.763 129.317 121.628 129.317 120.377C129.317 118.547 130.811 117.054 132.652 117.054C134.482 117.054 135.987 118.547 135.987 120.377C135.987 121.628 135.292 122.763 134.192 123.33C134.007 123.434 133.88 123.608 133.845 123.828C133.845 123.836 133.841 123.843 133.833 123.851C133.833 123.859 133.833 123.867 133.833 123.874C133.833 123.89 133.833 123.905 133.833 123.921C133.833 123.928 133.833 123.932 133.833 123.932C133.833 123.932 133.833 123.936 133.833 123.944C133.833 123.959 133.833 123.975 133.833 123.99C133.841 123.998 133.845 124.006 133.845 124.013C133.845 124.029 133.845 124.044 133.845 124.06C133.845 124.067 133.849 124.075 133.856 124.083C133.856 124.098 133.86 124.11 133.868 124.117C133.868 124.125 133.868 124.137 133.868 124.152C133.876 124.16 133.883 124.172 133.891 124.187C133.891 124.195 133.895 124.202 133.903 124.21C133.903 124.218 133.907 124.226 133.914 124.233C133.914 124.241 133.914 124.245 133.914 124.245C133.93 124.268 133.941 124.291 133.949 124.314C133.957 124.322 133.964 124.33 133.972 124.338C133.98 124.345 133.991 124.357 134.007 124.372C134.015 124.38 134.022 124.388 134.03 124.395C134.046 124.411 134.061 124.426 134.076 124.442C134.092 124.449 134.103 124.457 134.111 124.465C134.119 124.473 134.13 124.48 134.146 124.488C134.154 124.496 134.165 124.503 134.181 124.511C134.196 124.519 134.212 124.527 134.227 124.534C134.235 124.542 134.246 124.546 134.262 124.546C134.277 124.554 134.293 124.561 134.308 124.569C134.323 124.569 134.335 124.573 134.343 124.581C134.358 124.581 134.374 124.581 134.389 124.581C134.405 124.588 134.416 124.592 134.424 124.592C134.439 124.592 134.455 124.592 134.47 124.592C134.478 124.592 134.489 124.592 134.505 124.592C134.505 124.592 134.509 124.592 134.516 124.592H140.283C140.654 124.592 140.955 124.291 140.955 123.932C140.955 123.562 140.654 123.261 140.283 123.261H136.323C136.96 122.45 137.319 121.442 137.319 120.377C137.319 117.806 135.223 115.71 132.652 115.71C130.07 115.71 127.985 117.806 127.985 120.377C127.985 121.442 128.344 122.45 128.97 123.261H125.009C124.638 123.261 124.337 123.562 124.337 123.932C124.337 124.291 124.638 124.592 125.009 124.592Z" fill="#4867AA"/>
<path d="M140.283 127.557H125.009C124.638 127.557 124.337 127.846 124.337 128.217C124.337 128.587 124.638 128.889 125.009 128.889H140.283C140.654 128.889 140.955 128.587 140.955 128.217C140.955 127.846 140.654 127.557 140.283 127.557Z" fill="#4867AA"/>
<path d="M101.629 80.3208C101.629 80.29 101.625 80.2629 101.617 80.2398C101.617 80.2321 101.617 80.2243 101.617 80.2166C101.609 80.1857 101.602 80.1549 101.594 80.124C101.586 80.1008 101.575 80.0738 101.559 80.0429C101.559 80.0352 101.559 80.0313 101.559 80.0313C101.544 80.0005 101.528 79.9734 101.513 79.9503C101.497 79.9271 101.478 79.904 101.455 79.8808C101.455 79.8808 101.451 79.8769 101.443 79.8692C101.428 79.846 101.409 79.8267 101.385 79.8113C101.362 79.7881 101.339 79.7688 101.316 79.7534C101.308 79.7534 101.301 79.7534 101.293 79.7534C101.27 79.738 101.243 79.7225 101.212 79.7071C101.189 79.6917 101.162 79.6839 101.131 79.6839C101.123 79.6762 101.115 79.6724 101.108 79.6724C101.084 79.6646 101.057 79.6608 101.026 79.6608C101.019 79.6608 101.015 79.6608 101.015 79.6608C100.992 79.6608 100.972 79.6608 100.957 79.6608H94.7499C94.3794 79.6608 94.0783 79.9503 94.0783 80.3208C94.0783 80.6914 94.3794 80.9925 94.7499 80.9925H99.3473L93.5919 86.7479L91.1948 84.3508C90.94 84.096 90.5116 84.096 90.2568 84.3508C89.9905 84.6171 89.9905 85.034 90.2568 85.3004L92.6423 87.6859L88.9135 91.4263C88.6587 91.6811 88.6587 92.1096 88.9135 92.3643C89.0409 92.5033 89.2146 92.5612 89.3883 92.5612C89.562 92.5612 89.7241 92.5033 89.8631 92.3643L93.5919 88.6355L96.0122 91.0442C96.1396 91.1831 96.3133 91.241 96.4754 91.241C96.6491 91.241 96.8228 91.1831 96.9502 91.0442C97.2165 90.7894 97.2165 90.3609 96.9502 90.1062L94.5415 87.6859L100.285 81.9305V86.5279C100.285 86.8984 100.586 87.1995 100.957 87.1995C101.328 87.1995 101.629 86.8984 101.629 86.5279V80.3208Z" fill="#4867AA"/>
<path d="M116.104 40.2762C115.884 40.2762 115.676 40.172 115.548 39.9867L114.101 37.8906L110.962 40.1488C110.812 40.253 110.627 40.2993 110.441 40.2646C110.256 40.2183 110.094 40.1025 110.001 39.9404L108.797 37.9022L105.566 40.1604C105.415 40.2646 105.23 40.2993 105.045 40.2646C104.871 40.2183 104.709 40.1141 104.616 39.9519L103.354 37.9022L100.112 40.1604C99.8106 40.3688 99.3937 40.2878 99.1852 39.9867C98.9768 39.6856 99.0463 39.2687 99.3474 39.0603L103.169 36.3968C103.319 36.2926 103.505 36.2578 103.69 36.2926C103.864 36.3273 104.026 36.4431 104.118 36.5937L105.381 38.6549L108.623 36.3968C108.774 36.2926 108.971 36.2578 109.144 36.2926C109.33 36.3389 109.492 36.4431 109.584 36.6052L110.777 38.6318L113.869 36.4084C114.008 36.3041 114.193 36.2578 114.367 36.2926C114.552 36.3157 114.703 36.42 114.807 36.5705L116.648 39.2224C116.857 39.535 116.787 39.9404 116.475 40.1604C116.359 40.2414 116.231 40.2762 116.104 40.2762Z" fill="#4867AA"/>
<path d="M116.104 33.1544C115.884 33.1544 115.676 33.0501 115.548 32.8649L114.101 30.7688L110.962 33.027C110.812 33.1312 110.627 33.1775 110.441 33.1312C110.256 33.0965 110.094 32.9807 110.001 32.8185L108.797 30.7804L105.566 33.027C105.415 33.1312 105.23 33.1775 105.045 33.1428C104.871 33.0965 104.709 32.9922 104.616 32.8301L103.354 30.7804L100.112 33.027C99.8106 33.247 99.3937 33.1659 99.1852 32.8649C98.9768 32.5638 99.0463 32.1469 99.3474 31.9384L103.169 29.275C103.319 29.1707 103.505 29.136 103.69 29.1707C103.864 29.2055 104.026 29.3213 104.118 29.4718L105.381 31.5331L108.623 29.275C108.774 29.1707 108.971 29.136 109.144 29.1707C109.33 29.2055 109.492 29.3213 109.584 29.4834L110.777 31.51L113.869 29.2865C114.008 29.1823 114.193 29.136 114.367 29.1707C114.552 29.1939 114.703 29.2981 114.807 29.4487L116.648 32.1006C116.857 32.4016 116.787 32.8185 116.475 33.027C116.359 33.108 116.231 33.1544 116.104 33.1544Z" fill="#4867AA"/>
<path d="M138.929 20.7518C138.929 20.3812 138.639 20.0802 138.269 20.0802H135.188C135.605 16.6408 138.396 14.151 138.431 14.1279C138.709 13.8847 138.743 13.4562 138.5 13.1783C138.257 12.9004 137.828 12.8772 137.551 13.1204C137.412 13.2362 134.25 16.0386 133.856 20.0802H131.494C131.1 16.0386 127.927 13.2362 127.788 13.1204C127.51 12.8772 127.094 12.9004 126.85 13.1783C126.607 13.4562 126.63 13.8847 126.908 14.1279C126.943 14.151 129.745 16.6408 130.151 20.0802H127.012C126.642 20.0802 126.341 20.3812 126.341 20.7518C126.341 21.1224 126.642 21.4119 127.012 21.4119H130.185C130.023 23.4963 128.923 25.4997 126.897 27.3873C126.63 27.6421 126.607 28.059 126.862 28.3253C127.001 28.4759 127.175 28.5453 127.348 28.5453C127.51 28.5453 127.684 28.4874 127.812 28.3601C130.128 26.2061 131.367 23.8785 131.517 21.4119H133.822C133.972 23.8785 135.223 26.2061 137.539 28.3601C137.666 28.4874 137.828 28.5453 137.991 28.5453C138.176 28.5453 138.35 28.4759 138.477 28.3253C138.732 28.059 138.72 27.6421 138.442 27.3873C136.416 25.4997 135.316 23.4963 135.165 21.4119H138.269C138.639 21.4119 138.929 21.1224 138.929 20.7518Z" fill="white"/>
<path d="M166.721 14.7996C166.362 14.3364 165.691 13.7689 164.463 13.7689C161.927 13.7689 160.398 16.525 159.611 18.54C158.835 16.525 157.295 13.7689 154.77 13.7689C153.543 13.7689 152.86 14.3364 152.512 14.7996C151.273 16.4324 152.061 19.339 152.153 19.6749C152.246 20.0223 152.616 20.2307 152.975 20.1265C153.323 20.0339 153.531 19.6633 153.439 19.3043C153.23 18.5979 152.871 16.5366 153.578 15.5986C153.832 15.2744 154.215 15.1122 154.77 15.1122C157.098 15.1122 158.569 19.2001 158.951 20.8445V28.418C158.951 28.777 159.252 29.0781 159.611 29.0781C159.981 29.0781 160.283 28.777 160.283 28.418V20.8213C160.676 19.1653 162.135 15.1122 164.463 15.1122C165.007 15.1122 165.401 15.2744 165.656 15.5986C166.362 16.5366 165.992 18.5979 165.795 19.3043C165.691 19.6633 165.899 20.0339 166.258 20.1265C166.605 20.2307 166.976 20.0223 167.08 19.6749C167.173 19.339 167.949 16.4324 166.721 14.7996Z" fill="#4867AA"/>
<path fill-rule="evenodd" clip-rule="evenodd" d="M188.099 29.9003C188.029 29.9119 186.674 30.1319 186.084 31.6837C186.014 31.8689 185.945 32.0581 185.875 32.2511C185.574 33.0849 185.215 34.0924 184.578 34.7988C186.095 35.5167 187.149 37.0685 187.149 38.8519C187.149 41.33 185.134 43.345 182.668 43.345C180.189 43.345 178.174 41.33 178.174 38.8519C178.174 37.0917 179.193 35.5746 180.676 34.8335C180.016 34.1271 179.645 33.0965 179.344 32.2511C179.275 32.0581 179.205 31.8689 179.136 31.6837C178.533 30.1319 177.178 29.9119 177.121 29.9003C176.75 29.854 176.495 29.5181 176.542 29.1476C176.588 28.7886 176.935 28.5338 177.294 28.5801C177.387 28.5917 179.483 28.8928 180.375 31.2089C180.452 31.4019 180.525 31.5987 180.595 31.7995C181.139 33.3281 181.579 34.324 182.61 34.3703C183.629 34.324 184.069 33.3281 184.613 31.7995C184.69 31.5987 184.764 31.4019 184.833 31.2089C185.725 28.8928 187.832 28.5917 187.925 28.5801C188.284 28.5338 188.62 28.7886 188.666 29.1476C188.712 29.5181 188.458 29.854 188.099 29.9003ZM182.668 35.702C180.93 35.702 179.518 37.1148 179.518 38.8519C179.518 40.5889 180.93 42.0133 182.668 42.0133C184.405 42.0133 185.817 40.5889 185.817 38.8519C185.817 37.1148 184.405 35.702 182.668 35.702Z" fill="white"/>
<path fill-rule="evenodd" clip-rule="evenodd" d="M187.658 115.56C187.543 115.675 186.57 116.683 185.4 116.694C185.393 116.694 185.381 116.694 185.365 116.694C184.821 116.694 184.312 116.474 183.895 116.058C182.69 114.842 183.814 112.41 184.995 109.827C185.724 108.229 186.489 106.573 186.489 105.589C186.489 104.419 186.199 103.528 185.62 102.949C185.041 102.358 184.161 102.069 183.003 102.069C181.972 102.069 181.011 102.52 180.502 103.238C180.004 103.933 179.934 104.825 180.282 105.821C180.849 107.442 181.22 108.808 181.44 109.7C181.602 110.082 181.695 110.487 181.695 110.928C181.695 110.935 181.695 110.939 181.695 110.939C181.683 112.607 180.328 113.962 178.66 113.962C176.993 113.962 175.626 112.595 175.626 110.928C175.626 109.248 176.993 107.893 178.66 107.893C178.985 107.893 179.309 107.94 179.599 108.044C179.436 107.5 179.24 106.898 179.019 106.261C178.533 104.859 178.672 103.516 179.413 102.474C180.178 101.385 181.521 100.725 183.003 100.725C184.509 100.725 185.736 101.165 186.57 101.999C187.404 102.844 187.832 104.049 187.832 105.601C187.821 106.874 187.045 108.577 186.211 110.395C185.447 112.051 184.289 114.552 184.844 115.12C185.064 115.34 185.261 115.363 185.377 115.363C185.898 115.351 186.512 114.83 186.686 114.645C186.929 114.378 187.357 114.367 187.624 114.622C187.89 114.876 187.902 115.293 187.658 115.56ZM180.363 110.974C180.328 110.846 180.27 110.569 180.166 110.152C179.888 109.607 179.321 109.225 178.66 109.225C177.722 109.225 176.97 109.99 176.97 110.928C176.97 111.854 177.722 112.618 178.66 112.618C179.575 112.618 180.328 111.889 180.363 110.974Z" fill="#4867AA"/>
<path fill-rule="evenodd" clip-rule="evenodd" d="M165.667 129.074C165.389 129.711 164.614 130.753 163.398 130.753C163.367 130.753 163.332 130.753 163.293 130.753C162.054 130.683 161.475 130.058 161.209 129.294C160.306 129.803 159.611 130.093 159.541 130.128C159.464 130.158 159.383 130.174 159.298 130.174C159.032 130.174 158.777 130.012 158.673 129.757C158.534 129.41 158.696 129.027 159.044 128.889C159.067 128.877 159.958 128.506 160.989 127.858C160.989 127.804 160.989 127.754 160.989 127.707V120.423V118.408C160.989 117.783 160.479 117.274 159.854 117.274C159.24 117.274 158.731 117.783 158.731 118.408V127.707C158.731 128.078 158.43 128.367 158.059 128.367C157.689 128.367 157.399 128.078 157.399 127.707V118.408C157.399 117.783 156.89 117.274 156.264 117.274C155.639 117.274 155.141 117.783 155.141 118.408V127.707C155.141 128.078 154.84 128.367 154.469 128.367C154.099 128.367 153.798 128.078 153.798 127.707V118.408C153.798 117.783 153.3 117.274 152.674 117.274C152.304 117.274 152.003 116.984 152.003 116.613C152.003 116.243 152.304 115.942 152.674 115.942C153.381 115.942 154.018 116.243 154.469 116.729C154.921 116.243 155.558 115.942 156.264 115.942C156.971 115.942 157.608 116.243 158.059 116.729C158.511 116.243 159.148 115.942 159.854 115.942C161.221 115.942 162.321 117.053 162.321 118.408V119.543C163.93 119.242 164.776 119.798 165.227 120.377C166.42 121.929 165.563 124.824 164.614 126.295C164.035 127.175 163.201 127.927 162.379 128.53C162.541 129.375 162.958 129.398 163.363 129.41C164.011 129.444 164.44 128.553 164.44 128.541C164.59 128.205 164.984 128.043 165.32 128.194C165.656 128.344 165.818 128.738 165.667 129.074ZM162.321 126.874C162.772 126.48 163.178 126.04 163.49 125.565C164.347 124.245 164.822 122.056 164.162 121.188C163.791 120.701 163.027 120.748 162.321 120.91V126.874Z" fill="white"/>
<path d="M116.081 115.953L113.742 114.68L113.765 115.316C112.144 115.085 111.877 114.216 111.831 113.545V104.269C111.831 102.914 110.719 101.814 109.364 101.814C108.658 101.814 108.021 102.115 107.569 102.59C107.118 102.115 106.481 101.814 105.774 101.814C105.068 101.814 104.431 102.115 103.98 102.59C103.528 102.115 102.891 101.814 102.185 101.814C101.814 101.814 101.513 102.115 101.513 102.474C101.513 102.844 101.814 103.146 102.185 103.146C102.798 103.146 103.308 103.655 103.308 104.269V113.568C103.308 113.938 103.609 114.239 103.98 114.239C104.35 114.239 104.64 113.938 104.64 113.568V104.269C104.64 103.655 105.149 103.146 105.774 103.146C106.4 103.146 106.898 103.655 106.898 104.269V113.568C106.898 113.938 107.199 114.239 107.569 114.239C107.94 114.239 108.241 113.938 108.241 113.568V104.269C108.241 103.655 108.739 103.146 109.364 103.146C109.99 103.146 110.488 103.655 110.488 104.269V113.568C110.488 113.583 110.492 113.599 110.499 113.614C110.557 114.645 111.09 116.37 113.8 116.671L113.811 117.331L116.081 115.953Z" fill="white"/>
<path fill-rule="evenodd" clip-rule="evenodd" d="M103.366 60.5417C103.366 62.0819 102.115 63.3326 100.575 63.3326C99.8453 63.3326 99.1852 63.0547 98.6756 62.5915C98.3051 64.0158 97.7608 65.2433 96.6954 65.7181C96.2901 65.9034 95.5258 65.9497 94.8426 65.9497C94.3562 65.9497 93.9046 65.9266 93.6845 65.915C93.314 65.8802 93.0361 65.5676 93.0592 65.197C93.0824 64.8264 93.4066 64.5485 93.7772 64.5717C94.7963 64.6412 95.908 64.6064 96.1511 64.5022C96.927 64.1548 97.3439 62.5567 97.6682 61.0744C95.9659 60.5649 95.9311 58.8626 95.908 58.2604C95.8964 57.5193 95.908 55.4001 95.908 55.3074C95.908 53.9178 94.7731 52.7829 93.3835 52.7829C91.9822 52.7829 90.8474 53.9178 90.8474 55.319V62.9389C90.8474 63.3094 90.5463 63.6105 90.1873 63.6105C89.8167 63.6105 89.5156 63.3094 89.5156 62.9389V53.4314C89.5156 52.8061 89.0061 52.3082 88.3808 52.3082C88.0218 52.3082 87.7207 52.0071 87.7207 51.6365C87.7207 51.2659 88.0218 50.9648 88.3808 50.9648C89.4346 50.9648 90.3263 51.6249 90.6853 52.5513C91.3801 51.8681 92.3297 51.4512 93.3835 51.4512C95.5142 51.4512 97.2513 53.1883 97.2513 55.319C97.2513 55.3422 97.2281 57.5077 97.2513 58.2257C97.2629 59.0942 97.4481 59.5458 97.9114 59.7427C98.2472 58.5962 99.3241 57.7509 100.575 57.7509C102.115 57.7509 103.366 59.0016 103.366 60.5417ZM102.034 60.5417C102.034 59.7427 101.385 59.0942 100.575 59.0942C99.7758 59.0942 99.1273 59.7427 99.1273 60.5417C99.1273 61.3524 99.7758 62.0009 100.575 62.0009C101.385 62.0009 102.034 61.3524 102.034 60.5417Z" fill="white"/>
<path d="M160.85 58.2141L157.828 69.5165L166.108 77.7964L154.794 80.8304L151.76 92.1328L143.48 83.8529L132.177 86.8869L135.211 75.573L126.931 67.3046L138.234 64.2706L141.268 52.9567L149.548 61.2366L160.85 58.2141Z" fill="#F9B233"/>
<path d="M64.456 180.722L64.317 180.641C64.317 180.745 64.1896 181.081 64.097 181.081L59.9281 181.174C59.8239 181.174 59.766 180.988 59.766 180.884L59.407 180.791C59.407 180.166 59.4649 179.934 59.7428 179.448C60.7503 178.105 59.5459 172.083 59.5807 170.508C59.3259 170.08 63.9696 170.415 64.0275 170.311C64.1317 170.311 64.2128 170.404 64.2128 170.508L63.6685 177.387C63.4138 178.695 64.4212 179.483 64.456 180.722Z" fill="#F99370"/>
<path d="M84.1307 181.312H75.8276C75.1096 181.289 75.1096 180.548 75.2486 179.981C75.7002 177.908 74.9012 173.172 74.7507 171.041C74.7043 170.659 75.017 170.311 75.3992 170.311H79.0701C79.4638 170.311 79.7765 170.659 79.7186 171.052L79.0585 176.368C78.6879 178.684 81.4441 179.124 83.019 179.379C84.0496 179.448 85.7751 180.861 84.1307 181.312Z" fill="#F99370"/>
<path d="M74.936 180.456C74.9591 180.861 75.156 181.324 75.6308 181.313H84.235C86.2731 180.56 83.2275 177.873 79.2554 177.885C76.4183 178.661 74.8318 176.46 74.936 180.456Z" fill="#EB5648"/>
<path d="M60.067 181.312H63.7495C65.5445 181.069 64.259 177.63 61.9082 177.885C59.569 177.584 58.2836 181.081 60.067 181.312Z" fill="#EB5648"/>
<path d="M82.4404 175.812C79.3948 177.618 75.249 177.306 71.9834 176.472C71.5433 168.528 70.2579 136.833 70.2116 136.022C69.0999 149.86 68.1156 169.292 66.9575 176.553C63.6571 177.92 59.4535 177.41 56.3037 176.136C55.9215 167.59 56.3384 135.663 59.1293 128.275C65.9269 129.039 73.3267 128.761 80.0548 128.229C83.8068 150.694 83.2162 167.463 82.4404 175.812Z" fill="#3A72AA"/>
<path d="M73.3494 87.6512C73.3494 87.6512 75.3759 86.5163 76.8466 89.1335C78.3057 91.7506 77.2404 92.0054 79.3827 94.8889C81.5251 97.7839 77.8888 101.293 75.5612 101.524C73.2336 101.744 75.2254 104.848 70.7091 104.639C66.2043 104.431 57.5886 90.8473 73.3494 87.6512Z" fill="#C92828"/>
<path d="M61.0512 128.46C60.0784 132.872 57.8782 146.282 58.0056 176.715C57.7045 176.634 57.4265 176.553 57.1949 176.472C57.0791 146.155 59.2215 132.918 60.229 128.391C60.5069 127.14 60.6922 126.549 60.7269 126.457L61.4912 126.711C61.4797 126.735 61.3059 127.267 61.0512 128.46Z" fill="#23659B"/>
<path d="M63.703 128.634C63.1472 133.625 60.6227 157.283 60.9237 177.283C60.6458 177.252 60.3756 177.217 60.1131 177.178C59.8352 157.226 62.3249 133.694 62.904 128.599C62.9734 127.974 63.0082 127.626 63.0198 127.592L63.8188 127.684C63.8072 127.719 63.7725 128.043 63.703 128.634Z" fill="#23659B"/>
<path d="M66.2742 128.263C66.2627 128.286 66.2627 128.437 66.2395 128.715C65.9732 132.849 64.0277 163.768 63.5181 177.329C63.2402 177.352 62.97 177.364 62.7075 177.364C63.2171 163.861 65.1625 132.988 65.4289 128.703C65.452 128.402 65.4636 128.228 65.4636 128.205L66.2742 128.263Z" fill="#23659B"/>
<path d="M68.8448 127.661C68.8217 128.016 68.8023 128.375 68.7869 128.738C67.7215 145.668 66.4477 168.98 66.0192 176.877C65.7413 176.962 65.4672 177.036 65.197 177.097C65.6139 169.454 66.9109 145.854 67.9763 128.738C67.9994 128.36 68.0226 127.985 68.0458 127.615L68.8448 127.661Z" fill="#23659B"/>
<path d="M74.1137 176.912C73.8203 176.873 73.5501 176.831 73.3031 176.785C72.8283 164.023 70.9523 134.644 70.5701 128.715C70.5354 128.066 70.5122 127.696 70.5122 127.661L71.3112 127.615C71.3112 127.649 71.3344 128.032 71.3807 128.703C71.7745 134.737 73.6505 164.255 74.1137 176.912Z" fill="#23659B"/>
<path d="M76.6266 177.109C76.3487 177.109 76.0785 177.101 75.816 177.086C75.4918 163.942 73.361 134.424 72.9325 128.657C72.8862 128.043 72.863 127.707 72.863 127.673L73.6621 127.603C73.6621 127.638 73.6968 127.997 73.7431 128.622C74.1716 134.47 76.3024 163.988 76.6266 177.109Z" fill="#23659B"/>
<path d="M79.2326 176.935C78.9701 176.981 78.7037 177.016 78.4335 177.039C78.3872 163.131 76.0596 135.2 75.4921 128.541C75.4111 127.649 75.3647 127.14 75.3647 127.094L76.1638 127.024C76.1754 127.07 76.2217 127.592 76.2912 128.495C76.8702 135.188 79.1862 162.969 79.2326 176.935Z" fill="#23659B"/>
<path d="M81.4441 176.345C81.1816 176.453 80.9114 176.545 80.6335 176.622C80.703 155.836 78.1785 132.768 77.6689 128.414C77.6226 127.962 77.5879 127.707 77.5879 127.684L78.3869 127.592C78.3985 127.615 78.4217 127.881 78.4796 128.356C78.9891 132.803 81.4904 155.639 81.4441 176.345Z" fill="#23659B"/>
<path d="M72.7708 102.648C72.8866 102.937 74.0793 105.74 74.1488 105.925C76.3722 108.774 80.9696 114.668 83.1583 117.494C82.9846 114.216 79.9737 103.586 73.4077 102.752C73.0024 102.659 72.7708 102.648 72.7708 102.648Z" fill="#F4D4BE"/>
<path d="M58.8161 123.816C58.9203 125.252 57.6928 127.696 59.1288 128.275C59.1288 128.275 72.3882 131.147 80.0543 128.228C80.7144 127.117 79.4985 126.329 79.3132 125.484C77.333 116.486 81.9535 115.166 77.3677 109.133C76.3255 107.708 73.8589 104.211 72.7703 102.648C72.7008 102.659 69.1457 102.972 69.0878 102.983C65.4863 105.635 58.2602 111.576 58.8161 123.816Z" fill="#F4D4BE"/>
<path d="M78.6188 111.205C78.7115 111.205 78.7809 111.09 78.7346 111.009C77.8198 109.538 76.7428 108.044 76.7312 108.032C76.627 107.894 76.4186 108.044 76.5228 108.183C76.546 108.114 77.6577 109.955 78.6188 111.205Z" fill="#C19480"/>
<path d="M78.885 109.596L88.7746 112.549L83.1581 125.727L73.2686 122.763L78.885 109.596Z" fill="#FCB4B4"/>
<path d="M83.158 125.727L89.0639 122.763L94.6803 109.596L88.7744 112.549L83.158 125.727Z" fill="#F49F9F"/>
<path d="M74.7855 115.235C74.9129 115.293 74.9592 115.455 74.8897 115.583C74.7044 115.942 74.5423 116.324 74.4497 116.718C75.1445 116.474 75.7814 116.023 75.7814 116.023C76.4183 115.363 77.0205 114.668 77.5879 113.95C77.7732 113.718 78.1554 113.973 77.9933 114.228C77.53 114.992 77.0205 115.745 76.4878 116.463C76.4878 116.463 76.4917 116.467 76.4994 116.474C77.2984 115.93 78.0627 115.351 78.7807 114.714C80.263 114.436 77.1247 116.926 76.8815 117.146C77.7153 116.776 78.5028 116.301 79.2323 115.733C80.7378 115.606 77.3795 117.864 77.0552 118.003C77.0552 118.003 77.0552 118.007 77.0552 118.015C77.7616 117.806 78.4333 117.517 79.0818 117.192C80.483 117.285 77.3679 118.779 77.0668 118.883C76.7657 119.08 76.2099 119.682 74.5076 119.995C73.9749 120.088 72.9906 119.022 73.0253 118.489C73.0485 117.899 73.5233 117.135 73.6622 116.926C73.8012 116.544 74.3107 115.085 74.7855 115.235Z" fill="#F99370"/>
<path d="M61.8622 105.994C49.5176 119.705 59.6388 131.263 74.2299 119.879C75.0753 119.207 74.3457 117.633 73.3382 117.992C69.2967 119.393 65.4636 119.404 62.7886 118.084C60.6926 117.042 65.1857 113.927 66.5985 112.005C71.1959 107.569 65.5447 102.266 61.8622 105.994Z" fill="#F99370"/>
<path d="M58.8161 123.816C62.0934 125.391 66.7949 124.685 69.4468 123.029C69.4468 123.029 68.2425 121.836 68.7868 118.976C61.6649 117.876 71.2881 110.904 69.0763 102.694C65.6948 102.868 60.8543 102.96 57.0212 111.634C54.1956 118.594 56.1295 122.543 58.8161 123.816Z" fill="#F4D4BE"/>
<path d="M92.4453 115.421C91.7852 115.675 91.4957 114.911 92.1673 114.668C92.8274 114.413 93.1054 115.177 92.4453 115.421Z" fill="#F99370"/>
<path d="M92.3293 116.081C91.6576 116.336 91.3797 115.571 92.0398 115.328C92.6999 115.073 92.9894 115.838 92.3293 116.081Z" fill="#F99370"/>
<path d="M92.0056 116.776C91.3455 117.03 91.056 116.266 91.7276 116.023C92.3877 115.768 92.6657 116.532 92.0056 116.776Z" fill="#F99370"/>
<path d="M91.6582 117.412C90.9981 117.667 90.7086 116.903 91.3802 116.671C92.0403 116.417 92.3298 117.181 91.6582 117.412Z" fill="#F99370"/>
<path d="M88.7744 112.56L87.5237 112.178L92.6537 109.596L93.9623 109.955L88.7744 112.56Z" fill="white"/>
<path d="M79.4985 109.781L80.8071 109.26L89.886 112.004L88.7743 112.56L79.4985 109.781Z" fill="white"/>
<path d="M68.4629 123.527C69.0767 123.249 69.4472 123.029 69.4472 123.029C69.4472 123.029 68.2429 121.836 68.7872 118.976C68.7872 118.976 68.2197 118.906 67.5944 118.663C67.5944 118.663 66.9112 121.94 68.4629 123.527Z" fill="#C19480"/>
<path d="M67.629 118.953C67.768 118.953 67.8027 118.756 67.6869 118.71C65.8225 117.853 65.5678 117.413 66.9226 114.355C68.2081 111.287 69.3198 108.727 68.6481 109.225C68.6365 109.237 68.0459 111.205 66.691 114.251C65.3246 117.32 65.4751 118.015 67.629 118.953Z" fill="#C19480"/>
<path d="M67.9995 102.729C69.6323 110.175 75.8973 113.672 73.4075 102.752C72.9096 102.555 70.1882 102.775 69.6555 102.763C69.9218 102.474 69.0996 102.787 69.0765 102.694C69.0765 102.694 68.6712 102.659 67.9995 102.729Z" fill="#C19480"/>
<path d="M72.7819 101.571C72.7471 103.354 72.805 102.115 73.1293 105.554C73.4767 109.214 72.1913 109.781 70.7206 106.504C70.1416 105.218 69.0762 102.694 69.0762 102.694C69.0762 102.694 69.2499 101.165 69.1804 100.633L72.7819 101.571Z" fill="#F99370"/>
<path d="M72.8981 118.084C72.8981 118.084 72.9212 119.427 73.975 120.111C73.975 120.111 73.8592 120.423 73.4076 120.551C73.4076 120.551 72.1917 119.566 72.2959 118.246C72.2959 118.246 72.4928 117.98 72.8981 118.084Z" fill="#1D3F70"/>
<path d="M72.7936 120.076L73.581 119.694C73.6853 119.636 73.72 119.52 73.6737 119.416L73.28 118.628C73.2336 118.524 73.1063 118.478 73.002 118.536L72.2146 118.918C72.1219 118.976 72.0756 119.103 72.1219 119.207L72.5157 119.983C72.562 120.088 72.6894 120.134 72.7936 120.076Z" fill="#8A9EDD"/>
<path d="M72.8862 119.786C73.0367 119.694 73.5231 119.59 73.3841 119.312C73.2799 119.161 73.1757 118.675 72.9094 118.825C72.7588 118.918 72.2724 119.022 72.4114 119.3C72.5156 119.451 72.6198 119.937 72.8862 119.786Z" fill="#1D3F70"/>
<path d="M86.3426 114.054L86.47 113.66L79.904 111.634L79.7766 112.039L86.3426 114.054Z" fill="#F49F9F"/>
<path d="M85.4277 115.93L85.5435 115.525L79.3017 113.66L79.1743 114.054L85.4277 115.93Z" fill="#F49F9F"/>
<path d="M72.7013 110.904C72.6897 111.472 73.5814 111.472 73.5698 110.904C73.5814 110.349 72.6897 110.349 72.7013 110.904Z" fill="#C19480"/>
<path d="M73.1296 112.607C73.1296 113.163 74.0097 113.163 73.9982 112.607C74.0097 112.039 73.1296 112.039 73.1296 112.607Z" fill="#C19480"/>
<path d="M72.7821 101.571C71.9947 101.582 70.3966 101.49 69.1807 100.633C69.2038 100.525 69.2231 100.413 69.2386 100.297C69.4702 99.2083 69.5397 98.2356 69.586 97.6102C69.6207 96.429 69.4933 95.9542 70.2924 95.2478C70.8598 94.7615 71.7978 94.7036 72.4231 95.1089C74.0444 96.1858 73.0485 98.6061 72.7821 101.571Z" fill="#E57D61"/>
<path d="M75.3529 100.135C73.8706 101.165 71.8788 101.142 70.4081 100.517C70.3155 100.482 70.2344 100.447 70.1533 100.413C67.0035 98.8956 67.0498 93.5571 68.9374 91.1368C70.1186 89.4577 72.6547 88.7976 74.3338 90.083C75.5034 91.021 75.735 92.4338 76.0361 93.9393C76.1403 94.333 76.3835 94.8657 76.6499 95.2478C77.6574 96.7649 77.2752 98.7451 75.3529 100.135Z" fill="#F99370"/>
<path d="M71.7513 92.6655C68.9026 93.0129 68.7868 95.2363 68.7868 95.2363L67.9414 93.893L70.987 90.2568L73.442 89.5967C73.9863 89.782 74.4611 90.1062 74.8201 90.5578C74.8201 90.5578 74.5885 92.318 71.7513 92.6655Z" fill="#E57D61"/>
<path d="M74.3337 90.083C74.4032 87.5701 69.5279 82.3705 64.4789 88.0449C60.8079 92.5959 52.308 96.7532 58.3645 100.818C60.7848 101.733 58.3645 103.736 59.7541 105.253C61.1553 106.77 63.5409 106.052 63.0892 108.947C62.6376 111.854 64.3399 112.861 66.3665 113.081C68.3814 113.301 71.7513 108.368 69.8174 106.075C67.8719 103.782 70.0953 102.671 69.47 100.007C68.8562 97.3438 67.6866 96.649 67.6866 96.649L68.5783 94.4488C69.192 91.5769 73.9863 92.7696 74.3337 90.083Z" fill="#C92828"/>
<path d="M66.5286 95.271C66.5865 97.1123 68.7867 97.0775 68.7867 95.2363C68.7288 93.3834 66.5286 93.4182 66.5286 95.271Z" fill="#F99370"/>
<path d="M74.7506 97.9461L72.9441 96.4869C72.4462 97.7955 73.5694 98.8609 74.7506 97.9461Z" fill="#F9F8F3"/>
<path d="M67.0382 95.7458C67.0961 95.7458 67.1308 95.6994 67.1308 95.6415C66.9803 94.6225 67.4435 94.333 68.0457 94.7151C68.1499 94.773 68.2425 94.6225 68.1383 94.553C67.4666 94.113 66.7603 94.4604 66.9455 95.6647C66.9571 95.711 66.9919 95.7458 67.0382 95.7458Z" fill="#C16256"/>
<path d="M67.8953 95.7805C68.1269 95.7689 67.7911 94.8657 67.131 94.6804C67.0847 94.6688 67.0268 94.692 67.0152 94.7499C67.0036 94.7962 67.0383 94.8425 67.0847 94.8541C67.7795 95.0625 67.6984 95.7342 67.8953 95.7805Z" fill="#C16256"/>
<path d="M73.7665 94.8772C73.9634 94.6341 73.5697 94.333 73.3844 94.5762C73.1991 94.8193 73.5812 95.1204 73.7665 94.8772Z" fill="#C16256"/>
<path d="M75.8046 94.9236C75.9899 94.6804 75.6077 94.3909 75.4225 94.6341C75.2256 94.8772 75.6077 95.1783 75.8046 94.9236Z" fill="#C16256"/>
<path d="M74.7739 98.0155C74.8549 98.0155 74.8897 97.8997 74.8202 97.8534L72.9905 96.4175C72.9558 96.3827 72.8979 96.3943 72.8631 96.429C72.84 96.4754 72.84 96.5333 72.8863 96.5564C72.9442 96.5796 74.6928 98.0271 74.7739 98.0155Z" fill="#C16256"/>
<path d="M74.8898 96.8459C75.2719 96.8344 75.7467 96.6607 75.3414 96.2553C74.9477 95.9311 74.7971 94.9468 74.7971 94.9352C74.4034 94.4951 74.7856 96.0585 75.2256 96.3943C75.5383 96.6722 74.774 96.7417 74.4961 96.568C74.4497 96.5449 74.3918 96.568 74.3687 96.6143C74.3339 96.8344 74.7161 96.8228 74.8898 96.8459Z" fill="#C16256"/>
<path d="M63.4021 124.882C62.1283 124.882 60.6576 124.662 59.0247 124.06C58.9321 124.025 58.8974 123.932 58.9205 123.851C58.9553 123.77 59.0479 123.724 59.129 123.758C64.7107 125.82 68.3121 123.261 68.3469 123.226C68.4279 123.179 68.5206 123.191 68.5785 123.261C68.6248 123.342 68.6132 123.434 68.5437 123.492C68.5206 123.515 66.5983 124.882 63.4021 124.882Z" fill="#C19480"/>
<path d="M72.8514 94.3214C72.8167 94.3214 72.7819 94.3098 72.7588 94.2751C72.7124 94.2288 72.7124 94.1593 72.7703 94.113C72.7819 94.0898 73.303 93.6034 74.0442 93.615C74.1021 93.615 74.16 93.6729 74.16 93.7308C74.16 93.8003 74.1021 93.8582 74.0326 93.8582C74.0249 93.8582 74.0171 93.8582 74.0094 93.8582C73.3841 93.8582 72.9325 94.2751 72.9325 94.2867C72.9093 94.3098 72.8823 94.3214 72.8514 94.3214Z" fill="#C16256"/>
<path d="M75.99 94.2519C75.9552 94.2519 75.9205 94.2403 75.8973 94.2172C75.5615 93.8003 75.0635 93.8582 75.0635 93.8582C74.9941 93.8582 74.9362 93.8119 74.9246 93.7424C74.913 93.6845 74.9709 93.615 75.0288 93.615C75.0635 93.615 75.6657 93.5455 76.0826 94.0551C76.1289 94.113 76.1174 94.1824 76.071 94.2288C76.0479 94.2442 76.0208 94.2519 75.99 94.2519Z" fill="#C16256"/>
<path d="M220.547 109.341C215.81 113.44 208.746 114.737 203.5 110.742C201.937 109.596 200.362 107.766 199.262 105.844L200.559 103.759C210.773 110.059 214.826 99.3009 223.141 98.4556C223.141 98.4556 220.685 109.179 220.547 109.341Z" fill="#1D3F70"/>
<path d="M229.961 181.197L230.112 181.116C230.112 181.22 230.251 181.602 230.355 181.602L234.976 181.695C235.08 181.695 235.149 181.486 235.149 181.382L235.543 181.266C235.543 180.571 235.485 180.328 235.184 179.795C234.061 178.302 235.393 171.631 235.358 169.894C235.636 169.42 230.506 169.79 230.436 169.674C230.32 169.674 230.228 169.779 230.228 169.894L230.842 177.503C231.108 178.95 229.996 179.83 229.961 181.197Z" fill="#F99370"/>
<path d="M209.962 181.857H219.157C219.956 181.822 219.945 181 219.806 180.375C219.296 178.082 220.188 172.836 220.35 170.485C220.396 170.056 220.06 169.674 219.632 169.674H215.579C215.139 169.674 214.791 170.068 214.849 170.497L215.59 176.379C215.984 178.939 212.938 179.425 211.201 179.703C210.055 179.784 208.144 181.347 209.962 181.857Z" fill="#F99370"/>
<path d="M220.153 180.907C220.13 181.347 219.898 181.868 219.377 181.857H209.846C207.6 181.023 210.97 178.035 215.37 178.058C218.497 178.915 220.257 176.472 220.153 180.907Z" fill="#3A72AA"/>
<path d="M234.813 181.857H230.737C228.757 181.579 230.181 177.781 232.775 178.047C235.369 177.723 236.794 181.59 234.813 181.857Z" fill="#3A72AA"/>
<path d="M221.855 87.9754C221.855 87.9754 221.809 84.9993 224.507 84.4666L225.92 85.9373L221.855 87.9754Z" fill="#1D3F70"/>
<path d="M236.006 176.657C236.006 176.657 231.652 177.711 229.417 176.576C228.259 169.269 225.017 148.934 223.893 134.991C223.847 135.802 221.485 168.586 221.033 176.576C219.493 177.097 216.378 177.723 214.641 176.472C213.865 168.053 211.352 140.353 215.127 117.725C215.127 117.725 225.48 118.872 233.574 116.428C235.798 123.608 236.388 168.041 236.006 176.657Z" fill="#EB5648"/>
<path d="M216.32 175.766C215.254 151.586 217.686 130.788 217.327 130.533C216.69 130.591 214.235 151.574 216.32 175.766Z" fill="#CE3932"/>
<path d="M232.578 175.766C232.162 150.914 228.467 127.383 227.912 127.29C227.495 127.603 231.119 150.868 232.578 175.766Z" fill="#CE3932"/>
<path d="M223.059 98.3745C222.839 96.4059 223.14 93.5687 223.418 92.3991C223.916 90.0946 227.576 90.9863 226.962 93.2445C226.846 93.175 226.464 97.3555 226.73 98.5135C230.158 99.5441 219.84 102.937 223.059 98.3745Z" fill="#F99370"/>
<path d="M226.997 93.0591C226.989 93.1209 226.978 93.1827 226.962 93.2444C226.881 93.1981 226.638 95.5026 226.638 97.1701C225.063 97.8881 223.314 97.5755 222.99 97.506C222.955 95.3868 223.152 93.4529 223.465 92.2485C224.102 90.1872 227.321 90.9399 226.997 93.0591Z" fill="#E57D61"/>
<path d="M229.44 92.2022C228.919 93.7771 228.074 95.5142 226.626 96.3711C226.036 96.7185 225.376 96.8922 224.681 96.9154C220.813 97.4365 216.991 92.1675 220.477 89.5387C221.056 89.1334 221.554 88.5428 221.855 87.9754C224.97 81.9884 231.339 86.69 229.44 92.2022Z" fill="#F99370"/>
<path d="M221.357 92.816L223.65 92.0748C223.662 93.3834 222.133 94.0087 221.357 92.816Z" fill="#F9F8F3"/>
<path d="M216.343 106.712L214.745 112.56C211.329 113.614 207.692 113.371 204.485 111.402C208.005 113.394 212.869 112.271 213.633 111.101C214.432 109.862 216.227 106.886 216.343 106.712Z" fill="#103663"/>
<path d="M235.08 126.202C234.709 126.65 234.316 127.101 233.899 127.557C233.899 127.557 231.861 127.939 230.274 125.82C236.759 112.039 224.218 110.765 226.73 98.5134C235.115 99.5093 246.764 112.016 235.08 126.202Z" fill="#1D3F70"/>
<path d="M223.43 90.2104C223.326 89.9093 223.8 89.7472 223.893 90.0599C223.997 90.361 223.523 90.5115 223.43 90.2104Z" fill="#C16256"/>
<path d="M221.427 89.5272C221.323 89.2261 221.797 89.0756 221.89 89.3766C221.994 89.6893 221.519 89.8399 221.427 89.5272Z" fill="#C16256"/>
<path d="M229.44 92.2022C228.919 93.7771 228.074 95.5142 226.626 96.3711C226.502 96.4483 226.379 96.514 226.255 96.568C227.379 95.7574 228.282 93.7772 228.282 93.7772L228.328 91.9822C227.02 90.1409 227.981 88.4618 227.981 88.4618C225.236 88.7745 224.611 87.0143 224.611 87.0143C223.766 86.9911 222.955 86.4352 222.955 86.4352C226.73 82.6485 231.073 88.0565 229.44 92.2022Z" fill="#E57D61"/>
<path d="M221.357 92.9202C221.404 92.8623 223.859 92.2254 223.743 92.0517C223.789 91.8201 221.369 92.7697 221.322 92.7349C221.23 92.7581 221.253 92.9202 221.357 92.9202Z" fill="#C16256"/>
<path d="M222.017 91.7969C222.179 91.8548 222.318 91.6232 222.11 91.6116C221.774 91.6695 221.056 91.3337 221.45 91.16C222.029 90.9747 222.92 89.6661 222.399 89.8977C222.388 89.9093 221.89 90.8126 221.392 90.9863C220.709 91.3337 221.542 91.7969 222.017 91.7969Z" fill="#C16256"/>
<path d="M235.08 126.202C234.709 126.65 234.315 127.101 233.898 127.557C233.898 127.557 231.826 127.846 230.228 125.727C230.471 125.16 230.725 124.789 230.922 124.222C230.922 124.222 232.15 125.6 235.08 126.202Z" fill="#103663"/>
<path d="M234.037 127.823C234.478 127.962 234.941 127.441 234.35 127.29C231.119 127.429 230.262 125.299 230.228 125.206C228.826 124.419 230.552 128.02 234.037 127.823Z" fill="#CE3932"/>
<path d="M213.622 127.453C213.622 127.453 214.259 130.162 219.319 131.494C220.767 131.888 221.612 131.691 221.82 130.684C221.925 130.186 222.203 129.305 222.712 128.981C222.712 128.981 223.835 129.468 224.264 130.162C225.202 131.679 226.615 130.301 227.298 128.715C228.155 126.746 230.309 125.067 230.772 123.423L213.622 127.453Z" fill="#F4D4BE"/>
<path d="M234.246 124.094C234.084 124.384 233.991 124.338 233.817 124.175C229.266 120.771 227.645 128.194 222.747 128.333C217.755 128.819 214.988 129.109 213.621 127.453C211.259 123.77 215.023 107.349 218.08 103.366C219.411 101.293 221.785 99.4515 223.059 98.3861C223.036 98.4903 222.353 101.316 226.73 98.5135C226.95 98.6061 228.34 99.961 228.247 100.691C228.467 104.014 236.365 120.354 234.246 124.094Z" fill="#1D3F70"/>
<path d="M221.624 83.737C221.624 83.737 222.909 83.378 224.218 83.8992C224.368 83.4012 224.681 82.938 225.179 82.5674C225.387 83.1812 225.7 83.7602 226.047 84.3045C226.163 83.158 226.869 82.2432 226.869 82.2432C227.055 83.3317 228.56 84.1192 229.278 85.3004L229.313 85.2425C229.313 85.2425 233.296 86.6784 230.425 90.2104C230.309 91.519 229.672 92.8391 229.672 92.8391C227.553 90.9052 228.016 88.5892 228.965 87.987C227.252 88.6007 225.711 87.8712 224.854 86.7363C223.569 86.5163 222.006 85.8215 221.624 83.737Z" fill="#1D3F70"/>
<path d="M231.617 125.137L230.621 124.928C234.605 115.965 229.915 112.167 227.437 107.118C233.192 113.765 234.061 117.412 231.617 125.137Z" fill="#103663"/>
<path d="M230.332 93.1865C229.672 94.9583 227.448 94.1014 228.155 92.3412C228.803 90.5694 231.038 91.4263 230.332 93.1865Z" fill="#F99370"/>
<path d="M229.706 93.4644C230.112 93.0476 230.112 92.3296 229.926 92.1327C229.591 91.7853 228.942 91.82 228.942 92.0285C229.035 92.2254 229.463 91.8895 229.776 92.2485C230.112 92.5149 229.44 93.3602 229.706 93.4644Z" fill="#C16256"/>
<path d="M228.861 93.1982C229 93.1866 229.232 92.5381 229.95 92.5844C229.996 92.5844 230.042 92.5497 230.054 92.5033C229.591 92.0285 228.444 93.2097 228.861 93.1982Z" fill="#C16256"/>
<path d="M228.074 98.7566C228.097 100.424 223.812 101.895 223.569 101.895L223.06 100.378C222.399 100.54 221.82 101.466 221.82 101.466C219.921 99.6599 221.705 98.085 223.06 98.3745C223.06 98.3745 223.06 98.3783 223.06 98.3861C223.036 98.4903 222.735 100.968 226.719 98.4324C227.228 98.1892 228.074 98.7566 228.074 98.7566Z" fill="#F4D4BE"/>
<path d="M221.033 176.576C221.033 176.576 220.477 176.785 219.689 176.935C219.689 176.935 221.878 144.406 222.202 140.064C222.527 135.721 223.893 134.991 223.893 134.991C223.893 134.991 220.998 175.881 221.033 176.576Z" fill="#CE3932"/>
<path d="M221.125 175.001C221.067 175.939 221.033 176.507 221.033 176.576C219.493 177.097 216.377 177.723 214.64 176.472C214.64 176.472 214.583 175.951 214.501 175.001C214.501 175.001 217.547 176.402 221.125 175.001Z" fill="#CE3932"/>
<path d="M236.006 176.657C236.006 176.657 231.652 177.711 229.417 176.576C229.417 176.576 229.324 176.009 229.162 175.001C229.162 175.001 232.127 175.858 235.96 175.001C235.971 175.986 235.983 176.576 236.006 176.657Z" fill="#CE3932"/>
<path d="M201.682 104.35C201.682 105.682 199.864 106.805 199.864 106.805C199.667 106.492 199.459 106.168 199.262 105.844L200.559 103.759C200.945 103.968 201.319 104.165 201.682 104.35Z" fill="#103663"/>
<path d="M198.66 99.9958C198.162 100.32 198.984 101.304 198.926 101.849C198.092 101.466 197.374 100.853 197.363 100.853C196.656 99.9726 195.996 99.0694 195.383 98.1313C193.854 97.425 196.274 100.887 196.46 101.304C196.452 101.312 196.448 101.316 196.448 101.316C195.522 100.586 194.653 99.7873 193.842 98.9304C192.129 98.5714 195.591 101.733 195.904 102.103C195.904 102.111 195.904 102.115 195.904 102.115C194.919 101.559 194.005 100.887 193.182 100.135C191.422 99.9263 195.174 102.868 195.591 103.134C195.591 103.134 195.591 103.138 195.591 103.146C194.85 103.041 193.31 101.663 192.823 101.999C192.36 102.752 197.386 105.462 199.158 105.809C199.795 105.983 200.71 104.385 200.547 103.759C200.408 103.169 200.003 102.451 199.864 102.184C199.644 101.571 199.389 100.054 198.66 99.9958Z" fill="#F99370"/>
<path d="M203.489 110.731C203.543 110.769 203.597 110.812 203.651 110.858C203.593 110.812 203.547 110.777 203.5 110.742C203.489 110.731 203.489 110.731 203.489 110.731Z" fill="#395B96"/>
<path d="M224.762 90.1409C224.777 90.1409 224.789 90.1409 224.796 90.1409C224.854 90.1294 224.889 90.0715 224.866 90.0136C224.866 89.9788 224.657 89.2145 223.546 88.8324C223.488 88.8208 223.43 88.8439 223.407 88.9018C223.384 88.9597 223.418 89.0176 223.476 89.0408C224.472 89.3766 224.657 90.0367 224.657 90.0599C224.68 90.1178 224.715 90.1409 224.762 90.1409Z" fill="#C16256"/>
<path d="M221.531 88.7513C221.554 88.7513 221.577 88.7436 221.6 88.7281C222.029 88.3691 222.666 88.6818 222.666 88.6818C222.724 88.705 222.782 88.6818 222.816 88.6355C222.839 88.5776 222.816 88.5197 222.758 88.4849C222.735 88.4734 221.994 88.1028 221.461 88.566C221.415 88.6007 221.415 88.6702 221.45 88.7165C221.473 88.7397 221.496 88.7513 221.531 88.7513Z" fill="#C16256"/>
</svg>
