<svg width="43" height="61" viewBox="0 0 43 61" fill="none" xmlns="http://www.w3.org/2000/svg">
<path d="M6.41878 12.5296H35.1962H36.5862C38.13 12.5296 39.5299 13.1601 40.5476 14.1777C41.5653 15.1954 42.1957 16.5953 42.1957 18.1392V52.402C42.1957 53.9459 41.5653 55.3458 40.5476 56.3634C39.5399 57.3662 38.1598 57.9967 36.6358 58.0066V59.0044C36.6358 60.1064 35.7373 61.005 34.6353 61.005C33.5332 61.005 32.6347 60.1064 32.6347 59.0044V58.0116H10.3752V59.0044C10.3752 60.1064 9.47672 61.005 8.37467 61.005C7.27262 61.005 6.3741 60.1064 6.3741 59.0044V58.0066C4.8501 57.9917 3.46509 57.3662 2.46232 56.3634C1.44466 55.3408 0.814209 53.9409 0.814209 52.3971V18.1342C0.814209 16.5903 1.44466 15.1904 2.46232 14.1728C3.47502 13.1601 4.87988 12.5296 6.41878 12.5296ZM9.56608 0H33.6126C33.8906 0 34.119 0.228353 34.119 0.506348V3.76286C34.119 4.04085 33.8906 4.26921 33.6126 4.26921H30.0037V10.9212H27.879V4.26424H15.533V10.9212H13.4084V4.26424H9.56608C9.28808 4.26424 9.05973 4.03589 9.05973 3.75789V0.506348C9.0647 0.228353 9.29305 0 9.56608 0ZM25.4267 22.7856V25.3223C25.4267 25.5656 25.3274 25.789 25.1685 25.9478C25.0047 26.1067 24.7863 26.2109 24.543 26.2109H19.0328C18.7896 26.2109 18.5662 26.1117 18.4073 25.9528C18.2485 25.7939 18.1492 25.5706 18.1492 25.3273V22.7856H13.5623C12.2964 22.7856 11.2837 22.2942 10.4944 21.5049C9.63062 20.6411 9.05973 19.4249 8.7172 18.1392L7.69954 14.282H6.41878C5.36141 14.282 4.39836 14.7139 3.6984 15.4138C2.99845 16.1138 2.56657 17.0768 2.56657 18.1342V52.3971C2.56657 53.4544 2.99845 54.4175 3.6984 55.1174C4.39836 55.8174 5.36141 56.2493 6.41878 56.2493H36.5862C37.6436 56.2493 38.6066 55.8174 39.3066 55.1174C40.0065 54.4175 40.4384 53.4544 40.4384 52.3971V18.1342C40.4384 17.0768 40.0065 16.1138 39.3066 15.4138C38.6066 14.7139 37.6436 14.282 36.5862 14.282H35.9061L35.092 18.0994C34.814 19.4001 34.2431 20.6163 33.3793 21.4801C32.5701 22.2892 31.5227 22.7906 30.2419 22.7906H25.4267V22.7856ZM9.91854 49.8455C9.43701 49.8455 9.04484 49.4533 9.04484 48.9718C9.04484 48.4902 9.43701 48.0981 9.91854 48.0981H33.2205C33.702 48.0981 34.0942 48.4902 34.0942 48.9718C34.0942 49.4533 33.702 49.8455 33.2205 49.8455H9.91854ZM9.91854 41.3865C9.43701 41.3865 9.04484 40.9943 9.04484 40.5128C9.04484 40.0312 9.43701 39.6391 9.91854 39.6391H33.2205C33.702 39.6391 34.0942 40.0312 34.0942 40.5128C34.0942 40.9943 33.702 41.3865 33.2205 41.3865H9.91854ZM9.91854 32.9275C9.43701 32.9275 9.04484 32.5353 9.04484 32.0538C9.04484 31.5723 9.43701 31.1801 9.91854 31.1801H33.2205C33.702 31.1801 34.0942 31.5723 34.0942 32.0538C34.0942 32.5353 33.702 32.9275 33.2205 32.9275H9.91854ZM9.51147 14.282L10.41 17.6924C10.6781 18.7051 11.105 19.6383 11.7354 20.2638C12.207 20.7354 12.8127 21.0333 13.5623 21.0333H30.2469C31.0213 21.0333 31.6567 20.7255 32.1482 20.234C32.7638 19.6185 33.1807 18.715 33.3892 17.7321L34.1239 14.277H9.51147V14.282Z" fill="#E654A0"/>
</svg>
