<svg width="78" height="78" viewBox="0 0 78 78" fill="none" xmlns="http://www.w3.org/2000/svg">
<rect width="78" height="78" rx="39" fill="#E654A0"/>
<g clip-path="url(#clip0_1782_475)">
<path d="M29.199 27.3815H47.301H48.1753C49.1464 27.3815 50.027 27.7781 50.6672 28.4183C51.3073 29.0584 51.7039 29.939 51.7039 30.9101V52.4626C51.7039 53.4337 51.3073 54.3143 50.6672 54.9544C50.0333 55.5852 49.1652 55.9818 48.2065 55.988V56.6157C48.2065 57.3089 47.6413 57.8741 46.9481 57.8741C46.2549 57.8741 45.6897 57.3089 45.6897 56.6157V55.9911H31.6878V56.6157C31.6878 57.3089 31.1226 57.8741 30.4294 57.8741C29.7361 57.8741 29.1709 57.3089 29.1709 56.6157V55.988C28.2123 55.9786 27.3411 55.5852 26.7103 54.9544C26.0702 54.3112 25.6736 53.4306 25.6736 52.4594V30.907C25.6736 29.9359 26.0702 29.0553 26.7103 28.4151C27.3473 27.7781 28.231 27.3815 29.199 27.3815ZM31.1788 19.5H46.3048C46.4797 19.5 46.6234 19.6436 46.6234 19.8185V21.867C46.6234 22.0418 46.4797 22.1855 46.3048 22.1855H44.0347V26.3698H42.6982V22.1823H34.9322V26.3698H33.5957V22.1823H31.1788C31.0039 22.1823 30.8603 22.0387 30.8603 21.8638V19.8185C30.8634 19.6436 31.007 19.5 31.1788 19.5ZM41.1556 33.8329V35.4286C41.1556 35.5816 41.0932 35.7221 40.9932 35.822C40.8902 35.9219 40.7528 35.9875 40.5998 35.9875H37.1337C36.9807 35.9875 36.8401 35.9251 36.7402 35.8251C36.6403 35.7252 36.5778 35.5847 36.5778 35.4317V33.8329H33.6925C32.8962 33.8329 32.2592 33.5238 31.7627 33.0273C31.2194 32.4839 30.8603 31.7189 30.6448 30.9101L30.0047 28.4838H29.199C28.5339 28.4838 27.9281 28.7555 27.4878 29.1958C27.0475 29.6361 26.7759 30.2419 26.7759 30.907V52.4594C26.7759 53.1246 27.0475 53.7304 27.4878 54.1706C27.9281 54.6109 28.5339 54.8826 29.199 54.8826H48.1753C48.8404 54.8826 49.4462 54.6109 49.8865 54.1706C50.3268 53.7304 50.5985 53.1246 50.5985 52.4594V30.907C50.5985 30.2419 50.3268 29.6361 49.8865 29.1958C49.4462 28.7555 48.8404 28.4838 48.1753 28.4838H47.7475L47.2354 30.8851C47.0605 31.7033 46.7014 32.4683 46.1581 33.0117C45.6491 33.5206 44.9902 33.836 44.1846 33.836H41.1556V33.8329ZM31.4005 50.8544C31.0976 50.8544 30.8509 50.6077 30.8509 50.3048C30.8509 50.0019 31.0976 49.7552 31.4005 49.7552H46.0582C46.3611 49.7552 46.6077 50.0019 46.6077 50.3048C46.6077 50.6077 46.3611 50.8544 46.0582 50.8544H31.4005ZM31.4005 45.5334C31.0976 45.5334 30.8509 45.2867 30.8509 44.9838C30.8509 44.6809 31.0976 44.4343 31.4005 44.4343H46.0582C46.3611 44.4343 46.6077 44.6809 46.6077 44.9838C46.6077 45.2867 46.3611 45.5334 46.0582 45.5334H31.4005ZM31.4005 40.2125C31.0976 40.2125 30.8509 39.9658 30.8509 39.6629C30.8509 39.36 31.0976 39.1133 31.4005 39.1133H46.0582C46.3611 39.1133 46.6077 39.36 46.6077 39.6629C46.6077 39.9658 46.3611 40.2125 46.0582 40.2125H31.4005ZM31.1444 28.4838L31.7096 30.6291C31.8783 31.2661 32.1468 31.8532 32.5434 32.2466C32.84 32.5433 33.221 32.7306 33.6925 32.7306H44.1877C44.6748 32.7306 45.0745 32.537 45.3837 32.2279C45.7709 31.8407 46.0332 31.2723 46.1643 30.6541L46.6265 28.4807H31.1444V28.4838Z" fill="white"/>
</g>
<defs>
<clipPath id="clip0_1782_475">
<rect width="38.371" height="38.371" fill="white" transform="translate(19.5 19.5)"/>
</clipPath>
</defs>
</svg>
