<svg width="47" height="43" viewBox="0 0 47 43" fill="none" xmlns="http://www.w3.org/2000/svg">
    <path
        d="M42.2012 4.18486C37.1119 -0.904434 29.1052 -1.36278 23.4444 2.86977C17.8407 -1.36278 9.83503 -0.904434 4.74478 4.18486C-0.858936 9.78853 -0.858936 18.8811 4.74478 24.5419L21.9001 41.6972C22.7579 42.5549 24.1881 42.5549 25.0458 41.6972L42.2582 24.4848C47.8048 18.9382 47.8048 9.78853 42.2012 4.18486ZM39.1126 7.32948C43.0018 11.2177 43.0018 17.508 39.1126 21.3973L27.9622 32.5476C27.5048 29.8032 26.1317 27.0009 24.8736 24.4278C21.9001 18.3087 19.384 12.9912 25.0458 7.32948C25.1028 7.27242 25.1599 7.21535 25.2169 7.1013C29.1052 3.44124 35.2814 3.55531 39.1126 7.32948Z"
        fill="url(#paint0_linear_1_10791)" />
    <defs>
        <linearGradient id="paint0_linear_1_10791" x1="8.7638" y1="-0.561232" x2="48.8259" y2="1.8121"
            gradientUnits="userSpaceOnUse">
            <stop stop-color="#FFFFFF" />
            <stop offset="1" stop-color="#FFFF" />
        </linearGradient>
    </defs>
</svg>