<svg width="27" height="27" viewBox="0 0 27 27" fill="none" xmlns="http://www.w3.org/2000/svg">
<path d="M25.3357 7.43801C23.2239 3.87245 18.7817 2.42232 15.0449 3.95461C12.4953 0.81175 7.95577 -0.12534 4.33288 1.93864C0.403929 4.20947 -0.922865 9.27667 1.38903 13.1816L8.50471 25.1938L9.15759 26.2977L22.4005 18.6478C26.3554 16.4192 27.6736 11.3852 25.3357 7.43801ZM21.1095 16.5159L13.2494 21.0569C13.3821 19.4419 13.0311 17.7368 12.6963 16.1069C11.9213 12.282 11.2614 8.9891 15.2762 6.66874L15.5322 6.52085C18.214 5.14222 21.5893 6.09805 23.1482 8.72995C24.7567 11.4457 23.8425 14.937 21.1095 16.5159Z" fill="url(#paint0_linear_3_78)"/>
<defs>
<linearGradient id="paint0_linear_3_78" x1="7.29295" y1="-0.110693" x2="29.4037" y2="7.08794" gradientUnits="userSpaceOnUse">
<stop stop-color="#FD4C67"/>
<stop offset="1" stop-color="#FC5F59"/>
</linearGradient>
</defs>
</svg>
