<svg width="260" height="198" viewBox="0 0 260 198" fill="none" xmlns="http://www.w3.org/2000/svg">
<path d="M0 190.419C0 194.587 58.185 197.974 129.831 197.974C201.477 197.974 259.662 194.587 259.662 190.419C259.662 186.25 201.477 182.863 129.831 182.863C58.185 182.863 0 186.25 0 190.419Z" fill="#D6B6F9"/>
<path opacity="0.2" d="M238.991 158.026C238.036 140.136 229.178 117.643 214.241 107.656C205.036 101.49 193.312 99.3191 184.974 91.7631C177.159 84.7294 175.074 73.9602 172.556 64.3206C167.432 44.6939 158.314 25.2409 142.248 12.9954C112.026 -10.0183 66.9543 -0.639474 42.8989 26.8041C31.088 40.264 23.6194 57.5466 22.3168 75.4364C20.7536 96.0191 19.7115 116.688 21.8826 137.27C22.5774 144.044 23.8799 151.512 26.2247 158.547C28.1353 164.191 30.7406 169.489 34.3011 173.832C39.7726 180.171 46.1121 183.037 50.7146 184.339C51.0622 184.426 51.4098 184.513 51.7563 184.6C54.2754 185.121 56.7934 185.382 59.3125 185.469H174.032C184.193 185.469 194.354 185.469 204.514 185.469C208.162 185.469 211.81 185.469 215.457 185.469H225.184C225.53 185.469 225.791 185.469 225.965 185.469C226.66 185.382 227.267 185.208 227.789 184.948C229.526 184.252 230.828 182.689 232.044 181.213C237.081 174.961 238.904 168.013 238.904 160.978C239.078 160.023 238.991 159.068 238.991 158.026Z" fill="#A6A6C9"/>
<path opacity="0.2" d="M232.218 181.213C237.255 174.96 239.078 168.013 239.078 160.979C239.078 160.023 239.078 159.068 238.992 158.025C238.124 154.031 236.387 150.297 233.868 147.083C226.66 138.138 214.675 134.057 203.212 134.057C194.094 134.057 184.889 136.315 175.943 134.665C161.354 131.885 150.846 119.554 140.424 108.959C125.14 93.4141 106.469 79.6054 84.8443 77.0863C56.7067 73.8731 27.962 92.545 23.1856 121.03C19.3645 143.436 25.8778 177.306 50.8886 184.426C51.2362 184.513 51.5838 184.6 51.9303 184.687C54.4494 185.208 56.9674 185.469 59.4865 185.556H174.206C184.367 185.556 194.528 185.556 204.688 185.556C208.336 185.556 211.984 185.556 215.631 185.556H225.358C225.704 185.556 225.965 185.556 226.139 185.556C226.834 185.469 227.441 185.295 227.963 185.034C229.7 184.167 231.002 182.689 232.218 181.213Z" fill="#D6B6F9"/>
<path d="M144.16 189.985H146.765L151.454 131.191H148.937L144.16 189.985Z" fill="white"/>
<path d="M106.037 189.811H108.642L115.936 131.016H113.418L106.037 189.811Z" fill="white"/>
<path d="M190.62 190.418H188.015L176.898 122.246H179.504L190.62 190.418Z" fill="white"/>
<path d="M143.986 80.9077L136.344 105.137L113.157 130.496L148.849 133.97L175.858 120.77L179.244 90.9818C174.816 88.3769 170.126 86.2924 165.263 84.6423C158.402 82.4709 151.195 81.1684 143.986 80.9077Z" fill="#34347F"/>
<path d="M185.064 66.8396H148.937L143.988 80.9079C151.196 81.1686 158.404 82.3841 165.264 84.7294C170.127 86.3794 174.818 88.4629 179.246 91.0688L180.81 77.2602L185.064 66.8396Z" fill="#4F4FAA"/>
<path d="M163.092 52.3357C163.873 56.1572 161.355 59.9787 161.615 63.886C161.788 66.4051 163.092 68.5754 163.786 71.0077C165.696 77.6947 162.136 85.5973 155.796 88.4629C151.107 90.6344 145.635 90.1999 140.598 88.9843C135.822 87.9426 131.132 86.2057 127.486 82.9924C123.838 79.7793 121.493 74.7422 122.449 70.0517C123.317 65.5361 126.964 61.5419 126.095 57.0252C125.488 53.812 122.795 51.294 122.708 47.9939C122.708 45.6486 124.099 43.5652 124.273 41.2199C124.532 37.8329 122.014 34.8804 120.451 31.8411C117.064 25.2409 118.193 16.6431 123.056 11.0846C128.006 5.52725 136.43 3.52958 143.378 6.13445C150.325 8.74043 155.275 15.8609 155.275 23.2432C155.275 26.3695 154.494 29.4089 154.146 32.4483C153.799 35.4877 153.799 38.7878 155.188 41.5675C157.359 45.6486 162.136 47.9939 163.092 52.3357Z" fill="#720F5B"/>
<path d="M116.719 90.1128L126.879 74.1338L118.543 73.092L115.156 77.1732L116.719 90.1128Z" fill="#F8D4C4"/>
<path d="M114.549 66.7516L116.895 67.6206L116.808 60.4121L120.367 57.0251L117.241 48.8618L114.549 49.6439C113.767 49.9046 113.16 50.5988 113.16 51.4678V58.4156L112.465 61.8014C113.941 63.1919 114.723 65.0158 114.549 66.7516Z" fill="#EFB9A3"/>
<path d="M109.252 78.0422L107.428 86.9866C106.82 89.8533 108.904 92.6319 111.857 92.8926C114.722 93.1533 117.241 90.8081 117.155 87.9425L117.068 80.9947L109.252 78.0422Z" fill="#EFB9A3"/>
<path d="M116.894 67.7073L114.548 66.8383C114.635 65.0145 113.854 63.1906 112.551 61.9751L109.25 78.041L117.067 80.9946L116.894 67.7073Z" fill="#EFB9A3"/>
<path d="M82.6736 187.726C81.8926 187.379 81.3711 186.598 81.2842 185.816C80.2425 186.424 79.1997 187.032 77.9842 187.379L74.2506 188.509C72.5137 189.029 70.9505 190.159 69.9077 191.722L69.0398 192.937H97.2633L96.2215 186.685C92.9215 187.119 89.5345 187.553 86.2344 187.987C85.1058 188.074 83.8033 188.248 82.6736 187.726Z" fill="#4AB6D3"/>
<path d="M98.9991 158.634H88.3179L88.144 162.195H98.4788L98.9991 158.634Z" fill="#0A234C"/>
<path d="M98.4828 161.76H88.148L87.367 175.395C87.1932 178.956 85.5431 182.256 82.9371 184.6C82.4168 185.035 81.8085 185.469 81.2002 185.904C81.2871 186.685 81.8085 187.467 82.5906 187.813C83.7193 188.335 85.0217 188.161 86.2372 188.074C89.5373 187.64 92.9243 187.206 96.2244 186.772L95.3565 181.3L98.4828 161.76Z" fill="#F8D4C4"/>
<path d="M132.959 103.227L95.2689 111.911C90.5795 113.041 87.1925 117.209 87.0187 121.985L86.1497 158.634H100.393L102.911 127.978L142.945 115.646L132.959 103.227Z" fill="#1D3B77"/>
<path d="M131.222 100.708C132.004 102.532 132.785 104.182 133.567 105.658L162.051 100.708H131.222Z" fill="#F8D4C4"/>
<path d="M158.402 89.7652L158.228 85.2496C158.054 81.1685 158.489 76.9994 159.444 73.0052L161.876 62.5835L149.37 90.3736C148.154 93.0653 145.288 94.5427 142.423 93.9344L127.659 91.1557C128.701 94.4558 129.917 97.7559 131.22 100.708H162.137C159.878 97.4952 158.576 93.7606 158.402 89.7652Z" fill="#72B8D6"/>
<path d="M153.278 46.9509L149.717 47.2986L149.631 47.4724C148.676 50.4248 146.157 52.5963 143.03 53.0308L135.736 53.9856C133.391 54.3332 131.567 52.0749 132.262 49.8176L132.349 49.5569L129.31 50.1641C125.141 50.9463 122.449 55.0285 123.317 59.1096L123.491 59.9786C122.709 62.0621 121.581 64.1466 120.104 65.9705C117.586 69.2705 117.672 73.6124 119.844 76.7387L141.293 85.771L161.876 62.5835L163.005 57.9809C164.481 51.988 159.531 46.3437 153.278 46.9509Z" fill="#72B8D6"/>
<path d="M119.929 76.8258C120.711 78.0425 121.839 78.9973 123.229 79.6925C123.837 80.0401 124.532 80.2997 125.14 80.5604C125.574 83.6867 126.529 87.4213 127.659 91.1559L142.509 94.0215C145.375 94.5429 148.24 93.0667 149.456 90.4607L161.962 62.6707L141.379 85.8582L119.929 76.8258Z" fill="#72B8D6"/>
<path d="M162.137 100.708L133.651 105.658L107.339 111.737C101.172 113.128 97.4384 119.38 99.0884 125.459L108.293 160.371L121.928 156.636L116.109 128.238L150.934 128.759C164.655 129.02 172.298 113.041 163.526 102.532C163.005 102.011 162.571 101.403 162.137 100.708Z" fill="#3A5087"/>
<path d="M121.93 156.723L110.988 159.675L112.29 162.802L122.711 160.978L121.93 156.723Z" fill="#0A234C"/>
<path d="M118.976 184.6L127.139 174.266L126.097 173.31C125.402 172.616 124.881 171.747 124.707 170.792L122.71 160.979L112.289 162.803L117.152 174.526C117.76 175.916 117.673 177.566 117.065 178.956L113.852 185.904C113.678 186.25 113.504 186.598 113.244 186.858H114.112C116.11 186.945 117.847 186.076 118.976 184.6Z" fill="#F8D4C4"/>
<path d="M127.14 174.265L118.977 184.6C117.849 186.076 116.025 186.945 114.201 186.945H113.332C112.551 187.987 111.335 188.769 109.946 189.029C107.774 189.463 105.951 191.026 105.255 193.111L105.168 193.285H116.198C118.195 193.285 120.106 192.329 121.408 190.766L131.395 178.087L127.14 174.265Z" fill="#4AB6D3"/>
<path d="M122.364 59.3703C119.759 59.3703 117.587 57.5465 117.241 54.9416L115.85 46.6045H128.877L127.488 54.9416C127.054 57.5465 124.883 59.3703 122.364 59.3703Z" fill="white"/>
<path d="M108.989 69.3573C109.163 69.0966 109.25 68.7491 109.163 68.4025L103.604 50.7723C103.345 49.9044 102.476 49.2961 101.521 49.383L94.2255 50.252C93.9648 50.252 93.7052 50.4247 93.5314 50.5985L92.0552 51.989L94.8339 56.4177L99.1757 69.2704C99.4364 70.1395 100.305 70.6598 101.26 70.5729L105.95 70.0526L107.252 71.0074L108.728 69.5311C108.815 69.4443 108.902 69.4443 108.989 69.3573Z" fill="#053B75"/>
<path d="M92.574 51.8154L99.8683 50.9464C100.824 50.8595 101.692 51.3809 101.953 52.3357L107.511 69.9659C107.685 70.5731 107.251 71.2683 106.642 71.3553L99.6945 72.1363C98.7397 72.2232 97.8717 71.7018 97.611 70.8339L91.705 53.2917C91.4453 52.5964 91.8788 51.9012 92.574 51.8154Z" fill="#074493"/>
<path d="M152.844 58.0678L161.962 62.2358L148.762 85.4233C146.852 88.7234 142.77 90.0269 139.296 88.4638L104.732 72.3099L97.2639 67.2728C96.4828 66.7525 96.0483 65.7966 96.1352 64.9287L96.5697 60.3262C96.6555 59.3702 97.6984 58.763 98.5663 59.1964L106.903 63.7131C106.469 61.7155 107.077 59.3702 108.206 57.6333C108.727 56.7654 110.117 57.1988 110.03 58.1547C109.943 58.763 109.769 59.3702 109.769 59.9785C109.682 61.4548 110.464 62.7572 111.159 64.0597C111.854 65.3632 112.636 67.6205 112.027 69.0098L141.554 80.8208L152.844 58.0678Z" fill="#F8D4C4"/>
<path d="M135.825 54.3335L143.119 53.2918C146.246 52.8572 148.765 50.6869 149.719 47.5595L149.806 47.3868L148.243 47.5595C147.115 47.6464 145.985 46.8654 145.725 45.7368L144.509 40.7866C143.641 42.6963 142.251 44.3463 140.427 45.3891C138.951 46.2571 137.214 46.6916 135.564 46.6916V46.7785C135.825 48.0809 134.956 49.2964 133.653 49.5571L132.351 49.8178L132.264 50.0786C131.569 52.4227 133.48 54.6811 135.825 54.3335Z" fill="#F8D4C4"/>
<path d="M144.598 41.0459L143.556 36.791L134.264 39.9173L135.567 46.6044C137.304 46.6044 138.954 46.2568 140.43 45.3878C142.254 44.4329 143.73 42.8698 144.598 41.0459Z" fill="#F0B9A3"/>
<path d="M129.399 18.2063C132.525 24.5458 138.866 29.6697 145.726 31.2329C146.334 30.278 147.462 29.6697 148.592 29.7566C149.721 29.8435 150.763 30.6257 151.197 31.6674C151.632 32.7091 151.371 34.0126 150.676 34.7936C149.547 36.0961 147.289 36.3568 145.899 35.402C144.336 38.1806 142.165 40.5259 139.299 41.9152C136.434 43.2177 132.96 43.3915 130.181 41.8283C127.836 40.5259 126.186 38.0937 125.231 35.5758C124.276 33.0567 124.015 30.278 123.668 27.5852C124.623 25.1541 127.315 20.8123 129.399 18.2063Z" fill="#F8D4C4"/>
<path d="M148.852 134.057L170.824 130.062C177.25 128.846 182.113 123.461 182.461 116.861L185.153 66.8396C176.989 72.4839 171.865 81.69 171.518 91.6772L170.824 108.959C170.737 111.911 168.565 114.43 165.613 114.951L164.745 115.124C157.362 116.514 151.458 122.159 149.894 129.541L148.852 134.057Z" fill="#6F6FC6"/>
<path d="M98.655 55.8096C99.0026 56.4179 99.6109 56.6786 100.218 56.4179C100.74 56.1572 100.913 55.462 100.653 54.8547C100.305 54.2464 99.6978 53.9857 99.0894 54.2464C98.4811 54.5071 98.3084 55.2012 98.655 55.8096Z" fill="#00336B"/>
<path d="M98.9143 55.7226C99.175 56.1571 99.6953 56.4178 100.043 56.244C100.477 56.0702 100.564 55.4619 100.39 55.0274C100.13 54.594 99.6084 54.3333 99.2619 54.5071C98.8273 54.6809 98.6535 55.2012 98.9143 55.7226Z" fill="#BEE1F4"/>
<path d="M60.1825 98.1024C65.1227 98.1024 69.1268 94.0983 69.1268 89.1581C69.1268 84.2179 65.1227 80.2126 60.1825 80.2126C55.2423 80.2126 51.2371 84.2179 51.2371 89.1581C51.2371 94.0983 55.2423 98.1024 60.1825 98.1024Z" fill="white"/>
<path d="M64.5231 87.4212L61.8313 87.1605L60.7896 84.7294C60.7027 84.4688 60.442 84.3818 60.1813 84.3818C59.9206 84.3818 59.7468 84.5557 59.573 84.7294L58.5312 87.1605L55.9264 87.4212C55.6657 87.4212 55.4918 87.595 55.4049 87.8557C55.318 88.1164 55.4049 88.376 55.5787 88.5499L57.5764 90.2868L56.9681 92.8928C56.8812 93.1535 56.9681 93.4131 57.2288 93.5C57.4026 93.6738 57.6633 93.6738 57.9229 93.5L60.2682 92.1107L62.5265 93.5C62.6992 93.5869 63.0469 93.5869 63.2207 93.5C63.3945 93.3262 63.4814 93.0666 63.4814 92.8928L62.873 90.2868L64.8707 88.5499C65.0445 88.376 65.1314 88.1164 65.0445 87.8557C64.9576 87.6819 64.6969 87.5081 64.5231 87.4212Z" fill="#D6B6F9"/>
<path d="M68.6935 43.8248C72.0035 43.8248 74.6865 41.1429 74.6865 37.833C74.6865 34.5241 72.0035 31.8411 68.6935 31.8411C65.3846 31.8411 62.7017 34.5241 62.7017 37.833C62.7017 41.1429 65.3846 43.8248 68.6935 43.8248Z" fill="white"/>
<path d="M71.644 36.7044L69.8202 36.5306L69.1261 34.8806C69.0392 34.7068 68.8654 34.6199 68.7785 34.6199C68.6047 34.6199 68.4309 34.7068 68.4309 34.8806L67.7367 36.5306L65.9129 36.7044C65.7391 36.7044 65.5653 36.7913 65.5653 36.9652C65.4784 37.139 65.5653 37.3116 65.6522 37.3985L67.0416 38.6152L66.607 40.3521C66.607 40.5249 66.607 40.6986 66.7808 40.7855C66.9546 40.8724 67.1285 40.8724 67.2153 40.7855L68.7785 39.8307L70.3416 40.7855C70.5154 40.8724 70.6892 40.8724 70.7761 40.7855C70.9499 40.6986 70.9499 40.5249 70.9499 40.3521L70.5154 38.6152L71.9048 37.3985C71.9917 37.3116 72.0786 37.139 71.9917 36.9652C71.9048 36.7913 71.7309 36.7044 71.644 36.7044Z" fill="#D6B6F9"/>
<path d="M106.99 17.3372C109.245 17.3372 111.072 15.51 111.072 13.256C111.072 11.001 109.245 9.17383 106.99 9.17383C104.736 9.17383 102.909 11.001 102.909 13.256C102.909 15.51 104.736 17.3372 106.99 17.3372Z" fill="white"/>
<path d="M108.99 12.475L107.774 12.3881L107.253 11.2584C107.166 11.1715 107.079 11.0857 106.993 11.0857C106.906 11.0857 106.732 11.1715 106.732 11.2584L106.211 12.3881L104.996 12.475C104.909 12.475 104.822 12.5619 104.735 12.6488C104.735 12.7357 104.735 12.9084 104.822 12.9953L105.777 13.7775L105.516 14.993C105.516 15.0799 105.516 15.2537 105.603 15.2537C105.69 15.3406 105.863 15.3406 105.95 15.2537L106.993 14.6454L108.035 15.2537C108.122 15.3406 108.296 15.3406 108.383 15.2537C108.469 15.1668 108.556 15.0799 108.469 14.993L108.209 13.7775L109.164 12.9953C109.25 12.9084 109.25 12.8215 109.25 12.6488C109.164 12.5619 109.077 12.475 108.99 12.475Z" fill="#D6B6F9"/>
</svg>
