<svg width="374" height="113" viewBox="0 0 374 113" fill="none" xmlns="http://www.w3.org/2000/svg">
<g opacity="0.2">
<path d="M300.445 60.0164C299.744 54.1077 299.243 48.1989 299.744 42.19C300.244 36.1811 301.847 29.1708 305.152 24.1634C307.055 21.2591 313.664 14.449 314.666 22.1604C315.167 25.966 313.364 29.4712 312.162 32.9764C310.96 36.3814 309.258 39.5862 308.156 42.9912C306.454 48.3992 305.252 54.0075 303.349 59.4155" fill="#D6B6F9"/>
<path d="M303.25 70.7321C308.057 62.6201 313.065 54.7084 319.374 48.1988C324.582 42.6906 331.091 37.6832 338.402 34.879C343.309 32.9762 357.23 29.1706 359.333 36.7819C360.935 42.991 354.125 47.4977 349.619 50.0014C343.109 53.6068 336.099 56.3108 329.689 60.1164C322.278 64.5229 315.368 69.8308 307.757 73.9369" fill="#D6B6F9"/>
<path d="M306.454 52.8055C309.058 45.2944 311.562 37.9835 315.768 31.1735C318.572 26.6668 323.479 18.7551 329.588 18.3545C333.494 18.1542 333.294 24.1631 332.693 26.6668C331.691 30.7729 329.188 34.3782 326.484 37.4828C319.874 44.8938 314.065 51.7039 308.357 59.8158" fill="#D6B6F9"/>
<path d="M305.753 62.7199H305.653C305.452 62.6198 305.352 62.5196 305.452 62.3193C314.666 38.1836 327.485 23.6621 327.585 23.4618C327.685 23.3617 327.886 23.3617 328.086 23.4618C328.186 23.562 328.186 23.7623 328.086 23.9626C327.986 24.0627 315.167 38.5842 306.053 62.6198C306.053 62.6198 305.853 62.7199 305.753 62.7199Z" fill="white"/>
<path d="M302.547 75.0383C302.447 75.0383 302.347 75.0383 302.347 74.9381C302.246 74.838 302.246 74.6377 302.347 74.4374C329.988 42.6904 350.117 38.9849 350.318 38.8848C350.518 38.8848 350.618 38.9849 350.718 39.1852C350.718 39.3855 350.618 39.4856 350.418 39.5858C350.218 39.5858 330.288 43.2913 302.847 74.838C302.647 74.9381 302.547 75.0383 302.547 75.0383Z" fill="white"/>
<path d="M301.144 64.7229C300.944 64.7229 300.844 64.5226 300.844 64.4225C302.146 35.2793 310.859 23.7623 310.959 23.6621C311.059 23.562 311.259 23.4618 311.459 23.562C311.56 23.6621 311.66 23.8624 311.56 24.0627C311.459 24.1629 302.847 35.5798 301.545 64.5226C301.445 64.5226 301.344 64.7229 301.144 64.7229Z" fill="white"/>
<path d="M102.053 61.7188C103.355 53.6068 104.356 45.4948 104.156 37.2826C103.855 29.0704 102.053 19.2559 97.8463 12.1454C95.2424 8.0396 86.5295 -1.77491 84.827 8.84078C83.9257 14.1484 86.1289 18.9555 87.6311 23.8627C89.1334 28.5697 91.2365 33.1765 92.4383 37.8835C94.4412 45.4948 95.7432 53.3063 97.9464 60.8174" fill="#D6B6F9"/>
<path d="M97.7455 65.9251C95.6424 55.8101 93.1387 45.6952 88.9325 36.5817C85.4273 28.9704 80.4198 21.3591 73.8101 15.851C69.4035 12.1455 56.0838 3.13266 51.2767 10.3433C47.3709 16.2516 52.8791 23.3621 56.6847 27.6685C62.1929 33.7775 68.6024 39.0854 74.0104 45.3947C80.2196 52.7055 85.5274 60.7174 92.0371 67.7278" fill="#D6B6F9"/>
<path d="M81.7207 60.4165C76.3126 53.7065 69.9031 47.6976 62.7926 42.6902C60.3891 40.9877 48.171 32.7756 48.2711 40.7874C48.2711 46.2956 54.8809 49.5003 58.987 51.6034C67.3994 56.01 76.513 59.2147 84.3245 64.6227" fill="#D6B6F9"/>
<path d="M86.6294 67.7274C86.5293 67.7274 86.4291 67.7274 86.4291 67.6272C69.0033 50.2014 52.1784 42.6903 52.0782 42.5902C51.8779 42.49 51.8779 42.2897 51.8779 42.1895C51.9781 41.9893 52.1784 41.9893 52.2785 41.9893C52.4788 42.0894 69.4039 49.7007 86.8297 67.1265C86.9298 67.2266 86.9298 67.4269 86.8297 67.6272C86.7296 67.7274 86.7296 67.7274 86.6294 67.7274Z" fill="white"/>
<path d="M97.1454 70.632C97.0452 70.632 96.9451 70.5318 96.8449 70.4317C79.319 27.5682 59.7901 16.5519 59.5898 16.4518C59.3895 16.3516 59.3895 16.1513 59.4896 16.0512C59.5898 15.8509 59.7901 15.8509 59.8902 15.9511C60.0905 16.0512 79.8197 27.0675 97.4458 70.2314C97.546 70.4317 97.4458 70.632 97.2455 70.632H97.1454Z" fill="white"/>
<path d="M100.749 68.0282C100.549 68.0282 100.449 67.928 100.449 67.7277C100.449 27.7686 89.332 11.5446 89.2319 11.3443C89.0316 11.2441 89.1317 11.0439 89.2319 10.9437C89.332 10.8436 89.5323 10.8436 89.6324 11.0439C89.7326 11.2441 101.05 27.5683 101.05 67.7277C101.05 67.928 100.949 68.0282 100.749 68.0282Z" fill="white"/>
<path d="M337.201 68.7288C355.328 70.9321 369.649 88.9588 370.15 100.876H304.252C304.252 83.9514 317.171 66.3253 337.201 68.7288Z" fill="#D6B6F9"/>
<path d="M335.599 104.282C335.399 104.282 335.299 104.181 335.299 103.981L332.896 66.2252C332.896 66.0249 332.996 65.9248 333.196 65.9248C333.396 65.9248 333.496 66.0249 333.496 66.2252L335.9 103.981C335.9 104.081 335.8 104.181 335.599 104.282Z" fill="white"/>
<path d="M334.097 80.1459H333.997C333.797 80.0458 333.797 79.8455 333.897 79.7453L340.306 67.5273C340.406 67.327 340.607 67.327 340.707 67.4271C340.907 67.5273 340.907 67.7275 340.807 67.8277L334.398 80.0458C334.297 80.1459 334.197 80.1459 334.097 80.1459Z" fill="white"/>
<path d="M326.783 103.38C326.683 103.38 326.583 103.28 326.483 103.18L310.759 76.0397C310.659 75.8395 310.759 75.6392 310.859 75.6392C311.06 75.539 311.26 75.6392 311.26 75.7393L326.983 102.879C327.083 103.08 326.983 103.28 326.883 103.28C326.983 103.38 326.883 103.38 326.783 103.38Z" fill="white"/>
<path d="M320.878 93.1652C320.677 93.1652 320.577 92.9649 320.577 92.7646L322.78 68.9294C322.78 68.7291 322.981 68.6289 323.081 68.6289C323.281 68.6289 323.381 68.8292 323.381 68.9294L321.178 92.7646C321.178 92.9649 321.078 93.1652 320.878 93.1652Z" fill="white"/>
<path d="M321.678 105.183C321.578 105.183 321.578 105.183 321.478 105.083L304.954 91.2624C304.853 91.1623 304.753 90.9619 304.954 90.7616C305.054 90.6615 305.254 90.5613 305.454 90.7616L321.979 104.582C322.079 104.682 322.179 104.883 321.979 105.083C321.778 105.183 321.778 105.183 321.678 105.183Z" fill="white"/>
<path d="M311.262 96.5702L304.051 95.6689C303.851 95.6689 303.751 95.4685 303.751 95.2682C303.751 95.0679 303.951 94.9678 304.152 94.9678L311.262 95.8691C311.462 95.8691 311.563 96.0694 311.563 96.2697C311.563 96.47 311.462 96.5702 311.262 96.5702Z" fill="white"/>
<path d="M337.4 102.78C337.299 102.78 337.299 102.78 337.199 102.679C337.099 102.579 336.999 102.379 337.099 102.279L356.728 74.3374C356.828 74.2373 357.029 74.1371 357.129 74.2373C357.229 74.3374 357.329 74.5378 357.229 74.6379L337.6 102.579C337.6 102.78 337.5 102.78 337.4 102.78Z" fill="white"/>
<path d="M348.719 86.6557C348.519 86.6557 348.418 86.5556 348.418 86.3553L345.614 69.7307C345.614 69.5304 345.714 69.4302 345.915 69.3301C346.115 69.3301 346.215 69.4302 346.315 69.6305L349.12 86.2551C349.12 86.4554 349.019 86.6557 348.719 86.6557C348.819 86.6557 348.819 86.6557 348.719 86.6557Z" fill="white"/>
<path d="M347.916 103.38C347.816 103.38 347.716 103.28 347.616 103.28C347.515 103.18 347.515 102.98 347.716 102.879L369.147 88.8587C369.248 88.7586 369.448 88.7586 369.548 88.9589C369.648 89.1592 369.648 89.2593 369.448 89.3595L348.016 103.38H347.916Z" fill="white"/>
<path d="M345.414 91.4629C345.314 91.4629 345.214 91.3628 345.113 91.2626C345.013 91.0623 345.113 90.862 345.314 90.862L364.542 82.2492C364.743 82.1491 364.943 82.2492 364.943 82.4496C365.043 82.6499 364.943 82.8502 364.743 82.8502L345.514 91.4629C345.514 91.3628 345.514 91.4629 345.414 91.4629Z" fill="white"/>
<path d="M372.751 96.5701L361.034 94.7674C360.834 94.7674 360.733 94.5671 360.733 94.3668C360.733 94.1665 360.934 94.0664 361.134 94.0664L372.751 95.8691C372.951 95.8691 373.052 96.0694 373.052 96.2697C373.052 96.47 372.851 96.5701 372.751 96.5701Z" fill="white"/>
<path d="M92.737 50.6033C64.4951 54.0084 41.9618 82.2502 41.2607 100.878H144.213C144.213 74.3385 123.983 46.8979 92.737 50.6033Z" fill="#D6B6F9"/>
<path d="M95.3434 105.885C95.1431 105.885 95.043 105.685 95.043 105.585L98.8486 46.5973C98.8486 46.397 99.0486 46.2969 99.1488 46.2969C99.3491 46.2969 99.4492 46.4972 99.4492 46.5973L95.6439 105.585C95.6439 105.785 95.4436 105.885 95.3434 105.885Z" fill="#D6B6F9"/>
<path d="M97.144 75.9407C97.0438 75.9407 96.9437 75.9407 96.9437 75.8405L77.8154 52.6061C77.7152 52.506 77.7152 52.3057 77.8154 52.1054C77.9155 52.0052 78.1158 52.0052 78.3161 52.1054L97.4444 75.2396C97.5446 75.3397 97.5446 75.5401 97.4444 75.7404C97.3443 75.9407 97.2441 75.9407 97.144 75.9407Z" fill="#D6B6F9"/>
<path d="M108.96 104.583C108.86 104.583 108.86 104.583 108.76 104.583C108.559 104.483 108.559 104.283 108.66 104.183L133.296 61.8202C133.396 61.6199 133.596 61.6199 133.697 61.7201C133.897 61.8202 133.897 62.0206 133.797 62.1207L109.16 104.483C109.16 104.483 109.06 104.583 108.96 104.583Z" fill="#D6B6F9"/>
<path d="M117.073 107.486C116.973 107.486 116.873 107.486 116.873 107.386C116.773 107.286 116.773 107.086 116.873 106.885L142.711 85.3535C142.811 85.2533 143.012 85.2533 143.212 85.3535C143.312 85.4536 143.312 85.6539 143.212 85.8542L117.374 107.386C117.274 107.386 117.173 107.486 117.073 107.486Z" fill="#D6B6F9"/>
<path d="M93.4392 103.28C93.3391 103.28 93.2389 103.18 93.1388 103.08L63.9956 55.7096C63.8954 55.5093 63.9956 55.4092 64.0957 55.3091C64.296 55.2089 64.3962 55.3091 64.4963 55.4092L93.7396 102.779C93.8398 102.98 93.7396 103.08 93.6395 103.18C93.6395 103.28 93.5393 103.28 93.4392 103.28Z" fill="#D6B6F9"/>
<path d="M83.625 87.3571C83.5249 87.3571 83.5249 87.3571 83.4247 87.3571L52.579 68.0284C52.3787 67.9283 52.3787 67.728 52.4789 67.6278C52.579 67.4276 52.7793 67.4276 52.8795 67.5277L83.7251 86.8563C83.9254 86.9565 83.9254 87.1567 83.8253 87.2569C83.9254 87.2569 83.8253 87.3571 83.625 87.3571Z" fill="#D6B6F9"/>
<path d="M76.1116 104.582C76.0114 104.582 75.9113 104.582 75.9113 104.482L46.4677 78.4435C46.3675 78.3434 46.3675 78.1431 46.4677 77.9428C46.5678 77.8426 46.7681 77.8426 46.9684 77.9428L76.412 103.981C76.5122 104.081 76.5122 104.282 76.412 104.482C76.2117 104.482 76.1116 104.582 76.1116 104.582Z" fill="#D6B6F9"/>
<path d="M63.1944 93.1651L41.1618 89.8602C40.9615 89.8602 40.8613 89.6599 40.8613 89.4596C40.8613 89.2593 41.0616 89.1592 41.2619 89.1592L63.1944 92.4641C63.3947 92.4641 63.4948 92.6643 63.4948 92.8646C63.4948 93.0649 63.3947 93.1651 63.1944 93.1651Z" fill="#D6B6F9"/>
<path d="M275.71 39.5859C310.161 43.692 337.602 78.143 338.503 100.877H212.917C212.917 68.5287 237.553 34.9791 275.71 39.5859Z" fill="#D6B6F9"/>
<path d="M272.605 106.986C272.404 106.986 272.304 106.886 272.304 106.685L267.697 34.779C267.697 34.5787 267.797 34.4785 267.998 34.4785C268.198 34.4785 268.298 34.5787 268.298 34.779L272.905 106.685C272.905 106.785 272.805 106.886 272.605 106.986Z" fill="#D6B6F9"/>
<path d="M270.301 70.3318C270.201 70.3318 270.201 70.3318 270.101 70.2317C270.001 70.1315 269.901 69.9312 270.101 69.7309L293.436 41.5893C293.536 41.4891 293.736 41.389 293.936 41.5893C294.036 41.6894 294.137 41.8897 293.936 42.09L270.602 70.3318C270.502 70.3318 270.401 70.3318 270.301 70.3318Z" fill="#D6B6F9"/>
<path d="M255.881 105.283C255.78 105.283 255.68 105.183 255.58 105.083L225.536 53.4064C225.436 53.2061 225.536 53.0058 225.636 53.0058C225.836 52.9057 226.036 53.0058 226.036 53.106L256.081 104.782C256.181 104.983 256.081 105.183 255.981 105.183C255.981 105.283 255.981 105.283 255.881 105.283Z" fill="#D6B6F9"/>
<path d="M246.063 108.788C245.963 108.788 245.963 108.788 245.863 108.688L214.316 82.4494C214.216 82.3492 214.116 82.1489 214.316 81.9487C214.416 81.8485 214.616 81.7483 214.817 81.9487L246.263 108.288C246.363 108.388 246.463 108.588 246.263 108.788C246.163 108.788 246.063 108.788 246.063 108.788Z" fill="#D6B6F9"/>
<path d="M269.599 60.7173C269.499 60.7173 269.399 60.6172 269.299 60.517L253.976 34.8791C253.876 34.6788 253.976 34.4785 254.076 34.4785C254.277 34.3783 254.477 34.4785 254.477 34.5787L269.8 60.2166C269.9 60.4169 269.8 60.6172 269.699 60.6172C269.8 60.7173 269.699 60.7173 269.599 60.7173Z" fill="#D6B6F9"/>
<path d="M274.808 103.681C274.707 103.681 274.707 103.681 274.607 103.681C274.407 103.581 274.407 103.381 274.507 103.281L310.16 45.495C310.26 45.2947 310.46 45.2947 310.561 45.3949C310.761 45.495 310.761 45.6953 310.661 45.7955L275.008 103.581C275.008 103.681 274.908 103.681 274.808 103.681Z" fill="#D6B6F9"/>
<path d="M295.037 70.9323C294.937 70.9323 294.837 70.9323 294.737 70.8321C294.637 70.732 294.637 70.5317 294.837 70.3314L318.772 52.9056C318.872 52.8055 319.073 52.8055 319.273 53.0058C319.373 53.1059 319.373 53.3062 319.173 53.5065L295.237 70.9323C295.137 70.9323 295.037 70.9323 295.037 70.9323Z" fill="#D6B6F9"/>
<path d="M296.037 105.283C295.937 105.283 295.837 105.283 295.837 105.183C295.737 105.083 295.737 104.883 295.837 104.682L331.69 72.9354C331.79 72.8353 331.99 72.8353 332.191 72.9354C332.291 73.0356 332.291 73.2359 332.191 73.4362L296.237 105.183C296.237 105.283 296.137 105.283 296.037 105.283Z" fill="#D6B6F9"/>
<path d="M316.371 87.3565H316.271C316.071 87.2564 315.97 87.1563 316.071 86.956L324.183 65.5243C324.283 65.324 324.383 65.2238 324.583 65.324C324.783 65.4241 324.884 65.5243 324.783 65.7245L316.671 87.1563C316.571 87.2564 316.471 87.3565 316.371 87.3565Z" fill="#D6B6F9"/>
<path d="M305.855 96.5701C305.755 96.5701 305.555 96.47 305.555 96.2697C305.555 96.0694 305.655 95.9692 305.755 95.8691L341.408 88.2578C341.608 88.2578 341.708 88.358 341.808 88.4581C341.808 88.6584 341.708 88.7585 341.608 88.8587L305.855 96.5701Z" fill="#D6B6F9"/>
<path d="M33.2496 68.7288C15.2229 70.9321 0.801523 88.9588 0.300781 100.876H66.1984C66.1984 83.9514 53.2793 66.3253 33.2496 68.7288Z" fill="#D6B6F9"/>
<path d="M34.9538 104.283C34.7535 104.283 34.6533 104.082 34.6533 103.982L36.9567 66.1261C36.9567 65.9258 37.157 65.8257 37.2572 65.8257C37.4575 65.8257 37.5576 66.026 37.5576 66.1261L35.1541 103.882C35.2542 104.082 35.0539 104.283 34.9538 104.283Z" fill="white"/>
<path d="M36.1543 85.0546C36.0542 85.0546 35.8538 84.9544 35.8538 84.8543L29.845 67.7289C29.7448 67.5287 29.845 67.3283 30.0453 67.3283C30.2455 67.2282 30.4458 67.3283 30.4458 67.5287L36.4548 84.654C36.555 84.8543 36.4548 85.0546 36.2545 85.0546C36.1544 85.0546 36.1543 85.0546 36.1543 85.0546Z" fill="white"/>
<path d="M43.6651 103.381C43.5649 103.381 43.5649 103.381 43.4648 103.381C43.2645 103.281 43.2645 103.081 43.3646 102.981L59.0879 75.8407C59.1881 75.6404 59.3883 75.6404 59.4885 75.7406C59.6888 75.8407 59.6888 76.041 59.5886 76.1412L43.9655 103.181C43.8654 103.281 43.7652 103.381 43.6651 103.381Z" fill="white"/>
<path d="M49.573 93.1651C49.3727 93.1651 49.2726 93.065 49.2726 92.8647L47.0693 69.0294C47.0693 68.8291 47.1695 68.729 47.3698 68.729C47.5701 68.729 47.6702 68.8291 47.6702 69.0294L49.8735 92.8647C49.9736 92.9648 49.7733 93.1651 49.573 93.1651C49.6732 93.1651 49.6732 93.1651 49.573 93.1651Z" fill="white"/>
<path d="M48.8711 105.184C48.771 105.184 48.6708 105.184 48.6708 105.084C48.5707 104.984 48.5707 104.783 48.6708 104.583L65.1953 90.7626C65.2954 90.6625 65.4957 90.6625 65.696 90.7626C65.7962 90.8628 65.7962 91.0631 65.696 91.2633L49.0714 105.184C48.9713 105.184 48.9713 105.184 48.8711 105.184Z" fill="white"/>
<path d="M59.2858 96.5711C59.0855 96.5711 58.9854 96.471 58.9854 96.2707C58.9854 96.0704 59.0855 95.9702 59.2858 95.8701L66.3963 94.9688C66.5966 94.9688 66.6968 95.0689 66.7969 95.2692C66.7969 95.4695 66.6968 95.5697 66.4965 95.6698L59.2858 96.5711Z" fill="white"/>
<path d="M36.4551 79.9459C36.3549 79.9459 36.3549 79.9459 36.2548 79.9459C36.0545 79.8457 36.0545 79.6455 36.1546 79.5453L44.1665 66.0253C44.2667 65.825 44.467 65.825 44.5671 65.9252C44.7674 66.0253 44.7674 66.2256 44.6673 66.3258L36.6554 79.8457C36.6554 79.9459 36.5552 79.9459 36.4551 79.9459Z" fill="white"/>
<path d="M30.0461 103.38C29.9459 103.38 29.8458 103.28 29.7456 103.18L13.2212 74.738C13.121 74.5377 13.2212 74.3374 13.3213 74.3374C13.5216 74.2372 13.7219 74.3374 13.7219 74.4375L30.3465 102.88C30.4467 103.08 30.3465 103.28 30.2464 103.28C30.1462 103.38 30.1462 103.38 30.0461 103.38Z" fill="white"/>
<path d="M24.1364 93.1662C23.9361 93.1662 23.8359 93.0661 23.8359 92.8658L24.2365 69.8317C24.2365 69.6314 24.3367 69.5312 24.537 69.5312C24.7373 69.5312 24.8374 69.6314 24.8374 69.8317L24.4368 92.8658C24.4368 92.9659 24.2365 93.1662 24.1364 93.1662Z" fill="white"/>
<path d="M22.6316 103.382C22.5314 103.382 22.4313 103.382 22.4313 103.282L3.60343 86.6569C3.50328 86.5568 3.50328 86.3564 3.60343 86.1562C3.70358 86.056 3.90388 86.056 4.10417 86.1562L22.932 102.781C23.0322 102.881 23.0322 103.081 22.932 103.282C22.8319 103.282 22.7317 103.382 22.6316 103.382Z" fill="white"/>
<path d="M14.4214 96.0698C14.3212 96.0698 14.3212 96.0698 14.4214 96.0698L0.300445 93.9667C0.100148 93.9667 0 93.7664 0 93.5661C0 93.3658 0.200297 93.2656 0.400593 93.2656L14.4214 95.3688C14.6217 95.3688 14.7218 95.569 14.7218 95.7693C14.7218 95.9697 14.5215 96.0698 14.4214 96.0698Z" fill="white"/>
<path d="M201.543 92.8918L206.32 95.728L230.661 110.366L233.6 112.195C234.886 113.02 236.632 112.562 237.458 111.281L263.27 68.8302L272.639 53.3683C273.465 52.0875 273.007 50.3489 271.721 49.5257L268.781 47.7871L239.663 30.2211C238.377 29.3979 236.632 29.8556 235.805 31.1364L234.335 33.515L226.068 47.055L221.752 54.1915L202.829 85.3897L200.716 88.958C199.798 90.4211 200.257 92.0686 201.543 92.8918Z" fill="#8353B7"/>
</g>
<path d="M118.277 88.5596C118.076 88.5596 117.976 88.4595 117.976 88.2592L114.571 51.1042C114.571 50.9039 114.671 50.8037 114.872 50.8037C115.072 50.8037 115.172 50.9039 115.172 51.1042L118.577 88.2592C118.577 88.3593 118.477 88.5596 118.277 88.5596Z" fill="#D6B6F9"/>
<path d="M133.299 93.8663C133.098 93.8663 132.998 93.7661 132.998 93.5658C132.998 93.3656 133.098 93.2654 133.299 93.1653L144.415 91.7632C144.615 91.7632 144.715 91.8633 144.816 92.0636C144.816 92.2639 144.715 92.3641 144.515 92.4642L133.299 93.8663Z" fill="#D6B6F9"/>
<path d="M97.7451 68.0283C97.645 68.0283 97.645 68.0283 97.5448 68.0283C97.3445 67.9282 97.3445 67.7278 97.4447 67.6277L109.963 46.5966C110.063 46.3963 110.264 46.3963 110.364 46.4964C110.564 46.5966 110.564 46.7969 110.464 46.897L97.9454 67.9282C97.9454 67.9282 97.8453 68.0283 97.7451 68.0283Z" fill="#D6B6F9"/>
<path d="M244.56 85.7541C244.36 85.7541 244.26 85.5538 244.26 85.3535L248.366 40.0866C248.366 39.8863 248.566 39.7861 248.666 39.7861C248.867 39.7861 248.967 39.9864 248.967 40.0866L244.861 85.4537C244.861 85.654 244.761 85.7541 244.56 85.7541Z" fill="#D6B6F9"/>
<path d="M226.235 92.2639L212.615 90.4613C212.415 90.4613 212.314 90.261 212.314 90.0607C212.314 89.8604 212.515 89.7603 212.715 89.7603L226.335 91.5629C226.535 91.5629 226.636 91.7632 226.636 91.9635C226.535 92.1638 226.435 92.2639 226.235 92.2639Z" fill="#D6B6F9"/>
<path d="M237.825 10.8254C231.671 4.05562 223.128 0.395996 213.851 0.395996C206.962 0.395996 200.532 2.59174 195.021 6.8917C193.551 7.98964 192.173 9.27044 190.887 10.551C188.958 12.564 185.743 12.564 183.814 10.551C182.528 9.179 181.15 7.98964 179.681 6.8917C174.078 2.59174 167.739 0.395996 160.85 0.395996C151.574 0.395996 143.031 4.05562 136.785 10.8254C130.63 17.5043 127.231 26.5617 127.231 36.3512C127.231 46.5062 130.997 55.7469 139.172 65.5364C146.429 74.3194 156.9 83.1024 169.025 93.4407C173.159 96.9168 177.843 100.943 182.712 105.151C183.998 106.25 185.651 106.89 187.397 106.89C189.142 106.89 190.796 106.25 192.081 105.151C196.95 100.943 201.634 96.9168 205.768 93.4407C217.893 83.1935 228.364 74.3194 235.62 65.5364C243.704 55.7469 247.562 46.5062 247.562 36.3512C247.378 26.5617 243.979 17.4132 237.825 10.8254Z" fill="#E654A0"/>
<path d="M169.21 92.8919L164.434 95.7281L140.092 110.366L137.153 112.196C135.867 113.02 134.121 112.562 133.295 111.281L107.484 68.7382L98.1145 53.2763C97.2878 51.9964 97.7471 50.2579 99.0335 49.4346L101.973 47.6961L131.091 30.1301C132.377 29.3068 134.121 29.7635 134.949 31.0444L136.418 33.4239L144.685 46.964L149.002 54.1005L167.925 85.2977L170.037 88.866C170.956 90.4212 170.496 92.0687 169.21 92.8919Z" fill="#D6B6F9"/>
<path d="M172.151 91.0622L169.212 92.8919L164.435 95.7281L140.094 110.366C138.808 111.189 137.062 110.732 136.235 109.451L114.741 73.9529L101.147 51.5388C100.32 50.2579 100.78 48.5193 102.065 47.7872L131.184 30.2212L134.123 28.3915C135.409 27.5683 137.154 28.026 137.981 29.3069L173.07 87.3107C173.896 88.5916 173.528 90.3301 172.151 91.0622Z" fill="#D6B6F9"/>
<path d="M167.374 86.0294L137.796 103.87C136.694 104.602 135.133 104.236 134.49 103.047L105.28 55.0145C104.545 53.9169 104.912 52.3616 106.106 51.7206L135.684 33.8802C136.786 33.1491 138.348 33.5147 138.991 34.7045L168.2 82.7355C168.935 83.8341 168.568 85.2973 167.374 86.0294Z" fill="#F5FCFA"/>
<path d="M113.177 61.4191L130.905 51.0808C132.558 50.1665 133.017 48.0623 132.099 46.5061C131.18 44.8596 129.067 44.4019 127.506 45.3173L112.258 54.1914C110.605 55.1068 110.145 57.2109 111.064 58.7662L112.534 61.2359C112.717 61.4191 112.993 61.5112 113.177 61.4191Z" fill="#E654A0"/>
<path d="M112.992 56.4792L129.618 46.873C129.71 46.7819 129.801 46.6898 129.71 46.5986C129.618 46.5075 129.526 46.5075 129.435 46.5986L112.808 56.2048C112.717 56.296 112.625 56.3881 112.717 56.4792C112.808 56.5714 112.9 56.5714 112.992 56.4792Z" fill="white"/>
<path d="M122.085 52.7276L130.352 47.8794C130.444 47.8794 130.444 47.7873 130.352 47.6961C130.261 47.605 130.261 47.605 130.168 47.605L121.901 52.4532C121.809 52.4532 121.809 52.5453 121.901 52.6364C121.901 52.7276 121.993 52.8197 122.085 52.7276Z" fill="white"/>
<path d="M151.022 60.2293L133.386 70.842C131.825 71.7574 129.711 71.2997 128.793 69.7444C127.875 68.1891 128.334 66.085 129.896 65.1706L144.96 56.1122C146.521 55.1979 148.633 55.6556 149.553 57.2109L151.022 59.6805C151.297 59.7727 151.206 60.0471 151.022 60.2293Z" fill="#E654A0"/>
<path d="M146.796 57.7596L130.354 67.6402C130.261 67.7313 130.169 67.7313 130.078 67.6402C129.986 67.548 130.078 67.4569 130.169 67.3658L146.612 57.4851C146.704 57.393 146.796 57.393 146.887 57.4851C146.887 57.5763 146.887 57.6674 146.796 57.7596Z" fill="white"/>
<path d="M139.174 63.8896L130.907 68.83C130.815 68.83 130.815 68.83 130.723 68.7378C130.631 68.6467 130.631 68.5556 130.723 68.5556L138.99 63.6143C139.082 63.6143 139.082 63.6143 139.174 63.7064C139.266 63.7064 139.174 63.7975 139.174 63.8896Z" fill="white"/>
<path d="M134.12 97.9231L152.123 87.9513C153.776 87.036 154.328 85.024 153.409 83.3766C152.49 81.7301 150.47 81.1813 148.816 82.0957L133.385 90.6043C131.731 91.5196 131.18 93.5316 132.099 95.179L133.477 97.7408C133.568 97.9231 133.843 98.0152 134.12 97.9231Z" fill="#E654A0"/>
<path d="M134.027 92.9828L150.836 83.7422C150.928 83.651 151.021 83.5599 150.928 83.4678C150.928 83.3766 150.745 83.3766 150.653 83.4678L133.843 92.7084C133.752 92.7996 133.66 92.8917 133.752 92.9828C133.752 93.075 133.935 93.075 134.027 92.9828Z" fill="white"/>
<path d="M143.12 89.5067L151.571 84.8408C151.662 84.8408 151.662 84.7497 151.571 84.6575C151.571 84.5664 151.479 84.5664 151.387 84.5664L142.936 89.1412C142.844 89.1412 142.844 89.2323 142.936 89.3234C143.028 89.4156 143.12 89.5067 143.12 89.5067Z" fill="white"/>
<path d="M198.602 91.0622L201.541 92.8919L206.319 95.7281L230.66 110.366C231.945 111.189 233.691 110.732 234.518 109.451L256.104 73.9529L269.698 51.5388C270.526 50.2579 270.066 48.5193 268.78 47.7872L239.662 30.2212L236.723 28.3915C235.437 27.5683 233.691 28.026 232.865 29.3069L197.684 87.3107C196.857 88.5916 197.316 90.3301 198.602 91.0622Z" fill="#D6B6F9"/>
<path d="M203.38 86.0294L232.957 103.87C234.059 104.602 235.621 104.236 236.264 103.047L265.382 55.0145C266.116 53.9169 265.749 52.3616 264.555 51.7206L234.978 33.8802C233.876 33.1491 232.314 33.5147 231.671 34.7045L202.553 82.7355C201.818 83.8341 202.186 85.2973 203.38 86.0294Z" fill="#F5FCFA"/>
<path d="M256.655 43.5788C256.472 43.8533 256.563 44.3109 256.839 44.4942C257.115 44.6764 257.573 44.5853 257.758 44.3109C257.941 44.0365 257.849 43.5788 257.573 43.3956C257.298 43.2133 256.93 43.3044 256.655 43.5788Z" fill="#E2E5ED"/>
<path d="M247.838 38.4551L253.441 41.8401C253.533 41.9322 253.625 41.8401 253.717 41.7489C253.808 41.6578 253.717 41.5656 253.625 41.4745L248.021 38.0895C247.929 37.9984 247.838 38.0895 247.746 38.1806C247.746 38.2728 247.746 38.4551 247.838 38.4551Z" fill="#E2E5ED"/>
<path d="M226.896 47.1474L243.338 57.1192C245.451 58.4001 248.298 57.7601 249.584 55.656L250.595 53.9175C251.88 51.8133 251.238 48.9771 249.125 47.6962L235.99 39.7365C233.877 38.4556 231.03 39.0965 229.744 41.2006L226.62 46.2321C226.529 46.5986 226.62 46.9642 226.896 47.1474Z" fill="#E654A0"/>
<path d="M233.232 40.9258L249.674 50.8975C249.766 50.9887 249.857 50.9887 249.95 50.8975C250.042 50.8064 249.95 50.7143 249.857 50.6231L233.416 40.6504C233.324 40.5592 233.232 40.5592 233.141 40.6504C233.049 40.7425 233.049 40.8337 233.232 40.9258Z" fill="white"/>
<path d="M232.592 42.1147L248.85 51.9953C248.942 52.0875 249.034 52.0875 249.126 51.9953C249.218 51.9042 249.126 51.8131 249.034 51.7209L232.775 41.8403C232.684 41.7492 232.592 41.7492 232.5 41.8403C232.5 41.9314 232.5 42.1147 232.592 42.1147Z" fill="white"/>
<path d="M231.946 43.3047L248.205 53.1853C248.296 53.2774 248.388 53.2774 248.48 53.1853C248.572 53.0942 248.48 53.003 248.388 52.9109L232.13 43.0303C232.038 42.9391 231.946 42.9391 231.855 43.0303C231.762 43.1214 231.855 43.2136 231.946 43.3047Z" fill="white"/>
<path d="M231.213 44.4942L247.563 54.3748C247.654 54.4659 247.746 54.4659 247.838 54.3748C247.929 54.2826 247.838 54.1915 247.746 54.1004L231.488 44.2187C231.396 44.1276 231.304 44.1276 231.213 44.2187C231.121 44.3109 231.121 44.402 231.213 44.4942Z" fill="white"/>
<path d="M230.476 45.5918L240.856 51.9042C240.948 51.9042 241.04 51.9042 241.04 51.813C241.132 51.7209 241.04 51.6298 241.04 51.6298L230.661 45.3164C230.568 45.3164 230.476 45.3164 230.476 45.4086C230.384 45.4997 230.384 45.5918 230.476 45.5918Z" fill="white"/>
<path d="M244.989 81.9126L228.731 71.6664C226.618 70.2934 225.975 67.5494 227.353 65.4453L228.456 63.7978C229.833 61.6937 232.589 61.0538 234.702 62.4258L247.653 70.66C249.766 72.032 250.409 74.7771 249.031 76.8812L245.908 81.8215C245.632 82.0048 245.265 82.0959 244.989 81.9126Z" fill="#E654A0"/>
<path d="M247.743 73.4962L231.484 63.249C231.393 63.1579 231.301 63.0657 231.393 62.9746C231.484 62.8835 231.576 62.8835 231.668 62.9746L247.926 73.2218C248.018 73.3129 248.11 73.404 248.018 73.4962C247.926 73.5873 247.834 73.5873 247.743 73.4962Z" fill="white"/>
<path d="M246.918 74.5935L230.843 64.4385C230.751 64.3463 230.659 64.2552 230.751 64.1631C230.843 64.0719 230.935 64.0719 231.026 64.1631L247.101 74.3191C247.193 74.4102 247.286 74.5014 247.193 74.5935C247.193 74.6846 247.009 74.6846 246.918 74.5935Z" fill="white"/>
<path d="M246.184 75.6921L230.018 65.5361C229.926 65.445 229.834 65.3538 229.926 65.2617C230.018 65.1706 230.109 65.1706 230.201 65.2617L246.368 75.4167C246.459 75.5089 246.551 75.6 246.459 75.6921C246.368 75.7833 246.276 75.7833 246.184 75.6921Z" fill="white"/>
<path d="M245.447 76.8813L229.372 66.7263C229.28 66.6342 229.189 66.5431 229.28 66.4519C229.372 66.3598 229.464 66.3598 229.555 66.4519L245.63 76.607C245.722 76.6981 245.814 76.7902 245.722 76.8813C245.63 76.8813 245.539 76.9725 245.447 76.8813Z" fill="white"/>
<path d="M244.714 78.0708L234.518 71.5742C234.426 71.5742 234.426 71.3919 234.518 71.3919C234.61 71.2998 234.702 71.2998 234.702 71.2998L244.898 77.7955C244.989 77.7955 244.989 77.9787 244.898 77.9787C244.898 78.0708 244.806 78.0708 244.714 78.0708Z" fill="white"/>
<path d="M208.893 77.4303L226.161 88.5918C227.723 89.5983 229.836 89.1406 230.846 87.5853C231.857 86.03 231.397 83.9259 229.836 82.9194L215.047 73.3132C213.485 72.3067 211.372 72.7643 210.362 74.3196L208.801 76.7893C208.617 77.0637 208.617 77.3391 208.893 77.4303Z" fill="#E654A0"/>
<path d="M213.21 75.0515L229.285 85.4809C229.377 85.5721 229.469 85.5721 229.561 85.4809C229.653 85.3898 229.561 85.2977 229.469 85.2065L213.395 74.7771C213.303 74.685 213.21 74.685 213.119 74.7771C213.027 74.8682 213.119 75.0515 213.21 75.0515Z" fill="white"/>
<path d="M220.557 81.4561L228.641 86.6707C228.732 86.6707 228.732 86.6707 228.824 86.5786C228.916 86.4875 228.916 86.3964 228.824 86.3964L220.741 81.1816C220.649 81.1816 220.649 81.1816 220.557 81.2728C220.557 81.3639 220.557 81.4561 220.557 81.4561Z" fill="white"/>
<path fill-rule="evenodd" clip-rule="evenodd" d="M164.523 26.8359C160.206 25.2806 151.664 27.568 151.664 36.0766C151.664 42.5722 146.244 42.7554 145.142 48.1534C142.662 59.8638 158.829 67.0914 166.636 57.5764C171.413 51.6296 174.169 30.2209 164.523 26.8359Z" fill="#513ADD"/>
<path fill-rule="evenodd" clip-rule="evenodd" d="M162.745 34.272C163.112 31.6191 165.409 30.1549 166.328 30.7949C167.246 31.4358 167.981 32.7167 168.44 34.6376C169.359 38.4803 169.175 42.5062 167.797 43.7871C166.971 44.5192 163.755 44.7936 163.755 44.7936C163.755 44.7936 160.541 46.2568 160.448 48.8185C160.265 51.7459 163.847 58.7913 160.633 60.7122C157.418 62.634 154.019 66.659 148.691 66.9334C143.364 67.2999 138.036 60.5289 139.965 58.2425C144.098 53.3933 147.681 45.708 154.111 44.7015C157.05 44.2438 158.612 44.3359 158.612 41.4076C158.612 41.4076 157.693 41.5909 156.958 40.9509C156.132 40.2188 155.58 38.0226 157.05 37.657C158.612 37.2915 159.071 40.0356 159.071 40.0356C159.071 40.0356 162.194 38.9379 162.745 34.272Z" fill="#FFC6BD"/>
<path fill-rule="evenodd" clip-rule="evenodd" d="M156.223 68.031C156.223 68.031 160.539 64.7381 162.101 60.8954C163.478 57.4183 162.101 53.3933 161.274 53.21C159.437 52.8445 156.957 47.9032 155.12 43.5117C154.294 41.5908 138.586 54.1254 135.738 57.0527C132.891 59.8889 142.995 67.8487 146.119 69.3119C149.241 70.776 156.223 68.031 156.223 68.031Z" fill="#D82AA7"/>
<path fill-rule="evenodd" clip-rule="evenodd" d="M155.514 47.5246C156.768 49.8491 161.31 55.4253 164.014 57.0588C165.325 57.8259 177.356 49.6698 177.356 49.6698C177.356 49.6698 179.402 49.4945 178.115 51.3964C176.909 53.3973 167.75 64.3065 162.543 62.8053C157.436 61.2219 149.55 53.9522 149.023 50.7764C148.299 46.7545 153.789 44.3279 155.514 47.5246Z" fill="#FFC6BD"/>
<path fill-rule="evenodd" clip-rule="evenodd" d="M179.706 47.9857C179.254 48.5936 176.925 49.1595 175.558 51.4769C175.558 51.4769 175.355 52.6065 176.139 52.6937C176.531 52.7368 177.933 52.5625 179.525 51.7513C180.5 51.2005 182.306 50.5776 182.971 50.1569C183.72 49.9106 183.375 49.7083 182.936 49.8244C182.496 49.9406 180.868 50.4183 180.868 50.4183C180.868 50.4183 182.901 49.491 183.387 49.2155C183.874 48.9411 183.97 48.6217 183.399 48.7238C182.96 48.839 180.928 49.7664 180.928 49.7664C180.928 49.7664 183.055 48.5205 183.411 48.2311C183.768 47.9417 183.685 47.7674 183.067 48.0288C182.58 48.3032 180.548 49.2306 180.548 49.2306C180.548 49.2306 182.236 48.1009 182.592 47.8115C183.079 47.5361 183.092 47.0433 182.248 47.6081C181.583 48.0288 180.037 48.6807 179.241 49.0864C179.598 48.7969 180.264 48.3763 180.192 47.7103C180.062 47.6963 180.109 47.5361 179.706 47.9857Z" fill="#FFC6BD"/>
<path fill-rule="evenodd" clip-rule="evenodd" d="M213.758 33.515C213.942 30.862 208.982 30.4955 208.064 31.1365C207.144 31.7764 206.593 32.6918 206.134 34.7047C205.215 38.5474 205.4 42.5724 206.778 43.8533C207.604 44.5853 210.819 44.8597 210.819 44.8597C210.819 44.8597 214.033 46.3239 214.126 48.8857C214.309 51.813 210.726 58.8575 213.942 60.7793C217.157 62.7001 220.555 66.7261 225.883 67.0005C231.211 67.3661 236.538 60.596 234.609 58.3086C230.476 53.4595 226.893 45.7751 220.464 44.7686C217.525 44.3109 215.962 44.4021 215.962 41.4747C215.962 41.4747 216.605 41.4747 217.34 40.8338C218.167 40.1027 218.81 36.0768 217.525 35.3447C216.697 34.887 216.789 33.1494 216.973 33.3317L216.147 33.6061C216.054 33.6982 213.39 38.3642 213.758 33.515Z" fill="#FFC6BD"/>
<path fill-rule="evenodd" clip-rule="evenodd" d="M218.443 68.0985C218.443 68.0985 214.125 64.8046 212.564 60.9619C211.186 57.4858 212.564 53.4598 213.39 53.2766C215.228 52.911 217.708 47.9707 219.544 43.5792C220.372 41.6574 236.079 54.1919 238.926 57.1193C241.773 59.9555 231.669 67.9153 228.547 69.3794C225.423 70.7515 218.443 68.0985 218.443 68.0985Z" fill="#0964B7"/>
<path fill-rule="evenodd" clip-rule="evenodd" d="M219.172 47.5499C217.931 49.9154 213.343 55.4606 210.701 57.052C209.425 57.8511 197.386 49.639 197.386 49.639C197.386 49.639 195.375 49.4507 196.573 51.4016C197.77 53.3534 206.963 64.3317 212.091 62.7914C217.219 61.2502 225.115 53.9013 225.693 50.7376C226.35 46.7537 220.856 44.3982 219.172 47.5499Z" fill="#FFC6BD"/>
<path fill-rule="evenodd" clip-rule="evenodd" d="M195.087 48.0468C195.598 48.5967 197.808 49.3347 199.197 51.4639C199.327 51.4789 199.386 52.6376 198.685 52.7248C198.245 52.8409 196.855 52.5225 195.347 51.6973C194.396 51.2626 192.627 50.4083 191.89 50.162C191.154 49.9156 191.51 49.6262 191.985 49.8435C192.461 50.0608 194.112 50.4073 194.112 50.4073C194.112 50.4073 192.08 49.525 191.605 49.3077C191.131 49.0904 190.964 48.7429 191.617 48.815C192.093 49.0323 194.041 49.7414 194.041 49.7414C194.041 49.7414 191.974 48.5255 191.546 48.149C191.202 47.9457 191.297 47.6272 191.903 47.8586C192.378 48.0759 194.361 49.1184 194.361 49.1184C194.361 49.1184 192.77 48.1189 192.342 47.7424C191.915 47.3658 191.88 47.0333 192.699 47.453C193.258 47.8435 194.814 48.5105 195.633 48.9301C195.289 48.7269 194.648 48.162 194.707 47.51C194.529 47.6553 194.577 47.496 195.087 48.0468Z" fill="#FFC6BD"/>
<path d="M220.184 37.815C219.266 39.6447 215.959 42.2066 215.959 42.2066C215.959 42.2066 216.051 41.6567 215.684 41.2001C215.408 40.7424 216.51 38.8205 216.51 38.8205C217.705 38.8205 217.796 37.4485 217.705 36.5342C217.521 35.3444 216.602 35.3444 216.235 36.7164C216.235 36.7164 215.408 38.3639 215.316 38.5461C214.857 39.096 213.295 40.0103 213.112 40.0103C212.928 40.0103 213.938 37.5407 213.938 37.083C213.938 36.6253 213.112 36.442 212.836 35.5277L213.112 33.2403C212.928 32.5993 212.101 32.4171 211.366 32.3249L208.152 32.0505C207.324 31.9594 206.753 32.5082 206.569 33.2403C206.477 33.5147 206.274 34.1647 206.274 34.1647C206.274 34.1647 205.763 33.9724 205.488 33.6979C205.303 33.4236 205.303 33.057 205.303 32.9659C204.569 32.6915 204.018 31.8683 204.202 31.1362C204.294 30.4952 204.753 29.9464 205.396 29.7631C205.396 29.672 205.58 27.8423 206.223 27.4768C206.866 27.1102 207.417 27.3846 207.509 27.4768C207.509 27.3846 207.784 26.287 208.61 26.0126C209.53 25.7382 211.917 26.3781 212.377 27.7512C212.377 27.659 212.744 27.2935 213.387 27.2935C214.03 27.2935 214.398 27.9334 214.398 27.9334C214.581 27.8423 214.949 27.4768 215.5 27.4768C216.235 27.4768 216.878 29.3065 217.062 30.3129C217.337 30.2208 218.071 30.1297 218.806 30.4041C219.817 30.8618 220.368 31.8683 220.46 33.057C220.644 33.1492 221.011 33.2403 221.195 33.6979C221.47 34.2468 221.287 34.9789 220.827 35.5277C220.92 35.6188 221.195 35.8932 221.287 36.3509C221.287 36.9908 220.827 37.5407 220.184 37.815Z" fill="white"/>
<path d="M189.341 37.3918C188.78 37.0895 188.135 37.0385 187.526 37.2483C187.071 37.4053 186.703 37.6928 186.433 38.1032C186.298 38.3104 186.19 38.5436 186.112 38.7991C185.894 38.6455 185.666 38.5279 185.431 38.4484C184.966 38.2909 184.5 38.2906 184.044 38.4475C183.435 38.6572 182.958 39.0943 182.702 39.6779C182.449 40.2548 182.433 40.9294 182.657 41.5778C182.886 42.2451 183.345 42.7703 184.101 43.2307C184.777 43.6425 185.665 43.9912 186.693 44.3948C187.044 44.5327 187.442 44.689 187.858 44.8582C187.968 44.9031 188.09 44.9065 188.202 44.8677C188.315 44.8293 188.409 44.7512 188.468 44.6483C188.691 44.259 188.909 43.8906 189.101 43.5656C189.662 42.6147 190.147 41.7933 190.426 41.0524C190.738 40.2243 190.777 39.5279 190.547 38.8605C190.324 38.2123 189.895 37.6907 189.341 37.3918Z" fill="white"/>
<path d="M196.299 29.765C196.087 29.3703 195.729 29.0906 195.29 28.9777C194.962 28.8933 194.634 28.9197 194.317 29.0562C194.157 29.1252 194.004 29.2203 193.859 29.3404C193.791 29.1655 193.702 29.008 193.595 28.8704C193.384 28.5979 193.11 28.4168 192.781 28.3325C192.343 28.2194 191.894 28.2913 191.518 28.5346C191.146 28.7752 190.875 29.1648 190.755 29.6318C190.631 30.1125 190.697 30.5985 190.962 31.1614C191.199 31.665 191.585 32.2135 192.032 32.8489C192.185 33.0657 192.358 33.3115 192.536 33.572C192.583 33.641 192.654 33.6903 192.735 33.7112C192.815 33.7318 192.901 33.7226 192.976 33.6851C193.257 33.5432 193.528 33.4113 193.766 33.2949C194.464 32.9544 195.067 32.6603 195.518 32.3337C196.022 31.9687 196.314 31.5748 196.438 31.0941C196.558 30.6272 196.509 30.1552 196.299 29.765Z" fill="white"/>
<path d="M186.812 24.8426C186.57 24.7325 186.3 24.7296 186.053 24.8342C185.867 24.9122 185.722 25.0423 185.622 25.221C185.571 25.3109 185.533 25.4111 185.508 25.5197C185.413 25.4619 185.315 25.4194 185.214 25.3929C185.016 25.3404 184.822 25.3535 184.636 25.4317C184.389 25.5361 184.203 25.7316 184.113 25.9817C184.024 26.2291 184.036 26.5106 184.147 26.7742C184.262 27.0455 184.467 27.2513 184.795 27.4217C185.089 27.574 185.468 27.6942 185.908 27.8333C186.057 27.8807 186.227 27.9346 186.406 27.9935C186.452 28.009 186.504 28.007 186.549 27.9877C186.595 27.9685 186.632 27.9334 186.653 27.8889C186.736 27.7204 186.816 27.561 186.887 27.4202C187.093 27.0083 187.272 26.6527 187.367 26.3363C187.474 25.9826 187.471 25.6917 187.356 25.4202C187.245 25.1566 187.052 24.9514 186.812 24.8426Z" fill="white"/>
<path d="M193.02 21.1013C192.957 20.9325 192.829 20.8016 192.66 20.7329C192.535 20.6816 192.402 20.6744 192.268 20.7118C192.201 20.7307 192.135 20.7604 192.07 20.8005C192.052 20.7271 192.026 20.6595 191.991 20.5988C191.921 20.4786 191.821 20.3918 191.695 20.3404C191.526 20.2718 191.343 20.2763 191.18 20.3529C191.019 20.4289 190.889 20.5697 190.816 20.7495C190.741 20.9345 190.741 21.1319 190.816 21.3708C190.884 21.5845 191.008 21.8241 191.153 22.1015C191.202 22.1963 191.257 22.3036 191.315 22.4171C191.329 22.4471 191.355 22.4707 191.386 22.4833C191.418 22.496 191.452 22.4969 191.484 22.4859C191.604 22.4445 191.719 22.4063 191.82 22.373C192.117 22.2746 192.373 22.1898 192.571 22.0838C192.791 21.9654 192.929 21.8241 193.004 21.639C193.078 21.4592 193.083 21.2683 193.02 21.1013Z" fill="white"/>
</svg>
