<svg width="298" height="200" viewBox="0 0 298 200" fill="none" xmlns="http://www.w3.org/2000/svg">
<path opacity="0.2" d="M264.64 160.877C263.649 142.67 254.636 119.775 239.492 109.59C230.119 103.28 218.22 101.116 209.748 93.4547C201.815 86.3339 199.652 75.3372 197.128 65.5121C191.991 45.5924 182.706 25.7619 166.301 13.2324C135.565 -10.2026 89.6849 -0.648806 65.2577 27.2938C53.179 41.0849 45.6074 58.6616 44.1652 76.8701C42.5427 97.781 41.5513 118.873 43.7145 139.785C44.4356 146.726 45.7877 154.298 48.1312 161.419C50.1143 167.097 52.7282 172.506 56.3337 177.012C61.9226 183.412 68.3215 186.387 73.0994 187.738C73.4598 187.829 73.8203 187.919 74.1807 188.009C76.7049 188.549 79.3191 188.73 81.9323 188.91H198.661C209.027 188.91 219.301 188.91 229.667 188.91C233.363 188.91 237.059 188.91 240.755 188.91H250.669C250.939 188.91 251.211 188.91 251.481 188.91C252.112 188.82 252.833 188.64 253.374 188.369C255.177 187.648 256.528 186.116 257.7 184.584C262.838 178.184 264.731 171.153 264.64 163.942C264.731 162.951 264.731 161.959 264.64 160.877Z" fill="#EFD3CE"/>
<path opacity="0.2" d="M257.792 184.493C262.93 178.093 264.823 171.063 264.733 163.852C264.733 162.86 264.733 161.869 264.643 160.877C263.741 156.821 261.938 152.945 259.414 149.79C252.113 140.687 239.945 136.54 228.227 136.54C218.943 136.54 209.569 138.884 200.464 137.172C185.592 134.377 174.866 121.758 164.32 110.941C148.816 95.0776 129.797 81.0162 107.714 78.4921C92.7511 76.779 77.2469 81.1063 65.259 90.2096C52.099 100.125 44.257 115.448 43.8063 131.943C43.6261 138.974 44.6175 145.915 46.0597 152.765C49.3948 168.269 56.8767 183.052 73.1909 187.738C73.5513 187.828 73.9118 187.919 74.2722 188.009C76.7963 188.549 79.4106 188.73 82.0248 188.91H198.752C209.118 188.91 219.394 188.91 229.76 188.91C233.455 188.91 237.151 188.91 240.846 188.91H250.762C251.032 188.91 251.302 188.91 251.573 188.91C252.203 188.82 252.924 188.639 253.465 188.369C255.178 187.558 256.53 186.026 257.792 184.493Z" fill="#F5D5E7"/>
<path d="M290.508 188.731C290.237 188.28 289.787 187.92 289.335 187.649C286.452 185.576 282.576 184.675 278.88 184.044C258.96 180.437 237.778 181.339 217.496 181.43C200.911 181.43 184.417 182.962 167.831 184.134C128.351 186.837 88.7802 181.339 49.2104 183.142C38.3939 183.592 27.938 185.305 18.5637 190.172C17.7525 190.623 16.9413 191.075 16.4905 191.705C12.7048 197.203 46.5062 198.376 50.6526 198.466C70.843 198.646 91.034 199.187 111.225 199.367C151.065 199.637 190.997 199.817 230.747 198.285C244.718 197.744 258.689 196.843 272.571 195.671C277.888 195.221 283.207 194.77 288.074 192.787C289.426 192.246 290.868 191.345 290.868 190.172C290.958 189.452 290.778 189.091 290.508 188.731Z" fill="#D6B6F9"/>
<path d="M115.459 185.125C115.459 185.125 121.499 186.296 121.589 187.918C121.679 188.821 113.207 189.902 112.576 189.361C111.674 188.46 112.756 185.305 112.756 185.305L115.459 185.125Z" fill="#181919"/>
<path d="M115.011 180.708L115.462 185.305C115.462 185.305 115.372 186.117 114.471 186.297C113.66 186.478 112.939 185.667 112.939 185.667L112.217 179.897" fill="#FFB288"/>
<path d="M96.0808 109.41C95.1787 117.252 95.0886 121.038 98.604 126.355C100.227 133.927 102.841 141.679 104.734 149.431C103.923 158.715 109.692 173.407 112.846 183.953L115.189 183.593C118.254 164.664 119.336 135.55 116.542 110.131" fill="#08599B"/>
<path d="M97.5264 120.047C97.5264 120.047 106.18 147.538 106.18 149.071C106.18 150.603 106.45 155.651 106.811 158.986C107.532 165.115 113.121 183.413 113.121 183.413" stroke="#067AC1" stroke-width="0.4141"/>
<path d="M112.757 184.493L112.396 183.051L115.371 182.961L115.461 184.222L112.757 184.493Z" fill="#32A0EA"/>
<path d="M76.4367 185.215C76.4367 185.215 81.3047 189.091 80.9433 190.533C80.6729 191.344 72.7411 188.1 72.3807 187.378C71.84 186.206 74.0928 184.133 74.0928 184.133L76.4367 185.215Z" fill="#181919"/>
<path d="M77.6077 181.339L76.3451 185.305C76.3451 185.305 75.9847 185.846 75.0836 185.666C74.1824 185.485 73.9121 184.403 73.9121 184.403L75.3539 179.446" fill="#FFB288"/>
<path d="M79.1382 107.786C76.7042 115.268 77.1558 119.234 79.5888 125.183C79.769 132.303 79.769 139.514 79.8591 146.726C74.8119 159.435 74.0008 170.792 74.6316 182.871L77.0656 183.772C77.0656 183.772 91.5776 158.444 94.2809 148.438C97.3457 136.901 99.0588 124.642 99.5995 113.105" fill="#08599B"/>
<path d="M79.7723 109.409C79.7723 109.409 77.1581 117.161 80.5833 124.642C80.5833 126.716 81.7557 144.021 81.3052 146.725C81.0339 147.988 78.691 154.116 77.0679 160.066C75.3558 166.646 74.9053 182.239 74.9053 182.239" stroke="#067AC1" stroke-width="0.4141"/>
<path d="M74.1855 182.781L74.6361 181.159L77.7009 182.601L77.0701 184.044L74.1855 182.781Z" fill="#32A0EA"/>
<path d="M119.878 49.8282L117.896 48.1151C117.896 48.1151 117.896 45.2306 117.896 44.6899C117.896 44.1492 117.175 40.9042 116.543 40.9042C115.912 40.9042 115.732 40.0932 115.372 40.4537C115.011 40.8141 115.642 44.4196 115.372 44.6899C115.101 44.9602 114.741 42.9778 114.471 43.2481C114.2 43.5185 114.2 44.9602 114.2 45.6811C114.2 46.403 114.831 47.8448 115.372 48.3855C116.002 49.0163 118.617 51.8107 118.617 51.8107L119.878 49.8282Z" fill="#EABCB0"/>
<path d="M118.885 48.7471L117.263 50.6394C117.263 50.6394 123.753 59.203 125.825 62.0866C123.933 61.4558 121.229 59.8338 119.696 58.7524C116.632 56.769 113.567 55.6876 111.494 55.6876C106.987 55.6876 109.33 70.4699 114.558 72.6326C124.384 74.0754 135.47 73.1743 137.182 69.749C139.616 64.5206 125.195 52.4426 118.885 48.7471Z" fill="#CDACF9"/>
<path d="M125.737 61.9971C125.737 61.9971 127 65.4223 129.163 66.5938" stroke="#BE86E2" stroke-width="0.4141"/>
<path d="M88.7816 59.564C77.0641 72.8144 77.2443 95.4384 77.2443 110.943C77.2443 110.943 85.897 116.802 99.0573 116.802C112.308 116.802 117.715 113.557 117.715 113.557C118.076 97.9626 115.282 91.2022 117.896 65.3332C117.896 65.3332 113.659 55.6882 111.407 55.6882C109.153 55.6882 100.409 54.7871 100.409 54.7871L88.7816 59.564Z" fill="#CDACF9"/>
<path d="M117.266 72.9942C117.266 72.9942 117.536 68.4876 118.618 67.4053" stroke="#BE86E2" stroke-width="0.4141"/>
<path d="M110.504 51.2714L110.144 55.3274L111.496 55.6879C111.496 55.6879 110.775 57.4911 108.522 57.7614C103.834 58.3922 100.499 54.7867 100.499 54.7867L102.032 54.5164L104.375 47.0352" fill="#FCD4C3"/>
<path d="M103.113 109.139C77.4238 107.787 62.4603 121.038 51.8244 145.195C38.0334 176.563 18.744 178.996 10.0908 178.905" stroke="#B4E8FD" stroke-width="4.1406" stroke-linecap="round" stroke-linejoin="round"/>
<path d="M93.2885 111.303C94.1907 122.661 103.384 128.79 110.685 128.159L122.674 127.168L119.609 90.8428L107.621 91.834C100.319 92.3747 92.2973 99.946 93.2885 111.303Z" fill="#6BDDF7"/>
<path d="M99.4178 110.762C100.319 121.849 107.62 130.232 115.732 129.601L128.982 128.519L125.737 88.4082L112.487 89.4895C104.375 90.1203 98.5157 99.6751 99.4178 110.762Z" fill="#30A0B2"/>
<path d="M128.123 128.532C136.21 127.858 142.016 118.343 141.094 107.281C140.17 96.218 132.867 87.7975 124.781 88.4714C116.695 89.1462 110.888 98.661 111.811 109.724C112.734 120.785 120.037 129.207 128.123 128.532Z" fill="#6BDDF7"/>
<path d="M125.822 115.72C126.002 117.343 127.174 118.605 128.616 118.514C129.968 118.424 131.049 116.983 130.869 115.36C130.689 113.738 129.517 112.476 128.076 112.566C126.633 112.656 125.642 114.098 125.822 115.72Z" fill="#30A0B2"/>
<path d="M124.562 101.479C124.743 103.101 125.915 104.363 127.357 104.273C128.708 104.183 129.791 102.74 129.611 101.118C129.43 99.4953 128.258 98.2338 126.816 98.3239C125.463 98.414 124.472 99.8558 124.562 101.479Z" fill="#30A0B2"/>
<path d="M127.538 103.371C129.07 103.281 146.286 101.839 146.286 101.839C147.459 101.749 148.27 100.757 148.18 99.5857C148.09 98.4143 147.099 97.6023 145.926 97.6924C145.926 97.6924 128.62 99.1352 127.178 99.2253C125.736 99.3154 126.006 103.462 127.538 103.371Z" fill="#E2E8ED"/>
<path d="M128.712 117.613C130.244 117.522 147.46 116.08 147.46 116.08C148.633 115.99 149.444 114.998 149.353 113.827C149.263 112.654 148.271 111.843 147.1 111.934C147.1 111.934 129.793 113.375 128.351 113.465C126.909 113.557 127.179 117.703 128.712 117.613Z" fill="#E2E8ED"/>
<path d="M82.4721 76.5092C82.4721 76.5092 81.57 85.9739 85.8062 93.9057C89.4117 100.666 96.6236 109.41 102.482 114.277L103.925 113.917C101.851 106.165 95.4512 92.2837 95.0907 87.1454C94.7303 81.9179 94.8204 75.9685 94.7303 73.084" fill="#FCD4C3"/>
<path d="M100.408 54.7871C100.408 54.7871 92.2049 55.2377 87.428 58.8431C79.2258 65.0628 80.8479 81.6484 83.1918 89.7604C85.5356 97.8724 97.0729 110.041 100.769 112.745C101.399 112.745 103.203 112.565 103.112 111.213C101.039 104.903 95.1796 88.2275 95.1796 88.2275L96.0817 65.7837" fill="#CDACF9"/>
<path d="M103.38 112.745C104.281 112.835 105.093 113.286 105.904 113.826C106.625 114.367 107.436 115.268 107.346 115.629C107.256 116.08 106.175 115.268 105.994 115.358C105.814 115.539 107.887 118.603 107.526 118.874C107.166 119.144 105.364 116.26 105.364 116.26C105.364 116.26 107.076 119.234 106.445 119.324C105.904 119.415 104.371 116.531 104.371 116.531C104.371 116.531 105.634 119.054 105.183 119.144C104.733 119.234 103.56 116.711 103.56 116.711C103.56 116.711 104.552 118.874 104.191 118.874C104.011 118.874 103.02 117.792 102.659 116.531C102.299 115.268 101.848 114.097 102.209 113.106" fill="#FCD4C3"/>
<path d="M97.5236 94.8071C96.1719 91.0214 95.1807 88.227 95.1807 88.227L96.8928 69.3887" stroke="#BE86E2" stroke-width="0.4141"/>
<path d="M81.3903 73.8965C81.3002 79.0338 81.931 85.3436 83.2826 89.7601C84.4551 93.6359 87.7001 98.5039 91.1253 102.83" stroke="#BE86E2" stroke-width="0.4141"/>
<path d="M110.234 53.8853L110.324 53.2545C109.604 53.3446 104.736 52.8039 103.744 51.0908H103.113L102.393 53.2545C105.728 56.86 109.604 53.9754 110.234 53.8853Z" fill="#EFC6B9"/>
<path d="M101.857 45.0532C102.397 41.9884 104.56 37.6621 108.527 38.1126C111.05 38.383 112.943 40.1852 114.385 42.1686C115.467 43.7005 115.197 45.1433 114.025 48.3883C113.484 49.74 112.763 51.0927 111.772 52.174C111.41 52.5345 111.14 52.8048 110.78 52.985C108.617 54.3377 105.462 53.7059 103.749 51.8136C102.037 50.1005 101.406 47.3971 101.857 45.0532Z" fill="#FCD4C3"/>
<path d="M119.431 42.3489C118.981 42.0786 117.359 41.7171 117.178 41.3567C116.998 40.9962 116.908 40.6358 116.908 40.2753C116.638 38.5632 115.826 37.3007 114.474 36.0391C113.393 35.0479 111.86 34.5963 110.328 34.5062C108.795 34.4161 107.263 34.7765 105.82 35.138C104.829 35.4083 103.838 35.7688 103.027 36.3995C102.485 36.8501 102.035 37.3908 101.674 38.0215C101.043 39.0138 100.503 40.0951 100.503 41.2666C100.142 41.2666 99.872 41.5369 99.6918 41.8072C99.5116 42.0786 99.5116 42.439 99.4215 42.7995C99.3314 44.2413 99.6918 46.6753 100.773 47.7566C101.404 48.4775 102.395 50.1005 102.757 50.5511C102.757 50.5511 103.748 49.1093 103.658 49.0182C103.568 49.1093 101.584 47.3962 101.314 46.4049C101.134 45.5028 102.125 46.7654 102.847 46.3148C103.297 46.5852 104.829 47.1258 105.55 47.6665C105.37 47.3962 105.28 44.4215 105.28 44.061C105.64 43.8808 105.82 43.5204 106.001 43.25C106.722 42.0786 106.813 40.6358 106.452 39.3742C106.722 39.5545 106.903 39.6446 107.173 39.8248C108.525 40.7259 110.418 40.7259 111.59 41.7171C113.483 43.3401 119.161 42.439 119.431 42.3489Z" fill="#E02F27"/>
<path d="M103.206 44.9618C103.116 44.6014 102.664 44.4211 102.304 44.5113C101.944 44.6014 101.673 44.8717 101.493 45.2321C100.412 47.0344 103.116 50.73 104.107 47.9365" fill="#FCD4C3"/>
<path d="M107.985 51.0914C108.075 50.3705 108.256 49.6496 108.526 48.9287C108.616 48.8386 108.616 48.6584 108.796 48.5683C108.886 48.4781 108.977 48.4781 109.157 48.4781C110.508 48.388 111.861 48.4781 113.213 48.7485C113.303 48.7485 113.483 48.8386 113.573 48.9287C113.663 49.0188 113.663 49.1089 113.663 49.199C113.663 49.6496 113.663 50.1903 113.663 50.6408" fill="#E02F27"/>
<path d="M111.23 53.7943C110.87 53.7943 110.508 53.7041 110.148 53.614C110.058 53.614 109.968 53.5239 109.968 53.5239V53.4338C109.968 52.8932 109.968 52.3525 110.058 51.8108C110.058 51.7207 110.058 51.7207 110.148 51.7207C110.148 51.7207 110.238 51.7207 110.328 51.7207C110.599 51.7207 110.779 51.7207 111.05 51.7207" fill="#E02F27"/>
<path d="M217.409 185.124C217.409 185.124 209.838 187.467 209.838 188.639C209.838 189.27 220.204 188.369 220.834 187.918C221.827 187.197 220.474 185.304 220.474 185.304L217.409 185.124Z" fill="#181919"/>
<path d="M216.961 181.88L217.411 185.215C217.411 185.215 217.682 185.755 218.673 185.846C219.754 185.936 220.386 185.215 220.386 185.215L220.026 180.979" fill="#FFB288"/>
<path d="M226.695 108.417C228.588 116.079 227.866 119.955 225.073 125.723C223.36 145.103 223.18 164.482 220.295 183.322L217.23 183.502C210.29 165.113 207.135 137.532 207.767 112.383" fill="#26387A"/>
<path d="M225.433 111.121C226.154 112.923 226.334 114.907 226.244 116.799C226.154 119.684 224.981 122.298 224.17 125.092C223.179 128.788 223.089 132.393 222.819 136.179C222.368 142.037 221.918 147.987 221.466 153.846C220.745 163.4 220.024 173.045 219.213 182.6C219.213 182.87 219.213 183.14 219.123 183.411" stroke="#0061A6" stroke-width="0.4141"/>
<path d="M234.627 186.025C234.627 186.025 226.425 188.459 226.425 189.721C226.425 190.442 237.692 189.451 238.323 188.91C239.404 188.189 237.872 186.116 237.872 186.116L234.627 186.025Z" fill="#181919"/>
<path d="M234.086 182.6L234.627 186.116C234.627 186.116 234.897 186.656 236.069 186.747C237.241 186.837 237.962 186.116 237.962 186.116L237.601 181.699" fill="#FFB288"/>
<path d="M240.214 108.327C241.656 115.718 241.386 119.594 239.943 125.452C239.673 144.652 238.862 164.663 238.321 183.411L233.724 183.772C229.758 166.015 223.899 137.531 223.268 112.654" fill="#26387A"/>
<path d="M239.766 109.409C239.766 109.409 241.388 117.701 238.144 126.896C237.602 135.549 237.332 183.412 237.332 183.412" stroke="#0061A6" stroke-width="0.4141"/>
<path d="M232.554 111.933C233.905 115.358 239.404 115.628 240.305 115.718" stroke="#0061A6" stroke-width="0.4141"/>
<path d="M212.81 70.3799C204.518 84.8018 198.298 99.0434 192.98 114.817L191.357 114.006C191.718 99.3138 196.496 78.0414 202.715 64.791" fill="#FCD4C3"/>
<path d="M211.463 56.498C211.463 56.498 208.849 57.2189 205.875 59.2024C202.991 61.0947 200.917 63.8892 199.385 66.954C197.942 70.0188 197.132 73.3539 196.591 76.7791C196.591 76.7791 200.106 78.4913 204.072 79.0319C208.038 79.5726 212.274 79.0319 212.274 79.0319L213.897 57.7596C213.897 57.7596 212.454 57.6695 211.463 56.498Z" fill="#FFC49C"/>
<path d="M207.675 64.8794C206.954 80.4736 207.494 96.4274 207.855 111.571C207.855 111.571 212.271 113.013 222.908 113.013C233.544 113.013 241.115 108.777 241.115 108.777C239.043 93.1824 236.789 74.3441 231.741 61.5442C231.741 61.5442 226.062 53.9728 220.474 53.6124C219.392 53.5223 218.221 54.063 217.138 54.6937C216.327 55.1453 212.722 56.2266 212.722 56.2266L207.675 64.8794Z" fill="#FFC49C"/>
<path d="M207.766 66.3232C207.405 69.298 207.405 79.3033 207.405 79.3033" stroke="#E2A881" stroke-width="0.6547"/>
<path d="M218.403 116.799C230.301 114.365 235.349 142.398 238.054 153.215C244.453 178.903 268.609 176.02 279.696 176.02C294.119 176.02 300.428 185.033 293.758 189.811" stroke="#B4E8FD" stroke-width="3.0389" stroke-linecap="round" stroke-linejoin="round"/>
<path d="M225.976 118.062C225.976 129.419 217.413 136.27 210.022 136.27H197.943V99.7646H210.022C217.413 99.8548 225.976 106.705 225.976 118.062Z" fill="#6BDDF7"/>
<path d="M219.755 118.062C219.755 129.149 213.175 138.162 205.062 138.162H191.723V97.9609H205.062C213.175 97.9609 219.755 106.975 219.755 118.062Z" fill="#30A0B2"/>
<path d="M222.731 107.064C219.846 111.03 217.052 114.996 214.348 118.962C214.708 118.872 215.069 118.692 215.34 118.421C215.34 118.692 214.888 119.232 215.25 119.413C215.7 119.593 216.151 119.142 216.601 119.232C217.052 119.142 217.412 118.602 217.683 118.331C217.503 118.602 217.503 118.872 217.503 119.052C220.477 117.881 223.091 115.176 225.344 112.923C224.804 110.76 223.902 108.777 222.731 107.064Z" fill="#57CADD"/>
<path d="M192.714 138.162C200.829 138.162 207.406 129.163 207.406 118.062C207.406 106.96 200.829 97.9609 192.714 97.9609C184.6 97.9609 178.021 106.96 178.021 118.062C178.021 129.163 184.6 138.162 192.714 138.162Z" fill="#6BDDF7"/>
<path d="M193.981 125.183C193.981 126.805 192.809 128.156 191.457 128.156C190.105 128.156 188.933 126.805 188.933 125.183C188.933 123.56 190.105 122.208 191.457 122.208C192.809 122.208 193.981 123.56 193.981 125.183Z" fill="#30A0B2"/>
<path d="M193.981 110.941C193.981 112.563 192.809 113.915 191.457 113.915C190.105 113.915 188.933 112.563 188.933 110.941C188.933 109.318 190.105 107.966 191.457 107.966C192.809 107.966 193.981 109.228 193.981 110.941Z" fill="#30A0B2"/>
<path d="M235.436 76.2389C235.436 76.2389 237.15 85.7937 232.913 93.6354C229.307 100.396 224.98 109.41 219.212 114.277L217.77 113.917C219.843 106.165 226.243 92.2837 226.603 87.1454C226.964 81.9179 226.874 75.9686 226.964 73.084" fill="#FCD4C3"/>
<path d="M220.472 53.7041C220.472 53.7041 226.781 54.2448 230.387 58.0305C235.615 63.4392 237.328 74.1654 237.328 76.5984C235.796 78.672 231.379 78.8522 228.855 78.8522C226.331 78.8522 224.529 77.4104 224.529 77.4104L223.987 65.6018" fill="#FFC49C"/>
<path d="M218.309 112.744C217.408 112.834 216.597 113.285 215.785 113.825C215.064 114.366 214.253 115.267 214.344 115.628C214.434 116.079 215.515 115.267 215.695 115.357C215.875 115.538 213.803 118.602 214.163 118.873C214.524 119.143 216.326 116.259 216.326 116.259C216.326 116.259 214.614 119.233 215.245 119.324C215.785 119.414 217.318 116.53 217.318 116.53C217.318 116.53 216.056 119.053 216.506 119.143C216.958 119.233 218.129 116.71 218.129 116.71C218.129 116.71 217.138 118.873 217.498 118.873C217.679 118.873 218.67 117.791 219.03 116.53C219.391 115.267 219.841 114.096 219.481 113.105" fill="#FCCCB4"/>
<path d="M224.172 66.6846L224.622 77.4109" stroke="#E2A881" stroke-width="0.6547"/>
<path d="M219.033 53.5244L217.951 50.9102C217.771 51.3607 217.5 51.9014 217.14 52.2618C216.239 53.4343 214.706 54.1552 213.174 54.2453L213.895 55.5069L211.461 56.4981C211.461 56.4981 212.633 58.031 214.886 57.6705C219.574 57.0398 221.016 53.7046 221.016 53.7046L219.033 53.5244Z" fill="#FCD4C3"/>
<path d="M217.231 52.5318C217.591 52.0812 217.862 51.6307 218.042 51.1801L217.681 50.3691C217.501 50.9098 217.051 51.2702 216.78 51.7208C215.789 52.8933 214.436 53.524 212.814 53.6142L213.265 54.4251C214.798 54.4251 216.33 53.7042 217.231 52.5318Z" fill="#EDC3B4"/>
<path d="M218.488 45.1406C217.767 42.3461 215.513 38.3802 211.818 39.1912C209.474 39.6428 206.86 40.5439 206.409 42.7967C205.688 46.8537 206.77 48.9262 208.303 51.0899C208.843 51.9009 210.015 52.8922 210.917 53.3427C213.079 54.4251 215.964 53.5239 217.406 51.7207C218.849 49.8274 219.029 47.3042 218.488 45.1406Z" fill="#FCD4C3"/>
<path d="M214.432 42.7069C214.612 42.3464 214.973 42.3464 215.333 42.3464C215.693 42.4365 216.054 42.6167 216.325 42.8871C216.776 43.4277 217.136 44.1487 216.776 44.7804C216.686 44.9606 216.415 45.1409 216.235 45.3211C216.415 45.5914 216.776 46.042 217.136 46.4024C217.587 46.853 218.127 47.3036 218.758 47.664C218.938 45.4112 219.389 43.0673 219.119 40.8135C219.029 40.0926 218.938 39.3717 218.578 38.6508C218.308 38.0201 217.767 37.3883 217.136 37.0278C216.415 36.6674 215.423 36.6674 214.702 36.397C214.162 36.2168 213.621 35.8564 213.08 35.586C212.539 35.3157 211.908 35.1355 211.367 35.3157C210.556 35.496 209.925 36.397 209.023 36.5773C208.483 36.6674 208.032 36.397 207.581 36.3069C207.131 36.2168 206.5 36.2168 206.14 36.5773C205.869 36.8476 205.869 37.2982 205.599 37.5685C205.147 38.1102 204.336 37.93 203.615 38.1102C202.805 38.2904 202.264 39.0113 202.084 39.8223C201.992 40.6333 202.264 41.4453 202.895 41.986C203.525 42.5267 205.328 42.6167 205.418 42.5267C206.14 42.3464 206.23 43.2475 207.401 41.7156C207.852 41.0838 209.023 41.2651 209.745 41.6255C210.286 41.8959 210.646 42.4365 211.097 42.797C211.637 43.2475 212.358 43.4277 212.99 43.7882C213.351 43.9684 213.891 45.9519 214.162 46.4024C214.252 46.4926 214.973 45.7717 215.063 45.8618C215.153 45.9519 213.981 43.4277 214.432 42.7069Z" fill="#E02F27"/>
<path d="M213.35 43.7891C214.161 46.7628 214.251 47.5748 214.341 47.4846C215.063 47.1232 215.603 46.943 215.603 46.8529C215.423 46.4924 215.063 45.9518 214.792 44.9605" fill="#E02F27"/>
<path fill-rule="evenodd" clip-rule="evenodd" d="M8.11234 110.76C9.01376 109.859 10.3658 109.228 11.808 109.228C13.2502 109.228 14.5121 109.769 15.5036 110.76C16.405 111.663 17.036 113.014 17.036 114.456C17.036 115.899 16.4951 117.16 15.5036 118.152C14.6023 119.054 13.2502 119.684 11.808 119.684C10.3658 119.684 9.10387 119.144 8.11234 118.152C7.21102 117.25 6.58004 115.899 6.58004 114.456C6.58004 113.014 7.12081 111.753 8.11234 110.76ZM9.19397 105.623C8.47288 105.803 7.75179 106.164 7.12081 106.524C6.48993 106.885 5.85895 107.335 5.31808 107.876C5.22797 107.966 5.04774 107.966 4.95753 107.966L2.52382 106.614C2.43371 106.434 2.25349 106.434 2.16328 106.434C1.98306 106.434 1.89294 106.524 1.80273 106.704L0.090107 109.679C0 109.859 0 109.949 0 110.13C0 110.31 0.180321 110.4 0.270432 110.49L2.70415 111.843C2.79426 111.933 2.88437 112.023 2.88437 112.203C2.79426 112.564 2.70415 112.924 2.70415 113.285C2.70415 113.645 2.61404 114.005 2.61404 114.366C2.61404 114.726 2.61404 115.087 2.70415 115.448C2.79426 115.809 2.79426 116.169 2.88437 116.53C2.88437 116.71 2.88437 116.8 2.70415 116.89L0.270432 118.242C0.090107 118.332 0 118.422 0 118.602C0 118.783 0 118.873 0.090107 119.054L1.80273 122.027C1.89294 122.209 1.98306 122.299 2.16328 122.299C2.34361 122.299 2.43371 122.299 2.61404 122.209L5.04774 120.856C5.13786 120.766 5.31808 120.766 5.40829 120.946C5.94906 121.487 6.58004 121.937 7.21102 122.299C7.84201 122.659 8.5631 122.929 9.28419 123.2C9.46442 123.2 9.55452 123.38 9.55452 123.47V126.265C9.55452 126.445 9.64474 126.535 9.73485 126.715C9.82496 126.805 10.0053 126.895 10.1855 126.895H13.6107C13.791 126.895 13.8812 126.805 14.0614 126.715C14.1515 126.625 14.2417 126.445 14.2417 126.265V123.56C14.2417 123.38 14.3318 123.29 14.5121 123.29C15.2333 123.11 15.9543 122.749 16.5852 122.389C17.2162 122.027 17.8472 121.577 18.3881 121.036C18.4782 120.946 18.6584 120.946 18.7486 121.036L21.1822 122.389C21.3625 122.479 21.4526 122.479 21.633 122.479C21.8132 122.479 21.9034 122.389 21.9935 122.209L23.7061 119.234C23.7963 119.054 23.7963 118.964 23.7963 118.783C23.7963 118.602 23.6159 118.512 23.5258 118.422L21.0921 117.07C21.002 116.98 20.9119 116.89 20.9119 116.71C21.002 116.349 21.0921 115.989 21.0921 115.628C21.0921 115.268 21.1822 114.907 21.1822 114.546C21.1822 114.186 21.1822 113.825 21.0921 113.465C21.002 113.104 21.002 112.744 20.9119 112.383C20.9119 112.203 20.9119 112.113 21.0921 112.023L23.5258 110.67C23.7061 110.58 23.7963 110.49 23.7963 110.31C23.7963 110.13 23.7963 110.039 23.7061 109.859L21.9935 106.885C21.9034 106.704 21.8132 106.614 21.633 106.614C21.4526 106.614 21.3625 106.614 21.1822 106.704L18.7486 108.056C18.6584 108.147 18.4782 108.147 18.3881 107.966C17.8472 107.425 17.2162 106.975 16.5852 106.614C15.9543 106.254 15.2333 105.983 14.5121 105.713C14.3318 105.713 14.2417 105.533 14.2417 105.443V102.648C14.2417 102.468 14.1515 102.378 14.0614 102.198C13.9713 102.108 13.791 102.018 13.6107 102.018H10.1855C10.0053 102.018 9.91507 102.108 9.73485 102.198C9.64474 102.288 9.55452 102.468 9.55452 102.648V105.443C9.46442 105.443 9.3743 105.623 9.19397 105.623Z" fill="#FFC840"/>
<path fill-rule="evenodd" clip-rule="evenodd" d="M46.2434 61.6354C46.7843 61.0947 47.5054 60.7343 48.3166 60.7343C49.1278 60.7343 49.8489 61.0947 50.3897 61.6354C50.9305 62.1771 51.291 62.898 51.291 63.709C51.291 64.52 50.9305 65.2409 50.3897 65.7825C49.8489 66.3232 49.1278 66.6837 48.3166 66.6837C47.5054 66.6837 46.7843 66.3232 46.2434 65.7825C45.7026 65.2409 45.3421 64.52 45.3421 63.709C45.3421 62.898 45.7026 62.1771 46.2434 61.6354ZM46.8744 58.6607C46.4237 58.7518 46.0632 58.9321 45.7026 59.2024C45.3421 59.3826 44.9814 59.653 44.7111 60.0134C44.6209 60.1035 44.5308 60.1035 44.5308 60.0134L43.1787 59.2024C43.0886 59.2024 42.9985 59.1123 42.9084 59.2024C42.8182 59.2024 42.7281 59.2925 42.7281 59.3826L41.7365 61.0947C41.6464 61.1848 41.6464 61.275 41.7365 61.3651C41.7365 61.4552 41.8267 61.5453 41.9169 61.5453L43.2689 62.3573C43.359 62.3573 43.359 62.4474 43.359 62.5375C43.2689 62.7177 43.2689 62.9881 43.2689 63.1683C43.2689 63.3485 43.2689 63.6189 43.2689 63.7991C43.2689 63.9793 43.2689 64.2496 43.2689 64.4299C43.2689 64.6101 43.359 64.8804 43.359 65.0607C43.359 65.1508 43.359 65.2409 43.2689 65.2409L41.9169 66.0529C41.8267 66.143 41.7365 66.143 41.7365 66.2331C41.7365 66.3232 41.7365 66.4133 41.7365 66.5034L42.7281 68.2155C42.8182 68.3057 42.8182 68.3958 42.9084 68.3958C42.9985 68.3958 43.0886 68.3958 43.1787 68.3958L44.5308 67.5848C44.6209 67.5848 44.7111 67.5848 44.7111 67.5848C44.9814 67.8551 45.3421 68.1254 45.7026 68.3958C46.0632 68.576 46.4237 68.7562 46.8744 68.9364C46.9645 68.9364 46.9645 69.0265 46.9645 69.1167V70.7397C46.9645 70.8298 46.9645 70.9199 47.0546 71.01C47.1448 71.1001 47.2349 71.1001 47.325 71.1001H49.3081C49.3982 71.1001 49.4883 71.1001 49.5785 71.01C49.6686 70.9199 49.6686 70.8298 49.6686 70.7397V69.1167C49.6686 69.0265 49.7588 68.9364 49.8489 68.9364C50.2996 68.8463 50.6602 68.6661 51.0207 68.3958C51.3813 68.2155 51.7418 67.9452 52.0122 67.5848C52.1023 67.4947 52.1925 67.4947 52.2826 67.5848L53.6347 68.3958C53.7248 68.4859 53.815 68.4859 53.9051 68.3958C53.9952 68.3958 54.0853 68.3057 54.0853 68.2155L55.0768 66.5034C55.1669 66.4133 55.1669 66.3232 55.0768 66.2331C55.0768 66.143 54.9867 66.0529 54.8966 66.0529L53.5445 65.2409C53.4544 65.2409 53.4544 65.1508 53.4544 65.0607C53.5445 64.8804 53.5445 64.6101 53.5445 64.4299C53.5445 64.2496 53.5445 63.9793 53.5445 63.7991C53.5445 63.6189 53.5445 63.3485 53.5445 63.1683C53.5445 62.9881 53.4544 62.7177 53.4544 62.5375C53.4544 62.4474 53.4544 62.3573 53.5445 62.3573L54.8966 61.5453C54.9867 61.4552 55.0768 61.4552 55.0768 61.3651C55.0768 61.275 55.0768 61.1848 55.0768 61.0947L54.0853 59.2925C53.9952 59.2024 53.9952 59.1123 53.9051 59.1123C53.815 59.1123 53.7248 59.1123 53.6347 59.1123L52.2826 59.9233C52.1925 59.9233 52.1023 59.9233 52.1023 59.9233C51.8319 59.653 51.4714 59.3826 51.1108 59.1123C50.7503 58.9321 50.3897 58.7518 49.9391 58.5706C49.8489 58.5706 49.8489 58.4805 49.8489 58.3904V56.8585C49.8489 56.7684 49.8489 56.6783 49.7588 56.5882C49.6686 56.498 49.5785 56.498 49.4883 56.498H47.5054C47.4152 56.498 47.325 56.498 47.2349 56.5882C47.1448 56.6783 47.1448 56.7684 47.1448 56.8585V58.4805C47.0546 58.5706 46.9645 58.6607 46.8744 58.6607Z" fill="#6BDDF7"/>
<path fill-rule="evenodd" clip-rule="evenodd" d="M259.143 88.1364C259.683 87.5957 260.404 87.2352 261.216 87.2352C262.027 87.2352 262.748 87.5957 263.289 88.1364C263.83 88.677 264.191 89.3979 264.191 90.2099C264.191 91.0209 263.83 91.7418 263.289 92.2825C262.748 92.8232 262.027 93.1846 261.216 93.1846C260.404 93.1846 259.683 92.8232 259.143 92.2825C258.602 91.7418 258.242 91.0209 258.242 90.2099C258.242 89.489 258.602 88.677 259.143 88.1364ZM259.774 85.1617C259.323 85.2518 258.963 85.432 258.602 85.7024C258.242 85.8826 257.881 86.1539 257.611 86.5144C257.521 86.6045 257.431 86.6045 257.431 86.5144L255.988 85.7024C255.898 85.7024 255.808 85.6123 255.718 85.7024C255.627 85.7024 255.537 85.7924 255.537 85.8826L254.546 87.5957C254.456 87.6858 254.456 87.7759 254.546 87.866C254.546 87.9561 254.636 88.0463 254.726 88.0463L256.078 88.8573C256.168 88.8573 256.168 88.9474 256.168 89.0375C256.078 89.2177 256.078 89.489 256.078 89.6693C256.078 89.8495 256.078 90.1198 256.078 90.3C256.078 90.4803 256.078 90.7506 256.078 90.9308C256.078 91.1111 256.168 91.3814 256.168 91.5616C256.168 91.6517 256.168 91.7418 256.078 91.7418L254.726 92.5528C254.636 92.6429 254.546 92.6429 254.546 92.7331C254.546 92.8232 254.546 92.9133 254.546 93.0044L255.537 94.7165C255.627 94.8066 255.627 94.8967 255.718 94.8967C255.808 94.8967 255.898 94.8967 255.988 94.8967L257.341 94.0857C257.431 94.0857 257.521 94.0857 257.521 94.0857C257.791 94.356 258.152 94.6264 258.512 94.8967C258.872 95.077 259.233 95.2572 259.683 95.4374C259.774 95.4374 259.774 95.5275 259.774 95.6176V97.2406C259.774 97.3307 259.774 97.4209 259.864 97.511C259.954 97.6011 260.044 97.6011 260.134 97.6011H262.117C262.208 97.6011 262.298 97.6011 262.388 97.511C262.478 97.4209 262.478 97.3307 262.478 97.2406V95.6176C262.478 95.5275 262.568 95.4374 262.658 95.4374C263.109 95.3473 263.469 95.1671 263.83 94.8967C264.191 94.7165 264.551 94.4462 264.822 94.0857C264.912 93.9956 265.002 93.9956 265.092 94.0857L266.444 94.8967C266.534 94.9868 266.624 94.9868 266.714 94.8967C266.804 94.8967 266.894 94.8066 266.894 94.7165L267.887 93.0044C267.977 92.9133 267.977 92.8232 267.887 92.7331C267.887 92.6429 267.797 92.5528 267.706 92.5528L266.354 91.7418C266.264 91.7418 266.264 91.6517 266.264 91.5616C266.354 91.3814 266.354 91.1111 266.354 90.9308C266.354 90.7506 266.354 90.4803 266.354 90.3C266.354 90.1198 266.354 89.8495 266.354 89.6693C266.354 89.489 266.264 89.2177 266.264 89.0375C266.264 88.9474 266.264 88.8573 266.354 88.8573L267.706 88.0463C267.797 87.9561 267.887 87.9561 267.887 87.866C267.887 87.7759 267.887 87.6858 267.887 87.5957L266.894 85.8826C266.804 85.7924 266.804 85.7024 266.714 85.7024C266.624 85.7024 266.534 85.7024 266.444 85.7024L265.092 86.5144C265.002 86.5144 264.912 86.5144 264.912 86.5144C264.642 86.244 264.281 85.9737 263.92 85.7024C263.559 85.5221 263.199 85.3419 262.748 85.1617C262.658 85.1617 262.658 85.0716 262.658 84.9814V83.3594C262.658 83.2693 262.658 83.1792 262.568 83.0891C262.478 82.999 262.388 82.999 262.298 82.999H260.314C260.224 82.999 260.134 82.999 260.044 83.0891C259.954 83.1792 259.954 83.2693 259.954 83.3594V84.9814C259.864 85.0716 259.864 85.1617 259.774 85.1617Z" fill="#FFC840"/>
<path fill-rule="evenodd" clip-rule="evenodd" d="M191.811 168.449C192.261 167.998 192.802 167.728 193.433 167.728C194.064 167.728 194.695 167.998 195.056 168.449C195.506 168.899 195.776 169.44 195.776 170.071C195.776 170.701 195.506 171.333 195.056 171.694C194.605 172.144 194.064 172.414 193.433 172.414C192.802 172.414 192.171 172.144 191.811 171.694C191.36 171.243 191.09 170.701 191.09 170.071C191.09 169.44 191.36 168.809 191.811 168.449ZM192.261 166.105C191.901 166.195 191.63 166.285 191.36 166.465C191.09 166.645 190.819 166.826 190.549 167.096C190.459 167.186 190.459 167.186 190.368 167.096L189.286 166.465C189.196 166.465 189.196 166.465 189.106 166.465C189.016 166.465 189.016 166.555 188.926 166.555L188.205 167.908C188.205 167.998 188.205 168.088 188.205 168.088C188.205 168.178 188.295 168.178 188.295 168.268L189.377 168.899C189.467 168.899 189.467 168.989 189.467 169.079C189.467 169.26 189.377 169.44 189.377 169.53C189.377 169.71 189.377 169.89 189.377 170.071C189.377 170.251 189.377 170.431 189.377 170.611C189.377 170.792 189.467 170.972 189.467 171.063C189.467 171.153 189.467 171.153 189.377 171.243L188.295 171.874C188.205 171.874 188.205 171.964 188.205 172.054C188.205 172.144 188.205 172.234 188.205 172.234L189.016 173.586C189.016 173.676 189.106 173.676 189.196 173.676C189.286 173.676 189.377 173.676 189.377 173.676L190.459 173.045C190.549 173.045 190.549 173.045 190.639 173.045C190.909 173.316 191.18 173.496 191.45 173.676C191.72 173.856 192.081 173.946 192.351 174.036C192.441 174.036 192.441 174.127 192.441 174.217V175.479C192.441 175.569 192.441 175.66 192.531 175.66C192.622 175.75 192.622 175.75 192.712 175.75H194.245C194.335 175.75 194.425 175.75 194.425 175.66C194.515 175.569 194.515 175.569 194.515 175.479V174.217C194.515 174.127 194.605 174.127 194.605 174.036C194.965 173.946 195.236 173.856 195.506 173.676C195.776 173.496 196.047 173.316 196.317 173.045C196.407 172.955 196.407 172.955 196.497 173.045L197.58 173.676C197.67 173.676 197.76 173.676 197.76 173.676C197.85 173.676 197.85 173.586 197.94 173.586L198.661 172.234C198.661 172.144 198.661 172.054 198.661 172.054C198.661 171.964 198.571 171.964 198.571 171.874L197.49 171.243C197.398 171.243 197.398 171.153 197.398 171.063C197.398 170.882 197.49 170.701 197.49 170.611C197.49 170.431 197.49 170.251 197.49 170.071C197.49 169.89 197.49 169.71 197.49 169.53C197.49 169.35 197.398 169.17 197.398 169.079C197.398 168.989 197.398 168.989 197.49 168.899L198.571 168.268C198.661 168.268 198.661 168.178 198.661 168.088C198.661 167.998 198.661 167.908 198.661 167.908L197.94 166.555C197.94 166.465 197.85 166.465 197.76 166.465C197.67 166.465 197.58 166.465 197.58 166.465L196.497 167.096C196.407 167.096 196.407 167.096 196.317 167.096C196.047 166.826 195.776 166.645 195.506 166.465C195.236 166.285 194.875 166.195 194.605 166.105C194.515 166.105 194.515 166.015 194.515 165.924V164.663C194.515 164.573 194.515 164.483 194.425 164.483C194.335 164.393 194.335 164.393 194.245 164.393H192.712C192.622 164.393 192.531 164.393 192.531 164.483C192.441 164.573 192.441 164.573 192.441 164.663V165.924C192.441 166.015 192.351 166.105 192.261 166.105Z" fill="#FFC840"/>
<path fill-rule="evenodd" clip-rule="evenodd" d="M255.897 151.413C256.438 150.873 257.159 150.511 257.97 150.511C258.782 150.511 259.503 150.873 260.044 151.413C260.584 151.954 260.945 152.675 260.945 153.486C260.945 154.298 260.584 155.019 260.044 155.559C259.503 156.1 258.782 156.461 257.97 156.461C257.159 156.461 256.438 156.1 255.897 155.559C255.357 155.019 254.995 154.298 254.995 153.486C254.995 152.675 255.357 151.954 255.897 151.413ZM256.528 148.439C256.078 148.529 255.717 148.709 255.357 148.979C254.995 149.16 254.635 149.43 254.365 149.79C254.274 149.88 254.184 149.88 254.184 149.79L252.833 148.979C252.743 148.979 252.652 148.889 252.562 148.979C252.472 148.979 252.382 149.069 252.382 149.16L251.39 150.873C251.3 150.963 251.3 151.053 251.39 151.143C251.39 151.233 251.48 151.323 251.571 151.323L252.923 152.134C253.013 152.134 253.013 152.224 253.013 152.314C252.923 152.495 252.923 152.765 252.923 152.945C252.923 153.125 252.923 153.396 252.923 153.576C252.923 153.756 252.923 154.027 252.923 154.208C252.923 154.388 253.013 154.658 253.013 154.839C253.013 154.929 253.013 155.019 252.923 155.019L251.571 155.83C251.48 155.92 251.39 155.92 251.39 156.01C251.39 156.1 251.39 156.19 251.39 156.28L252.382 157.993C252.472 158.084 252.472 158.174 252.562 158.174C252.652 158.174 252.743 158.174 252.833 158.174L254.184 157.362C254.274 157.362 254.365 157.362 254.365 157.362C254.635 157.632 254.995 157.903 255.357 158.174C255.717 158.354 256.078 158.534 256.528 158.714C256.618 158.714 256.618 158.804 256.618 158.895V160.517C256.618 160.607 256.618 160.697 256.708 160.787C256.799 160.877 256.889 160.877 256.979 160.877H258.962C259.052 160.877 259.143 160.877 259.233 160.787C259.323 160.697 259.323 160.607 259.323 160.517V158.714C259.323 158.624 259.413 158.534 259.503 158.534C259.953 158.444 260.314 158.264 260.674 157.993C261.035 157.813 261.395 157.542 261.666 157.181C261.756 157.091 261.846 157.091 261.936 157.181L263.289 157.993C263.379 158.084 263.469 158.084 263.559 157.993C263.649 157.993 263.739 157.903 263.739 157.813L264.73 156.1C264.82 156.01 264.82 155.92 264.73 155.83C264.73 155.74 264.64 155.65 264.55 155.65L263.198 154.839C263.108 154.839 263.108 154.748 263.108 154.658C263.198 154.478 263.198 154.208 263.198 154.027C263.198 153.846 263.198 153.576 263.198 153.396C263.198 153.216 263.198 152.945 263.198 152.765C263.198 152.585 263.108 152.314 263.108 152.134C263.108 152.044 263.108 151.954 263.198 151.954L264.55 151.143C264.64 151.053 264.73 151.053 264.73 150.963C264.73 150.873 264.73 150.783 264.73 150.692L263.739 148.979C263.649 148.889 263.649 148.799 263.559 148.799C263.469 148.799 263.379 148.799 263.289 148.799L261.936 149.61C261.846 149.61 261.756 149.61 261.756 149.61C261.485 149.34 261.125 149.069 260.764 148.799C260.404 148.619 260.044 148.439 259.593 148.258C259.503 148.258 259.503 148.168 259.503 148.078V146.455C259.503 146.365 259.503 146.275 259.413 146.185C259.323 146.095 259.233 146.095 259.143 146.095H257.159C257.069 146.095 256.979 146.095 256.889 146.185C256.799 146.275 256.799 146.365 256.799 146.455V148.078C256.618 148.349 256.618 148.439 256.528 148.439Z" fill="#6BDDF7"/>
<path d="M202.988 55.2353L195.687 49.376C195.687 49.376 198.932 37.208 194.604 32.9717C192.261 30.7179 189.377 29.186 186.312 28.0136C179.552 25.4905 171.53 24.8587 165.58 28.8256C161.164 31.7993 158.46 36.7574 157.288 41.9849C156.206 46.4925 156.296 51.7199 159.18 55.4155C160.443 57.0385 162.245 58.3001 164.048 59.2913C169.817 62.3561 185.141 63.4374 191.72 59.021C193.523 57.7594 193.433 56.1364 194.154 53.5232L202.988 55.2353Z" fill="#C7E7EF"/>
<path d="M166.482 47.7543C164.409 47.7543 162.877 46.2224 162.877 44.239C162.877 42.2555 164.409 40.7236 166.573 40.7236C168.646 40.7236 170.178 42.2555 170.178 44.239C170.178 46.1323 168.556 47.7543 166.482 47.7543ZM168.556 44.239C168.556 43.0676 167.654 42.0753 166.482 42.0753C165.311 42.0753 164.409 43.0676 164.409 44.239C164.409 45.4104 165.311 46.4027 166.482 46.4027C167.744 46.3126 168.556 45.4104 168.556 44.239Z" fill="#EE796E"/>
<path d="M173.603 47.7544C171.98 47.7544 170.809 46.582 170.809 45.05C170.809 43.5171 171.98 42.3457 173.693 42.3457C175.315 42.3457 176.487 43.5171 176.487 45.05C176.487 46.4918 175.225 47.7544 173.603 47.7544ZM174.955 45.05C174.955 44.239 174.414 43.6073 173.603 43.6073C172.791 43.6073 172.25 44.239 172.25 45.05C172.25 45.8611 172.791 46.4918 173.603 46.4918C174.504 46.4918 174.955 45.771 174.955 45.05Z" fill="#EE796E"/>
<path d="M180.362 47.7537C179.551 47.7537 179.1 47.3932 178.74 46.9427V49.1955H177.207V42.345H178.74V43.0669C179.1 42.6153 179.641 42.2549 180.362 42.2549C181.624 42.2549 182.796 43.2471 182.796 44.9592C182.796 46.7625 181.624 47.7537 180.362 47.7537ZM181.264 44.9592C181.264 44.0581 180.632 43.5174 180.001 43.5174C179.281 43.5174 178.74 44.0581 178.74 44.9592C178.74 45.8603 179.281 46.401 180.001 46.401C180.722 46.4911 181.264 45.8603 181.264 44.9592Z" fill="#EE796E"/>
<path d="M185.41 47.7541C184.688 47.7541 183.877 47.4838 183.156 46.9431L183.787 45.9519C184.328 46.4024 184.958 46.5827 185.41 46.5827C185.861 46.5827 186.041 46.4024 186.041 46.2222C186.041 45.8618 185.5 45.7717 184.958 45.5914C184.238 45.4112 183.427 45.0508 183.427 44.0585C183.427 42.9772 184.328 42.4365 185.32 42.4365C185.951 42.4365 186.672 42.6167 187.302 43.0673L186.762 44.0585C186.221 43.7882 185.68 43.608 185.32 43.608C184.958 43.608 184.778 43.7882 184.778 43.9684C184.778 44.2387 185.32 44.42 185.861 44.6002C186.581 44.8705 187.483 45.231 187.483 46.1321C187.392 47.2134 186.581 47.7541 185.41 47.7541Z" fill="#EE796E"/>
<path d="M190.008 40.8135V40.9937L189.557 45.3201H188.746L188.296 40.9937V40.8135H190.008ZM188.296 47.664V46.041H189.918V47.5739H188.296V47.664Z" fill="#EE796E"/>
</svg>
