<svg width="278" height="188" viewBox="0 0 278 188" fill="none" xmlns="http://www.w3.org/2000/svg">
<path opacity="0.2" d="M232.325 163.905C231.554 149.09 224.189 130.336 211.772 122.03C204.15 116.892 194.388 115.093 187.452 108.842C181.029 103.019 179.231 94.1127 177.176 86.063C172.98 69.7924 165.358 53.6079 151.999 43.4171C126.908 24.321 89.4855 32.1132 69.5328 54.8924C59.7708 66.1102 53.5197 80.411 52.4065 95.2258C51.122 112.268 50.2652 129.48 52.0638 146.522C52.663 152.173 53.691 158.338 55.6598 164.162C57.287 168.872 59.4281 173.239 62.3398 176.922C66.8786 182.146 72.1879 184.543 76.0414 185.657C76.2979 185.742 76.6406 185.828 76.8981 185.828C78.9531 186.256 81.0942 186.427 83.2344 186.513H178.546C186.938 186.513 195.416 186.513 203.809 186.513C206.805 186.513 209.889 186.513 212.885 186.513H220.935C221.192 186.513 221.364 186.513 221.62 186.513C222.134 186.427 222.733 186.256 223.161 186.084C224.617 185.485 225.731 184.286 226.673 183.001C230.869 177.778 232.41 172.04 232.41 166.218C232.41 165.532 232.41 164.676 232.325 163.905Z" fill="#EDD4C0"/>
<path opacity="0.2" d="M226.674 183.173C230.87 177.95 232.412 172.212 232.412 166.389C232.412 165.618 232.412 164.761 232.326 163.991C231.641 160.651 230.185 157.568 228.045 154.914C222.05 147.464 212.117 144.038 202.611 144.038C195.075 144.038 187.368 145.922 179.918 144.552C167.758 142.24 159.023 131.964 150.374 123.143C137.7 110.212 122.2 98.737 104.217 96.682C87.7752 94.7984 70.4766 101.906 60.5433 115.265C51.5519 127.253 50.7804 142.068 53.692 156.284C56.3472 169.215 62.3418 181.889 76.0425 185.828C76.2999 185.913 76.6426 186 76.8991 186C78.9541 186.427 81.0953 186.599 83.2364 186.684H178.548C186.94 186.684 195.417 186.684 203.81 186.684C206.807 186.684 209.889 186.684 212.887 186.684H220.937C221.193 186.684 221.365 186.684 221.622 186.684C222.135 186.599 222.735 186.427 223.163 186.256C224.619 185.571 225.732 184.372 226.674 183.173Z" fill="#CC9A75"/>
<g opacity="0.5">
<path opacity="0.5" d="M0 186.77C11.5607 186.514 23.1213 186.427 34.6821 186.342L69.3642 186.085C92.4851 185.913 115.692 185.913 138.814 185.828C161.935 185.913 185.142 185.913 208.264 186.085L242.945 186.342C254.506 186.514 266.067 186.599 277.628 186.856C266.067 187.113 254.506 187.198 242.945 187.369L208.264 187.627C185.142 187.798 161.935 187.798 138.814 187.883C115.692 187.798 92.4851 187.798 69.3642 187.627L34.6821 187.369C23.1213 187.113 11.5607 187.026 0 186.77Z" fill="#C48857"/>
</g>
<path d="M118.091 133.332L110.898 132.904L104.218 131.962L107.729 131.021L118.177 131.791C118.605 131.876 118.861 132.219 118.776 132.648C118.861 133.075 118.519 133.418 118.091 133.332Z" fill="#263238"/>
<path d="M118.262 131.876L117.32 132.133L107.129 131.448L109.441 131.191L118.262 131.876Z" fill="#CDCDF9"/>
<path d="M107.384 131.878C107.384 131.878 107.213 131.364 107.642 131.449C108.326 131.449 108.926 131.449 109.782 131.364C111.066 131.192 110.553 130.336 110.553 130.336L106.614 129.822C106.614 129.822 105.329 129.308 104.13 128.708C102.932 128.109 102.332 128.88 101.99 129.051C101.647 129.222 99.2495 128.194 95.0533 126.739L90.3432 124.599L86.661 121.943L81.4369 123.742C81.4369 123.913 81.3517 124.085 81.3517 124.17C81.2655 125.026 81.4369 125.883 81.8657 126.653C82.3787 127.595 83.3215 128.281 84.3485 128.537L92.1417 130.507L100.877 132.905C100.877 132.905 101.732 133.59 103.017 134.532C104.301 135.474 106.699 135.388 107.898 135.388C109.183 135.388 109.525 134.36 109.525 134.36L110.553 134.104C111.923 133.847 112.78 132.991 112.78 132.991L107.384 131.878Z" fill="#EAA896"/>
<path d="M73.3861 108.841L73.301 109.27L69.3613 100.363C69.5327 100.192 69.704 100.021 69.8753 99.8492L69.9605 99.7641C71.0747 98.8222 72.6156 98.5647 73.9853 99.1639L74.4993 99.4214C75.4411 99.7641 76.2126 100.448 76.6405 101.391L87.6018 123.913L81.7785 126.311L73.3861 108.841Z" fill="#D9F0FF"/>
<path d="M86.4105 178.976C86.4956 178.976 86.4956 179.062 86.5818 179.062L88.2941 179.575C89.8351 180.004 90.8631 181.373 90.8631 183H82.8135C83.1561 182.144 83.6701 181.373 84.2693 180.688C84.8685 179.917 85.6389 179.403 86.4105 178.976Z" fill="white" stroke="#231F20" stroke-width="0.7127"/>
<path d="M71.9391 180.859C72.1105 179.918 72.4531 178.976 72.881 178.119C73.3088 177.349 73.6515 176.578 73.8228 175.807L74.2516 173.923H82.8142C82.8142 176.321 84.1849 178.29 86.4112 178.976C85.6407 179.404 84.8703 180.003 84.2701 180.603C83.6709 181.287 83.1569 182.059 82.8142 182.914H71.6826L71.9391 180.859Z" fill="#132449"/>
<path d="M79.8137 143.523H85.8945L83.6672 169.814L78.0152 169.9L77.416 153.971L79.8137 143.523Z" fill="#111D35"/>
<path d="M77.4156 153.971L78.0147 169.899H73.7324L77.4156 153.971Z" fill="#26387A"/>
<path d="M73.2187 169.898H76.8146L76.986 173.923H72.1045L73.2187 169.898Z" fill="#4E69A5"/>
<path d="M84.1778 169.812L83.1498 173.922H76.9848L76.8135 169.898L84.1778 169.812Z" fill="#111D35"/>
<path d="M74.8443 120.745L82.8939 118.004L77.2419 104.303L71.1621 108.07L74.8443 120.745Z" fill="#BFD9E8"/>
<path d="M77.7559 98.9061L82.0372 97.793C80.924 100.019 80.5823 102.588 81.0102 105.071L78.2699 105.671L77.7559 98.9061Z" fill="#EDB0A2"/>
<path d="M82.1231 97.7928L84.8635 97.1074V104.129L81.0951 104.986C80.5821 102.588 80.9238 100.019 82.1231 97.7928Z" fill="#D3928C"/>
<path d="M66.9634 104.646L71.2458 116.12L66.5356 119.203C66.0216 119.545 65.5076 119.973 65.0798 120.402C64.3093 115.007 64.9936 109.612 66.9634 104.646Z" fill="#BFD9E8"/>
<path d="M70.3036 99.1637H69.9609H71.5019C73.8996 99.1637 76.1269 100.363 77.4114 102.333L77.7531 98.9072L78.3532 105.672L77.7531 107.642L76.0407 103.617C75.0989 101.134 72.8726 99.5064 70.3036 99.1637Z" fill="#D9F0FF"/>
<path d="M40.7602 129.051L41.0171 125.968C42.3017 112.01 51.9784 100.278 65.3373 96.2535C69.0195 95.1393 72.9591 95.7395 76.2135 97.7945L77.7545 98.8225L77.4118 102.247C76.1273 100.278 73.901 99.079 71.5033 99.079H69.9613H70.304C72.873 99.3355 75.0993 101.049 76.1273 103.446L77.8396 107.471L80.9226 117.576L72.4451 120.488L71.2458 115.864L66.9645 104.388C64.9947 109.355 64.3093 114.75 64.9947 120.06C63.111 121.943 61.9978 124.599 62.1692 127.339L62.5118 132.905H55.0614C54.0334 132.905 53.0064 133.161 52.0635 133.675C51.1217 134.189 50.0944 134.446 49.0668 134.446H45.8127C42.8155 134.617 40.4177 132.048 40.7602 129.051Z" fill="#D9F0FF"/>
<path d="M97.7921 101.39C98.7349 100.877 99.4193 99.9342 99.6768 98.9072C100.79 98.2218 101.817 97.4514 102.674 96.4234C103.53 95.3963 103.958 94.0257 103.615 92.7412C103.359 93.2552 102.845 93.8543 102.246 94.0257C102.674 92.3985 102.417 90.6 101.646 89.0591C101.389 89.8295 100.447 90.2574 99.6768 90.0009C98.9062 89.8295 98.2209 89.2304 97.6207 88.8025C95.8233 87.518 93.7673 86.5752 91.5409 86.5752C89.3146 86.5752 87.0883 87.518 85.8038 89.2304C85.2046 90.0871 84.8619 91.0289 84.3479 91.8845C83.834 92.7412 83.2348 93.5979 82.293 94.0257C81.3511 94.4535 80.1518 94.197 79.6378 93.3404C79.5526 95.5677 81.265 98.308 83.2348 99.4212L86.3178 102.761L97.7921 101.39Z" fill="#E02F27"/>
<path d="M84.1766 99.4205C83.92 98.7362 84.0914 97.9647 84.6054 97.4517L84.6905 97.3655C85.2907 96.8516 86.0612 96.7663 86.7465 97.109C87.6022 97.622 87.9449 98.7362 87.517 99.5919L86.6604 101.39C87.6884 101.134 88.544 100.449 89.058 99.5067L89.4007 98.9065C89.6572 98.3935 90.1712 98.136 90.7714 98.3073L91.4557 98.4787C91.9697 98.5649 92.5688 98.3073 92.8264 97.8795L93.4255 96.8516L96.1658 98.5649C97.0225 99.0779 97.9643 99.3353 98.9062 99.4205C98.4783 100.963 97.6217 102.504 96.4223 103.874C92.9115 107.984 87.8597 109.783 85.8037 107.899C83.92 106.1 82.8069 102.761 83.1495 99.5067L84.1766 99.4205Z" fill="#E2A096"/>
<path d="M73.2168 120.401L80.2384 117.918L80.9238 119.887L74.1586 122.798L73.2168 120.401Z" fill="#9FB2D3"/>
<path d="M80.923 119.888L82.0362 123.056L87.6881 108.927L87.1742 106.101C87.0028 105.33 87.089 104.559 87.2594 103.874L88.116 101.048L88.8013 97.7942C89.5718 98.1368 90.171 98.9073 90.171 99.764L90.2572 101.648C90.2572 101.99 90.4285 102.333 90.7712 102.589C91.199 102.932 91.8843 102.932 92.3122 102.676L93.6828 101.648C94.1958 101.305 94.6246 100.706 94.796 100.107L95.1386 98.9935C95.3951 98.222 96.0805 97.709 96.851 97.709C97.365 97.709 97.7076 98.1368 97.6215 98.5646L97.1075 103.103C96.9361 104.303 96.337 105.33 95.4803 106.015L90.8563 109.612L86.7463 130.763C86.4888 132.048 85.7183 133.162 84.6903 133.846C83.2345 134.788 81.3508 134.874 79.8099 134.104L79.2097 133.761C78.1827 133.247 77.4122 132.305 76.9834 131.192L73.9004 122.8L80.923 119.888Z" fill="#F9BBAA"/>
<path d="M62.5139 133.075L81.61 134.018C87.4333 134.274 91.8008 139.327 91.3729 145.15L89.1466 172.296H79.2123L80.9257 146.006H52.4093C46.072 146.006 40.934 140.783 41.1909 134.359L41.2764 131.619L62.5139 133.075Z" fill="#596A9B"/>
<path d="M89.6605 172.381H78.6992V176.406H89.6605V172.381Z" fill="#4E69A5"/>
<path d="M92.9138 181.46C93 181.46 93.0852 181.545 93.0852 181.545L94.8836 182.059C96.5108 182.487 97.7091 184.799 97.9666 186.427H89.917C90.1735 185.57 90.5162 183.858 91.0302 183.172C91.458 182.487 92.1433 181.888 92.9138 181.46Z" fill="#040D21"/>
<path d="M78.6994 183.429C78.6994 182.487 78.8708 181.545 79.2134 180.688C79.5561 179.918 79.7274 179.147 79.7274 178.377L79.8126 176.493H88.3762C88.7189 178.891 90.4312 180.86 92.7437 181.545C92.0584 181.974 91.373 182.573 90.859 183.172C90.346 183.857 89.9172 185.57 89.7459 186.426H78.6143L78.6994 183.429Z" fill="#132449"/>
<path d="M84.435 172.381L86.2335 146.776C86.3186 144.978 85.8056 143.266 84.6063 141.981C83.407 140.697 81.7808 139.926 79.9823 139.84L60.2861 139.155C56.4326 138.984 53.0931 136.244 52.3216 132.476L51.8086 132.561C52.6643 136.586 56.0899 139.583 60.2861 139.669L79.9823 140.354C81.6095 140.439 83.1505 141.124 84.1785 142.324C85.2916 143.522 85.8056 145.064 85.7195 146.691L83.921 172.381H84.435Z" fill="#3C5599"/>
<path d="M38.1948 187.112H36.6533L43.4185 149.86H45.0455L38.1948 187.112Z" fill="#BFBFBF"/>
<path d="M72.1048 151.06H46.6716C41.7904 151.06 37.3375 147.977 35.7959 143.266L24.4922 110.469L25.5198 110.811C30.4866 112.61 34.3402 116.635 35.7959 121.773L39.2214 134.018C40.3346 138.128 44.1026 140.955 48.2987 140.955H60.373C64.997 140.955 69.108 143.695 70.9065 147.977L72.1048 151.06Z" fill="#6F6FC6"/>
<path d="M71.337 187.026H72.9641L66.2841 151.061H64.7432L71.337 187.026Z" fill="#BFBFBF"/>
<path d="M158.169 103.105C158.169 103.105 157.312 101.05 155.856 99.2516C154.315 97.4531 152.089 94.3711 152.089 94.3711C152.089 94.3711 153.202 96.5112 154.658 98.9951C156.114 101.393 158.169 103.105 158.169 103.105Z" fill="#50CC85"/>
<path d="M156.541 99.5081C156.541 99.5081 154.828 98.2236 153.887 95.3981C152.859 92.5716 152.003 90.5166 152.003 90.5166C152.003 90.5166 154.143 93.5996 155.085 95.8259C156.028 97.9671 156.541 99.5081 156.541 99.5081Z" fill="#50CC85"/>
<path d="M157.999 102.676C157.999 102.676 157.143 99.5081 156.972 96.9391C156.801 94.3701 156.801 92.8291 156.801 92.8291C156.801 92.8291 157.914 97.4531 158.257 99.4229C158.599 101.307 157.999 102.676 157.999 102.676Z" fill="#50CC85"/>
<path d="M158.77 104.818C158.77 104.818 158.514 101.565 159.456 98.5668C160.397 95.6552 160.397 93.7715 160.397 93.7715C160.397 93.7715 160.825 96.8545 160.312 99.5087C159.798 102.164 158.77 104.818 158.77 104.818Z" fill="#50CC85"/>
<path d="M158.511 104.047C158.511 104.047 156.2 102.077 155 101.563C153.801 101.135 152.174 99.7646 152.174 99.7646C152.174 99.7646 154.23 102.334 155.343 102.848C156.456 103.362 158.511 104.047 158.511 104.047Z" fill="#50CC85"/>
<path d="M159.279 106.874C159.279 106.874 159.023 105.076 160.136 102.507C161.164 99.9376 161.421 98.7383 161.421 98.7383C161.421 98.7383 161.507 102.164 160.821 103.448C160.136 104.733 159.279 106.874 159.279 106.874Z" fill="#50CC85"/>
<path d="M159.109 105.589C159.109 105.589 157.74 104.732 156.455 104.476C155.171 104.218 154.828 104.133 154.828 104.133C154.828 104.133 155.513 105.331 157.054 105.503C158.682 105.76 159.109 105.589 159.109 105.589Z" fill="#50CC85"/>
<path d="M159.965 108.586C159.708 107.472 159.28 105.674 158.937 104.561C158.08 101.992 156.025 98.6523 156.025 98.6523C157.225 101.393 158.167 102.934 158.766 105.246C159.023 106.188 159.451 107.472 159.708 108.329C159.708 108.586 159.965 108.757 159.965 108.586Z" fill="#50CC85"/>
<path d="M159.364 103.962C159.364 103.962 159.536 101.65 160.392 99.2519C161.249 96.9394 162.533 93.0859 162.533 93.0859C162.533 93.0859 162.191 95.655 161.505 98.5666C160.82 101.564 159.364 103.962 159.364 103.962Z" fill="#77E6A6"/>
<path d="M159.709 99.8521C159.709 99.8521 160.908 97.9674 160.993 94.7992C161.08 91.6311 161.25 89.2334 161.25 89.2334C161.25 89.2334 160.137 93.0869 159.965 95.5697C159.709 98.0535 159.709 99.8521 159.709 99.8521Z" fill="#77E6A6"/>
<path d="M159.368 103.534C159.368 103.534 159.11 100.023 158.426 97.368C157.741 94.7139 157.142 93.1719 157.142 93.1719C157.142 93.1719 157.655 98.2247 157.997 100.28C158.34 102.421 159.368 103.534 159.368 103.534Z" fill="#77E6A6"/>
<path d="M159.365 105.932C159.365 105.932 158.509 102.506 156.539 99.937C154.569 97.2829 153.885 95.4844 153.885 95.4844C153.885 95.4844 154.484 98.7387 155.94 101.222C157.396 103.619 159.365 105.932 159.365 105.932Z" fill="#77E6A6"/>
<path d="M159.364 105.161C159.364 105.161 160.991 102.335 162.019 101.479C163.046 100.622 164.246 98.6523 164.246 98.6523C164.246 98.6523 163.133 101.992 162.105 102.849C161.163 103.705 159.364 105.161 159.364 105.161Z" fill="#77E6A6"/>
<path d="M159.538 108.244C159.538 108.244 159.109 106.36 157.225 104.133C155.255 101.907 154.656 100.794 154.656 100.794C154.656 100.794 155.769 104.305 156.969 105.333C157.996 106.36 159.538 108.244 159.538 108.244Z" fill="#77E6A6"/>
<path d="M159.281 106.789C159.281 106.789 160.309 105.418 161.594 104.819C162.792 104.22 163.135 103.877 163.135 103.877C163.135 103.877 162.878 105.333 161.336 106.018C159.795 106.874 159.281 106.789 159.281 106.789Z" fill="#77E6A6"/>
<path d="M159.452 110.127C159.367 108.929 159.109 107.044 159.109 105.675C159.109 102.763 159.966 98.7383 159.966 98.7383C159.71 101.906 159.281 103.791 159.452 106.36C159.538 107.387 159.538 108.843 159.623 109.785C159.71 110.127 159.538 110.385 159.452 110.127Z" fill="#50CC85"/>
<path d="M161.164 104.477C161.164 104.477 162.021 102.421 163.477 100.623C165.018 98.8252 167.244 95.7422 167.244 95.7422C167.244 95.7422 166.131 97.8824 164.675 100.366C163.219 102.764 161.164 104.477 161.164 104.477Z" fill="#50CC85"/>
<path d="M162.707 100.965C162.707 100.965 164.42 99.6806 165.362 96.8551C166.389 94.0286 167.246 91.9736 167.246 91.9736C167.246 91.9736 165.105 95.0566 164.163 97.2829C163.306 99.3379 162.707 100.965 162.707 100.965Z" fill="#50CC85"/>
<path d="M161.254 104.048C161.254 104.048 162.109 100.879 162.281 98.3102C162.452 95.7412 162.452 94.2002 162.452 94.2002C162.452 94.2002 161.339 98.8242 160.996 100.794C160.654 102.764 161.254 104.048 161.254 104.048Z" fill="#50CC85"/>
<path d="M160.482 106.189C160.482 106.189 160.739 102.935 159.797 99.937C158.854 97.0253 158.854 95.1416 158.854 95.1416C158.854 95.1416 158.427 98.2246 158.941 100.88C159.54 103.534 160.482 106.189 160.482 106.189Z" fill="#50CC85"/>
<path d="M160.824 105.504C160.824 105.504 163.137 103.534 164.336 103.02C165.534 102.592 167.162 101.223 167.162 101.223C167.162 101.223 165.107 103.792 163.993 104.305C162.794 104.819 160.824 105.504 160.824 105.504Z" fill="#50CC85"/>
<path d="M159.966 108.244C159.966 108.244 160.223 106.446 159.11 103.877C158.082 101.308 157.826 100.108 157.826 100.108C157.826 100.108 157.74 103.534 158.425 104.819C159.195 106.188 159.966 108.244 159.966 108.244Z" fill="#50CC85"/>
<path d="M160.226 106.96C160.226 106.96 161.595 106.103 162.88 105.847C164.164 105.675 164.507 105.504 164.507 105.504C164.507 105.504 163.822 106.703 162.281 106.874C160.653 107.131 160.226 106.96 160.226 106.96Z" fill="#50CC85"/>
<path d="M159.281 109.958C159.539 108.844 159.967 107.046 160.309 105.933C161.166 103.363 163.221 100.023 163.221 100.023C162.022 102.764 161.08 104.306 160.481 106.617C160.223 107.559 159.795 108.844 159.539 109.7C159.539 110.043 159.367 110.214 159.281 109.958Z" fill="#50CC85"/>
<path d="M156.37 117.835H162.706L164.676 106.702H154.143L156.37 117.835Z" fill="#FFD700"/>
<path d="M136.501 120.917L126.14 186.171H124.084L132.391 120.917H136.501Z" fill="#DCA86E"/>
<path d="M168.785 120.917L182.315 186.256H185.056L174.351 121.002L168.785 120.917Z" fill="#DCA86E"/>
<path d="M190.112 117.063H118.863V122.116H190.112V117.063Z" fill="#CC935A"/>
<path d="M195.504 117.063H113.467V120.403H195.504V117.063Z" fill="#F9C491"/>
<path d="M130.937 116.72H133.334C134.362 116.72 135.218 115.949 135.304 115.007L136.246 108.756H127.854L128.795 115.007C129.138 115.949 129.995 116.72 130.937 116.72Z" fill="#FF9D00"/>
<path d="M125.884 112.61C125.713 111.497 126.055 110.812 126.313 110.469C126.741 109.955 127.426 109.613 128.282 109.613C129.566 109.613 130.68 110.898 130.68 112.524C130.68 114.066 129.31 115.179 129.225 115.264L129.138 115.35H129.053C128.967 115.35 128.882 115.35 128.796 115.35C127.255 115.35 126.227 114.409 125.884 112.61ZM129.909 112.524C129.909 111.326 129.138 110.384 128.282 110.384C127.682 110.384 127.255 110.555 126.912 110.898C126.569 111.239 126.484 111.753 126.656 112.439C126.827 113.467 127.34 114.58 128.882 114.58C129.053 114.409 129.909 113.552 129.909 112.524Z" fill="#FF9D00"/>
<path d="M137.19 117.233H126.572L124.859 115.35H138.904L137.19 117.233Z" fill="#C17005"/>
<path d="M252.281 77.4141H204.754V186.17H252.281V77.4141Z" fill="#CC935A"/>
<path d="M246.884 82.21H210.232V93.5991H246.884V82.21Z" fill="#F3BA7A"/>
<path d="M232.926 89.2316H224.191C223.935 89.2316 223.764 89.0602 223.764 88.8037V86.92C223.764 86.6626 223.935 86.4912 224.191 86.4912H232.926C233.183 86.4912 233.354 86.6626 233.354 86.92V88.8037C233.354 89.0602 233.183 89.2316 232.926 89.2316Z" fill="#FFD6AE"/>
<path d="M246.884 96.6816H210.232V108.072H246.884V96.6816Z" fill="#F3BA7A"/>
<path d="M232.926 103.789H224.191C223.935 103.789 223.764 103.618 223.764 103.36V101.477C223.764 101.22 223.935 101.049 224.191 101.049H232.926C233.183 101.049 233.354 101.22 233.354 101.477V103.36C233.354 103.618 233.183 103.789 232.926 103.789Z" fill="#FFD6AE"/>
<path d="M246.884 111.154H210.232V122.543H246.884V111.154Z" fill="#F3BA7A"/>
<path d="M232.926 118.262H224.191C223.935 118.262 223.764 118.09 223.764 117.834V115.949C223.764 115.693 223.935 115.521 224.191 115.521H232.926C233.183 115.521 233.354 115.693 233.354 115.949V117.834C233.354 118.09 233.183 118.262 232.926 118.262Z" fill="#FFD6AE"/>
<path d="M246.884 125.884H210.232V181.803H246.884V125.884Z" fill="#F3BA7A"/>
<path d="M232.926 132.99H224.191C223.935 132.99 223.764 132.819 223.764 132.562V130.679C223.764 130.421 223.935 130.25 224.191 130.25H232.926C233.183 130.25 233.354 130.421 233.354 130.679V132.562C233.354 132.734 233.183 132.99 232.926 132.99Z" fill="#FFD6AE"/>
<path d="M136.068 12.2461V34.0825" stroke="#FFC840" stroke-width="2.2501"/>
<path d="M139.328 45.3007C139.157 47.4419 137.358 48.9829 135.217 48.8115C133.077 48.6402 131.535 46.8427 131.706 44.7016C131.878 42.5604 133.676 41.0194 135.817 41.1907C137.872 41.362 139.5 43.1606 139.328 45.3007Z" fill="#FFC840"/>
<path d="M154.139 43.8456H117.916L133.759 32.2852H138.298L154.139 43.8456Z" fill="#EF8417"/>
<path opacity="0.25" d="M136.071 17.1273C202.047 17.1273 255.531 13.2928 255.531 8.56361C255.531 3.83444 202.047 0 136.071 0C70.0946 0 16.6104 3.83444 16.6104 8.56361C16.6104 13.2928 70.0946 17.1273 136.071 17.1273Z" fill="#762DC4"/>
</svg>
