<svg width="19" height="19" viewBox="0 0 19 19" fill="none" xmlns="http://www.w3.org/2000/svg">
<path d="M9.49967 19C7.75326 19 6.33301 17.5798 6.33301 15.8333V11.0833H4.74967C3.00326 11.0833 1.58301 9.66308 1.58301 7.91667C1.58301 6.17025 3.00326 4.75 4.74967 4.75H6.33301V3.16667C6.33301 1.42025 7.75326 0 9.49967 0C11.2461 0 12.6663 1.42025 12.6663 3.16667V4.75H14.2497C15.9961 4.75 17.4163 6.17025 17.4163 7.91667C17.4163 9.66308 15.9961 11.0833 14.2497 11.0833H12.6663V15.8333C12.6663 17.5798 11.2461 19 9.49967 19ZM4.74967 6.33333C3.87647 6.33333 3.16634 7.04346 3.16634 7.91667C3.16634 8.78988 3.87647 9.5 4.74967 9.5H7.12467C7.56167 9.5 7.91634 9.85388 7.91634 10.2917V15.8333C7.91634 16.7065 8.62647 17.4167 9.49967 17.4167C10.3729 17.4167 11.083 16.7065 11.083 15.8333V10.2917C11.083 9.85388 11.4377 9.5 11.8747 9.5H14.2497C15.1229 9.5 15.833 8.78988 15.833 7.91667C15.833 7.04346 15.1229 6.33333 14.2497 6.33333H11.8747C11.4377 6.33333 11.083 5.97946 11.083 5.54167V3.16667C11.083 2.29346 10.3729 1.58333 9.49967 1.58333C8.62647 1.58333 7.91634 2.29346 7.91634 3.16667V5.54167C7.91634 5.97946 7.56167 6.33333 7.12467 6.33333H4.74967Z" fill="white"/>
</svg>
