<svg width="62" height="79" viewBox="0 0 62 79" fill="none" xmlns="http://www.w3.org/2000/svg">
<path d="M31 50.375C44.4619 50.375 55.375 39.4619 55.375 26C55.375 12.5381 44.4619 1.625 31 1.625C17.5381 1.625 6.625 12.5381 6.625 26C6.625 39.4619 17.5381 50.375 31 50.375Z" fill="#4BC190"/>
<path opacity="0.3" d="M31 45.5C41.7696 45.5 50.5 36.7696 50.5 26C50.5 15.2304 41.7696 6.5 31 6.5C20.2304 6.5 11.5 15.2304 11.5 26C11.5 36.7696 20.2304 45.5 31 45.5Z" fill="#356CB6"/>
<path d="M45.2191 33.3126C44.7882 33.3126 44.3748 33.1414 44.0701 32.8367C43.7653 32.5319 43.5941 32.1186 43.5941 31.6876V13.8126C43.4784 12.4972 42.8741 11.2727 41.9003 10.3808C40.9264 9.48888 39.6538 8.99414 38.3332 8.99414C37.0126 8.99414 35.74 9.48888 34.7662 10.3808C33.7923 11.2727 33.188 12.4972 33.0723 13.8126L35.5098 33.3126C35.5098 34.6056 36.0234 35.8455 36.9376 36.7598C37.8519 37.674 39.0918 38.1876 40.3848 38.1876C41.6777 38.1876 42.9177 37.674 43.8319 36.7598C44.7462 35.8455 45.2598 34.6056 45.2598 33.3126H45.2191Z" fill="#393C54"/>
<path d="M35.4688 18.6875C37.7124 18.6875 39.5312 16.8687 39.5312 14.625C39.5312 12.3813 37.7124 10.5625 35.4688 10.5625C33.2251 10.5625 31.4062 12.3813 31.4062 14.625C31.4062 16.8687 33.2251 18.6875 35.4688 18.6875Z" fill="#F85565"/>
<path d="M30.5933 11.375C33.7621 11.375 36.8011 12.6338 39.0417 14.8744C41.2824 17.1151 42.5411 20.1541 42.5411 23.3228V25.8091C42.5411 26.9878 42.0729 28.1182 41.2394 28.9517C40.4059 29.7852 39.2755 30.2534 38.0968 30.2534H23.0899C21.9112 30.2534 20.7807 29.7852 19.9472 28.9517C19.1138 28.1182 18.6455 26.9878 18.6455 25.8091V23.3228C18.6455 20.1541 19.9043 17.1151 22.1449 14.8744C24.3856 12.6338 27.4246 11.375 30.5933 11.375Z" fill="#393C54"/>
<path d="M39.9296 32.8005C41.3722 32.8005 42.5418 31.631 42.5418 30.1884C42.5418 28.7457 41.3722 27.5762 39.9296 27.5762C38.4869 27.5762 37.3174 28.7457 37.3174 30.1884C37.3174 31.631 38.4869 32.8005 39.9296 32.8005Z" fill="#FBC0AA"/>
<path d="M31.0002 50.375C35.7682 50.3805 40.4318 48.9786 44.4065 46.345L43.3259 43.3225C43.0461 42.5382 42.5321 41.8588 41.8534 41.3763C41.1747 40.8938 40.3642 40.6316 39.5315 40.625H21.6768C20.8386 40.6249 20.0208 40.8841 19.3357 41.367C18.6505 41.8499 18.1316 42.533 17.8499 43.3225L16.9277 45.9063C21.0406 48.8212 25.9591 50.3831 31.0002 50.375Z" fill="#F8DC25"/>
<path d="M38.686 40.625H22.501C22.6823 42.6461 23.6133 44.5262 25.1109 45.8954C26.6085 47.2647 28.5643 48.024 30.5935 48.024C32.6227 48.024 34.5784 47.2647 36.076 45.8954C37.5736 44.5262 38.5047 42.6461 38.686 40.625Z" fill="#F2BC0F"/>
<path d="M34.25 41.1327C34.25 42.1024 33.8648 43.0323 33.1791 43.718C32.4934 44.4037 31.5634 44.7889 30.5938 44.7889C29.6241 44.7889 28.6941 44.4037 28.0084 43.718C27.3227 43.0323 26.9375 42.1024 26.9375 41.1327C26.9375 39.1014 28.5625 39.9139 30.5938 39.9139C32.625 39.9139 34.25 39.1136 34.25 41.1327Z" fill="white"/>
<path d="M30.5938 35.6484V41.2344" stroke="#FBC0AA" stroke-width="4.875" stroke-linecap="round" stroke-linejoin="round"/>
<path d="M21.2577 32.8005C22.7004 32.8005 23.8699 31.631 23.8699 30.1884C23.8699 28.7457 22.7004 27.5762 21.2577 27.5762C19.815 27.5762 18.6455 28.7457 18.6455 30.1884C18.6455 31.631 19.815 32.8005 21.2577 32.8005Z" fill="#FBC0AA"/>
<path d="M30.5938 40.1536C28.1156 40.1536 25.739 39.1692 23.9867 37.4169C22.2344 35.6646 21.25 33.288 21.25 30.8098V24.6836C21.25 22.2055 22.2344 19.8289 23.9867 18.0766C25.739 16.3243 28.1156 15.3398 30.5938 15.3398C33.0719 15.3398 35.4485 16.3243 37.2008 18.0766C38.9531 19.8289 39.9375 22.2055 39.9375 24.6836V30.822C39.9343 33.298 38.9484 35.6715 37.1965 37.4212C35.4445 39.1708 33.0698 40.1536 30.5938 40.1536Z" fill="#FFD8C9"/>
<path opacity="0.1" d="M23.208 20.7186C23.7868 19.2783 24.7681 18.035 26.0346 17.1374C27.301 16.2398 28.7991 15.7258 30.3499 15.6567" stroke="white" stroke-width="1.495" stroke-miterlimit="10" stroke-linecap="round"/>
<path d="M41.0833 23.8954C41.0838 22.4926 40.803 21.104 40.2574 19.8116C39.7118 18.5193 38.9126 17.3495 37.9069 16.3715C36.9013 15.3935 35.7096 14.6271 34.4026 14.1177C33.0955 13.6084 31.6996 13.3664 30.2973 13.406C24.5855 13.5645 20.1045 18.3948 20.1045 24.1107V25.7357C20.1029 26.0018 20.1553 26.2654 20.2586 26.5105C20.362 26.7556 20.5141 26.9772 20.7058 27.1617C20.8696 27.3227 21.0557 27.4595 21.2583 27.5679V25.9998C21.2583 25.5688 21.4295 25.1555 21.7342 24.8508C22.039 24.546 22.4523 24.3748 22.8833 24.3748H25.0689C25.1446 24.3753 25.219 24.3547 25.2836 24.3152C25.3482 24.2757 25.4005 24.219 25.4345 24.1514L26.1252 22.7498L26.8239 24.1514C26.858 24.219 26.9103 24.2757 26.9749 24.3152C27.0395 24.3547 27.1138 24.3753 27.1895 24.3748H38.3127C38.7436 24.3748 39.157 24.546 39.4617 24.8508C39.7665 25.1555 39.9377 25.5688 39.9377 25.9998V27.5801C40.1403 27.4717 40.3263 27.3349 40.4902 27.1739C40.6818 26.9894 40.8339 26.7678 40.9373 26.5227C41.0406 26.2775 41.0931 26.014 41.0914 25.7479L41.0833 23.8954Z" fill="#515570"/>
<path d="M33.71 30.5825C33.71 30.2593 33.8384 29.9493 34.0669 29.7207C34.2955 29.4922 34.6055 29.3638 34.9287 29.3638C35.2519 29.3638 35.5619 29.4922 35.7905 29.7207C36.0191 29.9493 36.1475 30.2593 36.1475 30.5825" stroke="#515570" stroke-width="0.8125" stroke-linecap="round" stroke-linejoin="round"/>
<path d="M30.3906 31.4844V33.1094" stroke="#FBC0AA" stroke-width="1.91344" stroke-linecap="round" stroke-linejoin="round"/>
<path opacity="0.2" d="M34.25 27.625H37.0938" stroke="#515570" stroke-width="0.8125" stroke-linecap="round" stroke-linejoin="round"/>
<path d="M27.3438 30.5825C27.3438 30.2593 27.2153 29.9493 26.9868 29.7207C26.7582 29.4922 26.4482 29.3638 26.125 29.3638C25.8018 29.3638 25.4918 29.4922 25.2632 29.7207C25.0347 29.9493 24.9062 30.2593 24.9062 30.5825" stroke="#515570" stroke-width="0.8125" stroke-linecap="round" stroke-linejoin="round"/>
<path opacity="0.2" d="M26.9375 27.625H24.0938" stroke="#515570" stroke-width="0.8125" stroke-linecap="round" stroke-linejoin="round"/>
<path d="M33.6611 34.9375C33.7149 34.9406 33.7675 34.9543 33.8159 34.9779C33.8643 35.0015 33.9075 35.0345 33.943 35.075C33.9785 35.1154 34.0057 35.1625 34.0228 35.2135C34.04 35.2646 34.0469 35.3185 34.043 35.3722C33.9424 36.2173 33.5354 36.9962 32.899 37.5614C32.2626 38.1265 31.441 38.4387 30.5899 38.4387C29.7388 38.4387 28.9172 38.1265 28.2808 37.5614C27.6444 36.9962 27.2374 36.2173 27.1368 35.3722C27.1329 35.3178 27.14 35.2633 27.1577 35.2117C27.1754 35.1602 27.2032 35.1127 27.2396 35.0722C27.276 35.0316 27.3202 34.9988 27.3695 34.9757C27.4188 34.9525 27.4723 34.9395 27.5268 34.9375H33.6611Z" fill="#393C54"/>
<path d="M28.5625 37.7447C29.1563 38.1803 29.8735 38.4152 30.61 38.4152C31.3465 38.4152 32.0637 38.1803 32.6575 37.7447C32.2188 37.0338 31.4753 36.9688 30.5938 36.9688C29.7122 36.9688 28.9688 37.0338 28.5625 37.7447Z" fill="#F85565"/>
<path d="M32.6247 35.75H28.5622C28.4621 35.7444 28.3642 35.7187 28.2743 35.6745C28.1843 35.6303 28.1042 35.5685 28.0386 35.4927C27.973 35.4169 27.9234 35.3287 27.8926 35.2333C27.8618 35.1379 27.8505 35.0373 27.8594 34.9375H33.3438C33.3526 35.0386 33.3408 35.1405 33.3091 35.2369C33.2773 35.3334 33.2262 35.4223 33.1589 35.4983C33.0916 35.5744 33.0095 35.6359 32.9177 35.6792C32.8259 35.7224 32.7262 35.7465 32.6247 35.75Z" fill="white"/>
<path d="M4.75 75H1.60795V64.8182H4.8892C5.87689 64.8182 6.72206 65.022 7.42472 65.4297C8.12737 65.834 8.66596 66.4157 9.04048 67.1747C9.41501 67.9304 9.60227 68.8352 9.60227 69.8892C9.60227 70.9498 9.41335 71.8629 9.03551 72.6286C8.65767 73.3909 8.10748 73.9775 7.38494 74.3885C6.66241 74.7962 5.78409 75 4.75 75ZM2.84091 73.9062H4.67045C5.51231 73.9062 6.20999 73.7438 6.76349 73.419C7.317 73.0942 7.72964 72.6319 8.00142 72.032C8.2732 71.4321 8.40909 70.7178 8.40909 69.8892C8.40909 69.0672 8.27486 68.3596 8.00639 67.7663C7.73793 67.1697 7.33688 66.7124 6.80327 66.3942C6.26965 66.0727 5.60511 65.9119 4.80966 65.9119H2.84091V73.9062ZM13.7585 75.179C13.2746 75.179 12.8355 75.0878 12.4411 74.9055C12.0466 74.7199 11.7334 74.4531 11.5014 74.1051C11.2694 73.7538 11.1534 73.3295 11.1534 72.8324C11.1534 72.3949 11.2396 72.0402 11.4119 71.7685C11.5843 71.4934 11.8146 71.2779 12.103 71.1222C12.3913 70.9664 12.7095 70.8504 13.0575 70.7741C13.4089 70.6946 13.7618 70.6316 14.1165 70.5852C14.5805 70.5256 14.9567 70.4808 15.245 70.451C15.5367 70.4179 15.7488 70.3632 15.8814 70.2869C16.0173 70.2107 16.0852 70.0781 16.0852 69.8892V69.8494C16.0852 69.3589 15.951 68.9777 15.6825 68.706C15.4174 68.4342 15.0147 68.2983 14.4744 68.2983C13.9143 68.2983 13.4751 68.4209 13.157 68.6662C12.8388 68.9115 12.6151 69.1733 12.4858 69.4517L11.3722 69.054C11.571 68.59 11.8362 68.2287 12.1676 67.9702C12.5024 67.7083 12.867 67.526 13.2614 67.4233C13.6591 67.3172 14.0502 67.2642 14.4347 67.2642C14.6799 67.2642 14.9616 67.294 15.2798 67.3537C15.6013 67.41 15.9112 67.5277 16.2095 67.7067C16.5111 67.8857 16.7614 68.1558 16.9602 68.517C17.1591 68.8783 17.2585 69.3622 17.2585 69.9688V75H16.0852V73.9659H16.0256C15.946 74.1316 15.8134 74.3089 15.6278 74.4979C15.4422 74.6868 15.1953 74.8475 14.8871 74.9801C14.5788 75.1127 14.2027 75.179 13.7585 75.179ZM13.9375 74.125C14.4015 74.125 14.7926 74.0339 15.1108 73.8516C15.4323 73.6693 15.6742 73.4339 15.8366 73.1456C16.0024 72.8572 16.0852 72.554 16.0852 72.2358V71.1619C16.0355 71.2216 15.9261 71.2763 15.7571 71.326C15.5914 71.3724 15.3991 71.4138 15.1804 71.4503C14.965 71.4834 14.7545 71.5133 14.549 71.5398C14.3468 71.563 14.1828 71.5829 14.0568 71.5994C13.7519 71.6392 13.4669 71.7038 13.2017 71.7933C12.9399 71.8795 12.7277 72.0104 12.5653 72.1861C12.4063 72.3584 12.3267 72.5937 12.3267 72.892C12.3267 73.2997 12.4775 73.608 12.7791 73.8168C13.084 74.0223 13.4702 74.125 13.9375 74.125ZM24.2125 71.8778V67.3636H25.3858V75H24.2125V73.7074H24.133C23.954 74.0952 23.6756 74.425 23.2978 74.6967C22.9199 74.9652 22.4426 75.0994 21.8659 75.0994C21.3887 75.0994 20.9644 74.995 20.5932 74.7862C20.222 74.5741 19.9303 74.2559 19.7182 73.8317C19.5061 73.4041 19.4 72.8655 19.4 72.2159V67.3636H20.5733V72.1364C20.5733 72.6932 20.7291 73.1373 21.0407 73.4688C21.3555 73.8002 21.7566 73.9659 22.2438 73.9659C22.5355 73.9659 22.8321 73.8913 23.1337 73.7422C23.4386 73.593 23.6938 73.3643 23.8993 73.0561C24.1081 72.7479 24.2125 72.3551 24.2125 71.8778ZM30.6172 78.0227C30.0504 78.0227 29.5632 77.9498 29.1555 77.804C28.7479 77.6615 28.4081 77.4725 28.1364 77.2372C27.8679 77.0052 27.6541 76.7566 27.495 76.4915L28.4297 75.8352C28.5357 75.9744 28.67 76.1335 28.8324 76.3125C28.9948 76.4948 29.2169 76.6522 29.4986 76.7848C29.7836 76.9207 30.1565 76.9886 30.6172 76.9886C31.2337 76.9886 31.7424 76.8395 32.1435 76.5412C32.5445 76.2429 32.745 75.7756 32.745 75.1392V73.5881H32.6456C32.5594 73.7273 32.4368 73.8996 32.2777 74.1051C32.1219 74.3073 31.8965 74.4879 31.6016 74.647C31.3099 74.8028 30.9155 74.8807 30.4183 74.8807C29.8018 74.8807 29.2483 74.7348 28.7578 74.4432C28.2706 74.1515 27.8845 73.7273 27.5994 73.1705C27.3177 72.6136 27.1768 71.9375 27.1768 71.142C27.1768 70.3598 27.3144 69.6787 27.5895 69.0987C27.8646 68.5154 28.2474 68.0646 28.7379 67.7464C29.2285 67.425 29.7952 67.2642 30.4382 67.2642C30.9354 67.2642 31.3298 67.3471 31.6214 67.5128C31.9164 67.6752 32.1418 67.8608 32.2976 68.0696C32.4567 68.2751 32.5793 68.4441 32.6655 68.5767H32.7848V67.3636H33.9183V75.2188C33.9183 75.875 33.7692 76.4086 33.4709 76.8196C33.1759 77.2339 32.7782 77.5372 32.2777 77.7294C31.7805 77.925 31.227 78.0227 30.6172 78.0227ZM30.5774 73.8267C31.0481 73.8267 31.4458 73.719 31.7706 73.5036C32.0954 73.2881 32.3423 72.9782 32.5114 72.5739C32.6804 72.1695 32.7649 71.6856 32.7649 71.1222C32.7649 70.572 32.6821 70.0864 32.5163 69.6655C32.3506 69.2446 32.1054 68.9148 31.7805 68.6761C31.4557 68.4375 31.0547 68.3182 30.5774 68.3182C30.0803 68.3182 29.666 68.4441 29.3345 68.696C29.0064 68.9479 28.7595 69.286 28.5938 69.7102C28.4313 70.1345 28.3501 70.6051 28.3501 71.1222C28.3501 71.6525 28.433 72.1214 28.5987 72.5291C28.7678 72.9335 29.0163 73.2517 29.3445 73.4837C29.6759 73.7124 30.0869 73.8267 30.5774 73.8267ZM37.2393 70.4062V75H36.0661V64.8182H37.2393V68.5568H37.3388C37.5178 68.1624 37.7862 67.8492 38.1442 67.6172C38.5054 67.3819 38.986 67.2642 39.5859 67.2642C40.1063 67.2642 40.562 67.3686 40.9531 67.5774C41.3442 67.7829 41.6475 68.0994 41.8629 68.527C42.0817 68.9512 42.1911 69.4915 42.1911 70.1477V75H41.0178V70.2273C41.0178 69.6207 40.8603 69.1518 40.5455 68.8203C40.2339 68.4856 39.8014 68.3182 39.2479 68.3182C38.8634 68.3182 38.5187 68.3994 38.2138 68.5618C37.9122 68.7242 37.6735 68.9612 37.4979 69.2727C37.3255 69.5843 37.2393 69.9621 37.2393 70.4062ZM47.6586 67.3636V68.358H43.7012V67.3636H47.6586ZM44.8546 65.5341H46.0279V72.8125C46.0279 73.1439 46.0759 73.3925 46.1721 73.5582C46.2715 73.7206 46.3974 73.83 46.5499 73.8864C46.7057 73.9394 46.8697 73.9659 47.0421 73.9659C47.1713 73.9659 47.2774 73.9593 47.3603 73.946C47.4431 73.9295 47.5094 73.9162 47.5591 73.9062L47.7978 74.9602C47.7182 74.9901 47.6072 75.0199 47.4647 75.0497C47.3221 75.0829 47.1415 75.0994 46.9228 75.0994C46.5913 75.0994 46.2665 75.0282 45.9483 74.8857C45.6335 74.7431 45.3716 74.526 45.1628 74.2344C44.9573 73.9427 44.8546 73.5748 44.8546 73.1307V65.5341ZM52.5431 75.1591C51.8074 75.1591 51.1726 74.9967 50.639 74.6719C50.1087 74.3438 49.6994 73.8864 49.411 73.2997C49.126 72.7098 48.9835 72.0237 48.9835 71.2415C48.9835 70.4593 49.126 69.7699 49.411 69.1733C49.6994 68.5734 50.1004 68.1061 50.6142 67.7713C51.1312 67.4332 51.7344 67.2642 52.4238 67.2642C52.8216 67.2642 53.2143 67.3305 53.6021 67.4631C53.9899 67.5956 54.3429 67.8111 54.661 68.1094C54.9792 68.4044 55.2328 68.7955 55.4217 69.2827C55.6106 69.7699 55.7051 70.3698 55.7051 71.0824V71.5795H49.8187V70.5653H54.5119C54.5119 70.1345 54.4257 69.75 54.2534 69.4119C54.0843 69.0739 53.8424 68.8071 53.5275 68.6115C53.216 68.416 52.8481 68.3182 52.4238 68.3182C51.9565 68.3182 51.5521 68.4342 51.2108 68.6662C50.8727 68.8949 50.6125 69.1932 50.4302 69.5611C50.2479 69.929 50.1568 70.3234 50.1568 70.7443V71.4205C50.1568 71.9972 50.2562 72.486 50.4551 72.8871C50.6573 73.2848 50.9373 73.5881 51.2953 73.7969C51.6532 74.0024 52.0692 74.1051 52.5431 74.1051C52.8514 74.1051 53.1298 74.062 53.3784 73.9759C53.6303 73.8864 53.8474 73.7538 54.0297 73.5781C54.2119 73.3991 54.3528 73.1771 54.4522 72.9119L55.5858 73.2301C55.4664 73.6146 55.2659 73.9527 54.9842 74.2443C54.7025 74.5327 54.3545 74.758 53.9402 74.9205C53.5259 75.0795 53.0602 75.1591 52.5431 75.1591ZM57.4899 75V67.3636H58.6234V68.517H58.7029C58.8422 68.1392 59.094 67.8326 59.4586 67.5973C59.8232 67.362 60.2342 67.2443 60.6916 67.2443C60.7778 67.2443 60.8855 67.246 61.0147 67.2493C61.144 67.2526 61.2418 67.2576 61.3081 67.2642V68.4574C61.2683 68.4474 61.1771 68.4325 61.0346 68.4126C60.8954 68.3894 60.7479 68.3778 60.5922 68.3778C60.2209 68.3778 59.8895 68.4557 59.5978 68.6115C59.3095 68.764 59.0808 68.9761 58.9118 69.2479C58.746 69.5163 58.6632 69.8229 58.6632 70.1676V75H57.4899Z" fill="#707070"/>
</svg>
