<svg width="52" height="78" viewBox="0 0 52 78" fill="none" xmlns="http://www.w3.org/2000/svg">
<g clip-path="url(#clip0_7_350)">
<path d="M26.0001 52.0002C11.6408 52.0002 0.000278473 40.3597 0.000278473 26.0003C0.000278473 11.641 11.6408 0.000488281 26.0001 0.000488281C40.3595 0.000488281 52 11.641 52 26.0003C52 40.3597 40.3595 52.0002 26.0001 52.0002Z" fill="#4AC8EB"/>
<mask id="mask0_7_350" style="mask-type:luminance" maskUnits="userSpaceOnUse" x="0" y="0" width="52" height="52">
<path d="M26.0001 52.0002C11.6408 52.0002 0.000278473 40.3597 0.000278473 26.0003C0.000278473 11.641 11.6408 0.000488281 26.0001 0.000488281C40.3595 0.000488281 52 11.641 52 26.0003C52 40.3597 40.3595 52.0002 26.0001 52.0002Z" fill="white"/>
</mask>
<g mask="url(#mask0_7_350)">
<path d="M10.938 54.6203V54.623H41.0811V54.6203C41.0811 50.4403 39.3822 46.6581 36.6342 43.9303C36.5062 43.8023 36.3782 43.6802 36.245 43.558C35.8498 43.1915 35.435 42.8477 35.0033 42.5266C34.7191 42.3135 34.4234 42.1145 34.1252 41.9216C33.8267 41.7284 33.5199 41.5465 33.2046 41.3757C33.1988 41.3699 33.193 41.3699 33.193 41.3699C33.0711 41.3017 32.9517 41.2337 32.832 41.1596C32.4741 40.9493 32.1358 40.7108 31.8122 40.4521C30.4397 39.3609 29.3768 37.8945 28.7718 36.2125V36.2094C28.4108 35.2065 28.2146 34.1239 28.2146 32.9927L23.7591 33.0126C23.7591 34.1291 23.569 35.2034 23.2163 36.1978C22.6169 37.8884 21.5597 39.3576 20.1873 40.4543C20.0936 40.5309 19.9971 40.6049 19.9004 40.6759C19.7669 40.7754 19.6304 40.8722 19.4941 40.9631C19.3918 41.0311 19.2865 41.0994 19.1812 41.1621C19.0649 41.2331 18.9455 41.3042 18.8261 41.3694C18.8148 41.3724 18.8065 41.3752 18.7976 41.3807C18.7893 41.3862 18.7805 41.392 18.7719 41.3976C18.4223 41.5908 18.0815 41.7953 17.7521 42.0114C17.6413 42.0827 17.5304 42.1562 17.4227 42.2333C17.2803 42.3356 17.1355 42.4378 16.9962 42.5459H16.9904C13.3165 45.2914 10.938 49.6731 10.938 54.6203Z" fill="#FFC2A9"/>
<path d="M10.938 54.6201H41.0811C41.0811 50.4402 39.3822 46.658 36.6342 43.9301C36.5062 43.8022 36.3782 43.68 36.245 43.5579C35.8498 43.1914 35.435 42.8445 35.0033 42.5237C34.7191 42.3131 34.4234 42.1116 34.1252 41.9212C33.8267 41.728 33.5199 41.5461 33.2046 41.3753C33.1988 41.3695 33.193 41.3695 33.193 41.3695C33.0711 41.3012 32.9517 41.2333 32.832 41.1592C32.4741 40.9489 32.1358 40.7103 31.8122 40.4517C30.3344 41.9632 28.2774 42.8981 25.9956 42.8981C23.7221 42.8981 21.665 41.9604 20.1873 40.4544C20.0936 40.531 19.9971 40.605 19.9004 40.6761C19.7669 40.7756 19.6304 40.8723 19.4941 40.9632C19.3918 41.0312 19.2865 41.0995 19.1812 41.1622C19.0649 41.236 18.9455 41.3043 18.8261 41.3695C18.8148 41.3725 18.8065 41.3753 18.7976 41.3808C18.7893 41.3839 18.7805 41.3894 18.7719 41.3952C18.4223 41.5884 18.0815 41.7929 17.7521 42.0115C17.6413 42.0828 17.5304 42.1564 17.4227 42.2335C17.2803 42.3357 17.1355 42.438 16.9962 42.546H16.9904C13.3165 45.2913 10.938 49.673 10.938 54.6201Z" fill="#EB6D4A"/>
<path d="M37.5781 12.9375V22.3666C37.5781 30.3752 30.5479 36.867 26.0098 36.867C21.4714 36.867 14.4412 30.3752 14.4412 22.3666V12.9375H37.5781Z" fill="#FFC2A9"/>
<path d="M37.5781 21.2324C37.008 21.2324 36.5461 20.7705 36.5461 20.2006V13.6411H37.5781V21.2324Z" fill="#141720"/>
<path d="M14.4409 21.2324V13.6411H15.4727V20.2006C15.4729 20.7705 15.0111 21.2324 14.4409 21.2324Z" fill="#141720"/>
<path d="M14.4421 13.3574C14.4421 14.7072 14.5327 15.0325 15.4741 14.9606C15.5119 14.3064 20.2114 13.7733 26.007 13.7733C31.8068 13.7733 36.5063 14.3064 36.5442 14.9606C37.4855 15.0325 37.5762 14.7072 37.5762 13.3574C37.5762 13.225 37.5723 13.0854 37.5687 12.9375C37.425 9.60665 35.5462 3.37988 26.007 3.37988C16.472 3.37988 14.593 9.60665 14.4495 12.9375C14.4459 13.0854 14.4421 13.2253 14.4421 13.3574Z" fill="#141720"/>
</g>
<mask id="mask1_7_350" style="mask-type:luminance" maskUnits="userSpaceOnUse" x="0" y="0" width="52" height="52">
<path d="M26.0001 52.0002C11.6408 52.0002 0.000278473 40.3597 0.000278473 26.0003C0.000278473 11.641 11.6408 0.000488281 26.0001 0.000488281C40.3595 0.000488281 52 11.641 52 26.0003C52 40.3597 40.3595 52.0002 26.0001 52.0002Z" fill="white"/>
</mask>
<g mask="url(#mask1_7_350)">
<path d="M20.1878 40.3838C21.1598 43.3758 23.1177 46.3367 26.0017 48.7577C28.8859 46.3367 30.8408 43.3758 31.8125 40.3838C31.7981 40.3893 31.7813 40.3951 31.7669 40.4006C30.2383 41.7701 28.2149 42.6059 26.0017 42.6059C23.7882 42.6059 21.7679 41.7731 20.2389 40.4037C20.2221 40.3979 20.205 40.3896 20.1878 40.3838Z" fill="white"/>
</g>
</g>
<path d="M20.0658 67.3636C20.0061 66.8598 19.7642 66.4688 19.3399 66.1903C18.9157 65.9119 18.3953 65.7727 17.7789 65.7727C17.3281 65.7727 16.9337 65.8456 16.5956 65.9915C16.2609 66.1373 15.999 66.3378 15.8101 66.593C15.6245 66.8482 15.5317 67.1383 15.5317 67.4631C15.5317 67.7348 15.5963 67.9685 15.7256 68.1641C15.8582 68.3563 16.0272 68.517 16.2327 68.6463C16.4382 68.7723 16.6536 68.8767 16.879 68.9595C17.1044 69.0391 17.3115 69.1037 17.5004 69.1534L18.5345 69.4318C18.7997 69.5014 19.0947 69.5975 19.4195 69.7202C19.7476 69.8428 20.0608 70.0102 20.3591 70.2223C20.6607 70.4311 20.9093 70.6996 21.1048 71.0277C21.3004 71.3558 21.3982 71.7585 21.3982 72.2358C21.3982 72.786 21.254 73.2831 20.9656 73.7273C20.6806 74.1714 20.263 74.5244 19.7128 74.7862C19.1659 75.0481 18.5014 75.179 17.7192 75.179C16.99 75.179 16.3586 75.0613 15.825 74.826C15.2947 74.5907 14.8771 74.2625 14.5722 73.8416C14.2706 73.4207 14.0999 72.9318 14.0601 72.375H15.3328C15.366 72.7595 15.4952 73.0777 15.7206 73.3295C15.9493 73.5781 16.2377 73.7637 16.5857 73.8864C16.937 74.0057 17.3148 74.0653 17.7192 74.0653C18.1898 74.0653 18.6124 73.9891 18.9869 73.8366C19.3615 73.6809 19.6581 73.4654 19.8769 73.1903C20.0956 72.9119 20.205 72.5871 20.205 72.2159C20.205 71.8778 20.1105 71.6027 19.9216 71.3906C19.7327 71.1785 19.4841 71.0062 19.1759 70.8736C18.8676 70.741 18.5345 70.625 18.1766 70.5256L16.9237 70.1676C16.1283 69.9389 15.4986 69.6125 15.0345 69.1882C14.5705 68.764 14.3385 68.2088 14.3385 67.5227C14.3385 66.9527 14.4926 66.4555 14.8009 66.0312C15.1124 65.6037 15.53 65.2723 16.0537 65.0369C16.5807 64.7983 17.169 64.679 17.8186 64.679C18.4749 64.679 19.0582 64.7966 19.5686 65.032C20.079 65.264 20.4834 65.5821 20.7817 65.9865C21.0833 66.3909 21.2424 66.8499 21.259 67.3636H20.0658ZM26.3685 75.1591C25.6791 75.1591 25.0742 74.995 24.5539 74.6669C24.0368 74.3388 23.6325 73.8797 23.3408 73.2898C23.0525 72.6998 22.9083 72.0104 22.9083 71.2216C22.9083 70.4261 23.0525 69.7318 23.3408 69.1385C23.6325 68.5452 24.0368 68.0845 24.5539 67.7564C25.0742 67.4283 25.6791 67.2642 26.3685 67.2642C27.0579 67.2642 27.6611 67.4283 28.1782 67.7564C28.6985 68.0845 29.1029 68.5452 29.3912 69.1385C29.6829 69.7318 29.8287 70.4261 29.8287 71.2216C29.8287 72.0104 29.6829 72.6998 29.3912 73.2898C29.1029 73.8797 28.6985 74.3388 28.1782 74.6669C27.6611 74.995 27.0579 75.1591 26.3685 75.1591ZM26.3685 74.1051C26.8922 74.1051 27.3231 73.9709 27.6611 73.7024C27.9992 73.4339 28.2494 73.081 28.4118 72.6435C28.5742 72.206 28.6555 71.732 28.6555 71.2216C28.6555 70.7112 28.5742 70.2356 28.4118 69.7947C28.2494 69.3539 27.9992 68.9976 27.6611 68.7259C27.3231 68.4541 26.8922 68.3182 26.3685 68.3182C25.8448 68.3182 25.414 68.4541 25.0759 68.7259C24.7378 68.9976 24.4876 69.3539 24.3252 69.7947C24.1628 70.2356 24.0816 70.7112 24.0816 71.2216C24.0816 71.732 24.1628 72.206 24.3252 72.6435C24.4876 73.081 24.7378 73.4339 25.0759 73.7024C25.414 73.9709 25.8448 74.1051 26.3685 74.1051ZM32.7931 70.4062V75H31.6198V67.3636H32.7533V68.5568H32.8527C33.0317 68.169 33.3035 67.8575 33.6681 67.6222C34.0326 67.3835 34.5033 67.2642 35.08 67.2642C35.597 67.2642 36.0494 67.3703 36.4372 67.5824C36.825 67.7912 37.1266 68.1094 37.3421 68.5369C37.5575 68.9612 37.6652 69.4981 37.6652 70.1477V75H36.4919V70.2273C36.4919 69.6274 36.3361 69.16 36.0246 68.8253C35.713 68.4872 35.2855 68.3182 34.7419 68.3182C34.3674 68.3182 34.0326 68.3994 33.7377 68.5618C33.446 68.7242 33.2156 68.9612 33.0466 69.2727C32.8776 69.5843 32.7931 69.9621 32.7931 70.4062Z" fill="#707070"/>
<defs>
<clipPath id="clip0_7_350">
<rect width="52" height="52" fill="white" transform="matrix(-1 0 0 1 52 0)"/>
</clipPath>
</defs>
</svg>
