<svg width="102" height="46" viewBox="0 0 102 46" fill="none" xmlns="http://www.w3.org/2000/svg">
<g filter="url(#filter0_d_204_1112)">
<rect x="6" y="6" width="89" height="33" rx="16.5" fill="#FC4C4C"/>
</g>
<path d="M40.3275 26V17.5614H43.1788C43.8381 17.5614 44.3793 17.674 44.8023 17.8993C45.2253 18.1218 45.5385 18.4281 45.7417 18.8181C45.945 19.2082 46.0466 19.6518 46.0466 20.149C46.0466 20.6462 45.945 21.0871 45.7417 21.4717C45.5385 21.8562 45.2267 22.1584 44.8064 22.3782C44.3861 22.5952 43.8491 22.7037 43.1953 22.7037H40.8879V21.7807H43.1624C43.6129 21.7807 43.9755 21.7148 44.2501 21.5829C44.5276 21.4511 44.7281 21.2643 44.8517 21.0226C44.9781 20.7781 45.0413 20.4869 45.0413 20.149C45.0413 19.8112 44.9781 19.5159 44.8517 19.2631C44.7254 19.0104 44.5235 18.8154 44.246 18.678C43.9686 18.538 43.6019 18.4679 43.1459 18.4679H41.3494V26H40.3275ZM44.2996 22.2092L46.3763 26H45.1896L43.1459 22.2092H44.2996ZM50.2031 26.1319C49.5933 26.1319 49.0672 25.9973 48.625 25.7281C48.1855 25.4561 47.8462 25.077 47.6072 24.5908C47.371 24.1019 47.2529 23.5333 47.2529 22.885C47.2529 22.2367 47.371 21.6653 47.6072 21.1709C47.8462 20.6737 48.1786 20.2864 48.6044 20.0089C49.0329 19.7287 49.5328 19.5887 50.1042 19.5887C50.4338 19.5887 50.7594 19.6436 51.0807 19.7535C51.4021 19.8633 51.6947 20.0419 51.9584 20.2891C52.2221 20.5336 52.4322 20.8577 52.5888 21.2615C52.7454 21.6653 52.8237 22.1625 52.8237 22.7531V23.1652H47.9451V22.3246H51.8348C51.8348 21.9675 51.7634 21.6489 51.6205 21.3687C51.4804 21.0885 51.2799 20.8674 51.0189 20.7053C50.7607 20.5432 50.4558 20.4622 50.1042 20.4622C49.7169 20.4622 49.3818 20.5583 49.0988 20.7506C48.8186 20.9401 48.603 21.1874 48.4519 21.4923C48.3008 21.7972 48.2253 22.1241 48.2253 22.4729V23.0333C48.2253 23.5113 48.3077 23.9164 48.4725 24.2488C48.6401 24.5785 48.8722 24.8298 49.1689 25.0029C49.4655 25.1732 49.8103 25.2583 50.2031 25.2583C50.4586 25.2583 50.6893 25.2226 50.8953 25.1512C51.1041 25.077 51.284 24.9672 51.4351 24.8216C51.5862 24.6732 51.7029 24.4892 51.7853 24.2694L52.7248 24.5331C52.6259 24.8518 52.4597 25.132 52.2262 25.3737C51.9927 25.6127 51.7043 25.7995 51.3609 25.9341C51.0176 26.0659 50.6316 26.1319 50.2031 26.1319ZM54.3029 26V19.6711H55.2424V20.66H55.3248C55.4566 20.3221 55.6695 20.0598 55.9634 19.873C56.2573 19.6834 56.6103 19.5887 57.0224 19.5887C57.4399 19.5887 57.7874 19.6834 58.0648 19.873C58.345 20.0598 58.5634 20.3221 58.72 20.66H58.7859C58.948 20.3331 59.1911 20.0735 59.5152 19.8812C59.8393 19.6862 60.228 19.5887 60.6813 19.5887C61.2472 19.5887 61.71 19.7658 62.0699 20.1202C62.4297 20.4718 62.6096 21.0198 62.6096 21.7642V26H61.6372V21.7642C61.6372 21.2972 61.5095 20.9635 61.254 20.763C60.9986 20.5624 60.6978 20.4622 60.3516 20.4622C59.9066 20.4622 59.5619 20.5968 59.3174 20.866C59.073 21.1324 58.9507 21.4703 58.9507 21.8796V26H57.9618V21.6653C57.9618 21.3055 57.8451 21.0157 57.6116 20.7959C57.3781 20.5734 57.0773 20.4622 56.7092 20.4622C56.4565 20.4622 56.2203 20.5295 56.0005 20.6641C55.7835 20.7987 55.6077 20.9855 55.4731 21.2245C55.3412 21.4607 55.2753 21.734 55.2753 22.0444V26H54.3029ZM66.9587 26.1319C66.3874 26.1319 65.886 25.9959 65.4548 25.7239C65.0262 25.452 64.6911 25.0715 64.4494 24.5826C64.2104 24.0936 64.0909 23.5223 64.0909 22.8685C64.0909 22.2092 64.2104 21.6337 64.4494 21.142C64.6911 20.6503 65.0262 20.2685 65.4548 19.9966C65.886 19.7246 66.3874 19.5887 66.9587 19.5887C67.5301 19.5887 68.03 19.7246 68.4585 19.9966C68.8898 20.2685 69.2249 20.6503 69.4639 21.142C69.7056 21.6337 69.8265 22.2092 69.8265 22.8685C69.8265 23.5223 69.7056 24.0936 69.4639 24.5826C69.2249 25.0715 68.8898 25.452 68.4585 25.7239C68.03 25.9959 67.5301 26.1319 66.9587 26.1319ZM66.9587 25.2583C67.3927 25.2583 67.7498 25.1471 68.03 24.9246C68.3102 24.7021 68.5176 24.4095 68.6522 24.0469C68.7868 23.6843 68.8541 23.2915 68.8541 22.8685C68.8541 22.4455 68.7868 22.0513 68.6522 21.6859C68.5176 21.3206 68.3102 21.0253 68.03 20.8001C67.7498 20.5748 67.3927 20.4622 66.9587 20.4622C66.5247 20.4622 66.1676 20.5748 65.8874 20.8001C65.6072 21.0253 65.3998 21.3206 65.2652 21.6859C65.1306 22.0513 65.0633 22.4455 65.0633 22.8685C65.0633 23.2915 65.1306 23.6843 65.2652 24.0469C65.3998 24.4095 65.6072 24.7021 65.8874 24.9246C66.1676 25.1471 66.5247 25.2583 66.9587 25.2583ZM76.2595 19.6711L73.9191 26H72.9302L70.5898 19.6711H71.6446L73.3917 24.7144H73.4576L75.2047 19.6711H76.2595ZM79.9699 26.1319C79.3601 26.1319 78.8341 25.9973 78.3918 25.7281C77.9523 25.4561 77.613 25.077 77.3741 24.5908C77.1378 24.1019 77.0197 23.5333 77.0197 22.885C77.0197 22.2367 77.1378 21.6653 77.3741 21.1709C77.613 20.6737 77.9454 20.2864 78.3712 20.0089C78.7997 19.7287 79.2997 19.5887 79.871 19.5887C80.2007 19.5887 80.5262 19.6436 80.8476 19.7535C81.169 19.8633 81.4615 20.0419 81.7252 20.2891C81.9889 20.5336 82.1991 20.8577 82.3556 21.2615C82.5122 21.6653 82.5905 22.1625 82.5905 22.7531V23.1652H77.7119V22.3246H81.6016C81.6016 21.9675 81.5302 21.6489 81.3873 21.3687C81.2472 21.0885 81.0467 20.8674 80.7858 20.7053C80.5275 20.5432 80.2226 20.4622 79.871 20.4622C79.4837 20.4622 79.1486 20.5583 78.8656 20.7506C78.5855 20.9401 78.3698 21.1874 78.2187 21.4923C78.0677 21.7972 77.9921 22.1241 77.9921 22.4729V23.0333C77.9921 23.5113 78.0745 23.9164 78.2393 24.2488C78.4069 24.5785 78.639 24.8298 78.9357 25.0029C79.2324 25.1732 79.5771 25.2583 79.9699 25.2583C80.2254 25.2583 80.4561 25.2226 80.6621 25.1512C80.8709 25.077 81.0508 24.9672 81.2019 24.8216C81.353 24.6732 81.4697 24.4892 81.5521 24.2694L82.4916 24.5331C82.3927 24.8518 82.2265 25.132 81.993 25.3737C81.7595 25.6127 81.4711 25.7995 81.1277 25.9341C80.7844 26.0659 80.3984 26.1319 79.9699 26.1319Z" fill="white"/>
<path d="M23.4346 18.4348L31.1985 26.1986M23.4346 26.1986L31.1985 18.4348" stroke="white" stroke-width="2" stroke-linecap="round" stroke-linejoin="round"/>
<defs>
<filter id="filter0_d_204_1112" x="0.923664" y="0.923664" width="100.603" height="44.6031" filterUnits="userSpaceOnUse" color-interpolation-filters="sRGB">
<feFlood flood-opacity="0" result="BackgroundImageFix"/>
<feColorMatrix in="SourceAlpha" type="matrix" values="0 0 0 0 0 0 0 0 0 0 0 0 0 0 0 0 0 0 127 0" result="hardAlpha"/>
<feOffset dx="0.725191" dy="0.725191"/>
<feGaussianBlur stdDeviation="2.90076"/>
<feComposite in2="hardAlpha" operator="out"/>
<feColorMatrix type="matrix" values="0 0 0 0 0 0 0 0 0 0 0 0 0 0 0 0 0 0 0.15 0"/>
<feBlend mode="normal" in2="BackgroundImageFix" result="effect1_dropShadow_204_1112"/>
<feBlend mode="normal" in="SourceGraphic" in2="effect1_dropShadow_204_1112" result="shape"/>
</filter>
</defs>
</svg>
