<svg width="43" height="43" viewBox="0 0 43 43" fill="none" xmlns="http://www.w3.org/2000/svg">
<circle cx="21.5" cy="21.5" r="21.5" fill="#FFF0D3"/>
<path d="M19.6574 16.2255L19.6573 16.2256L19.3791 16.7243C19.3791 16.7244 19.379 16.7245 19.379 16.7246C19.362 16.755 19.3452 16.7852 19.3286 16.8151C19.0743 17.2731 18.8569 17.6644 18.507 17.9306L18.5061 17.9313C18.1512 18.2003 17.7196 18.2972 17.2235 18.4085C17.1913 18.4158 17.1589 18.423 17.1262 18.4304L16.5867 18.5526L16.5864 18.5526C15.5204 18.7936 14.7974 18.9591 14.3027 19.1541C13.8209 19.3441 13.7251 19.4973 13.6887 19.614C13.6503 19.738 13.6458 19.9341 13.934 20.392C14.2269 20.8573 14.7215 21.4384 15.4471 22.2865L15.4475 22.2868L15.8153 22.7174C15.8373 22.7431 15.8591 22.7684 15.8806 22.7936C16.2206 23.1896 16.51 23.5267 16.6411 23.9532L16.013 24.1462M19.6574 16.2255L16.6824 29.2604C16.5954 29.1943 16.4779 29.0471 16.453 28.4898C16.428 27.9307 16.5016 27.1539 16.611 26.0222L16.6669 25.4491L16.667 25.4486C16.6703 25.4145 16.6736 25.3808 16.6769 25.3474C16.7289 24.8165 16.7725 24.3719 16.6399 23.9494L16.013 24.1462M19.6574 16.2255C20.2058 15.2421 20.5821 14.5706 20.9151 14.1357C21.2478 13.7014 21.413 13.6702 21.4997 13.6702C21.5865 13.6702 21.7517 13.7014 22.0844 14.1357C22.4174 14.5706 22.7937 15.2421 23.3421 16.2255L23.3421 16.2256M19.6574 16.2255L23.3421 16.2256M16.013 24.1462C16.1047 24.4381 16.0741 24.7538 16.013 25.3853L14.9479 22.7136L15.3162 23.1447L15.3171 23.1458C15.7205 23.617 15.9231 23.8536 16.013 24.1462ZM23.3421 16.2256L23.6204 16.7243M23.3421 16.2256L23.6204 16.7243M27.1837 22.717L27.1841 22.7166L27.5522 22.2866C28.2779 21.438 28.7725 20.8568 29.0655 20.3914C29.3537 19.9334 29.349 19.7376 29.3109 19.6144C29.2745 19.4975 29.1792 19.3444 28.6972 19.1545C28.2027 18.9595 27.4799 18.794 26.4137 18.5526L25.8743 18.4305L27.1837 22.717ZM27.1837 22.717C27.1614 22.7432 27.1392 22.7691 27.1172 22.7947C26.7779 23.1907 26.49 23.5267 26.3582 23.9502L26.3581 23.9507M27.1837 22.717L26.3581 23.9507M26.3581 23.9507C26.2271 24.3731 26.2706 24.8166 26.3227 25.3477C26.326 25.3807 26.3292 25.4141 26.3325 25.4478L26.3325 25.4482M26.3581 23.9507L26.3325 25.4482M26.3325 25.4482L26.3885 26.0222L26.3325 25.4482ZM26.3174 29.26L26.3178 29.2597C26.4041 29.1942 26.5217 29.0478 26.5466 28.4898C26.5715 27.9308 26.4979 27.1541 26.3885 26.0227L26.3174 29.26ZM26.3174 29.26C26.2417 29.3175 26.0955 29.3897 25.5941 29.246C25.0843 29.0998 24.4061 28.7895 23.4083 28.33L23.4075 28.3297M26.3174 29.26L23.4075 28.3297M23.4075 28.3297L22.9022 28.0978M23.4075 28.3297L22.9022 28.0978M23.6204 16.7243C23.6374 16.7549 23.6542 16.7851 23.6708 16.8151C23.9252 17.2731 24.1426 17.6644 24.4924 17.9306C24.8468 18.2002 25.2799 18.2972 25.7757 18.4083C25.8082 18.4156 25.8409 18.4229 25.8739 18.4304L23.6204 16.7243ZM22.9022 28.0978C22.9021 28.0977 22.9019 28.0976 22.9017 28.0975M22.9022 28.0978L22.9017 28.0975M22.9017 28.0975C22.872 28.0838 22.8426 28.0702 22.8135 28.0567C22.3498 27.8417 21.944 27.6536 21.4997 27.6536C21.056 27.6536 20.6505 27.8414 20.1868 28.056C20.1571 28.0697 20.1272 28.0836 20.097 28.0975C20.0969 28.0975 20.0968 28.0976 20.0967 28.0976L19.5922 28.33L22.9017 28.0975ZM17.4056 29.2458C17.9155 29.0996 18.594 28.7894 19.592 28.33L17.4056 29.2458ZM17.4056 29.2458C16.9042 29.3895 16.7578 29.3175 16.6826 29.2606L17.4056 29.2458Z" stroke="#FFA800" stroke-width="1.31409"/>
</svg>
