<svg width="102" height="33" viewBox="0 0 102 33" fill="none" xmlns="http://www.w3.org/2000/svg">
<rect width="101.527" height="32.6336" rx="16.3168" fill="url(#paint0_linear_204_1105)"/>
<path d="M34.3275 20V11.5614H37.1788C37.8381 11.5614 38.3793 11.674 38.8023 11.8993C39.2253 12.1218 39.5385 12.4281 39.7417 12.8181C39.945 13.2082 40.0466 13.6518 40.0466 14.149C40.0466 14.6462 39.945 15.0871 39.7417 15.4717C39.5385 15.8562 39.2267 16.1584 38.8064 16.3782C38.3861 16.5952 37.8491 16.7037 37.1953 16.7037H34.8879V15.7807H37.1624C37.6129 15.7807 37.9755 15.7148 38.2501 15.5829C38.5276 15.4511 38.7281 15.2643 38.8517 15.0226C38.9781 14.7781 39.0413 14.4869 39.0413 14.149C39.0413 13.8112 38.9781 13.5159 38.8517 13.2631C38.7254 13.0104 38.5235 12.8154 38.246 12.678C37.9686 12.538 37.6019 12.4679 37.1459 12.4679H35.3494V20H34.3275ZM38.2996 16.2092L40.3763 20H39.1896L37.1459 16.2092H38.2996ZM44.2031 20.1319C43.5933 20.1319 43.0672 19.9973 42.625 19.7281C42.1855 19.4561 41.8462 19.077 41.6072 18.5908C41.371 18.1019 41.2529 17.5333 41.2529 16.885C41.2529 16.2367 41.371 15.6653 41.6072 15.1709C41.8462 14.6737 42.1786 14.2864 42.6044 14.0089C43.0329 13.7287 43.5328 13.5887 44.1042 13.5887C44.4338 13.5887 44.7594 13.6436 45.0807 13.7535C45.4021 13.8633 45.6947 14.0419 45.9584 14.2891C46.2221 14.5336 46.4322 14.8577 46.5888 15.2615C46.7454 15.6653 46.8237 16.1625 46.8237 16.7531V17.1652H41.9451V16.3246H45.8348C45.8348 15.9675 45.7634 15.6489 45.6205 15.3687C45.4804 15.0885 45.2799 14.8674 45.0189 14.7053C44.7607 14.5432 44.4558 14.4622 44.1042 14.4622C43.7169 14.4622 43.3818 14.5583 43.0988 14.7506C42.8186 14.9401 42.603 15.1874 42.4519 15.4923C42.3008 15.7972 42.2253 16.1241 42.2253 16.4729V17.0333C42.2253 17.5113 42.3077 17.9164 42.4725 18.2488C42.6401 18.5785 42.8722 18.8298 43.1689 19.0029C43.4655 19.1732 43.8103 19.2583 44.2031 19.2583C44.4586 19.2583 44.6893 19.2226 44.8953 19.1512C45.1041 19.077 45.284 18.9672 45.4351 18.8216C45.5862 18.6732 45.7029 18.4892 45.7853 18.2694L46.7248 18.5331C46.6259 18.8518 46.4597 19.132 46.2262 19.3737C45.9927 19.6127 45.7043 19.7995 45.3609 19.9341C45.0176 20.0659 44.6316 20.1319 44.2031 20.1319ZM52.6211 22.3734V19.0276H52.5387C52.4673 19.143 52.3656 19.2885 52.2338 19.4643C52.1019 19.6374 51.9137 19.7926 51.6693 19.93C51.4248 20.0646 51.0993 20.1319 50.6927 20.1319C50.1653 20.1319 49.6997 19.9986 49.2959 19.7322C48.8921 19.463 48.5762 19.0839 48.3482 18.5949C48.1202 18.1032 48.0062 17.5223 48.0062 16.852C48.0062 16.1873 48.1202 15.6104 48.3482 15.1214C48.5762 14.6325 48.8935 14.2548 49.3 13.9883C49.7066 13.7219 50.1763 13.5887 50.7092 13.5887C51.1213 13.5887 51.4468 13.6573 51.6857 13.7947C51.9275 13.9293 52.1115 14.0831 52.2379 14.2562C52.367 14.4265 52.4673 14.5666 52.5387 14.6764H52.654V13.6711H53.5935V22.3734H52.6211ZM50.8246 19.2583C51.2146 19.2583 51.5443 19.1567 51.8135 18.9534C52.0827 18.7474 52.2873 18.4631 52.4274 18.1005C52.5675 17.7352 52.6376 17.3135 52.6376 16.8355C52.6376 16.3631 52.5689 15.9496 52.4315 15.5953C52.2942 15.2382 52.0909 14.9607 51.8217 14.763C51.5525 14.5624 51.2201 14.4622 50.8246 14.4622C50.4125 14.4622 50.0692 14.5679 49.7945 14.7794C49.5225 14.9882 49.3179 15.2725 49.1805 15.6324C49.0459 15.9895 48.9786 16.3905 48.9786 16.8355C48.9786 17.286 49.0473 17.6953 49.1847 18.0634C49.3248 18.4288 49.5308 18.7199 49.8027 18.9369C50.0774 19.1512 50.418 19.2583 50.8246 19.2583ZM59.3621 17.4124V13.6711H60.3345V20H59.3621V18.9287H59.2961C59.1478 19.2501 58.9171 19.5234 58.6039 19.7487C58.2908 19.9712 57.8952 20.0824 57.4172 20.0824C57.0217 20.0824 56.6701 19.9959 56.3624 19.8228C56.0547 19.647 55.813 19.3833 55.6372 19.0317C55.4614 18.6774 55.3735 18.231 55.3735 17.6926V13.6711H56.3459V17.6266C56.3459 18.0881 56.475 18.4562 56.7332 18.7309C56.9942 19.0056 57.3266 19.143 57.7304 19.143C57.9721 19.143 58.218 19.0812 58.4679 18.9575C58.7206 18.8339 58.9322 18.6444 59.1025 18.3889C59.2755 18.1335 59.3621 17.8079 59.3621 17.4124ZM64.7691 20.1319C64.1592 20.1319 63.6332 19.9973 63.1909 19.7281C62.7514 19.4561 62.4122 19.077 62.1732 18.5908C61.937 18.1019 61.8188 17.5333 61.8188 16.885C61.8188 16.2367 61.937 15.6653 62.1732 15.1709C62.4122 14.6737 62.7446 14.2864 63.1703 14.0089C63.5989 13.7287 64.0988 13.5887 64.6702 13.5887C64.9998 13.5887 65.3253 13.6436 65.6467 13.7535C65.9681 13.8633 66.2606 14.0419 66.5243 14.2891C66.7881 14.5336 66.9982 14.8577 67.1548 15.2615C67.3113 15.6653 67.3896 16.1625 67.3896 16.7531V17.1652H62.5111V16.3246H66.4007C66.4007 15.9675 66.3293 15.6489 66.1865 15.3687C66.0464 15.0885 65.8459 14.8674 65.5849 14.7053C65.3267 14.5432 65.0218 14.4622 64.6702 14.4622C64.2828 14.4622 63.9477 14.5583 63.6648 14.7506C63.3846 14.9401 63.169 15.1874 63.0179 15.4923C62.8668 15.7972 62.7913 16.1241 62.7913 16.4729V17.0333C62.7913 17.5113 62.8737 17.9164 63.0385 18.2488C63.206 18.5785 63.4382 18.8298 63.7348 19.0029C64.0315 19.1732 64.3762 19.2583 64.7691 19.2583C65.0245 19.2583 65.2553 19.2226 65.4613 19.1512C65.6701 19.077 65.85 18.9672 66.0011 18.8216C66.1521 18.6732 66.2689 18.4892 66.3513 18.2694L67.2907 18.5331C67.1919 18.8518 67.0257 19.132 66.7922 19.3737C66.5587 19.6127 66.2703 19.7995 65.9269 19.9341C65.5835 20.0659 65.1976 20.1319 64.7691 20.1319ZM73.3519 15.0885L72.4783 15.3357C72.4234 15.1901 72.3424 15.0486 72.2352 14.9113C72.1308 14.7712 71.988 14.6558 71.8067 14.5652C71.6254 14.4745 71.3933 14.4292 71.1104 14.4292C70.723 14.4292 70.4003 14.5185 70.1421 14.697C69.8866 14.8728 69.7589 15.0967 69.7589 15.3687C69.7589 15.6104 69.8468 15.8013 70.0226 15.9414C70.1984 16.0815 70.4731 16.1982 70.8467 16.2916L71.7861 16.5224C72.352 16.6597 72.7736 16.8699 73.0511 17.1528C73.3285 17.433 73.4672 17.7942 73.4672 18.2365C73.4672 18.5991 73.3628 18.9232 73.1541 19.2089C72.9481 19.4946 72.6596 19.7198 72.2888 19.8846C71.918 20.0494 71.4867 20.1319 70.995 20.1319C70.3495 20.1319 69.8152 19.9918 69.3921 19.7116C68.9691 19.4314 68.7013 19.0221 68.5887 18.4837L69.5116 18.2529C69.5995 18.5936 69.7657 18.849 70.0102 19.0193C70.2574 19.1897 70.5802 19.2748 70.9785 19.2748C71.4317 19.2748 71.7916 19.1787 72.058 18.9864C72.3272 18.7913 72.4618 18.5579 72.4618 18.2859C72.4618 18.0662 72.3849 17.8821 72.2311 17.7338C72.0773 17.5827 71.841 17.4701 71.5224 17.3959L70.4676 17.1487C69.888 17.0113 69.4622 16.7984 69.1902 16.51C68.9211 16.2188 68.7865 15.8549 68.7865 15.4181C68.7865 15.061 68.8867 14.7451 69.0872 14.4704C69.2905 14.1957 69.5666 13.9801 69.9154 13.8235C70.267 13.6669 70.6654 13.5887 71.1104 13.5887C71.7367 13.5887 72.2284 13.726 72.5855 14.0007C72.9453 14.2754 73.2008 14.638 73.3519 15.0885ZM77.6834 13.6711V14.4951H74.4036V13.6711H77.6834ZM75.3595 12.1548H76.3319V18.187C76.3319 18.4617 76.3718 18.6677 76.4514 18.8051C76.5338 18.9397 76.6382 19.0303 76.7646 19.077C76.8937 19.121 77.0297 19.143 77.1725 19.143C77.2796 19.143 77.3675 19.1375 77.4362 19.1265C77.5049 19.1127 77.5598 19.1018 77.601 19.0935L77.7988 19.967C77.7329 19.9918 77.6409 20.0165 77.5227 20.0412C77.4046 20.0687 77.2549 20.0824 77.0736 20.0824C76.7989 20.0824 76.5297 20.0233 76.266 19.9052C76.0051 19.7871 75.788 19.6072 75.615 19.3655C75.4447 19.1237 75.3595 18.8188 75.3595 18.4507V12.1548ZM81.7317 20.1319C81.1219 20.1319 80.5959 19.9973 80.1536 19.7281C79.7141 19.4561 79.3749 19.077 79.1359 18.5908C78.8996 18.1019 78.7815 17.5333 78.7815 16.885C78.7815 16.2367 78.8996 15.6653 79.1359 15.1709C79.3749 14.6737 79.7072 14.2864 80.133 14.0089C80.5615 13.7287 81.0615 13.5887 81.6328 13.5887C81.9625 13.5887 82.288 13.6436 82.6094 13.7535C82.9308 13.8633 83.2233 14.0419 83.487 14.2891C83.7507 14.5336 83.9609 14.8577 84.1174 15.2615C84.274 15.6653 84.3523 16.1625 84.3523 16.7531V17.1652H79.4737V16.3246H83.3634C83.3634 15.9675 83.292 15.6489 83.1491 15.3687C83.009 15.0885 82.8085 14.8674 82.5476 14.7053C82.2893 14.5432 81.9844 14.4622 81.6328 14.4622C81.2455 14.4622 80.9104 14.5583 80.6275 14.7506C80.3473 14.9401 80.1316 15.1874 79.9806 15.4923C79.8295 15.7972 79.7539 16.1241 79.7539 16.4729V17.0333C79.7539 17.5113 79.8363 17.9164 80.0012 18.2488C80.1687 18.5785 80.4008 18.8298 80.6975 19.0029C80.9942 19.1732 81.3389 19.2583 81.7317 19.2583C81.9872 19.2583 82.2179 19.2226 82.4239 19.1512C82.6327 19.077 82.8126 18.9672 82.9637 18.8216C83.1148 18.6732 83.2315 18.4892 83.314 18.2694L84.2534 18.5331C84.1545 18.8518 83.9883 19.132 83.7548 19.3737C83.5213 19.6127 83.2329 19.7995 82.8896 19.9341C82.5462 20.0659 82.1602 20.1319 81.7317 20.1319ZM88.2214 20.1319C87.6939 20.1319 87.2283 19.9986 86.8245 19.7322C86.4207 19.463 86.1048 19.0839 85.8768 18.5949C85.6489 18.1032 85.5349 17.5223 85.5349 16.852C85.5349 16.1873 85.6489 15.6104 85.8768 15.1214C86.1048 14.6325 86.4221 14.2548 86.8287 13.9883C87.2352 13.7219 87.7049 13.5887 88.2378 13.5887C88.6499 13.5887 88.9754 13.6573 89.2144 13.7947C89.4561 13.9293 89.6401 14.0831 89.7665 14.2562C89.8956 14.4265 89.9959 14.5666 90.0673 14.6764H90.1497V11.5614H91.1221V20H90.1827V19.0276H90.0673C89.9959 19.143 89.8942 19.2885 89.7624 19.4643C89.6305 19.6374 89.4424 19.7926 89.1979 19.93C88.9534 20.0646 88.6279 20.1319 88.2214 20.1319ZM88.3532 19.2583C88.7433 19.2583 89.0729 19.1567 89.3421 18.9534C89.6113 18.7474 89.816 18.4631 89.956 18.1005C90.0961 17.7352 90.1662 17.3135 90.1662 16.8355C90.1662 16.3631 90.0975 15.9496 89.9602 15.5953C89.8228 15.2382 89.6195 14.9607 89.3503 14.763C89.0811 14.5624 88.7488 14.4622 88.3532 14.4622C87.9412 14.4622 87.5978 14.5679 87.3231 14.7794C87.0512 14.9882 86.8465 15.2725 86.7092 15.6324C86.5746 15.9895 86.5073 16.3905 86.5073 16.8355C86.5073 17.286 86.5759 17.6953 86.7133 18.0634C86.8534 18.4288 87.0594 18.7199 87.3314 18.9369C87.606 19.1512 87.9467 19.2583 88.3532 19.2583Z" fill="white"/>
<path d="M17.8432 21C17.4175 21.0002 17.0091 20.8283 16.7083 20.5222L13.2769 17.0377C12.9077 16.6625 12.9077 16.0543 13.2769 15.6791C13.6462 15.304 14.2449 15.304 14.6143 15.6791L17.8432 18.9593L26.3857 10.2813C26.7551 9.90623 27.3538 9.90623 27.7231 10.2813C28.0923 10.6565 28.0923 11.2647 27.7231 11.6399L18.9782 20.5222C18.6774 20.8283 18.269 21.0002 17.8432 21Z" fill="white"/>
<defs>
<linearGradient id="paint0_linear_204_1105" x1="0" y1="16.3168" x2="101.527" y2="16.3168" gradientUnits="userSpaceOnUse">
<stop stop-color="#0BA360"/>
<stop offset="1" stop-color="#3CBA92"/>
</linearGradient>
</defs>
</svg>
