<svg width="94" height="61" viewBox="0 0 94 61" fill="none" xmlns="http://www.w3.org/2000/svg">
<path d="M3.052 56.118L0.364 46.304H1.624L3.738 54.718L6.146 46.304H7.448L9.786 54.718L11.928 46.304H13.188L10.444 56.104H9.1L6.762 48.012L4.368 56.104L3.052 56.118ZM16.9122 56.272C16.2496 56.272 15.6616 56.1227 15.1482 55.824C14.6349 55.516 14.2289 55.0913 13.9302 54.55C13.6409 54.0087 13.4962 53.3693 13.4962 52.632C13.4962 51.904 13.6409 51.2693 13.9302 50.728C14.2196 50.1773 14.6209 49.7527 15.1342 49.454C15.6569 49.146 16.2589 48.992 16.9402 48.992C17.6122 48.992 18.1909 49.146 18.6762 49.454C19.1709 49.7527 19.5489 50.1493 19.8102 50.644C20.0716 51.1387 20.2022 51.6707 20.2022 52.24C20.2022 52.3427 20.1976 52.4453 20.1882 52.548C20.1882 52.6507 20.1882 52.7673 20.1882 52.898H14.6582C14.6862 53.43 14.8076 53.8733 15.0222 54.228C15.2462 54.5733 15.5216 54.8347 15.8482 55.012C16.1842 55.1893 16.5389 55.278 16.9122 55.278C17.3976 55.278 17.8036 55.166 18.1302 54.942C18.4569 54.718 18.6949 54.4147 18.8442 54.032H20.0062C19.8196 54.676 19.4602 55.2127 18.9282 55.642C18.4056 56.062 17.7336 56.272 16.9122 56.272ZM16.9122 49.986C16.3522 49.986 15.8529 50.1587 15.4142 50.504C14.9849 50.84 14.7376 51.3347 14.6722 51.988H19.0402C19.0122 51.3627 18.7976 50.8727 18.3962 50.518C17.9949 50.1633 17.5002 49.986 16.9122 49.986ZM24.9109 56.272C24.2203 56.272 23.6136 56.1133 23.0909 55.796C22.5776 55.4787 22.1763 55.0447 21.8869 54.494C21.6069 53.9433 21.4669 53.318 21.4669 52.618C21.4669 51.918 21.6116 51.2973 21.9009 50.756C22.1903 50.2053 22.5916 49.776 23.1049 49.468C23.6183 49.1507 24.2249 48.992 24.9249 48.992C25.4943 48.992 25.9983 49.1087 26.4369 49.342C26.8756 49.5753 27.2163 49.902 27.4589 50.322V46.024H28.6349V56.104H27.5709L27.4589 54.956C27.2349 55.292 26.9129 55.5953 26.4929 55.866C26.0729 56.1367 25.5456 56.272 24.9109 56.272ZM25.0369 55.25C25.5036 55.25 25.9143 55.1427 26.2689 54.928C26.6329 54.704 26.9129 54.396 27.1089 54.004C27.3143 53.612 27.4169 53.1547 27.4169 52.632C27.4169 52.1093 27.3143 51.652 27.1089 51.26C26.9129 50.868 26.6329 50.5647 26.2689 50.35C25.9143 50.126 25.5036 50.014 25.0369 50.014C24.5796 50.014 24.1689 50.126 23.8049 50.35C23.4503 50.5647 23.1703 50.868 22.9649 51.26C22.7689 51.652 22.6709 52.1093 22.6709 52.632C22.6709 53.1547 22.7689 53.612 22.9649 54.004C23.1703 54.396 23.4503 54.704 23.8049 54.928C24.1689 55.1427 24.5796 55.25 25.0369 55.25ZM33.7019 56.272C33.0113 56.272 32.4046 56.1133 31.8819 55.796C31.3686 55.4787 30.9673 55.0447 30.6779 54.494C30.3979 53.9433 30.2579 53.318 30.2579 52.618C30.2579 51.918 30.4026 51.2973 30.6919 50.756C30.9813 50.2053 31.3826 49.776 31.8959 49.468C32.4093 49.1507 33.0159 48.992 33.7159 48.992C34.2853 48.992 34.7893 49.1087 35.2279 49.342C35.6666 49.5753 36.0073 49.902 36.2499 50.322V46.024H37.4259V56.104H36.3619L36.2499 54.956C36.0259 55.292 35.7039 55.5953 35.2839 55.866C34.8639 56.1367 34.3366 56.272 33.7019 56.272ZM33.8279 55.25C34.2946 55.25 34.7053 55.1427 35.0599 54.928C35.4239 54.704 35.7039 54.396 35.8999 54.004C36.1053 53.612 36.2079 53.1547 36.2079 52.632C36.2079 52.1093 36.1053 51.652 35.8999 51.26C35.7039 50.868 35.4239 50.5647 35.0599 50.35C34.7053 50.126 34.2946 50.014 33.8279 50.014C33.3706 50.014 32.9599 50.126 32.5959 50.35C32.2413 50.5647 31.9613 50.868 31.7559 51.26C31.5599 51.652 31.4619 52.1093 31.4619 52.632C31.4619 53.1547 31.5599 53.612 31.7559 54.004C31.9613 54.396 32.2413 54.704 32.5959 54.928C32.9599 55.1427 33.3706 55.25 33.8279 55.25ZM40.057 47.62C39.8236 47.62 39.6276 47.5453 39.469 47.396C39.3196 47.2373 39.245 47.0413 39.245 46.808C39.245 46.584 39.3196 46.3973 39.469 46.248C39.6276 46.0987 39.8236 46.024 40.057 46.024C40.281 46.024 40.4723 46.0987 40.631 46.248C40.7896 46.3973 40.869 46.584 40.869 46.808C40.869 47.0413 40.7896 47.2373 40.631 47.396C40.4723 47.5453 40.281 47.62 40.057 47.62ZM39.469 56.104V49.16H40.645V56.104H39.469ZM42.6926 56.104V49.16H43.7566L43.8266 50.406C44.0506 49.9673 44.3726 49.622 44.7926 49.37C45.2126 49.118 45.6886 48.992 46.2206 48.992C47.0419 48.992 47.6952 49.244 48.1806 49.748C48.6752 50.2427 48.9226 51.008 48.9226 52.044V56.104H47.7466V52.17C47.7466 50.7233 47.1492 50 45.9546 50C45.3572 50 44.8579 50.2193 44.4566 50.658C44.0646 51.0873 43.8686 51.7033 43.8686 52.506V56.104H42.6926ZM53.4483 53.92C53.0563 53.92 52.6969 53.8687 52.3703 53.766L51.6703 54.424C51.7729 54.4987 51.8989 54.564 52.0483 54.62C52.2069 54.6667 52.4309 54.7133 52.7203 54.76C53.0096 54.7973 53.4156 54.8393 53.9383 54.886C54.8716 54.9513 55.5389 55.166 55.9403 55.53C56.3416 55.894 56.5423 56.37 56.5423 56.958C56.5423 57.3593 56.4303 57.742 56.2063 58.106C55.9916 58.47 55.6556 58.7687 55.1983 59.002C54.7503 59.2353 54.1716 59.352 53.4623 59.352C52.8369 59.352 52.2816 59.268 51.7963 59.1C51.3109 58.9413 50.9329 58.694 50.6623 58.358C50.3916 58.0313 50.2563 57.616 50.2563 57.112C50.2563 56.8507 50.3263 56.566 50.4663 56.258C50.6063 55.9593 50.8676 55.6747 51.2503 55.404C51.0449 55.32 50.8676 55.2313 50.7183 55.138C50.5783 55.0353 50.4476 54.9233 50.3263 54.802V54.48L51.5163 53.304C50.9656 52.8373 50.6903 52.2213 50.6903 51.456C50.6903 50.9987 50.7976 50.5833 51.0123 50.21C51.2269 49.8367 51.5396 49.5427 51.9503 49.328C52.3609 49.104 52.8603 48.992 53.4483 48.992C53.8496 48.992 54.2136 49.048 54.5403 49.16H57.1023V50.042L55.8003 50.098C56.0709 50.49 56.2063 50.9427 56.2063 51.456C56.2063 51.9133 56.0943 52.3287 55.8703 52.702C55.6556 53.0753 55.3429 53.374 54.9323 53.598C54.5309 53.8127 54.0363 53.92 53.4483 53.92ZM53.4483 52.954C53.9429 52.954 54.3349 52.828 54.6243 52.576C54.9229 52.3147 55.0723 51.9413 55.0723 51.456C55.0723 50.98 54.9229 50.616 54.6243 50.364C54.3349 50.1027 53.9429 49.972 53.4483 49.972C52.9443 49.972 52.5429 50.1027 52.2443 50.364C51.9549 50.616 51.8103 50.98 51.8103 51.456C51.8103 51.9413 51.9549 52.3147 52.2443 52.576C52.5429 52.828 52.9443 52.954 53.4483 52.954ZM51.4043 57C51.4043 57.4667 51.6003 57.812 51.9923 58.036C52.3843 58.2693 52.8743 58.386 53.4623 58.386C54.0409 58.386 54.5029 58.26 54.8483 58.008C55.2029 57.756 55.3803 57.42 55.3803 57C55.3803 56.7013 55.2589 56.44 55.0163 56.216C54.7736 56.0013 54.3256 55.8753 53.6723 55.838C53.1589 55.8007 52.7156 55.754 52.3423 55.698C51.9596 55.9033 51.7076 56.1227 51.5863 56.356C51.4649 56.5987 51.4043 56.8133 51.4043 57ZM66.502 56.272C65.5406 56.272 64.71 56.062 64.01 55.642C63.3193 55.2127 62.7826 54.62 62.4 53.864C62.0173 53.0987 61.826 52.212 61.826 51.204C61.826 50.2053 62.0173 49.328 62.4 48.572C62.7826 47.8067 63.3193 47.2093 64.01 46.78C64.71 46.3507 65.5406 46.136 66.502 46.136C67.622 46.136 68.532 46.4067 69.232 46.948C69.9413 47.48 70.394 48.2267 70.59 49.188H69.288C69.1386 48.5813 68.8306 48.096 68.364 47.732C67.9066 47.3587 67.286 47.172 66.502 47.172C65.802 47.172 65.1906 47.3353 64.668 47.662C64.1453 47.9793 63.7393 48.4413 63.45 49.048C63.17 49.6453 63.03 50.364 63.03 51.204C63.03 52.044 63.17 52.7673 63.45 53.374C63.7393 53.9713 64.1453 54.4333 64.668 54.76C65.1906 55.0773 65.802 55.236 66.502 55.236C67.286 55.236 67.9066 55.0587 68.364 54.704C68.8306 54.34 69.1386 53.8593 69.288 53.262H70.59C70.394 54.2047 69.9413 54.942 69.232 55.474C68.532 56.006 67.622 56.272 66.502 56.272ZM74.5201 56.272C73.9415 56.272 73.4608 56.174 73.0781 55.978C72.6955 55.782 72.4108 55.5207 72.2241 55.194C72.0375 54.8673 71.9441 54.5127 71.9441 54.13C71.9441 53.4207 72.2148 52.8747 72.7561 52.492C73.2975 52.1093 74.0348 51.918 74.9681 51.918H76.8441V51.834C76.8441 51.2273 76.6855 50.77 76.3681 50.462C76.0508 50.1447 75.6261 49.986 75.0941 49.986C74.6368 49.986 74.2401 50.1027 73.9041 50.336C73.5775 50.56 73.3721 50.8913 73.2881 51.33H72.0841C72.1308 50.826 72.2988 50.4013 72.5881 50.056C72.8868 49.7107 73.2555 49.4493 73.6941 49.272C74.1328 49.0853 74.5995 48.992 75.0941 48.992C76.0648 48.992 76.7928 49.2533 77.2781 49.776C77.7728 50.2893 78.0201 50.9753 78.0201 51.834V56.104H76.9701L76.9001 54.858C76.7041 55.25 76.4148 55.586 76.0321 55.866C75.6588 56.1367 75.1548 56.272 74.5201 56.272ZM74.7021 55.278C75.1501 55.278 75.5328 55.1613 75.8501 54.928C76.1768 54.6947 76.4241 54.3913 76.5921 54.018C76.7601 53.6447 76.8441 53.2527 76.8441 52.842V52.828H75.0661C74.3755 52.828 73.8855 52.9493 73.5961 53.192C73.3161 53.4253 73.1761 53.7193 73.1761 54.074C73.1761 54.438 73.3068 54.732 73.5681 54.956C73.8388 55.1707 74.2168 55.278 74.7021 55.278ZM79.7844 56.104V46.024H80.9604V52.086L83.8024 49.16H85.2444L82.1644 52.296L85.6364 56.104H84.1384L80.9604 52.506V56.104H79.7844ZM89.4552 56.272C88.7925 56.272 88.2045 56.1227 87.6912 55.824C87.1779 55.516 86.7719 55.0913 86.4732 54.55C86.1839 54.0087 86.0392 53.3693 86.0392 52.632C86.0392 51.904 86.1839 51.2693 86.4732 50.728C86.7625 50.1773 87.1639 49.7527 87.6772 49.454C88.1999 49.146 88.8019 48.992 89.4832 48.992C90.1552 48.992 90.7339 49.146 91.2192 49.454C91.7139 49.7527 92.0919 50.1493 92.3532 50.644C92.6145 51.1387 92.7452 51.6707 92.7452 52.24C92.7452 52.3427 92.7405 52.4453 92.7312 52.548C92.7312 52.6507 92.7312 52.7673 92.7312 52.898H87.2012C87.2292 53.43 87.3505 53.8733 87.5652 54.228C87.7892 54.5733 88.0645 54.8347 88.3912 55.012C88.7272 55.1893 89.0819 55.278 89.4552 55.278C89.9405 55.278 90.3465 55.166 90.6732 54.942C90.9999 54.718 91.2379 54.4147 91.3872 54.032H92.5492C92.3625 54.676 92.0032 55.2127 91.4712 55.642C90.9485 56.062 90.2765 56.272 89.4552 56.272ZM89.4552 49.986C88.8952 49.986 88.3959 50.1587 87.9572 50.504C87.5279 50.84 87.2805 51.3347 87.2152 51.988H91.5832C91.5552 51.3627 91.3405 50.8727 90.9392 50.518C90.5379 50.1633 90.0432 49.986 89.4552 49.986Z" fill="#131313" fill-opacity="0.6"/>
<path fill-rule="evenodd" clip-rule="evenodd" d="M61 25C61 25.3 60.8 25.6 60.4 25.6H55.3C54.4 27 51.6 27.7 49.1 28V28.9L51.9 31C52.1 31.1 52.2 31.4 52.1 31.6C52 31.8 51.8 32 51.6 32H42.5C42.2 32 42 31.8 41.9 31.6C41.8 31.4 41.9 31.1 42.1 31L44.9 28.9V28C42.4 27.7 39.7 27 38.7 25.6H33.6C33.3 25.6 33 25.3 33 25C33 24.7 33.3 24.5 33.6 24.5H35.8V16.8C35.8 16.5 36.1 16.2 36.4 16.2H39.2V10.3C39.2 9.99999 39.4 9.79999 39.7 9.79999H42.7V5.40002C42.7 5.10002 43 4.79999 43.3 4.79999H45.2C44.8 4.46665 44.5 4.10001 44.3 3.70001C43.7 2.80001 43.7 2.09998 43.8 1.59998C44.1 0.699976 44.9 0 45.8 0C46.2667 0 46.6667 0.166667 47 0.5C47.4 0.166667 47.8333 0 48.3 0C49.2 0 50 0.699976 50.2 1.59998C50.3 2.09998 50.4 2.80001 49.8 3.70001C49.5333 4.10001 49.2333 4.46665 48.9 4.79999H50.8C51.1 4.79999 51.3 5.10002 51.3 5.40002V9.79999H54.3C54.6 9.79999 54.9 9.99999 54.9 10.3V16.2H57.7C58 16.2 58.3 16.5 58.3 16.8V24.5H60.4C60.8 24.5 61 24.7 61 25ZM43.9 6.79999H50.2V5.90002H43.9V6.79999ZM48.7 11H45.4C45.8 11.2 46.1 11.6 46.3 11.9C46.6 12.4 46.7 12.6 47 12.6C47.3 12.6 47.5 12.4 47.8 11.9C48 11.6 48.2 11.2 48.7 11ZM50.2 8H43.9V9.79999H50.2V8ZM40.3 16.4H53.7V12.3C53.7 12.4333 53.6667 12.5333 53.6 12.6C53.2 13.1 52.8 13.8 51.9 13.8C51 13.8 50.5 13.1 50.2 12.6C49.9 12.1 49.7 11.9 49.5 11.9C49.3 11.9 49.1667 11.9666 49.1 12.1C48.9667 12.1666 48.8667 12.3 48.8 12.5C48.7333 12.5 48.7 12.5333 48.7 12.6C48.4 13.1 47.9 13.8 47 13.8C46.1 13.8 45.7 13.1 45.3 12.6C45 12.1 44.9 11.9 44.6 11.9C44.5333 11.9 44.4667 11.9333 44.4 12C44.2667 12.0667 44.1333 12.2 44 12.4C43.9333 12.4667 43.9 12.5333 43.9 12.6C43.5 13.1 43.1 13.8 42.2 13.8C41.3 13.8 40.8 13.1 40.5 12.6C40.4333 12.5333 40.3667 12.4333 40.3 12.3V16.4ZM51.5 17.6C52.1 17.8 52.4 18.2 52.8 18.5C53.2 18.9 53.5 19.2 54.1 19.2C54.8 19.2 55.1 18.9 55.5 18.5C55.8 18.2 56.2 17.8 56.7 17.6H51.5ZM53.5 11.1H50.2C50.6 11.3 50.9 11.7 51.1 12C51.4 12.5 51.6 12.7 51.9 12.7C52.1 12.7 52.3 12.5 52.6 12C52.8 11.7 53.1 11.3 53.5 11.1ZM40.5 11.1C40.9 11.3 41.2 11.7 41.4 12C41.7 12.5 41.9 12.7 42.2 12.7C42.4 12.7 42.6 12.5 42.9 12C43.1 11.7 43.4 11.3 43.8 11.1H40.5ZM37.3 17.6C37.8 17.8 38.2 18.2 38.5 18.5C38.9 18.9 39.3 19.2 39.9 19.2C40.5 19.2 40.9 18.9 41.3 18.5C41.6 18.2 41.9 17.8 42.5 17.6H37.3ZM45.9 18.7C46.0333 18.9 46.2 19.0333 46.4 19.1C46.5333 19.1666 46.7333 19.2 47 19.2C47.6 19.2 47.9 18.9 48.4 18.5C48.7 18.2 49 17.8 49.6 17.6H44.4C44.9 17.8 45.3 18.2 45.6 18.5C45.7333 18.5667 45.8333 18.6333 45.9 18.7ZM47 4.90002C48.8 3.90002 49.3 2.79998 49.1 2.09998C49 1.59998 48.6 1.29999 48.2 1.29999C47.9333 1.29999 47.7 1.50002 47.5 1.90002C47.4 2.00002 47.2 2.09998 47 2.09998C46.8 2.09998 46.6 2.00002 46.5 1.90002C46.3 1.50002 46.0667 1.29999 45.8 1.29999C45.4 1.29999 45 1.59998 44.9 2.09998C44.7 2.79998 45.2 3.90002 47 4.90002ZM53.6 25.8H40.4C41.4 26.4 43.1 26.9 45.5 27.1C45.8 27.1 46 27.3 46 27.6V29.3C46 29.5 45.9333 29.6667 45.8 29.8L44.1 31.1H49.9L48.2 29.8C48.0667 29.6667 48 29.5 48 29.3V27.6C48 27.3 48.2 27.1 48.5 27.1C50.9 26.9 52.6 26.4 53.6 25.8ZM57.1 24.6V18.7C56.8 18.8 56.6 19 56.3 19.3C55.8 19.8 55.2 20.4 54.1 20.4C53 20.4 52.4 19.8 51.9 19.3C51.5 18.9 51.2 18.5 50.5 18.5C49.9 18.5 49.6 18.9 49.2 19.3C48.7 19.8 48.1 20.4 47 20.4C45.9 20.4 45.3 19.8 44.8 19.3C44.4 18.9 44.1 18.5 43.4 18.5C42.8 18.5 42.5 18.9 42.1 19.3C41.6 19.8 41 20.4 39.9 20.4C38.8 20.4 38.2 19.8 37.7 19.3C37.4 19 37.2 18.8 36.9 18.7V24.6H57.1Z" fill="#E654A0"/>
</svg>
