<svg width="114" height="61" viewBox="0 0 114 61" fill="none" xmlns="http://www.w3.org/2000/svg">
<path d="M1.036 56.104V46.304H2.212V50.63H7.294V46.304H8.47V56.104H7.294V51.596H2.212V56.104H1.036ZM13.632 56.272C12.9786 56.272 12.3906 56.1227 11.868 55.824C11.3453 55.5253 10.93 55.1053 10.622 54.564C10.3233 54.0133 10.174 53.3693 10.174 52.632C10.174 51.8947 10.328 51.2553 10.636 50.714C10.944 50.1633 11.3593 49.7387 11.882 49.44C12.414 49.1413 13.0066 48.992 13.66 48.992C14.3133 48.992 14.9013 49.1413 15.424 49.44C15.9466 49.7387 16.3573 50.1633 16.656 50.714C16.964 51.2553 17.118 51.8947 17.118 52.632C17.118 53.3693 16.964 54.0133 16.656 54.564C16.348 55.1053 15.928 55.5253 15.396 55.824C14.8733 56.1227 14.2853 56.272 13.632 56.272ZM13.632 55.264C14.0333 55.264 14.4066 55.166 14.752 54.97C15.0973 54.774 15.3773 54.48 15.592 54.088C15.8066 53.696 15.914 53.2107 15.914 52.632C15.914 52.0533 15.8066 51.568 15.592 51.176C15.3866 50.784 15.1113 50.49 14.766 50.294C14.4206 50.098 14.052 50 13.66 50C13.2586 50 12.8853 50.098 12.54 50.294C12.1946 50.49 11.9146 50.784 11.7 51.176C11.4853 51.568 11.378 52.0533 11.378 52.632C11.378 53.2107 11.4853 53.696 11.7 54.088C11.9146 54.48 12.19 54.774 12.526 54.97C12.8713 55.166 13.24 55.264 13.632 55.264ZM18.7531 56.104V49.16H19.8171L19.9011 50.168C20.1251 49.7947 20.4238 49.5053 20.7971 49.3C21.1704 49.0947 21.5904 48.992 22.0571 48.992C22.6078 48.992 23.0791 49.104 23.4711 49.328C23.8724 49.552 24.1804 49.8927 24.3951 50.35C24.6378 49.93 24.9691 49.5987 25.3891 49.356C25.8184 49.1133 26.2804 48.992 26.7751 48.992C27.6058 48.992 28.2684 49.244 28.7631 49.748C29.2578 50.2427 29.5051 51.008 29.5051 52.044V56.104H28.3431V52.17C28.3431 51.4513 28.1984 50.91 27.9091 50.546C27.6198 50.182 27.2044 50 26.6631 50C26.1031 50 25.6364 50.2193 25.2631 50.658C24.8991 51.0873 24.7171 51.7033 24.7171 52.506V56.104H23.5411V52.17C23.5411 51.4513 23.3964 50.91 23.1071 50.546C22.8178 50.182 22.4024 50 21.8611 50C21.3104 50 20.8484 50.2193 20.4751 50.658C20.1111 51.0873 19.9291 51.7033 19.9291 52.506V56.104H18.7531ZM34.3985 56.272C33.7359 56.272 33.1479 56.1227 32.6345 55.824C32.1212 55.516 31.7152 55.0913 31.4165 54.55C31.1272 54.0087 30.9825 53.3693 30.9825 52.632C30.9825 51.904 31.1272 51.2693 31.4165 50.728C31.7059 50.1773 32.1072 49.7527 32.6205 49.454C33.1432 49.146 33.7452 48.992 34.4265 48.992C35.0985 48.992 35.6772 49.146 36.1625 49.454C36.6572 49.7527 37.0352 50.1493 37.2965 50.644C37.5579 51.1387 37.6885 51.6707 37.6885 52.24C37.6885 52.3427 37.6839 52.4453 37.6745 52.548C37.6745 52.6507 37.6745 52.7673 37.6745 52.898H32.1445C32.1725 53.43 32.2939 53.8733 32.5085 54.228C32.7325 54.5733 33.0079 54.8347 33.3345 55.012C33.6705 55.1893 34.0252 55.278 34.3985 55.278C34.8839 55.278 35.2899 55.166 35.6165 54.942C35.9432 54.718 36.1812 54.4147 36.3305 54.032H37.4925C37.3059 54.676 36.9465 55.2127 36.4145 55.642C35.8919 56.062 35.2199 56.272 34.3985 56.272ZM34.3985 49.986C33.8385 49.986 33.3392 50.1587 32.9005 50.504C32.4712 50.84 32.2239 51.3347 32.1585 51.988H36.5265C36.4985 51.3627 36.2839 50.8727 35.8825 50.518C35.4812 50.1633 34.9865 49.986 34.3985 49.986ZM43.0223 56.104V46.304H46.0323C47.759 46.304 49.0283 46.7427 49.8403 47.62C50.6617 48.4973 51.0723 49.7013 51.0723 51.232C51.0723 52.7347 50.6617 53.9247 49.8403 54.802C49.0283 55.67 47.759 56.104 46.0323 56.104H43.0223ZM44.1983 55.124H46.0043C46.9563 55.124 47.7123 54.97 48.2723 54.662C48.8417 54.3447 49.2477 53.8967 49.4903 53.318C49.733 52.73 49.8543 52.0347 49.8543 51.232C49.8543 50.4107 49.733 49.706 49.4903 49.118C49.2477 48.53 48.8417 48.0773 48.2723 47.76C47.7123 47.4427 46.9563 47.284 46.0043 47.284H44.1983V55.124ZM55.8224 56.272C55.1597 56.272 54.5717 56.1227 54.0584 55.824C53.545 55.516 53.139 55.0913 52.8404 54.55C52.551 54.0087 52.4064 53.3693 52.4064 52.632C52.4064 51.904 52.551 51.2693 52.8404 50.728C53.1297 50.1773 53.531 49.7527 54.0444 49.454C54.567 49.146 55.169 48.992 55.8504 48.992C56.5224 48.992 57.101 49.146 57.5864 49.454C58.081 49.7527 58.459 50.1493 58.7204 50.644C58.9817 51.1387 59.1124 51.6707 59.1124 52.24C59.1124 52.3427 59.1077 52.4453 59.0984 52.548C59.0984 52.6507 59.0984 52.7673 59.0984 52.898H53.5684C53.5964 53.43 53.7177 53.8733 53.9324 54.228C54.1564 54.5733 54.4317 54.8347 54.7584 55.012C55.0944 55.1893 55.449 55.278 55.8224 55.278C56.3077 55.278 56.7137 55.166 57.0404 54.942C57.367 54.718 57.605 54.4147 57.7544 54.032H58.9164C58.7297 54.676 58.3704 55.2127 57.8384 55.642C57.3157 56.062 56.6437 56.272 55.8224 56.272ZM55.8224 49.986C55.2624 49.986 54.763 50.1587 54.3244 50.504C53.895 50.84 53.6477 51.3347 53.5824 51.988H57.9504C57.9224 51.3627 57.7077 50.8727 57.3064 50.518C56.905 50.1633 56.4104 49.986 55.8224 49.986ZM63.8631 56.272C63.2004 56.272 62.6031 56.1227 62.0711 55.824C61.5484 55.516 61.1331 55.0913 60.8251 54.55C60.5264 53.9993 60.3771 53.36 60.3771 52.632C60.3771 51.904 60.5264 51.2693 60.8251 50.728C61.1331 50.1773 61.5484 49.7527 62.0711 49.454C62.6031 49.146 63.2004 48.992 63.8631 48.992C64.6844 48.992 65.3751 49.2067 65.9351 49.636C66.5044 50.0653 66.8637 50.6393 67.0131 51.358H65.8091C65.7157 50.9287 65.4871 50.5973 65.1231 50.364C64.7591 50.1213 64.3344 50 63.8491 50C63.4571 50 63.0884 50.098 62.7431 50.294C62.3977 50.49 62.1177 50.784 61.9031 51.176C61.6884 51.568 61.5811 52.0533 61.5811 52.632C61.5811 53.2107 61.6884 53.696 61.9031 54.088C62.1177 54.48 62.3977 54.7787 62.7431 54.984C63.0884 55.18 63.4571 55.278 63.8491 55.278C64.3344 55.278 64.7591 55.1613 65.1231 54.928C65.4871 54.6853 65.7157 54.3447 65.8091 53.906H67.0131C66.8731 54.606 66.5184 55.1753 65.9491 55.614C65.3797 56.0527 64.6844 56.272 63.8631 56.272ZM71.8195 56.272C71.1661 56.272 70.5781 56.1227 70.0555 55.824C69.5328 55.5253 69.1175 55.1053 68.8095 54.564C68.5108 54.0133 68.3615 53.3693 68.3615 52.632C68.3615 51.8947 68.5155 51.2553 68.8235 50.714C69.1315 50.1633 69.5468 49.7387 70.0695 49.44C70.6015 49.1413 71.1941 48.992 71.8475 48.992C72.5008 48.992 73.0888 49.1413 73.6115 49.44C74.1341 49.7387 74.5448 50.1633 74.8435 50.714C75.1515 51.2553 75.3055 51.8947 75.3055 52.632C75.3055 53.3693 75.1515 54.0133 74.8435 54.564C74.5355 55.1053 74.1155 55.5253 73.5835 55.824C73.0608 56.1227 72.4728 56.272 71.8195 56.272ZM71.8195 55.264C72.2208 55.264 72.5941 55.166 72.9395 54.97C73.2848 54.774 73.5648 54.48 73.7795 54.088C73.9941 53.696 74.1015 53.2107 74.1015 52.632C74.1015 52.0533 73.9941 51.568 73.7795 51.176C73.5741 50.784 73.2988 50.49 72.9535 50.294C72.6081 50.098 72.2395 50 71.8475 50C71.4461 50 71.0728 50.098 70.7275 50.294C70.3821 50.49 70.1021 50.784 69.8875 51.176C69.6728 51.568 69.5655 52.0533 69.5655 52.632C69.5655 53.2107 69.6728 53.696 69.8875 54.088C70.1021 54.48 70.3775 54.774 70.7135 54.97C71.0588 55.166 71.4275 55.264 71.8195 55.264ZM76.9406 56.104V49.16H78.0046L78.1026 50.49C78.3173 50.0327 78.6439 49.6687 79.0826 49.398C79.5213 49.1273 80.0626 48.992 80.7066 48.992V50.224H80.3846C79.9739 50.224 79.5959 50.2987 79.2506 50.448C78.9053 50.588 78.6299 50.8307 78.4246 51.176C78.2193 51.5213 78.1166 51.9973 78.1166 52.604V56.104H76.9406ZM84.3365 56.272C83.7579 56.272 83.2772 56.174 82.8945 55.978C82.5119 55.782 82.2272 55.5207 82.0405 55.194C81.8539 54.8673 81.7605 54.5127 81.7605 54.13C81.7605 53.4207 82.0312 52.8747 82.5725 52.492C83.1139 52.1093 83.8512 51.918 84.7845 51.918H86.6605V51.834C86.6605 51.2273 86.5019 50.77 86.1845 50.462C85.8672 50.1447 85.4425 49.986 84.9105 49.986C84.4532 49.986 84.0565 50.1027 83.7205 50.336C83.3939 50.56 83.1885 50.8913 83.1045 51.33H81.9005C81.9472 50.826 82.1152 50.4013 82.4045 50.056C82.7032 49.7107 83.0719 49.4493 83.5105 49.272C83.9492 49.0853 84.4159 48.992 84.9105 48.992C85.8812 48.992 86.6092 49.2533 87.0945 49.776C87.5892 50.2893 87.8365 50.9753 87.8365 51.834V56.104H86.7865L86.7165 54.858C86.5205 55.25 86.2312 55.586 85.8485 55.866C85.4752 56.1367 84.9712 56.272 84.3365 56.272ZM84.5185 55.278C84.9665 55.278 85.3492 55.1613 85.6665 54.928C85.9932 54.6947 86.2405 54.3913 86.4085 54.018C86.5765 53.6447 86.6605 53.2527 86.6605 52.842V52.828H84.8825C84.1919 52.828 83.7019 52.9493 83.4125 53.192C83.1325 53.4253 82.9925 53.7193 82.9925 54.074C82.9925 54.438 83.1232 54.732 83.3845 54.956C83.6552 55.1707 84.0332 55.278 84.5185 55.278ZM92.1534 56.104C91.5187 56.104 91.0194 55.95 90.6554 55.642C90.2914 55.334 90.1094 54.7787 90.1094 53.976V50.154H88.9054V49.16H90.1094L90.2634 47.494H91.2854V49.16H93.3294V50.154H91.2854V53.976C91.2854 54.4147 91.374 54.7133 91.5514 54.872C91.7287 55.0213 92.0414 55.096 92.4894 55.096H93.2174V56.104H92.1534ZM95.5374 47.62C95.3041 47.62 95.1081 47.5453 94.9494 47.396C94.8001 47.2373 94.7254 47.0413 94.7254 46.808C94.7254 46.584 94.8001 46.3973 94.9494 46.248C95.1081 46.0987 95.3041 46.024 95.5374 46.024C95.7614 46.024 95.9528 46.0987 96.1114 46.248C96.2701 46.3973 96.3494 46.584 96.3494 46.808C96.3494 47.0413 96.2701 47.2373 96.1114 47.396C95.9528 47.5453 95.7614 47.62 95.5374 47.62ZM94.9494 56.104V49.16H96.1254V56.104H94.9494ZM101.337 56.272C100.684 56.272 100.096 56.1227 99.573 55.824C99.0504 55.5253 98.635 55.1053 98.327 54.564C98.0284 54.0133 97.879 53.3693 97.879 52.632C97.879 51.8947 98.033 51.2553 98.341 50.714C98.649 50.1633 99.0644 49.7387 99.587 49.44C100.119 49.1413 100.712 48.992 101.365 48.992C102.018 48.992 102.606 49.1413 103.129 49.44C103.652 49.7387 104.062 50.1633 104.361 50.714C104.669 51.2553 104.823 51.8947 104.823 52.632C104.823 53.3693 104.669 54.0133 104.361 54.564C104.053 55.1053 103.633 55.5253 103.101 55.824C102.578 56.1227 101.99 56.272 101.337 56.272ZM101.337 55.264C101.738 55.264 102.112 55.166 102.457 54.97C102.802 54.774 103.082 54.48 103.297 54.088C103.512 53.696 103.619 53.2107 103.619 52.632C103.619 52.0533 103.512 51.568 103.297 51.176C103.092 50.784 102.816 50.49 102.471 50.294C102.126 50.098 101.757 50 101.365 50C100.964 50 100.59 50.098 100.245 50.294C99.8997 50.49 99.6197 50.784 99.405 51.176C99.1904 51.568 99.083 52.0533 99.083 52.632C99.083 53.2107 99.1904 53.696 99.405 54.088C99.6197 54.48 99.895 54.774 100.231 54.97C100.576 55.166 100.945 55.264 101.337 55.264ZM106.458 56.104V49.16H107.522L107.592 50.406C107.816 49.9673 108.138 49.622 108.558 49.37C108.978 49.118 109.454 48.992 109.986 48.992C110.808 48.992 111.461 49.244 111.946 49.748C112.441 50.2427 112.688 51.008 112.688 52.044V56.104H111.512V52.17C111.512 50.7233 110.915 50 109.72 50C109.123 50 108.624 50.2193 108.222 50.658C107.83 51.0873 107.634 51.7033 107.634 52.506V56.104H106.458Z" fill="#131313" fill-opacity="0.6"/>
<path fill-rule="evenodd" clip-rule="evenodd" d="M71.6998 17.8998C71.5998 18.1998 71.3998 18.2998 71.0998 18.2998H67.2998V29.3998C67.2998 30.7998 66.1998 31.9998 64.6998 31.9998H49.9998C48.5998 31.9998 47.3998 30.7998 47.3998 29.3998V18.2998H43.6998C43.3998 18.2998 43.1998 18.1998 43.0998 17.8998C42.9998 17.6998 43.0998 17.3998 43.2998 17.1998L56.9998 6.6998C57.1998 6.4998 57.4998 6.4998 57.7998 6.6998L62.3998 10.1998V8.39982C62.3998 8.09982 62.5998 7.79978 62.9998 7.79978H66.6998C67.0998 7.79978 67.2998 8.09982 67.2998 8.39982V13.8998C67.2998 13.9665 67.2998 14.0331 67.2998 14.0998L71.4998 17.1998C71.6998 17.3998 71.7998 17.6998 71.6998 17.8998ZM63.5998 11.1998L66.0998 13.0998V8.99979H63.5998V11.1998ZM66.0998 29.4998V18.0998L57.3998 11.4998L48.5998 18.0998V29.4998C48.5998 30.1998 49.2998 30.8998 49.9998 30.8998H64.6998C65.4998 30.8998 66.0998 30.1998 66.0998 29.4998ZM66.8998 17.1998H69.2998L57.3998 7.99979L45.3998 17.1998H47.7998L56.9998 10.1998C57.1998 10.0998 57.4998 10.0998 57.6998 10.1998L66.8998 17.1998Z" fill="#E654A0"/>
<path fill-rule="evenodd" clip-rule="evenodd" d="M57.3992 18.9998C58.0992 18.1998 58.8992 17.7998 59.8992 17.7998C61.4992 17.7998 62.7992 18.8998 63.2992 20.5998C63.4992 21.3998 63.4992 22.7998 62.4992 24.4998C61.5658 25.9665 59.9658 27.3331 57.6992 28.5998C57.5658 28.6665 57.4658 28.6998 57.3992 28.6998C57.2658 28.6998 57.1658 28.6665 57.0992 28.5998C54.8325 27.3331 53.2325 25.9665 52.2992 24.4998C51.1992 22.7998 51.2992 21.3998 51.4992 20.5998C51.8992 18.8998 53.2992 17.7998 54.8992 17.7998C55.7992 17.7998 56.6992 18.1998 57.3992 18.9998ZM59.8992 18.9998C59.0992 18.9998 58.3992 19.3998 57.8992 20.2998C57.7992 20.4998 57.5992 20.5998 57.3992 20.5998C57.1992 20.5998 56.9992 20.4998 56.8992 20.2998C56.3992 19.3998 55.6992 18.9998 54.8992 18.9998C53.8992 18.9998 52.9992 19.7998 52.6992 20.8998C52.4992 21.6998 52.1992 24.3998 57.3992 27.3998C62.4992 24.3998 62.2992 21.6998 62.0992 20.8998C61.7992 19.7998 60.8992 18.9998 59.8992 18.9998Z" fill="#E654A0"/>
<path fill-rule="evenodd" clip-rule="evenodd" d="M61.7992 4.20001C61.0992 3.20001 61.1992 2.29999 61.2992 1.79999C61.5992 0.699988 62.3992 0 63.4992 0C63.9992 0 64.4992 0.199976 64.8992 0.599976C65.2992 0.199976 65.6992 0 66.2992 0C67.2992 0 68.1992 0.699988 68.3992 1.79999C68.5992 2.29999 68.5992 3.20001 67.9992 4.20001C67.3992 5.06668 66.4326 5.86664 65.0992 6.59998C65.0326 6.59998 64.9659 6.59998 64.8992 6.59998C64.7659 6.59998 64.6659 6.59998 64.5992 6.59998C63.2659 5.86664 62.3326 5.06668 61.7992 4.20001ZM64.8992 5.29999C66.8992 4.09999 67.4992 2.89998 67.1992 2.09998C67.0992 1.59998 66.6992 1.20001 66.2992 1.20001C65.8992 1.20001 65.5992 1.39999 65.3992 1.79999C65.2992 1.99999 65.0992 2.09998 64.8992 2.09998C64.5992 2.09998 64.3992 1.99999 64.2992 1.79999C64.0992 1.39999 63.8326 1.20001 63.4992 1.20001C62.9992 1.20001 62.5992 1.59998 62.4992 2.09998C62.2992 2.89998 62.7992 4.09999 64.8992 5.29999Z" fill="#E654A0"/>
</svg>
