<svg width="98" height="61" viewBox="0 0 98 61" fill="none" xmlns="http://www.w3.org/2000/svg">
<path d="M3.052 56.118L0.364 46.304H1.624L3.738 54.718L6.146 46.304H7.448L9.786 54.718L11.928 46.304H13.188L10.444 56.104H9.1L6.762 48.012L4.368 56.104L3.052 56.118ZM16.9122 56.272C16.2496 56.272 15.6616 56.1227 15.1482 55.824C14.6349 55.516 14.2289 55.0913 13.9302 54.55C13.6409 54.0087 13.4962 53.3693 13.4962 52.632C13.4962 51.904 13.6409 51.2693 13.9302 50.728C14.2196 50.1773 14.6209 49.7527 15.1342 49.454C15.6569 49.146 16.2589 48.992 16.9402 48.992C17.6122 48.992 18.1909 49.146 18.6762 49.454C19.1709 49.7527 19.5489 50.1493 19.8102 50.644C20.0716 51.1387 20.2022 51.6707 20.2022 52.24C20.2022 52.3427 20.1976 52.4453 20.1882 52.548C20.1882 52.6507 20.1882 52.7673 20.1882 52.898H14.6582C14.6862 53.43 14.8076 53.8733 15.0222 54.228C15.2462 54.5733 15.5216 54.8347 15.8482 55.012C16.1842 55.1893 16.5389 55.278 16.9122 55.278C17.3976 55.278 17.8036 55.166 18.1302 54.942C18.4569 54.718 18.6949 54.4147 18.8442 54.032H20.0062C19.8196 54.676 19.4602 55.2127 18.9282 55.642C18.4056 56.062 17.7336 56.272 16.9122 56.272ZM16.9122 49.986C16.3522 49.986 15.8529 50.1587 15.4142 50.504C14.9849 50.84 14.7376 51.3347 14.6722 51.988H19.0402C19.0122 51.3627 18.7976 50.8727 18.3962 50.518C17.9949 50.1633 17.5002 49.986 16.9122 49.986ZM24.9109 56.272C24.2203 56.272 23.6136 56.1133 23.0909 55.796C22.5776 55.4787 22.1763 55.0447 21.8869 54.494C21.6069 53.9433 21.4669 53.318 21.4669 52.618C21.4669 51.918 21.6116 51.2973 21.9009 50.756C22.1903 50.2053 22.5916 49.776 23.1049 49.468C23.6183 49.1507 24.2249 48.992 24.9249 48.992C25.4943 48.992 25.9983 49.1087 26.4369 49.342C26.8756 49.5753 27.2163 49.902 27.4589 50.322V46.024H28.6349V56.104H27.5709L27.4589 54.956C27.2349 55.292 26.9129 55.5953 26.4929 55.866C26.0729 56.1367 25.5456 56.272 24.9109 56.272ZM25.0369 55.25C25.5036 55.25 25.9143 55.1427 26.2689 54.928C26.6329 54.704 26.9129 54.396 27.1089 54.004C27.3143 53.612 27.4169 53.1547 27.4169 52.632C27.4169 52.1093 27.3143 51.652 27.1089 51.26C26.9129 50.868 26.6329 50.5647 26.2689 50.35C25.9143 50.126 25.5036 50.014 25.0369 50.014C24.5796 50.014 24.1689 50.126 23.8049 50.35C23.4503 50.5647 23.1703 50.868 22.9649 51.26C22.7689 51.652 22.6709 52.1093 22.6709 52.632C22.6709 53.1547 22.7689 53.612 22.9649 54.004C23.1703 54.396 23.4503 54.704 23.8049 54.928C24.1689 55.1427 24.5796 55.25 25.0369 55.25ZM33.7019 56.272C33.0113 56.272 32.4046 56.1133 31.8819 55.796C31.3686 55.4787 30.9673 55.0447 30.6779 54.494C30.3979 53.9433 30.2579 53.318 30.2579 52.618C30.2579 51.918 30.4026 51.2973 30.6919 50.756C30.9813 50.2053 31.3826 49.776 31.8959 49.468C32.4093 49.1507 33.0159 48.992 33.7159 48.992C34.2853 48.992 34.7893 49.1087 35.2279 49.342C35.6666 49.5753 36.0073 49.902 36.2499 50.322V46.024H37.4259V56.104H36.3619L36.2499 54.956C36.0259 55.292 35.7039 55.5953 35.2839 55.866C34.8639 56.1367 34.3366 56.272 33.7019 56.272ZM33.8279 55.25C34.2946 55.25 34.7053 55.1427 35.0599 54.928C35.4239 54.704 35.7039 54.396 35.8999 54.004C36.1053 53.612 36.2079 53.1547 36.2079 52.632C36.2079 52.1093 36.1053 51.652 35.8999 51.26C35.7039 50.868 35.4239 50.5647 35.0599 50.35C34.7053 50.126 34.2946 50.014 33.8279 50.014C33.3706 50.014 32.9599 50.126 32.5959 50.35C32.2413 50.5647 31.9613 50.868 31.7559 51.26C31.5599 51.652 31.4619 52.1093 31.4619 52.632C31.4619 53.1547 31.5599 53.612 31.7559 54.004C31.9613 54.396 32.2413 54.704 32.5959 54.928C32.9599 55.1427 33.3706 55.25 33.8279 55.25ZM40.057 47.62C39.8236 47.62 39.6276 47.5453 39.469 47.396C39.3196 47.2373 39.245 47.0413 39.245 46.808C39.245 46.584 39.3196 46.3973 39.469 46.248C39.6276 46.0987 39.8236 46.024 40.057 46.024C40.281 46.024 40.4723 46.0987 40.631 46.248C40.7896 46.3973 40.869 46.584 40.869 46.808C40.869 47.0413 40.7896 47.2373 40.631 47.396C40.4723 47.5453 40.281 47.62 40.057 47.62ZM39.469 56.104V49.16H40.645V56.104H39.469ZM42.6926 56.104V49.16H43.7566L43.8266 50.406C44.0506 49.9673 44.3726 49.622 44.7926 49.37C45.2126 49.118 45.6886 48.992 46.2206 48.992C47.0419 48.992 47.6952 49.244 48.1806 49.748C48.6752 50.2427 48.9226 51.008 48.9226 52.044V56.104H47.7466V52.17C47.7466 50.7233 47.1492 50 45.9546 50C45.3572 50 44.8579 50.2193 44.4566 50.658C44.0646 51.0873 43.8686 51.7033 43.8686 52.506V56.104H42.6926ZM53.4483 53.92C53.0563 53.92 52.6969 53.8687 52.3703 53.766L51.6703 54.424C51.7729 54.4987 51.8989 54.564 52.0483 54.62C52.2069 54.6667 52.4309 54.7133 52.7203 54.76C53.0096 54.7973 53.4156 54.8393 53.9383 54.886C54.8716 54.9513 55.5389 55.166 55.9403 55.53C56.3416 55.894 56.5423 56.37 56.5423 56.958C56.5423 57.3593 56.4303 57.742 56.2063 58.106C55.9916 58.47 55.6556 58.7687 55.1983 59.002C54.7503 59.2353 54.1716 59.352 53.4623 59.352C52.8369 59.352 52.2816 59.268 51.7963 59.1C51.3109 58.9413 50.9329 58.694 50.6623 58.358C50.3916 58.0313 50.2563 57.616 50.2563 57.112C50.2563 56.8507 50.3263 56.566 50.4663 56.258C50.6063 55.9593 50.8676 55.6747 51.2503 55.404C51.0449 55.32 50.8676 55.2313 50.7183 55.138C50.5783 55.0353 50.4476 54.9233 50.3263 54.802V54.48L51.5163 53.304C50.9656 52.8373 50.6903 52.2213 50.6903 51.456C50.6903 50.9987 50.7976 50.5833 51.0123 50.21C51.2269 49.8367 51.5396 49.5427 51.9503 49.328C52.3609 49.104 52.8603 48.992 53.4483 48.992C53.8496 48.992 54.2136 49.048 54.5403 49.16H57.1023V50.042L55.8003 50.098C56.0709 50.49 56.2063 50.9427 56.2063 51.456C56.2063 51.9133 56.0943 52.3287 55.8703 52.702C55.6556 53.0753 55.3429 53.374 54.9323 53.598C54.5309 53.8127 54.0363 53.92 53.4483 53.92ZM53.4483 52.954C53.9429 52.954 54.3349 52.828 54.6243 52.576C54.9229 52.3147 55.0723 51.9413 55.0723 51.456C55.0723 50.98 54.9229 50.616 54.6243 50.364C54.3349 50.1027 53.9429 49.972 53.4483 49.972C52.9443 49.972 52.5429 50.1027 52.2443 50.364C51.9549 50.616 51.8103 50.98 51.8103 51.456C51.8103 51.9413 51.9549 52.3147 52.2443 52.576C52.5429 52.828 52.9443 52.954 53.4483 52.954ZM51.4043 57C51.4043 57.4667 51.6003 57.812 51.9923 58.036C52.3843 58.2693 52.8743 58.386 53.4623 58.386C54.0409 58.386 54.5029 58.26 54.8483 58.008C55.2029 57.756 55.3803 57.42 55.3803 57C55.3803 56.7013 55.2589 56.44 55.0163 56.216C54.7736 56.0013 54.3256 55.8753 53.6723 55.838C53.1589 55.8007 52.7156 55.754 52.3423 55.698C51.9596 55.9033 51.7076 56.1227 51.5863 56.356C51.4649 56.5987 51.4043 56.8133 51.4043 57ZM62.204 56.104V46.304H65.214C66.9406 46.304 68.21 46.7427 69.022 47.62C69.8433 48.4973 70.254 49.7013 70.254 51.232C70.254 52.7347 69.8433 53.9247 69.022 54.802C68.21 55.67 66.9406 56.104 65.214 56.104H62.204ZM63.38 55.124H65.186C66.138 55.124 66.894 54.97 67.454 54.662C68.0233 54.3447 68.4293 53.8967 68.672 53.318C68.9146 52.73 69.036 52.0347 69.036 51.232C69.036 50.4107 68.9146 49.706 68.672 49.118C68.4293 48.53 68.0233 48.0773 67.454 47.76C66.894 47.4427 66.138 47.284 65.186 47.284H63.38V55.124ZM71.882 56.104V49.16H72.946L73.044 50.49C73.2587 50.0327 73.5853 49.6687 74.024 49.398C74.4627 49.1273 75.004 48.992 75.648 48.992V50.224H75.326C74.9153 50.224 74.5373 50.2987 74.192 50.448C73.8467 50.588 73.5713 50.8307 73.366 51.176C73.1607 51.5213 73.058 51.9973 73.058 52.604V56.104H71.882ZM79.8302 56.272C79.1675 56.272 78.5795 56.1227 78.0662 55.824C77.5529 55.516 77.1469 55.0913 76.8482 54.55C76.5589 54.0087 76.4142 53.3693 76.4142 52.632C76.4142 51.904 76.5589 51.2693 76.8482 50.728C77.1375 50.1773 77.5389 49.7527 78.0522 49.454C78.5749 49.146 79.1769 48.992 79.8582 48.992C80.5302 48.992 81.1089 49.146 81.5942 49.454C82.0889 49.7527 82.4669 50.1493 82.7282 50.644C82.9895 51.1387 83.1202 51.6707 83.1202 52.24C83.1202 52.3427 83.1155 52.4453 83.1062 52.548C83.1062 52.6507 83.1062 52.7673 83.1062 52.898H77.5762C77.6042 53.43 77.7255 53.8733 77.9402 54.228C78.1642 54.5733 78.4395 54.8347 78.7662 55.012C79.1022 55.1893 79.4569 55.278 79.8302 55.278C80.3155 55.278 80.7215 55.166 81.0482 54.942C81.3749 54.718 81.6129 54.4147 81.7622 54.032H82.9242C82.7375 54.676 82.3782 55.2127 81.8462 55.642C81.3235 56.062 80.6515 56.272 79.8302 56.272ZM79.8302 49.986C79.2702 49.986 78.7709 50.1587 78.3322 50.504C77.9029 50.84 77.6555 51.3347 77.5902 51.988H81.9582C81.9302 51.3627 81.7155 50.8727 81.3142 50.518C80.9129 50.1633 80.4182 49.986 79.8302 49.986ZM87.3389 56.272C86.5082 56.272 85.8176 56.062 85.2669 55.642C84.7162 55.222 84.3942 54.6527 84.3009 53.934H85.5049C85.5796 54.298 85.7709 54.6153 86.0789 54.886C86.3962 55.1473 86.8209 55.278 87.3529 55.278C87.8476 55.278 88.2116 55.1753 88.4449 54.97C88.6782 54.7553 88.7949 54.5033 88.7949 54.214C88.7949 53.794 88.6409 53.514 88.3329 53.374C88.0342 53.234 87.6096 53.108 87.0589 52.996C86.6856 52.9213 86.3122 52.814 85.9389 52.674C85.5656 52.534 85.2529 52.338 85.0009 52.086C84.7489 51.8247 84.6229 51.484 84.6229 51.064C84.6229 50.4573 84.8469 49.9627 85.2949 49.58C85.7522 49.188 86.3682 48.992 87.1429 48.992C87.8802 48.992 88.4822 49.1787 88.9489 49.552C89.4249 49.916 89.7002 50.4387 89.7749 51.12H88.6129C88.5662 50.7653 88.4122 50.49 88.1509 50.294C87.8989 50.0887 87.5582 49.986 87.1289 49.986C86.7089 49.986 86.3822 50.0747 86.1489 50.252C85.9249 50.4293 85.8129 50.6627 85.8129 50.952C85.8129 51.232 85.9576 51.4513 86.2469 51.61C86.5456 51.7687 86.9469 51.904 87.4509 52.016C87.8802 52.1093 88.2862 52.226 88.6689 52.366C89.0609 52.4967 89.3782 52.6973 89.6209 52.968C89.8729 53.2293 89.9989 53.612 89.9989 54.116C90.0082 54.7413 89.7702 55.2593 89.2849 55.67C88.8089 56.0713 88.1602 56.272 87.3389 56.272ZM94.3389 56.272C93.5082 56.272 92.8176 56.062 92.2669 55.642C91.7162 55.222 91.3942 54.6527 91.3009 53.934H92.5049C92.5796 54.298 92.7709 54.6153 93.0789 54.886C93.3962 55.1473 93.8209 55.278 94.3529 55.278C94.8476 55.278 95.2116 55.1753 95.4449 54.97C95.6782 54.7553 95.7949 54.5033 95.7949 54.214C95.7949 53.794 95.6409 53.514 95.3329 53.374C95.0342 53.234 94.6096 53.108 94.0589 52.996C93.6856 52.9213 93.3122 52.814 92.9389 52.674C92.5656 52.534 92.2529 52.338 92.0009 52.086C91.7489 51.8247 91.6229 51.484 91.6229 51.064C91.6229 50.4573 91.8469 49.9627 92.2949 49.58C92.7522 49.188 93.3682 48.992 94.1429 48.992C94.8802 48.992 95.4822 49.1787 95.9489 49.552C96.4249 49.916 96.7002 50.4387 96.7749 51.12H95.6129C95.5662 50.7653 95.4122 50.49 95.1509 50.294C94.8989 50.0887 94.5582 49.986 94.1289 49.986C93.7089 49.986 93.3822 50.0747 93.1489 50.252C92.9249 50.4293 92.8129 50.6627 92.8129 50.952C92.8129 51.232 92.9576 51.4513 93.2469 51.61C93.5456 51.7687 93.9469 51.904 94.4509 52.016C94.8802 52.1093 95.2862 52.226 95.6689 52.366C96.0609 52.4967 96.3782 52.6973 96.6209 52.968C96.8729 53.2293 96.9989 53.612 96.9989 54.116C97.0082 54.7413 96.7702 55.2593 96.2849 55.67C95.8089 56.0713 95.1602 56.272 94.3389 56.272Z" fill="#131313" fill-opacity="0.6"/>
<path fill-rule="evenodd" clip-rule="evenodd" d="M60.3 22.6V27.3C60.3 27.6 60 27.9 59.7 27.9H49.7V30C49.8 30.5 50.2 30.9 50.7 30.8C51.1 30.8 51.4 30.5 51.5 30.1C51.6 29.8 51.9 29.6 52.2 29.7C52.5 29.8 52.7 30.1 52.6 30.4C52.4 31.3 51.7 31.9 50.8 32C50.7333 32 50.6667 32 50.6 32C50 32 49.5 31.8 49.1 31.4C48.7 31.8 48.2 32 47.6 32C47.6 32 47.5667 32 47.5 32C46.6 31.9 45.8 31.3 45.6 30.4C45.5 30.1 45.7 29.8 46 29.7C46.4 29.6 46.7 29.8 46.7 30.1C46.8 30.5 47.2 30.8 47.6 30.8C48.1 30.9 48.5 30.5 48.6 30V27.9H38.6C38.3 27.9 38 27.6 38 27.3V22.6C38 17.3 41.8 12.8 46.8 11.7C46.7 11.1 46.4 9.9 45.8 9.2C45.2 8.5 45 7.4 45.4 6.5L44.5 4.2C44.4 3.9 44.5 3.6 44.8 3.5L47 2.3V0.600006C47 0.300006 47.3 0 47.6 0H50.7C51 0 51.2 0.300006 51.2 0.600006V2.3L53.5 3.5C53.8 3.6 53.9 3.9 53.8 4.2L52.9 6.5C53.2 7.4 53.1 8.5 52.5 9.2C51.9 9.9 51.6 11 51.5 11.7C56.5 12.8 60.3 17.3 60.3 22.6ZM47.9 3.2L45.7 4.3L46.2 5.3C46.7 4.9 47.6 4.60001 49.1 5.10001C50.6 4.60001 51.6 4.9 52.1 5.3L52.5 4.3L50.4 3.2C50.2 3.1 50.1 2.9 50.1 2.7V1.2H48.2V2.7C48.2 2.9 48.1 3.1 47.9 3.2ZM47.9 11.5C48.3 11.5 48.7 11.5 49.1 11.5C49.5 11.5 49.9 11.5 50.3 11.5C50.4 10.8 50.8 9.4 51.6 8.5C51.9 8.1 52 7.1 51.6 6.5C51.1 5.8 50.1 5.9 49.4 6.2C49.2667 6.2 49.1667 6.2 49.1 6.2C49.0333 6.2 48.9667 6.2 48.9 6.2C48.1 5.9 47.1 5.8 46.6 6.5C46.2 7.1 46.3 8.1 46.7 8.5C47.5 9.4 47.8 10.8 47.9 11.5ZM59.1 26.7V22.6C59.1 19 57.2 15.9 54.4 14.1C55.5 15.7 56.7 18.4 56.6 22.7C56.6 23 56.3 23.3 56 23.3C55.7 23.3 55.4 23 55.4 22.7C55.5 15.8 52.6 13.5 51.3 12.9C50.5667 12.7 49.8333 12.6 49.1 12.6C48.3667 12.6 47.6667 12.7 47 12.9C46.5 13.1 45.8 13.6 45.2 14.4C43.6 16.2 42.8 19.1 42.8 22.7C42.8 23 42.6 23.3 42.3 23.3C42.3 23.3 42.2667 23.3 42.2 23.3C41.9 23.3 41.7 23 41.7 22.7C41.6 18.4 42.7 15.7 43.9 14.1C41 15.9 39.2 19 39.2 22.6V26.7H59.1Z" fill="#E654A0"/>
</svg>
