<svg width="100" height="59" viewBox="0 0 100 59" fill="none" xmlns="http://www.w3.org/2000/svg">
<path d="M3.052 54.118L0.364 44.304H1.624L3.738 52.718L6.146 44.304H7.448L9.786 52.718L11.928 44.304H13.188L10.444 54.104H9.1L6.762 46.012L4.368 54.104L3.052 54.118ZM16.9122 54.272C16.2496 54.272 15.6616 54.1227 15.1482 53.824C14.6349 53.516 14.2289 53.0913 13.9302 52.55C13.6409 52.0087 13.4962 51.3693 13.4962 50.632C13.4962 49.904 13.6409 49.2693 13.9302 48.728C14.2196 48.1773 14.6209 47.7527 15.1342 47.454C15.6569 47.146 16.2589 46.992 16.9402 46.992C17.6122 46.992 18.1909 47.146 18.6762 47.454C19.1709 47.7527 19.5489 48.1493 19.8102 48.644C20.0716 49.1387 20.2022 49.6707 20.2022 50.24C20.2022 50.3427 20.1976 50.4453 20.1882 50.548C20.1882 50.6507 20.1882 50.7673 20.1882 50.898H14.6582C14.6862 51.43 14.8076 51.8733 15.0222 52.228C15.2462 52.5733 15.5216 52.8347 15.8482 53.012C16.1842 53.1893 16.5389 53.278 16.9122 53.278C17.3976 53.278 17.8036 53.166 18.1302 52.942C18.4569 52.718 18.6949 52.4147 18.8442 52.032H20.0062C19.8196 52.676 19.4602 53.2127 18.9282 53.642C18.4056 54.062 17.7336 54.272 16.9122 54.272ZM16.9122 47.986C16.3522 47.986 15.8529 48.1587 15.4142 48.504C14.9849 48.84 14.7376 49.3347 14.6722 49.988H19.0402C19.0122 49.3627 18.7976 48.8727 18.3962 48.518C17.9949 48.1633 17.5002 47.986 16.9122 47.986ZM24.9109 54.272C24.2203 54.272 23.6136 54.1133 23.0909 53.796C22.5776 53.4787 22.1763 53.0447 21.8869 52.494C21.6069 51.9433 21.4669 51.318 21.4669 50.618C21.4669 49.918 21.6116 49.2973 21.9009 48.756C22.1903 48.2053 22.5916 47.776 23.1049 47.468C23.6183 47.1507 24.2249 46.992 24.9249 46.992C25.4943 46.992 25.9983 47.1087 26.4369 47.342C26.8756 47.5753 27.2163 47.902 27.4589 48.322V44.024H28.6349V54.104H27.5709L27.4589 52.956C27.2349 53.292 26.9129 53.5953 26.4929 53.866C26.0729 54.1367 25.5456 54.272 24.9109 54.272ZM25.0369 53.25C25.5036 53.25 25.9143 53.1427 26.2689 52.928C26.6329 52.704 26.9129 52.396 27.1089 52.004C27.3143 51.612 27.4169 51.1547 27.4169 50.632C27.4169 50.1093 27.3143 49.652 27.1089 49.26C26.9129 48.868 26.6329 48.5647 26.2689 48.35C25.9143 48.126 25.5036 48.014 25.0369 48.014C24.5796 48.014 24.1689 48.126 23.8049 48.35C23.4503 48.5647 23.1703 48.868 22.9649 49.26C22.7689 49.652 22.6709 50.1093 22.6709 50.632C22.6709 51.1547 22.7689 51.612 22.9649 52.004C23.1703 52.396 23.4503 52.704 23.8049 52.928C24.1689 53.1427 24.5796 53.25 25.0369 53.25ZM33.7019 54.272C33.0113 54.272 32.4046 54.1133 31.8819 53.796C31.3686 53.4787 30.9673 53.0447 30.6779 52.494C30.3979 51.9433 30.2579 51.318 30.2579 50.618C30.2579 49.918 30.4026 49.2973 30.6919 48.756C30.9813 48.2053 31.3826 47.776 31.8959 47.468C32.4093 47.1507 33.0159 46.992 33.7159 46.992C34.2853 46.992 34.7893 47.1087 35.2279 47.342C35.6666 47.5753 36.0073 47.902 36.2499 48.322V44.024H37.4259V54.104H36.3619L36.2499 52.956C36.0259 53.292 35.7039 53.5953 35.2839 53.866C34.8639 54.1367 34.3366 54.272 33.7019 54.272ZM33.8279 53.25C34.2946 53.25 34.7053 53.1427 35.0599 52.928C35.4239 52.704 35.7039 52.396 35.8999 52.004C36.1053 51.612 36.2079 51.1547 36.2079 50.632C36.2079 50.1093 36.1053 49.652 35.8999 49.26C35.7039 48.868 35.4239 48.5647 35.0599 48.35C34.7053 48.126 34.2946 48.014 33.8279 48.014C33.3706 48.014 32.9599 48.126 32.5959 48.35C32.2413 48.5647 31.9613 48.868 31.7559 49.26C31.5599 49.652 31.4619 50.1093 31.4619 50.632C31.4619 51.1547 31.5599 51.612 31.7559 52.004C31.9613 52.396 32.2413 52.704 32.5959 52.928C32.9599 53.1427 33.3706 53.25 33.8279 53.25ZM40.057 45.62C39.8236 45.62 39.6276 45.5453 39.469 45.396C39.3196 45.2373 39.245 45.0413 39.245 44.808C39.245 44.584 39.3196 44.3973 39.469 44.248C39.6276 44.0987 39.8236 44.024 40.057 44.024C40.281 44.024 40.4723 44.0987 40.631 44.248C40.7896 44.3973 40.869 44.584 40.869 44.808C40.869 45.0413 40.7896 45.2373 40.631 45.396C40.4723 45.5453 40.281 45.62 40.057 45.62ZM39.469 54.104V47.16H40.645V54.104H39.469ZM42.6926 54.104V47.16H43.7566L43.8266 48.406C44.0506 47.9673 44.3726 47.622 44.7926 47.37C45.2126 47.118 45.6886 46.992 46.2206 46.992C47.0419 46.992 47.6952 47.244 48.1806 47.748C48.6752 48.2427 48.9226 49.008 48.9226 50.044V54.104H47.7466V50.17C47.7466 48.7233 47.1492 48 45.9546 48C45.3572 48 44.8579 48.2193 44.4566 48.658C44.0646 49.0873 43.8686 49.7033 43.8686 50.506V54.104H42.6926ZM53.4483 51.92C53.0563 51.92 52.6969 51.8687 52.3703 51.766L51.6703 52.424C51.7729 52.4987 51.8989 52.564 52.0483 52.62C52.2069 52.6667 52.4309 52.7133 52.7203 52.76C53.0096 52.7973 53.4156 52.8393 53.9383 52.886C54.8716 52.9513 55.5389 53.166 55.9403 53.53C56.3416 53.894 56.5423 54.37 56.5423 54.958C56.5423 55.3593 56.4303 55.742 56.2063 56.106C55.9916 56.47 55.6556 56.7687 55.1983 57.002C54.7503 57.2353 54.1716 57.352 53.4623 57.352C52.8369 57.352 52.2816 57.268 51.7963 57.1C51.3109 56.9413 50.9329 56.694 50.6623 56.358C50.3916 56.0313 50.2563 55.616 50.2563 55.112C50.2563 54.8507 50.3263 54.566 50.4663 54.258C50.6063 53.9593 50.8676 53.6747 51.2503 53.404C51.0449 53.32 50.8676 53.2313 50.7183 53.138C50.5783 53.0353 50.4476 52.9233 50.3263 52.802V52.48L51.5163 51.304C50.9656 50.8373 50.6903 50.2213 50.6903 49.456C50.6903 48.9987 50.7976 48.5833 51.0123 48.21C51.2269 47.8367 51.5396 47.5427 51.9503 47.328C52.3609 47.104 52.8603 46.992 53.4483 46.992C53.8496 46.992 54.2136 47.048 54.5403 47.16H57.1023V48.042L55.8003 48.098C56.0709 48.49 56.2063 48.9427 56.2063 49.456C56.2063 49.9133 56.0943 50.3287 55.8703 50.702C55.6556 51.0753 55.3429 51.374 54.9323 51.598C54.5309 51.8127 54.0363 51.92 53.4483 51.92ZM53.4483 50.954C53.9429 50.954 54.3349 50.828 54.6243 50.576C54.9229 50.3147 55.0723 49.9413 55.0723 49.456C55.0723 48.98 54.9229 48.616 54.6243 48.364C54.3349 48.1027 53.9429 47.972 53.4483 47.972C52.9443 47.972 52.5429 48.1027 52.2443 48.364C51.9549 48.616 51.8103 48.98 51.8103 49.456C51.8103 49.9413 51.9549 50.3147 52.2443 50.576C52.5429 50.828 52.9443 50.954 53.4483 50.954ZM51.4043 55C51.4043 55.4667 51.6003 55.812 51.9923 56.036C52.3843 56.2693 52.8743 56.386 53.4623 56.386C54.0409 56.386 54.5029 56.26 54.8483 56.008C55.2029 55.756 55.3803 55.42 55.3803 55C55.3803 54.7013 55.2589 54.44 55.0163 54.216C54.7736 54.0013 54.3256 53.8753 53.6723 53.838C53.1589 53.8007 52.7156 53.754 52.3423 53.698C51.9596 53.9033 51.7076 54.1227 51.5863 54.356C51.4649 54.5987 51.4043 54.8133 51.4043 55ZM62.204 54.104V44.304H63.576L67.104 51.136L70.604 44.304H71.99V54.104H70.814V46.404L67.538 52.704H66.656L63.38 46.418V54.104H62.204ZM76.5215 54.272C75.7002 54.272 75.0468 54.0247 74.5615 53.53C74.0762 53.026 73.8335 52.256 73.8335 51.22V47.16H75.0095V51.094C75.0095 52.5407 75.6022 53.264 76.7875 53.264C77.3942 53.264 77.8935 53.0493 78.2855 52.62C78.6868 52.1813 78.8875 51.5607 78.8875 50.758V47.16H80.0635V54.104H78.9995L78.9155 52.858C78.7008 53.2967 78.3788 53.642 77.9495 53.894C77.5295 54.146 77.0535 54.272 76.5215 54.272ZM84.6592 54.272C83.8285 54.272 83.1379 54.062 82.5872 53.642C82.0365 53.222 81.7145 52.6527 81.6212 51.934H82.8252C82.8999 52.298 83.0912 52.6153 83.3992 52.886C83.7165 53.1473 84.1412 53.278 84.6732 53.278C85.1679 53.278 85.5319 53.1753 85.7652 52.97C85.9985 52.7553 86.1152 52.5033 86.1152 52.214C86.1152 51.794 85.9612 51.514 85.6532 51.374C85.3545 51.234 84.9299 51.108 84.3792 50.996C84.0059 50.9213 83.6325 50.814 83.2592 50.674C82.8859 50.534 82.5732 50.338 82.3212 50.086C82.0692 49.8247 81.9432 49.484 81.9432 49.064C81.9432 48.4573 82.1672 47.9627 82.6152 47.58C83.0725 47.188 83.6885 46.992 84.4632 46.992C85.2005 46.992 85.8025 47.1787 86.2692 47.552C86.7452 47.916 87.0205 48.4387 87.0952 49.12H85.9332C85.8865 48.7653 85.7325 48.49 85.4712 48.294C85.2192 48.0887 84.8785 47.986 84.4492 47.986C84.0292 47.986 83.7025 48.0747 83.4692 48.252C83.2452 48.4293 83.1332 48.6627 83.1332 48.952C83.1332 49.232 83.2779 49.4513 83.5672 49.61C83.8659 49.7687 84.2672 49.904 84.7712 50.016C85.2005 50.1093 85.6065 50.226 85.9892 50.366C86.3812 50.4967 86.6985 50.6973 86.9412 50.968C87.1932 51.2293 87.3192 51.612 87.3192 52.116C87.3285 52.7413 87.0905 53.2593 86.6052 53.67C86.1292 54.0713 85.4805 54.272 84.6592 54.272ZM89.7132 45.62C89.4799 45.62 89.2839 45.5453 89.1252 45.396C88.9759 45.2373 88.9012 45.0413 88.9012 44.808C88.9012 44.584 88.9759 44.3973 89.1252 44.248C89.2839 44.0987 89.4799 44.024 89.7132 44.024C89.9372 44.024 90.1285 44.0987 90.2872 44.248C90.4459 44.3973 90.5252 44.584 90.5252 44.808C90.5252 45.0413 90.4459 45.2373 90.2872 45.396C90.1285 45.5453 89.9372 45.62 89.7132 45.62ZM89.1252 54.104V47.16H90.3012V54.104H89.1252ZM95.5408 54.272C94.8781 54.272 94.2808 54.1227 93.7488 53.824C93.2261 53.516 92.8108 53.0913 92.5028 52.55C92.2041 51.9993 92.0548 51.36 92.0548 50.632C92.0548 49.904 92.2041 49.2693 92.5028 48.728C92.8108 48.1773 93.2261 47.7527 93.7488 47.454C94.2808 47.146 94.8781 46.992 95.5408 46.992C96.3621 46.992 97.0528 47.2067 97.6128 47.636C98.1821 48.0653 98.5415 48.6393 98.6908 49.358H97.4868C97.3935 48.9287 97.1648 48.5973 96.8008 48.364C96.4368 48.1213 96.0121 48 95.5268 48C95.1348 48 94.7661 48.098 94.4208 48.294C94.0755 48.49 93.7955 48.784 93.5808 49.176C93.3661 49.568 93.2588 50.0533 93.2588 50.632C93.2588 51.2107 93.3661 51.696 93.5808 52.088C93.7955 52.48 94.0755 52.7787 94.4208 52.984C94.7661 53.18 95.1348 53.278 95.5268 53.278C96.0121 53.278 96.4368 53.1613 96.8008 52.928C97.1648 52.6853 97.3935 52.3447 97.4868 51.906H98.6908C98.5508 52.606 98.1961 53.1753 97.6268 53.614C97.0575 54.0527 96.3621 54.272 95.5408 54.272Z" fill="#131313" fill-opacity="0.6"/>
<path fill-rule="evenodd" clip-rule="evenodd" d="M61.4004 22.1999C60.7337 23.2666 59.6004 24.2333 58.0004 25.0999C57.9337 25.0999 57.8337 25.0999 57.7004 25.0999C57.6337 25.0999 57.5337 25.0999 57.4004 25.0999C55.8671 24.2333 54.7671 23.2666 54.1004 22.1999C53.3004 20.9999 53.4004 19.9999 53.5004 19.3999C53.8004 18.1999 54.9004 17.2999 56.0004 17.2999C56.6004 17.2999 57.2004 17.5999 57.7004 18.0999C58.2004 17.5999 58.8004 17.2999 59.4004 17.2999C59.9004 17.2999 60.4004 17.4999 60.8004 17.7999V7.59994L46.6004 13.9999V22.8999C46.6004 23.4999 46.4004 24.1999 45.9004 25.0999C45.2337 26.0999 44.1338 27.0333 42.6004 27.8999C42.4671 27.9666 42.3671 27.9999 42.3004 27.9999C42.1671 27.9999 42.0671 27.9666 42.0004 27.8999C40.4004 27.0333 39.2671 26.0999 38.6004 25.0999C37.9004 23.8999 37.9004 22.8999 38.1004 22.2999C38.4004 21.0999 39.4004 20.1999 40.6004 20.1999C41.2004 20.1999 41.8004 20.4999 42.3004 20.8999C42.8004 20.4999 43.4004 20.1999 44.0004 20.1999C44.5004 20.1999 45.0004 20.3999 45.4004 20.6999V7.49993C45.4004 7.19993 45.5004 6.99992 45.7004 6.89992L61.2004 0.0999364C61.5004 -0.100064 61.8004 0.099918 62.0004 0.299918C62.0004 0.499918 62.0004 0.599936 62.0004 0.599936V20.0999C62.0004 20.5999 61.9004 21.3999 61.4004 22.1999ZM42.3004 26.6999C45.6004 24.7999 45.5004 22.9999 45.3004 22.4999C45.2004 21.8999 44.6004 21.3999 44.0004 21.3999C43.5004 21.3999 43.1004 21.6999 42.8004 22.1999C42.7004 22.3999 42.5004 22.4999 42.3004 22.4999C42.1004 22.4999 41.9004 22.3999 41.8004 22.1999C41.5004 21.6999 41.0004 21.3999 40.6004 21.3999C40.0004 21.3999 39.4004 21.8999 39.2004 22.4999C39.1004 22.9999 39.0004 24.7999 42.3004 26.6999ZM57.7004 23.8999C61.1004 21.8999 60.9004 20.1999 60.8004 19.6999C60.6004 18.9999 60.0004 18.4999 59.4004 18.4999C59.0004 18.4999 58.5004 18.7999 58.2004 19.2999C58.1004 19.4999 57.9004 19.5999 57.7004 19.5999C57.5004 19.5999 57.3004 19.4999 57.2004 19.2999C56.9004 18.7999 56.5004 18.4999 56.0004 18.4999C55.4004 18.4999 54.8004 18.9999 54.7004 19.6999C54.5004 20.1999 54.4004 21.8999 57.7004 23.8999ZM60.8004 6.29992V1.49993L46.6004 7.79992V12.6999L60.8004 6.29992Z" fill="#E654A0"/>
</svg>
