<svg width="99" height="60" viewBox="0 0 99 60" fill="none" xmlns="http://www.w3.org/2000/svg">
<path d="M3.052 55.118L0.364 45.304H1.624L3.738 53.718L6.146 45.304H7.448L9.786 53.718L11.928 45.304H13.188L10.444 55.104H9.1L6.762 47.012L4.368 55.104L3.052 55.118ZM16.9122 55.272C16.2496 55.272 15.6616 55.1227 15.1482 54.824C14.6349 54.516 14.2289 54.0913 13.9302 53.55C13.6409 53.0087 13.4962 52.3693 13.4962 51.632C13.4962 50.904 13.6409 50.2693 13.9302 49.728C14.2196 49.1773 14.6209 48.7527 15.1342 48.454C15.6569 48.146 16.2589 47.992 16.9402 47.992C17.6122 47.992 18.1909 48.146 18.6762 48.454C19.1709 48.7527 19.5489 49.1493 19.8102 49.644C20.0716 50.1387 20.2022 50.6707 20.2022 51.24C20.2022 51.3427 20.1976 51.4453 20.1882 51.548C20.1882 51.6507 20.1882 51.7673 20.1882 51.898H14.6582C14.6862 52.43 14.8076 52.8733 15.0222 53.228C15.2462 53.5733 15.5216 53.8347 15.8482 54.012C16.1842 54.1893 16.5389 54.278 16.9122 54.278C17.3976 54.278 17.8036 54.166 18.1302 53.942C18.4569 53.718 18.6949 53.4147 18.8442 53.032H20.0062C19.8196 53.676 19.4602 54.2127 18.9282 54.642C18.4056 55.062 17.7336 55.272 16.9122 55.272ZM16.9122 48.986C16.3522 48.986 15.8529 49.1587 15.4142 49.504C14.9849 49.84 14.7376 50.3347 14.6722 50.988H19.0402C19.0122 50.3627 18.7976 49.8727 18.3962 49.518C17.9949 49.1633 17.5002 48.986 16.9122 48.986ZM24.9109 55.272C24.2203 55.272 23.6136 55.1133 23.0909 54.796C22.5776 54.4787 22.1763 54.0447 21.8869 53.494C21.6069 52.9433 21.4669 52.318 21.4669 51.618C21.4669 50.918 21.6116 50.2973 21.9009 49.756C22.1903 49.2053 22.5916 48.776 23.1049 48.468C23.6183 48.1507 24.2249 47.992 24.9249 47.992C25.4943 47.992 25.9983 48.1087 26.4369 48.342C26.8756 48.5753 27.2163 48.902 27.4589 49.322V45.024H28.6349V55.104H27.5709L27.4589 53.956C27.2349 54.292 26.9129 54.5953 26.4929 54.866C26.0729 55.1367 25.5456 55.272 24.9109 55.272ZM25.0369 54.25C25.5036 54.25 25.9143 54.1427 26.2689 53.928C26.6329 53.704 26.9129 53.396 27.1089 53.004C27.3143 52.612 27.4169 52.1547 27.4169 51.632C27.4169 51.1093 27.3143 50.652 27.1089 50.26C26.9129 49.868 26.6329 49.5647 26.2689 49.35C25.9143 49.126 25.5036 49.014 25.0369 49.014C24.5796 49.014 24.1689 49.126 23.8049 49.35C23.4503 49.5647 23.1703 49.868 22.9649 50.26C22.7689 50.652 22.6709 51.1093 22.6709 51.632C22.6709 52.1547 22.7689 52.612 22.9649 53.004C23.1703 53.396 23.4503 53.704 23.8049 53.928C24.1689 54.1427 24.5796 54.25 25.0369 54.25ZM33.7019 55.272C33.0113 55.272 32.4046 55.1133 31.8819 54.796C31.3686 54.4787 30.9673 54.0447 30.6779 53.494C30.3979 52.9433 30.2579 52.318 30.2579 51.618C30.2579 50.918 30.4026 50.2973 30.6919 49.756C30.9813 49.2053 31.3826 48.776 31.8959 48.468C32.4093 48.1507 33.0159 47.992 33.7159 47.992C34.2853 47.992 34.7893 48.1087 35.2279 48.342C35.6666 48.5753 36.0073 48.902 36.2499 49.322V45.024H37.4259V55.104H36.3619L36.2499 53.956C36.0259 54.292 35.7039 54.5953 35.2839 54.866C34.8639 55.1367 34.3366 55.272 33.7019 55.272ZM33.8279 54.25C34.2946 54.25 34.7053 54.1427 35.0599 53.928C35.4239 53.704 35.7039 53.396 35.8999 53.004C36.1053 52.612 36.2079 52.1547 36.2079 51.632C36.2079 51.1093 36.1053 50.652 35.8999 50.26C35.7039 49.868 35.4239 49.5647 35.0599 49.35C34.7053 49.126 34.2946 49.014 33.8279 49.014C33.3706 49.014 32.9599 49.126 32.5959 49.35C32.2413 49.5647 31.9613 49.868 31.7559 50.26C31.5599 50.652 31.4619 51.1093 31.4619 51.632C31.4619 52.1547 31.5599 52.612 31.7559 53.004C31.9613 53.396 32.2413 53.704 32.5959 53.928C32.9599 54.1427 33.3706 54.25 33.8279 54.25ZM40.057 46.62C39.8236 46.62 39.6276 46.5453 39.469 46.396C39.3196 46.2373 39.245 46.0413 39.245 45.808C39.245 45.584 39.3196 45.3973 39.469 45.248C39.6276 45.0987 39.8236 45.024 40.057 45.024C40.281 45.024 40.4723 45.0987 40.631 45.248C40.7896 45.3973 40.869 45.584 40.869 45.808C40.869 46.0413 40.7896 46.2373 40.631 46.396C40.4723 46.5453 40.281 46.62 40.057 46.62ZM39.469 55.104V48.16H40.645V55.104H39.469ZM42.6926 55.104V48.16H43.7566L43.8266 49.406C44.0506 48.9673 44.3726 48.622 44.7926 48.37C45.2126 48.118 45.6886 47.992 46.2206 47.992C47.0419 47.992 47.6952 48.244 48.1806 48.748C48.6752 49.2427 48.9226 50.008 48.9226 51.044V55.104H47.7466V51.17C47.7466 49.7233 47.1492 49 45.9546 49C45.3572 49 44.8579 49.2193 44.4566 49.658C44.0646 50.0873 43.8686 50.7033 43.8686 51.506V55.104H42.6926ZM53.4483 52.92C53.0563 52.92 52.6969 52.8687 52.3703 52.766L51.6703 53.424C51.7729 53.4987 51.8989 53.564 52.0483 53.62C52.2069 53.6667 52.4309 53.7133 52.7203 53.76C53.0096 53.7973 53.4156 53.8393 53.9383 53.886C54.8716 53.9513 55.5389 54.166 55.9403 54.53C56.3416 54.894 56.5423 55.37 56.5423 55.958C56.5423 56.3593 56.4303 56.742 56.2063 57.106C55.9916 57.47 55.6556 57.7687 55.1983 58.002C54.7503 58.2353 54.1716 58.352 53.4623 58.352C52.8369 58.352 52.2816 58.268 51.7963 58.1C51.3109 57.9413 50.9329 57.694 50.6623 57.358C50.3916 57.0313 50.2563 56.616 50.2563 56.112C50.2563 55.8507 50.3263 55.566 50.4663 55.258C50.6063 54.9593 50.8676 54.6747 51.2503 54.404C51.0449 54.32 50.8676 54.2313 50.7183 54.138C50.5783 54.0353 50.4476 53.9233 50.3263 53.802V53.48L51.5163 52.304C50.9656 51.8373 50.6903 51.2213 50.6903 50.456C50.6903 49.9987 50.7976 49.5833 51.0123 49.21C51.2269 48.8367 51.5396 48.5427 51.9503 48.328C52.3609 48.104 52.8603 47.992 53.4483 47.992C53.8496 47.992 54.2136 48.048 54.5403 48.16H57.1023V49.042L55.8003 49.098C56.0709 49.49 56.2063 49.9427 56.2063 50.456C56.2063 50.9133 56.0943 51.3287 55.8703 51.702C55.6556 52.0753 55.3429 52.374 54.9323 52.598C54.5309 52.8127 54.0363 52.92 53.4483 52.92ZM53.4483 51.954C53.9429 51.954 54.3349 51.828 54.6243 51.576C54.9229 51.3147 55.0723 50.9413 55.0723 50.456C55.0723 49.98 54.9229 49.616 54.6243 49.364C54.3349 49.1027 53.9429 48.972 53.4483 48.972C52.9443 48.972 52.5429 49.1027 52.2443 49.364C51.9549 49.616 51.8103 49.98 51.8103 50.456C51.8103 50.9413 51.9549 51.3147 52.2443 51.576C52.5429 51.828 52.9443 51.954 53.4483 51.954ZM51.4043 56C51.4043 56.4667 51.6003 56.812 51.9923 57.036C52.3843 57.2693 52.8743 57.386 53.4623 57.386C54.0409 57.386 54.5029 57.26 54.8483 57.008C55.2029 56.756 55.3803 56.42 55.3803 56C55.3803 55.7013 55.2589 55.44 55.0163 55.216C54.7736 55.0013 54.3256 54.8753 53.6723 54.838C53.1589 54.8007 52.7156 54.754 52.3423 54.698C51.9596 54.9033 51.7076 55.1227 51.5863 55.356C51.4649 55.5987 51.4043 55.8133 51.4043 56ZM65.326 55.272C64.6073 55.272 63.982 55.1413 63.45 54.88C62.918 54.6187 62.5073 54.2547 62.218 53.788C61.9286 53.3213 61.784 52.78 61.784 52.164H63.016C63.016 52.5467 63.1046 52.9013 63.282 53.228C63.4593 53.5453 63.716 53.802 64.052 53.998C64.3973 54.1847 64.822 54.278 65.326 54.278C65.9886 54.278 66.502 54.1193 66.866 53.802C67.23 53.4847 67.412 53.088 67.412 52.612C67.412 52.22 67.328 51.9073 67.16 51.674C66.992 51.4313 66.7633 51.2353 66.474 51.086C66.194 50.9367 65.8673 50.806 65.494 50.694C65.13 50.582 64.7473 50.456 64.346 50.316C63.59 50.0547 63.03 49.7327 62.666 49.35C62.302 48.958 62.12 48.4493 62.12 47.824C62.1106 47.3013 62.232 46.8393 62.484 46.438C62.736 46.0273 63.0906 45.71 63.548 45.486C64.0146 45.2527 64.5653 45.136 65.2 45.136C65.8253 45.136 66.3666 45.2527 66.824 45.486C67.2906 45.7193 67.65 46.0413 67.902 46.452C68.1633 46.8627 68.2986 47.3293 68.308 47.852H67.076C67.076 47.5813 67.006 47.3153 66.866 47.054C66.726 46.7833 66.5113 46.564 66.222 46.396C65.942 46.228 65.5873 46.144 65.158 46.144C64.626 46.1347 64.1873 46.27 63.842 46.55C63.506 46.83 63.338 47.2173 63.338 47.712C63.338 48.132 63.4546 48.454 63.688 48.678C63.9306 48.902 64.2666 49.0887 64.696 49.238C65.1253 49.378 65.62 49.5413 66.18 49.728C66.6466 49.896 67.0666 50.092 67.44 50.316C67.8133 50.54 68.1026 50.8293 68.308 51.184C68.5226 51.5387 68.63 51.9913 68.63 52.542C68.63 53.0087 68.5086 53.452 68.266 53.872C68.0233 54.2827 67.6546 54.6187 67.16 54.88C66.6746 55.1413 66.0633 55.272 65.326 55.272ZM70.2277 55.104V45.024H71.4037V49.35C71.6371 48.9207 71.9684 48.5893 72.3977 48.356C72.8271 48.1133 73.2937 47.992 73.7977 47.992C74.6004 47.992 75.2444 48.244 75.7297 48.748C76.2151 49.2427 76.4577 50.008 76.4577 51.044V55.104H75.2957V51.17C75.2957 49.7233 74.7124 49 73.5457 49C72.9391 49 72.4304 49.2193 72.0197 49.658C71.6091 50.0873 71.4037 50.7033 71.4037 51.506V55.104H70.2277ZM81.4034 55.272C80.7501 55.272 80.1621 55.1227 79.6394 54.824C79.1168 54.5253 78.7014 54.1053 78.3934 53.564C78.0948 53.0133 77.9454 52.3693 77.9454 51.632C77.9454 50.8947 78.0994 50.2553 78.4074 49.714C78.7154 49.1633 79.1308 48.7387 79.6534 48.44C80.1854 48.1413 80.7781 47.992 81.4314 47.992C82.0848 47.992 82.6728 48.1413 83.1954 48.44C83.7181 48.7387 84.1288 49.1633 84.4274 49.714C84.7354 50.2553 84.8894 50.8947 84.8894 51.632C84.8894 52.3693 84.7354 53.0133 84.4274 53.564C84.1194 54.1053 83.6994 54.5253 83.1674 54.824C82.6448 55.1227 82.0568 55.272 81.4034 55.272ZM81.4034 54.264C81.8048 54.264 82.1781 54.166 82.5234 53.97C82.8688 53.774 83.1488 53.48 83.3634 53.088C83.5781 52.696 83.6854 52.2107 83.6854 51.632C83.6854 51.0533 83.5781 50.568 83.3634 50.176C83.1581 49.784 82.8828 49.49 82.5374 49.294C82.1921 49.098 81.8234 49 81.4314 49C81.0301 49 80.6568 49.098 80.3114 49.294C79.9661 49.49 79.6861 49.784 79.4714 50.176C79.2568 50.568 79.1494 51.0533 79.1494 51.632C79.1494 52.2107 79.2568 52.696 79.4714 53.088C79.6861 53.48 79.9614 53.774 80.2974 53.97C80.6428 54.166 81.0114 54.264 81.4034 54.264ZM89.6886 55.272C89.0353 55.272 88.4473 55.1227 87.9246 54.824C87.4019 54.5253 86.9866 54.1053 86.6786 53.564C86.3799 53.0133 86.2306 52.3693 86.2306 51.632C86.2306 50.8947 86.3846 50.2553 86.6926 49.714C87.0006 49.1633 87.4159 48.7387 87.9386 48.44C88.4706 48.1413 89.0633 47.992 89.7166 47.992C90.3699 47.992 90.9579 48.1413 91.4806 48.44C92.0033 48.7387 92.4139 49.1633 92.7126 49.714C93.0206 50.2553 93.1746 50.8947 93.1746 51.632C93.1746 52.3693 93.0206 53.0133 92.7126 53.564C92.4046 54.1053 91.9846 54.5253 91.4526 54.824C90.9299 55.1227 90.3419 55.272 89.6886 55.272ZM89.6886 54.264C90.0899 54.264 90.4633 54.166 90.8086 53.97C91.1539 53.774 91.4339 53.48 91.6486 53.088C91.8633 52.696 91.9706 52.2107 91.9706 51.632C91.9706 51.0533 91.8633 50.568 91.6486 50.176C91.4433 49.784 91.1679 49.49 90.8226 49.294C90.4773 49.098 90.1086 49 89.7166 49C89.3153 49 88.9419 49.098 88.5966 49.294C88.2513 49.49 87.9713 49.784 87.7566 50.176C87.5419 50.568 87.4346 51.0533 87.4346 51.632C87.4346 52.2107 87.5419 52.696 87.7566 53.088C87.9713 53.48 88.2466 53.774 88.5826 53.97C88.9279 54.166 89.2966 54.264 89.6886 54.264ZM97.2803 55.104C96.6456 55.104 96.1463 54.95 95.7823 54.642C95.4183 54.334 95.2363 53.7787 95.2363 52.976V49.154H94.0323V48.16H95.2363L95.3903 46.494H96.4123V48.16H98.4563V49.154H96.4123V52.976C96.4123 53.4147 96.501 53.7133 96.6783 53.872C96.8556 54.0213 97.1683 54.096 97.6163 54.096H98.3443V55.104H97.2803Z" fill="#131313" fill-opacity="0.6"/>
<path fill-rule="evenodd" clip-rule="evenodd" d="M65.4 11.3V16.4C65.4 16.8 65.1 17.1 64.8 17.1H62.7V19C62.7 19.3 62.5 19.6 62.1 19.6H55.6V22.2C55.6 22.5 55.3 22.8 54.9 22.8H54.4L58.8 29C59 29.3 58.9 29.7 58.6 29.9C58.4667 29.9667 58.3333 30 58.2 30C58 30 57.8 29.9 57.7 29.7L53.2 23.3V29.4C53.2 29.7 52.9 30 52.5 30C52.2 30 51.9 29.7 51.9 29.4V23.3L47.3 29.7C47.2 29.9 47 30 46.8 30C46.6667 30 46.5333 29.9667 46.4 29.9C46.1 29.7 46.1 29.3 46.3 29L50.6 22.8H50.1C49.7 22.8 49.4 22.5 49.4 22.2V19.6H42.9C42.6 19.6 42.3 19.3 42.3 19V16.7H40.3C39.9 16.7 39.6 16.4 39.6 16V15.7L35 18.3C34.8667 18.3667 34.7333 18.4 34.6 18.4C34.5333 18.4 34.4333 18.3667 34.3 18.3C34.1 18.2 34 18 34 17.8V9.89999C34 9.69999 34.1 9.49999 34.3 9.39999C34.5 9.29999 34.8 9.29999 35 9.39999L39.6 12.1V11.8C39.6 11.4 39.9 11.1 40.3 11.1H42.3V8.79999C42.3 8.39999 42.6 8.10001 42.9 8.10001H45.2C44.3 7.30001 43.8 6.00001 43.8 4.70001C43.8 3.50001 44.2 2.29999 45.1 1.39999C46 0.499994 47.2 0 48.5 0C50.2 0 51.7 0.899988 52.5 2.29999C52.7 1.96665 52.9333 1.66666 53.2 1.39999C54.1 0.499994 55.3 0 56.6 0C59.2 0 61.3 2.10001 61.3 4.70001C61.3 6.00001 60.7 7.20001 59.8 8.10001H62.1C62.5 8.10001 62.7 8.39999 62.7 8.79999V10.6H64.8C65.1 10.6 65.4 10.9 65.4 11.3ZM53.2 4.70001C53.2 6.60001 54.7 8.10001 56.6 8.10001C58.5 8.10001 60 6.60001 60 4.70001C60 2.80001 58.4 1.29999 56.6 1.29999C55.7 1.29999 54.8 1.69999 54.2 2.29999C53.5 2.89999 53.2 3.80001 53.2 4.70001ZM51.7 8.10001H53.3C53.0333 7.83334 52.7667 7.50001 52.5 7.10001C52.3 7.50001 52.0333 7.83334 51.7 8.10001ZM48.5 8.10001C50.3 8.10001 51.9 6.60001 51.9 4.70001C51.9 2.80001 50.3 1.29999 48.5 1.29999C47.5 1.29999 46.7 1.69999 46.1 2.29999C45.4 2.89999 45.1 3.80001 45.1 4.70001C45.1 6.60001 46.6 8.10001 48.5 8.10001ZM42.3 15.4V12.4H40.9V15.4H42.3ZM39.7 13.6L35.3 11.1V16.7L39.7 14.2V13.6ZM54.3 19.6H50.8V21.5H54.3V19.6ZM61.5 9.39999H43.6V18.3H61.5V9.39999ZM64.1 11.9H62.8V15.8H64.1V11.9Z" fill="#E654A0"/>
</svg>
