<svg width="109" height="61" viewBox="0 0 109 61" fill="none" xmlns="http://www.w3.org/2000/svg">
<path d="M3.052 56.118L0.364 46.304H1.624L3.738 54.718L6.146 46.304H7.448L9.786 54.718L11.928 46.304H13.188L10.444 56.104H9.1L6.762 48.012L4.368 56.104L3.052 56.118ZM16.9122 56.272C16.2496 56.272 15.6616 56.1227 15.1482 55.824C14.6349 55.516 14.2289 55.0913 13.9302 54.55C13.6409 54.0087 13.4962 53.3693 13.4962 52.632C13.4962 51.904 13.6409 51.2693 13.9302 50.728C14.2196 50.1773 14.6209 49.7527 15.1342 49.454C15.6569 49.146 16.2589 48.992 16.9402 48.992C17.6122 48.992 18.1909 49.146 18.6762 49.454C19.1709 49.7527 19.5489 50.1493 19.8102 50.644C20.0716 51.1387 20.2022 51.6707 20.2022 52.24C20.2022 52.3427 20.1976 52.4453 20.1882 52.548C20.1882 52.6507 20.1882 52.7673 20.1882 52.898H14.6582C14.6862 53.43 14.8076 53.8733 15.0222 54.228C15.2462 54.5733 15.5216 54.8347 15.8482 55.012C16.1842 55.1893 16.5389 55.278 16.9122 55.278C17.3976 55.278 17.8036 55.166 18.1302 54.942C18.4569 54.718 18.6949 54.4147 18.8442 54.032H20.0062C19.8196 54.676 19.4602 55.2127 18.9282 55.642C18.4056 56.062 17.7336 56.272 16.9122 56.272ZM16.9122 49.986C16.3522 49.986 15.8529 50.1587 15.4142 50.504C14.9849 50.84 14.7376 51.3347 14.6722 51.988H19.0402C19.0122 51.3627 18.7976 50.8727 18.3962 50.518C17.9949 50.1633 17.5002 49.986 16.9122 49.986ZM24.9109 56.272C24.2203 56.272 23.6136 56.1133 23.0909 55.796C22.5776 55.4787 22.1763 55.0447 21.8869 54.494C21.6069 53.9433 21.4669 53.318 21.4669 52.618C21.4669 51.918 21.6116 51.2973 21.9009 50.756C22.1903 50.2053 22.5916 49.776 23.1049 49.468C23.6183 49.1507 24.2249 48.992 24.9249 48.992C25.4943 48.992 25.9983 49.1087 26.4369 49.342C26.8756 49.5753 27.2163 49.902 27.4589 50.322V46.024H28.6349V56.104H27.5709L27.4589 54.956C27.2349 55.292 26.9129 55.5953 26.4929 55.866C26.0729 56.1367 25.5456 56.272 24.9109 56.272ZM25.0369 55.25C25.5036 55.25 25.9143 55.1427 26.2689 54.928C26.6329 54.704 26.9129 54.396 27.1089 54.004C27.3143 53.612 27.4169 53.1547 27.4169 52.632C27.4169 52.1093 27.3143 51.652 27.1089 51.26C26.9129 50.868 26.6329 50.5647 26.2689 50.35C25.9143 50.126 25.5036 50.014 25.0369 50.014C24.5796 50.014 24.1689 50.126 23.8049 50.35C23.4503 50.5647 23.1703 50.868 22.9649 51.26C22.7689 51.652 22.6709 52.1093 22.6709 52.632C22.6709 53.1547 22.7689 53.612 22.9649 54.004C23.1703 54.396 23.4503 54.704 23.8049 54.928C24.1689 55.1427 24.5796 55.25 25.0369 55.25ZM33.7019 56.272C33.0113 56.272 32.4046 56.1133 31.8819 55.796C31.3686 55.4787 30.9673 55.0447 30.6779 54.494C30.3979 53.9433 30.2579 53.318 30.2579 52.618C30.2579 51.918 30.4026 51.2973 30.6919 50.756C30.9813 50.2053 31.3826 49.776 31.8959 49.468C32.4093 49.1507 33.0159 48.992 33.7159 48.992C34.2853 48.992 34.7893 49.1087 35.2279 49.342C35.6666 49.5753 36.0073 49.902 36.2499 50.322V46.024H37.4259V56.104H36.3619L36.2499 54.956C36.0259 55.292 35.7039 55.5953 35.2839 55.866C34.8639 56.1367 34.3366 56.272 33.7019 56.272ZM33.8279 55.25C34.2946 55.25 34.7053 55.1427 35.0599 54.928C35.4239 54.704 35.7039 54.396 35.8999 54.004C36.1053 53.612 36.2079 53.1547 36.2079 52.632C36.2079 52.1093 36.1053 51.652 35.8999 51.26C35.7039 50.868 35.4239 50.5647 35.0599 50.35C34.7053 50.126 34.2946 50.014 33.8279 50.014C33.3706 50.014 32.9599 50.126 32.5959 50.35C32.2413 50.5647 31.9613 50.868 31.7559 51.26C31.5599 51.652 31.4619 52.1093 31.4619 52.632C31.4619 53.1547 31.5599 53.612 31.7559 54.004C31.9613 54.396 32.2413 54.704 32.5959 54.928C32.9599 55.1427 33.3706 55.25 33.8279 55.25ZM40.057 47.62C39.8236 47.62 39.6276 47.5453 39.469 47.396C39.3196 47.2373 39.245 47.0413 39.245 46.808C39.245 46.584 39.3196 46.3973 39.469 46.248C39.6276 46.0987 39.8236 46.024 40.057 46.024C40.281 46.024 40.4723 46.0987 40.631 46.248C40.7896 46.3973 40.869 46.584 40.869 46.808C40.869 47.0413 40.7896 47.2373 40.631 47.396C40.4723 47.5453 40.281 47.62 40.057 47.62ZM39.469 56.104V49.16H40.645V56.104H39.469ZM42.6926 56.104V49.16H43.7566L43.8266 50.406C44.0506 49.9673 44.3726 49.622 44.7926 49.37C45.2126 49.118 45.6886 48.992 46.2206 48.992C47.0419 48.992 47.6952 49.244 48.1806 49.748C48.6752 50.2427 48.9226 51.008 48.9226 52.044V56.104H47.7466V52.17C47.7466 50.7233 47.1492 50 45.9546 50C45.3572 50 44.8579 50.2193 44.4566 50.658C44.0646 51.0873 43.8686 51.7033 43.8686 52.506V56.104H42.6926ZM53.4483 53.92C53.0563 53.92 52.6969 53.8687 52.3703 53.766L51.6703 54.424C51.7729 54.4987 51.8989 54.564 52.0483 54.62C52.2069 54.6667 52.4309 54.7133 52.7203 54.76C53.0096 54.7973 53.4156 54.8393 53.9383 54.886C54.8716 54.9513 55.5389 55.166 55.9403 55.53C56.3416 55.894 56.5423 56.37 56.5423 56.958C56.5423 57.3593 56.4303 57.742 56.2063 58.106C55.9916 58.47 55.6556 58.7687 55.1983 59.002C54.7503 59.2353 54.1716 59.352 53.4623 59.352C52.8369 59.352 52.2816 59.268 51.7963 59.1C51.3109 58.9413 50.9329 58.694 50.6623 58.358C50.3916 58.0313 50.2563 57.616 50.2563 57.112C50.2563 56.8507 50.3263 56.566 50.4663 56.258C50.6063 55.9593 50.8676 55.6747 51.2503 55.404C51.0449 55.32 50.8676 55.2313 50.7183 55.138C50.5783 55.0353 50.4476 54.9233 50.3263 54.802V54.48L51.5163 53.304C50.9656 52.8373 50.6903 52.2213 50.6903 51.456C50.6903 50.9987 50.7976 50.5833 51.0123 50.21C51.2269 49.8367 51.5396 49.5427 51.9503 49.328C52.3609 49.104 52.8603 48.992 53.4483 48.992C53.8496 48.992 54.2136 49.048 54.5403 49.16H57.1023V50.042L55.8003 50.098C56.0709 50.49 56.2063 50.9427 56.2063 51.456C56.2063 51.9133 56.0943 52.3287 55.8703 52.702C55.6556 53.0753 55.3429 53.374 54.9323 53.598C54.5309 53.8127 54.0363 53.92 53.4483 53.92ZM53.4483 52.954C53.9429 52.954 54.3349 52.828 54.6243 52.576C54.9229 52.3147 55.0723 51.9413 55.0723 51.456C55.0723 50.98 54.9229 50.616 54.6243 50.364C54.3349 50.1027 53.9429 49.972 53.4483 49.972C52.9443 49.972 52.5429 50.1027 52.2443 50.364C51.9549 50.616 51.8103 50.98 51.8103 51.456C51.8103 51.9413 51.9549 52.3147 52.2443 52.576C52.5429 52.828 52.9443 52.954 53.4483 52.954ZM51.4043 57C51.4043 57.4667 51.6003 57.812 51.9923 58.036C52.3843 58.2693 52.8743 58.386 53.4623 58.386C54.0409 58.386 54.5029 58.26 54.8483 58.008C55.2029 57.756 55.3803 57.42 55.3803 57C55.3803 56.7013 55.2589 56.44 55.0163 56.216C54.7736 56.0013 54.3256 55.8753 53.6723 55.838C53.1589 55.8007 52.7156 55.754 52.3423 55.698C51.9596 55.9033 51.7076 56.1227 51.5863 56.356C51.4649 56.5987 51.4043 56.8133 51.4043 57ZM65.158 56.104L61.476 46.304H62.75L65.844 54.858L68.966 46.304H70.212L66.53 56.104H65.158ZM73.6915 56.272C73.0288 56.272 72.4408 56.1227 71.9275 55.824C71.4142 55.516 71.0082 55.0913 70.7095 54.55C70.4202 54.0087 70.2755 53.3693 70.2755 52.632C70.2755 51.904 70.4202 51.2693 70.7095 50.728C70.9988 50.1773 71.4002 49.7527 71.9135 49.454C72.4362 49.146 73.0382 48.992 73.7195 48.992C74.3915 48.992 74.9702 49.146 75.4555 49.454C75.9502 49.7527 76.3282 50.1493 76.5895 50.644C76.8508 51.1387 76.9815 51.6707 76.9815 52.24C76.9815 52.3427 76.9768 52.4453 76.9675 52.548C76.9675 52.6507 76.9675 52.7673 76.9675 52.898H71.4375C71.4655 53.43 71.5868 53.8733 71.8015 54.228C72.0255 54.5733 72.3008 54.8347 72.6275 55.012C72.9635 55.1893 73.3182 55.278 73.6915 55.278C74.1768 55.278 74.5828 55.166 74.9095 54.942C75.2362 54.718 75.4742 54.4147 75.6235 54.032H76.7855C76.5988 54.676 76.2395 55.2127 75.7075 55.642C75.1848 56.062 74.5128 56.272 73.6915 56.272ZM73.6915 49.986C73.1315 49.986 72.6322 50.1587 72.1935 50.504C71.7642 50.84 71.5168 51.3347 71.4515 51.988H75.8195C75.7915 51.3627 75.5768 50.8727 75.1755 50.518C74.7742 50.1633 74.2795 49.986 73.6915 49.986ZM78.5402 56.104V49.16H79.6042L79.6742 50.406C79.8982 49.9673 80.2202 49.622 80.6402 49.37C81.0602 49.118 81.5362 48.992 82.0682 48.992C82.8896 48.992 83.5429 49.244 84.0282 49.748C84.5229 50.2427 84.7702 51.008 84.7702 52.044V56.104H83.5942V52.17C83.5942 50.7233 82.9969 50 81.8022 50C81.2049 50 80.7056 50.2193 80.3042 50.658C79.9122 51.0873 79.7162 51.7033 79.7162 52.506V56.104H78.5402ZM89.0859 56.272C88.2646 56.272 87.6113 56.0247 87.1259 55.53C86.6406 55.026 86.3979 54.256 86.3979 53.22V49.16H87.5739V53.094C87.5739 54.5407 88.1666 55.264 89.3519 55.264C89.9586 55.264 90.4579 55.0493 90.8499 54.62C91.2513 54.1813 91.4519 53.5607 91.4519 52.758V49.16H92.6279V56.104H91.5639L91.4799 54.858C91.2653 55.2967 90.9433 55.642 90.5139 55.894C90.0939 56.146 89.6179 56.272 89.0859 56.272ZM97.6857 56.272C97.023 56.272 96.435 56.1227 95.9217 55.824C95.4083 55.516 95.0023 55.0913 94.7037 54.55C94.4143 54.0087 94.2697 53.3693 94.2697 52.632C94.2697 51.904 94.4143 51.2693 94.7037 50.728C94.993 50.1773 95.3943 49.7527 95.9077 49.454C96.4303 49.146 97.0323 48.992 97.7137 48.992C98.3857 48.992 98.9643 49.146 99.4497 49.454C99.9443 49.7527 100.322 50.1493 100.584 50.644C100.845 51.1387 100.976 51.6707 100.976 52.24C100.976 52.3427 100.971 52.4453 100.962 52.548C100.962 52.6507 100.962 52.7673 100.962 52.898H95.4317C95.4597 53.43 95.581 53.8733 95.7957 54.228C96.0197 54.5733 96.295 54.8347 96.6217 55.012C96.9577 55.1893 97.3123 55.278 97.6857 55.278C98.171 55.278 98.577 55.166 98.9037 54.942C99.2303 54.718 99.4683 54.4147 99.6177 54.032H100.78C100.593 54.676 100.234 55.2127 99.7017 55.642C99.179 56.062 98.507 56.272 97.6857 56.272ZM97.6857 49.986C97.1257 49.986 96.6263 50.1587 96.1877 50.504C95.7583 50.84 95.511 51.3347 95.4457 51.988H99.8137C99.7857 51.3627 99.571 50.8727 99.1697 50.518C98.7683 50.1633 98.2737 49.986 97.6857 49.986ZM105.194 56.272C104.364 56.272 103.673 56.062 103.122 55.642C102.572 55.222 102.25 54.6527 102.156 53.934H103.36C103.435 54.298 103.626 54.6153 103.934 54.886C104.252 55.1473 104.676 55.278 105.208 55.278C105.703 55.278 106.067 55.1753 106.3 54.97C106.534 54.7553 106.65 54.5033 106.65 54.214C106.65 53.794 106.496 53.514 106.188 53.374C105.89 53.234 105.465 53.108 104.914 52.996C104.541 52.9213 104.168 52.814 103.794 52.674C103.421 52.534 103.108 52.338 102.856 52.086C102.604 51.8247 102.478 51.484 102.478 51.064C102.478 50.4573 102.702 49.9627 103.15 49.58C103.608 49.188 104.224 48.992 104.998 48.992C105.736 48.992 106.338 49.1787 106.804 49.552C107.28 49.916 107.556 50.4387 107.63 51.12H106.468C106.422 50.7653 106.268 50.49 106.006 50.294C105.754 50.0887 105.414 49.986 104.984 49.986C104.564 49.986 104.238 50.0747 104.004 50.252C103.78 50.4293 103.668 50.6627 103.668 50.952C103.668 51.232 103.813 51.4513 104.102 51.61C104.401 51.7687 104.802 51.904 105.306 52.016C105.736 52.1093 106.142 52.226 106.524 52.366C106.916 52.4967 107.234 52.6973 107.476 52.968C107.728 53.2293 107.854 53.612 107.854 54.116C107.864 54.7413 107.626 55.2593 107.14 55.67C106.664 56.0713 106.016 56.272 105.194 56.272Z" fill="#131313" fill-opacity="0.6"/>
<path fill-rule="evenodd" clip-rule="evenodd" d="M65.871 17.0553V30.2983C65.871 31.3016 64.7674 32.1042 63.4632 32.1042C62.0586 32.1042 60.955 31.3016 60.955 30.2983V18.3596C58.4469 17.7576 56.942 16.2527 56.0391 14.9485C55.5374 14.1459 55.2365 13.4436 54.9355 12.7413C54.7348 13.4436 54.3335 14.1459 53.8319 14.9485C52.929 16.2527 51.4241 17.7576 48.9159 18.3596V30.2983C48.9159 31.3016 47.8124 32.1042 46.4078 32.1042C45.1036 32.1042 44 31.3016 44 30.2983V17.0553C44 11.5374 48.013 7.02279 53.23 6.22018C52.4942 5.68511 51.9257 5.1166 51.5244 4.51465C50.9225 3.41107 50.9225 2.50814 51.0228 1.90619C51.3238 0.802606 52.327 0 53.3303 0C53.9322 0 54.5342 0.200648 54.9355 0.702276C55.3368 0.200648 55.9387 0 56.5407 0C57.544 0 58.5472 0.802606 58.8482 1.90619C58.9485 2.50814 59.0488 3.41107 58.3466 4.51465C57.9453 5.1166 57.3768 5.68511 56.641 6.22018C61.858 7.02279 65.871 11.5374 65.871 17.0553ZM54.9355 6.01954C57.9453 4.21367 57.8449 2.60846 57.7446 2.20716C57.544 1.60521 57.0423 1.10358 56.5407 1.10358C56.0725 1.17046 55.7046 1.438 55.4371 1.90619C55.3368 2.00651 55.1361 2.10684 54.9355 2.10684C54.7348 2.10684 54.5342 2.00651 54.4339 1.90619C54.1663 1.438 53.7985 1.17046 53.3303 1.10358C52.8287 1.10358 52.327 1.60521 52.2267 2.20716C52.026 2.60846 51.9257 4.21367 54.9355 6.01954ZM47.712 30.2983V28.0912H45.1036V30.2983C45.1036 30.5993 45.7055 31.0006 46.4078 31.0006C47.2104 31.0006 47.712 30.5993 47.712 30.2983ZM47.712 26.8873V23.4762H45.1036V26.8873H47.712ZM47.712 22.3726V18.6606C47.1101 18.7274 46.4747 18.7609 45.8059 18.7609C45.6052 18.7609 45.3711 18.7609 45.1036 18.7609V22.3726H47.712ZM54.2332 11.0358C51.2234 11.3368 48.9159 13.9453 48.9159 17.0553V17.256C50.588 16.7209 51.9257 15.7177 52.929 14.2462C53.7316 13.0423 54.1329 11.7381 54.2332 11.0358ZM54.3335 7.22344C49.2169 7.52442 45.1036 11.8384 45.1036 17.0553V17.6573C46.04 17.7242 46.9094 17.6573 47.712 17.4566V17.0553C47.712 13.243 50.7218 10.1329 54.3335 9.83191V7.22344ZM60.955 17.0553C60.955 13.9453 58.6475 11.3368 55.6378 11.0358C55.8384 11.7381 56.1394 13.0423 57.0423 14.3466C58.0456 15.7511 59.3498 16.7209 60.955 17.256V17.0553ZM64.7674 30.2983V28.0912H62.1589V30.2983C62.1589 30.5993 62.6606 31.0006 63.4632 31.0006C64.2658 31.0006 64.7674 30.5993 64.7674 30.2983ZM64.7674 23.4762H62.1589V26.8873H64.7674V23.4762ZM64.7674 18.7609C64.5667 18.7609 64.3661 18.7609 64.1654 18.7609C63.4297 18.7609 62.7609 18.7274 62.1589 18.6606V22.3726H64.7674V18.7609ZM64.7674 16.955C64.7674 11.7381 60.654 7.42409 55.5374 7.12312V9.83191C59.2495 10.0326 62.1589 13.1426 62.1589 16.955V17.4566C62.9615 17.5904 63.831 17.6239 64.7674 17.557V16.955Z" fill="#E654A0"/>
</svg>
