<svg width="240" height="182" viewBox="0 0 240 182" fill="none" xmlns="http://www.w3.org/2000/svg">
<path d="M0 174.808C0 178.695 53.5913 181.744 119.667 181.744C185.744 181.744 239.335 178.619 239.335 174.808C239.335 170.921 185.744 167.872 119.667 167.872C53.5913 167.872 0 170.997 0 174.808Z" fill="#D6B6F9"/>
<path opacity="0.82" d="M220.226 146.454C219.313 129.99 211.168 109.182 197.466 99.9592C189.016 94.243 178.205 92.2611 170.518 85.3251C163.362 78.8461 161.382 68.9377 159.098 59.9433C154.379 41.879 146.005 23.8912 131.161 12.5334C103.224 -8.6552 61.7361 -0.0422592 39.5833 25.3386C28.6979 37.7633 21.8467 53.6927 20.5526 70.1566C19.1062 89.1359 18.1928 108.192 20.172 127.17C20.781 133.42 21.999 140.357 24.2065 146.836C25.9574 152.018 28.3934 156.896 31.6669 160.936C36.6905 166.805 42.5526 169.473 46.8153 170.692C47.1202 170.769 47.5007 170.844 47.8047 170.921C50.0885 171.378 52.4488 171.607 54.8082 171.683H160.545C169.909 171.683 179.271 171.683 188.635 171.683C191.984 171.683 195.334 171.683 198.684 171.683H207.666C207.971 171.683 208.199 171.683 208.427 171.683C209.037 171.607 209.646 171.454 210.178 171.226C211.777 170.539 212.994 169.168 214.137 167.796C218.78 162.003 220.455 155.6 220.455 149.121C220.303 148.283 220.303 147.369 220.226 146.454Z" fill="#FFEEED"/>
<path opacity="0.14" d="M213.989 167.796C218.632 162.003 220.307 155.601 220.307 149.121C220.307 148.207 220.307 147.369 220.23 146.454C219.393 142.795 217.795 139.29 215.511 136.393C208.889 128.161 197.85 124.351 187.269 124.351C178.895 124.351 170.37 126.408 162.148 124.884C148.674 122.369 139.006 110.935 129.415 101.103C115.331 86.7735 98.1275 73.9684 78.1829 71.6815C52.3009 68.7092 25.8094 85.9351 21.3181 112.231C17.8163 132.887 23.8302 164.137 46.8958 170.692C47.2008 170.769 47.5812 170.845 47.8852 170.921C50.169 171.378 52.5293 171.607 54.8887 171.683H160.625C169.989 171.683 179.352 171.683 188.716 171.683C192.065 171.683 195.414 171.683 198.764 171.683H207.746C208.051 171.683 208.279 171.683 208.507 171.683C209.116 171.607 209.725 171.454 210.259 171.226C211.705 170.54 212.923 169.168 213.989 167.796Z" fill="#E27575"/>
<path d="M131.01 154.077L117.46 161.623C117.46 161.623 130.553 161.165 142.962 163.833L146.996 161.165L164.658 173.818C164.658 173.818 152.781 175.647 146.996 173.818C141.211 171.988 90.2081 177.552 88.4567 166.043C86.7064 154.533 122.332 131.134 122.332 131.134L131.01 154.077Z" fill="#EFB9A3"/>
<path d="M137.708 156.973L124.158 164.518C124.158 164.518 137.252 164.062 149.659 166.729L153.694 164.062L171.355 176.714C171.355 176.714 159.48 178.544 153.694 176.714C147.909 174.885 96.9057 180.449 95.1543 168.939C93.4039 157.43 122.407 139.442 122.407 139.442L137.708 156.973Z" fill="#F8D4C4"/>
<path d="M115.095 141.652C115.095 141.652 124.687 158.039 137.704 159.793C137.704 159.793 151.635 154 153.385 142.719C155.137 131.439 147.448 123.131 147.448 123.131L122.023 123.511L115.095 141.652Z" fill="#22439F"/>
<path d="M136.412 62.687C136.412 62.687 132.454 63.9069 127.81 63.3725L109.084 32.2745C109.084 32.2745 110.225 24.653 118.98 26.7869C127.734 28.8452 130.094 35.0948 132.073 46.2996C134.205 57.5799 136.412 62.687 136.412 62.687Z" fill="#315699"/>
<path d="M109.158 32.2746C109.158 32.2746 113.04 30.8262 114.867 33.113C114.867 33.113 119.967 32.0461 121.794 34.9429C126.438 42.4125 130.169 63.5256 130.169 63.5256L128.798 63.4491L109.158 32.2746Z" fill="#1E4072"/>
<path d="M119.819 35.2479L120.2 33.3425C120.2 33.3425 119.439 31.5892 115.557 31.1322C111.75 30.7507 111.826 31.1322 111.826 31.1322L111.064 33.113L119.819 35.2479Z" fill="#3591C4"/>
<path d="M116.852 66.1164C116.852 66.1164 116.929 66.1164 117.005 66.1929C117.309 66.4214 118.071 67.1833 118.755 69.2417C118.984 69.8506 119.136 70.5371 119.289 71.299C120.278 76.0247 120.278 76.0247 120.278 76.0247C120.278 76.0247 121.268 78.9216 124.998 78.0831C128.728 77.3212 132.914 72.7475 131.012 66.7263L123.323 47.2136L116.852 66.1164Z" fill="#F8D4C4"/>
<path d="M117.002 66.1928C117.306 66.4212 118.068 67.1842 118.753 69.2416C119.97 68.1746 124.006 64.3639 123.777 59.1047L117.002 66.1928Z" fill="#F2B098"/>
<path d="M97.9746 55.4451C98.507 57.0465 99.1925 58.5704 99.9534 59.9423C100.562 61.0857 101.324 62.1527 102.085 63.0676C103.607 64.8965 105.359 66.4214 107.262 67.4883C110.916 69.5467 114.646 68.7837 117.691 66.9548C120.431 65.278 122.639 62.6107 123.78 60.2473C123.857 60.0953 123.933 59.9423 123.933 59.8658C124.694 58.0369 125.075 54.7596 124.846 51.0244C124.314 44.3168 121.497 36.3904 114.037 34.332C102.466 31.2067 96.9852 41.421 96.9086 41.878C96.6801 43.3264 96.6047 44.6983 96.6047 46.0702C96.5282 49.3475 96.9852 52.6248 97.9746 55.4451Z" fill="#F8D4C4"/>
<path d="M114.718 33.7995C114.718 33.7995 118.524 32.4276 121.113 35.3234C123.701 38.2202 124.766 43.7844 125.299 45.8417C125.832 47.9766 127.05 56.818 127.05 56.818C127.05 56.818 123.472 55.5981 121.036 51.9404C121.036 51.9404 124.233 49.6535 122.406 46.4517C120.504 43.2509 116.469 44.8513 117.686 47.9766C117.686 47.9766 113.424 46.9097 110.303 39.5157C110.303 39.5157 108.781 41.3455 110.227 46.3762C110.227 46.3762 100.711 50.034 95.8396 53.9212C95.8396 53.9212 90.7385 40.5826 98.1224 38.8302C98.1989 38.6772 106.192 28.6159 114.718 33.7995Z" fill="#315699"/>
<path d="M137.781 67.0313C137.781 67.0313 127.124 65.5074 116.695 73.2818C116.695 73.2818 116.086 80.6749 118.445 82.7332C120.806 84.7151 125.221 85.3251 126.972 84.8671C128.723 84.3336 137.172 70.843 137.781 67.0313Z" fill="#F8D4C4"/>
<path d="M117.381 72.7485C117.381 72.7485 117.838 82.5814 124.918 81.7429C131.997 80.9045 134.889 66.8794 134.889 66.8794C134.889 66.8794 139.305 66.1175 143.263 66.8794C147.298 67.6414 152.398 72.0621 151.866 80.675C151.332 89.2879 148.668 105.752 148.211 110.859C147.755 115.966 147.45 123.207 147.45 123.207C147.45 123.207 132.986 128.39 122.025 123.588C122.025 123.588 117.914 106.895 116.087 101.408C114.259 95.9955 112.89 88.069 113.422 84.1818C113.955 80.218 114.868 73.9685 114.868 73.9685L117.381 72.7485Z" fill="#D9F0FF"/>
<path d="M112.741 125.036C96.3732 122.521 84.1177 111.621 79.246 105.676C74.3734 99.8072 74.6783 83.4197 84.5746 80.1424C92.644 77.4741 101.626 83.1148 104.214 85.1721C103.91 85.7821 105.205 86.4685 105.205 86.4685L106.726 87.9924L105.966 90.3558L106.955 91.6512L105.28 94.853L105.889 91.6512L104.062 90.2028L104.9 87.5355L103.682 86.849L103.758 85.7821L103.834 85.8586C103.834 85.7821 103.834 85.7821 103.834 85.7066C103.834 85.5536 103.834 85.3251 103.91 85.0201C104.748 81.0564 113.045 66.4224 126.899 80.9044C139.46 94.1665 112.741 125.036 112.741 125.036Z" fill="#D6B6F9"/>
<path d="M98.202 89.5173L98.1255 90.5078C98.1255 90.2793 98.1255 89.8978 98.202 89.5173Z" fill="#FD5759"/>
<path d="M73.0054 89.8979L81.6837 112.154H92.1124L83.4341 89.8979H73.0054Z" fill="#112B46"/>
<path d="M84.957 88.7554H74.3753L73.0054 89.8988H83.4341L84.957 88.7554Z" fill="#61619B"/>
<path d="M83.4321 89.8978L92.1105 112.154L93.2529 110.401L84.955 88.7544L83.4321 89.8978Z" fill="#56548C"/>
<path d="M81.6084 92.2611C81.7604 92.6416 82.2173 92.7945 82.5213 92.6416C82.8263 92.4896 82.9783 92.0326 82.7498 91.6511C82.5213 91.2696 82.1408 91.1177 81.8369 91.2696C81.5319 91.4227 81.3799 91.8796 81.6084 92.2611Z" fill="#61619B"/>
<path d="M81.7623 92.1846C81.9143 92.4896 82.2192 92.5661 82.4467 92.4896C82.6752 92.3366 82.7517 92.0316 82.5997 91.7276C82.4467 91.4226 82.1427 91.3461 81.9143 91.4226C81.6858 91.5746 81.6093 91.8796 81.7623 92.1846Z" fill="#BEE1F4"/>
<path d="M95.0063 106.82C95.0063 106.82 90.2101 99.7307 89.3727 100.341C88.5352 100.951 92.189 106.82 92.189 106.82C92.189 106.82 77.4975 102.703 76.9641 103.999C76.4316 105.295 85.11 107.277 85.11 107.277C85.11 107.277 75.7462 106.591 75.5942 107.277C75.4422 107.963 84.4245 110.021 84.4245 110.021C84.4245 110.021 75.8992 109.106 75.8227 110.021C75.7462 110.935 84.5765 112.384 84.5765 112.384C84.5765 112.384 78.639 112.612 78.5635 113.146C78.487 113.679 84.958 115.28 88.8402 114.67C92.7224 114.061 98.1275 112.994 101.933 113.222C105.74 113.451 125.228 113.908 128.958 112.917C128.958 112.917 146.313 87.917 148.369 84.2582C150.424 80.5995 154.154 74.3489 148.674 70.0812C143.193 65.8124 139.386 69.6232 135.808 76.9407C132.231 84.1817 122.867 103.084 122.867 103.084L95.0063 106.82Z" fill="#F8D4C4"/>
<path d="M67.6024 39.8215H50.7782C49.9407 39.8215 49.3318 40.507 49.3318 41.269V58.1143C49.3318 58.9528 50.0172 59.5628 50.7782 59.5628H66.0795L69.0488 62.5351V59.5628V52.6267V41.1935C69.0488 40.4305 68.4399 39.8215 67.6024 39.8215Z" fill="#D6B6F9"/>
<path d="M63.9506 46.2998C63.3417 45.6898 62.5807 45.3093 61.6668 45.3093C60.9823 45.3093 60.3734 45.5378 59.9164 45.9193C59.6114 46.1478 59.384 46.3762 59.231 46.6812C59.0025 46.3762 58.775 46.1478 58.5465 45.9193C58.0131 45.5378 57.4041 45.3093 56.7951 45.3093C55.8822 45.3093 55.1203 45.6898 54.5113 46.2998C53.9024 46.9097 53.5984 47.8246 53.5984 48.7386C53.5984 49.73 53.9789 50.5685 54.7398 51.4834C55.4253 52.3219 56.4147 53.1603 57.5561 54.1508C57.9376 54.4557 58.3935 54.8362 58.8505 55.2942C59.0025 55.3707 59.1555 55.4462 59.3075 55.4462C59.4594 55.4462 59.6114 55.3707 59.7644 55.2942C60.2204 54.9127 60.6774 54.5322 61.0578 54.1508C62.2002 53.1603 63.1897 52.3219 63.8751 51.4834C64.6361 50.5685 65.0165 49.6535 65.0165 48.7386C64.8645 47.8246 64.5596 46.9097 63.9506 46.2998Z" fill="white"/>
<path d="M143.722 6.74072H155.216C155.749 6.74072 156.206 7.19869 156.206 7.73215V19.2409C156.206 19.7743 155.749 20.2323 155.216 20.2323H144.787L142.731 22.2897V20.2323V15.5066V7.73215C142.731 7.19869 143.188 6.74072 143.722 6.74072Z" fill="#D6B6F9"/>
<path d="M146.233 11.1626C146.613 10.7046 147.223 10.4761 147.756 10.4761C148.213 10.4761 148.593 10.6291 148.974 10.9341C149.126 11.086 149.354 11.239 149.431 11.4675C149.583 11.239 149.735 11.086 149.888 10.9341C150.268 10.6291 150.649 10.4761 151.106 10.4761C151.714 10.4761 152.247 10.7046 152.627 11.1626C153.008 11.6195 153.236 12.153 153.236 12.8394C153.236 13.5249 153.008 14.1349 152.475 14.7448C152.018 15.2783 151.334 15.8882 150.572 16.5737C150.268 16.8032 150.04 17.0317 149.659 17.3367C149.583 17.4121 149.506 17.4121 149.354 17.4121C149.279 17.4121 149.126 17.3367 149.05 17.3367C148.745 17.0317 148.441 16.8032 148.136 16.5737C147.375 15.8882 146.69 15.3548 146.233 14.7448C145.7 14.1349 145.472 13.5249 145.472 12.8394C145.624 12.153 145.852 11.6195 146.233 11.1626Z" fill="white"/>
<path d="M163.291 66.7273H185.291C186.357 66.7273 187.194 67.5658 187.194 68.6327V90.6598C187.194 91.7277 186.357 92.5661 185.291 92.5661H165.271L161.388 96.4534V92.5661V83.5717V68.6327C161.388 67.5658 162.301 66.7273 163.291 66.7273Z" fill="#D6B6F9"/>
<path d="M168.086 75.1883C168.847 74.3498 169.913 73.8918 171.054 73.8918C171.891 73.8918 172.729 74.1968 173.414 74.7303C173.795 75.0353 174.099 75.3403 174.327 75.7217C174.632 75.3403 174.936 75.0353 175.241 74.7303C175.926 74.1968 176.688 73.8918 177.601 73.8918C178.743 73.8918 179.809 74.3498 180.57 75.1883C181.331 76.0267 181.711 77.1691 181.711 78.3891C181.711 79.609 181.254 80.8279 180.265 82.0478C179.352 83.1147 178.058 84.2582 176.611 85.4781C176.079 85.9351 175.545 86.392 174.936 86.9255C174.784 87.0785 174.556 87.155 174.327 87.155C174.099 87.155 173.947 87.0785 173.718 86.9255C173.109 86.392 172.5 85.9351 172.043 85.4781C170.522 84.1817 169.227 83.1147 168.39 82.0478C167.4 80.8279 166.943 79.6845 166.943 78.3891C166.943 77.1691 167.324 76.0267 168.086 75.1883Z" fill="white"/>
</svg>
