<svg width="220" height="182" viewBox="0 0 220 182" fill="none" xmlns="http://www.w3.org/2000/svg">
<path d="M0 174.922C0 178.481 49.1437 181.328 109.683 181.328C170.222 181.328 219.365 178.481 219.365 174.922C219.365 171.364 170.222 168.517 109.683 168.517C49.1437 168.517 0 171.443 0 174.922Z" fill="#D6B6F9"/>
<path d="M120.162 140.172C120.162 141.951 132.187 143.374 147.001 143.374C161.814 143.374 173.84 141.951 173.84 140.172C173.84 138.392 161.814 136.969 147.001 136.969C132.187 136.969 120.162 138.432 120.162 140.172Z" fill="#FEA085"/>
<path opacity="0.2" d="M213.266 150.443C212.316 133.442 203.927 112.091 189.763 102.602C180.978 96.7506 169.899 94.6941 161.985 87.4982C154.626 80.8562 152.568 70.655 150.194 61.4026C145.367 42.8195 136.662 24.3158 121.388 12.6128C92.6623 -9.05511 49.9286 -0.19776 27.0585 25.8969C15.9 38.7074 8.77778 55.0773 7.5116 72.0783C6.00801 91.6103 5.05844 111.222 7.11598 130.754C7.74902 137.238 9.0152 144.276 11.3101 150.918C13.1303 156.216 15.5835 161.277 18.9863 165.468C24.2089 171.478 30.2237 174.245 34.576 175.432C34.8926 175.511 35.2886 175.59 35.6052 175.67C37.9794 176.144 40.3535 176.381 42.8061 176.46H151.777C161.431 176.46 171.086 176.46 180.74 176.46C184.222 176.46 187.626 176.46 191.107 176.46H200.367C200.682 176.46 200.921 176.46 201.158 176.46C201.791 176.381 202.424 176.222 202.899 175.985C204.56 175.274 205.827 173.85 206.934 172.506C211.762 166.575 213.503 160.012 213.424 153.29C213.344 152.341 213.344 151.392 213.266 150.443Z" fill="#DBB6C0"/>
<path opacity="0.2" d="M206.366 172.506C211.194 166.576 212.935 160.012 212.856 153.291C212.856 152.342 212.856 151.472 212.777 150.523C211.985 146.727 210.324 143.169 207.87 140.164C201.064 131.623 189.669 127.749 178.748 127.749C170.044 127.749 161.339 129.884 152.792 128.302C138.864 125.693 128.893 113.99 119 103.868C104.519 89.0802 86.7923 75.953 66.217 73.6603C41.2893 70.8137 15.0158 86.2337 8.36837 110.984C7.49793 114.068 7.02309 117.231 6.70658 120.474C6.07344 128.302 7.02309 136.21 8.76411 143.881C10.7425 152.421 13.9079 161.041 20.0014 167.288C31.5555 179.07 49.2028 176.539 64.3172 176.539C81.3323 176.539 98.4248 176.539 115.44 176.539C126.993 176.539 138.547 176.539 150.18 176.539C150.496 176.539 150.813 176.539 151.13 176.539C160.784 176.539 170.44 176.539 180.094 176.539C183.576 176.539 186.978 176.539 190.461 176.539H199.719C200.036 176.539 200.273 176.539 200.51 176.539C201.144 176.461 201.777 176.302 202.251 176.065C203.993 175.275 205.259 173.85 206.366 172.506Z" fill="#D6B6F9"/>
<g opacity="0.64">
<path opacity="0.64" d="M110.635 162.642L109.683 162.721L109.762 163.515L110.715 163.436C112.144 163.277 113.574 163.118 115.003 162.96L114.923 162.166C113.494 162.245 112.065 162.483 110.635 162.642Z" fill="#E654A0"/>
<path opacity="0.64" d="M99.2109 164.07L99.2903 164.864C101.037 164.626 102.784 164.388 104.531 164.15L104.452 163.356C102.705 163.594 100.958 163.832 99.2109 164.07Z" fill="#E654A0"/>
<path opacity="0.64" d="M120.163 161.531L120.242 162.324C121.989 162.167 123.735 162.008 125.482 161.849L125.402 161.055C123.655 161.214 121.91 161.373 120.163 161.531Z" fill="#E654A0"/>
<path opacity="0.64" d="M88.7202 165.579L88.879 166.373C90.7044 166.055 92.5307 165.817 94.1189 165.579L93.96 164.785C92.4513 165.023 90.6249 165.261 88.7202 165.579Z" fill="#E654A0"/>
<path opacity="0.64" d="M130.642 160.657L130.721 161.45C132.467 161.291 134.214 161.213 135.961 161.054L135.882 160.26C134.214 160.339 132.388 160.498 130.642 160.657Z" fill="#E654A0"/>
<path opacity="0.64" d="M78.3975 167.723L78.6357 168.517C80.2238 168.12 81.8914 167.723 83.7177 167.326L83.5589 166.532C81.6531 166.929 79.9856 167.326 78.3975 167.723Z" fill="#E654A0"/>
<path opacity="0.64" d="M70.6188 170.423C69.7453 170.82 69.0306 171.217 68.5542 171.614L69.11 172.249C69.5865 171.852 70.2217 171.534 71.0158 171.137C71.8893 170.74 72.7628 170.423 73.7156 170.026L73.398 169.311C72.4451 169.708 71.4923 170.026 70.6188 170.423Z" fill="#E654A0"/>
<path opacity="0.64" d="M176.061 144.856C174.631 144.141 173.043 143.585 171.058 143.03L170.82 143.744C172.726 144.3 174.314 144.856 175.664 145.571L176.061 144.856Z" fill="#E654A0"/>
<path opacity="0.64" d="M172.807 158.275L172.966 159.069C174.951 158.672 176.618 157.957 177.968 157.083L177.491 156.448C176.221 157.242 174.633 157.798 172.807 158.275Z" fill="#E654A0"/>
<path opacity="0.64" d="M163.673 158.989C163.197 158.989 162.8 158.989 162.323 158.989V159.783C162.72 159.783 163.197 159.783 163.673 159.783C164.944 159.783 166.294 159.704 167.643 159.704L167.564 158.91C166.294 158.91 164.944 158.989 163.673 158.989Z" fill="#E654A0"/>
<path opacity="0.64" d="M141.207 159.863L141.286 160.657C143.033 160.577 144.78 160.419 146.527 160.339L146.448 159.545C144.701 159.704 142.954 159.783 141.207 159.863Z" fill="#E654A0"/>
<path opacity="0.64" d="M180.345 147.953L179.709 148.429C180.504 149.382 180.901 150.335 180.901 151.367C180.901 151.844 180.821 152.32 180.662 152.797L181.456 153.035C181.695 152.479 181.774 151.923 181.774 151.367C181.695 150.176 181.218 149.065 180.345 147.953Z" fill="#E654A0"/>
<path opacity="0.64" d="M151.761 159.386V160.18C153.508 160.101 155.255 160.022 157.002 159.942V159.148C155.255 159.228 153.508 159.307 151.761 159.386Z" fill="#E654A0"/>
</g>
<path d="M56.0078 41.4003C55.2147 43.0678 54.2619 44.6559 53.0707 46.0048C53.4678 42.8296 53.4678 39.5739 52.9119 36.3976C52.9119 36.1594 52.8325 35.8418 52.9913 35.684C53.1502 35.5252 53.3884 35.4458 53.6266 35.4458C57.7547 34.9693 57.3577 38.4622 56.0078 41.4003Z" fill="#6A1E0C"/>
<path d="M46.639 49.1018C46.3223 48.943 46.0047 48.7047 45.7665 48.5459C42.1138 45.6079 37.0318 31.5539 47.7506 29.6492C57.5166 27.9816 55.6119 40.9239 53.1503 46.0843C52.6738 47.0372 52.0386 48.1489 51.0857 48.8636C50.8475 49.0224 51.9592 51.88 51.8798 52.3564C51.6416 53.3887 50.5299 54.1034 49.577 54.024C48.7035 53.9446 47.5918 53.1505 47.1154 52.4358C46.7978 51.9594 46.9566 49.2606 46.639 49.1018Z" fill="#FED8BA"/>
<path d="M45.056 45.0508C44.3413 45.8449 42.912 45.4478 42.0385 44.892C38.227 42.4304 36.4006 37.27 37.7506 32.9026C38.8622 29.2509 43.8649 27.0275 44.3413 31.7115C44.5001 33.3791 43.2296 35.523 43.309 37.3494C43.309 39.9698 44.2619 42.5892 45.056 45.0508Z" fill="#6A1E0C"/>
<path d="M57.833 26.1552C62.2004 29.3305 63.5503 35.3654 67.3608 39.0964C63.3121 40.367 58.7065 39.8905 54.9744 37.7476C51.3227 35.683 42.2713 33.539 44.1771 28.3776C46.0818 23.1377 54.0225 23.2966 57.833 26.1552Z" fill="#6A1E0C"/>
<path d="M53.4657 170.9L52.6716 171.852L52.354 172.884L54.7362 176.458L56.9586 177.331L59.4996 177.093C59.4996 177.093 60.6113 176.696 59.8966 175.822C59.2614 174.949 57.5144 174.552 57.5144 174.552L57.7527 171.693L53.4657 170.9Z" fill="#0F2E50"/>
<path d="M44.101 171.058L43.7834 172.805L41.957 175.902L42.7511 176.855L45.6891 176.616L47.5155 174.075V168.994L44.1804 169.312L44.101 171.058Z" fill="#0F2E50"/>
<path d="M40.1307 100.631L38.3838 110.239L43.307 171.693L48.4674 170.661L57.1227 102.696L40.1307 100.631Z" fill="#6262A5"/>
<path d="M67.2101 99.3621L68.2424 138.982L58.1588 173.202L52.2837 170.98L57.2853 140.491L52.6807 99.0444L67.2101 99.3621Z" fill="#6262A5"/>
<path d="M37.1173 59.5822C36.1644 61.6468 36.0056 63.8692 35.688 66.3308C35.1322 70.6187 34.8939 74.9057 34.8145 79.1936C34.7351 84.1952 34.9733 89.1979 35.3704 94.12C35.5292 96.5816 35.8468 99.1227 36.085 101.584C36.2438 102.855 35.688 106.189 37.0379 106.824C37.832 107.221 38.7055 107.142 39.5789 107.062C47.2803 106.268 54.9818 105.474 62.6832 104.601C63.9537 104.442 65.2242 104.362 66.2565 103.728C68.1623 102.696 67.8446 100.552 68.1623 98.805C68.5593 96.5022 68.6387 94.12 68.6387 91.7388C68.5593 86.8951 67.7652 82.1317 67.4476 77.3673C67.0506 72.2068 66.2565 65.2985 64.2714 60.3763C63.3979 58.3117 62.1274 56.406 60.4608 54.8178C58.3169 52.8336 56.4111 52.3572 53.5525 51.8014C53.3937 51.8014 53.3142 51.722 53.2348 51.6426C53.1554 51.5631 53.076 51.4043 53.076 51.3249C52.9172 50.7691 52.679 50.2132 52.5202 49.6574C52.4408 49.4192 52.3614 49.181 52.1231 49.1015C51.9643 49.0221 51.6477 49.0221 51.4889 49.1015C49.5831 49.4986 47.6774 49.975 45.7716 50.3721C45.8511 50.7691 46.0098 51.2455 45.9304 51.722C45.8511 52.1984 45.6128 52.5954 45.1364 52.7542C43.1512 53.4679 41.1671 54.9766 39.5789 56.406C38.3878 57.4382 37.6732 58.4705 37.1173 59.5822Z" fill="#EF7891"/>
<path d="M77.6075 50.9281C66.0946 48.3077 54.661 55.6915 52.0406 67.4427C49.4202 79.1144 63.2359 114.685 63.2359 114.685C63.2359 114.685 91.0252 88.4833 93.6456 76.8116C96.266 65.1399 89.1194 53.5475 77.6075 50.9281ZM82.8473 73.3971C81.5768 78.8762 76.2576 82.3701 70.8579 81.179C65.4593 79.9879 62.1242 74.5088 63.3153 69.0308C64.5859 63.5517 69.905 60.0588 75.3047 61.2499C80.7034 62.44 84.0384 67.9191 82.8473 73.3971Z" fill="#E654A0"/>
<path opacity="0.64" d="M60.1357 105.475C61.8827 110.953 63.2326 114.685 63.2326 114.685C63.2326 114.685 91.0219 88.4832 93.6423 76.8124C93.8011 76.1772 93.8805 75.6213 93.9599 74.9861C92.3718 78.0819 90.5454 80.9406 88.4015 83.6404C82.6058 91.1036 75.5396 95.1533 67.8372 100.473C65.3766 102.299 62.8356 103.966 60.1357 105.475Z" fill="#E654A0"/>
<path d="M45.7624 61.0107L40.998 74.4295L38.2188 72.9207L45.0477 60.6931L45.7624 61.0107Z" fill="#CE5270"/>
<path d="M56.4098 89.2764C57.2029 89.7528 57.9969 90.1499 58.8704 90.6263C59.1086 90.7057 59.2675 90.8645 59.5057 90.8645C59.7439 90.8645 60.0615 90.8645 60.2997 90.7851C60.6968 90.7057 61.0938 90.6263 61.4908 90.4675C61.729 90.3881 61.9673 90.3087 62.2055 90.2293C62.7614 89.9116 62.9996 89.197 63.1584 88.6411C63.1584 88.4823 63.2378 88.4029 63.2378 88.2441C63.1584 88.0059 62.9996 87.9275 62.7614 87.8481C62.0467 87.7687 61.8085 87.8481 61.1732 87.5305C60.6174 87.2128 59.9821 86.8952 59.5057 86.4982C59.7439 86.3393 60.0615 86.2599 60.2997 86.1805C60.538 86.1011 60.8556 86.0217 60.935 85.7835C61.0144 85.4659 60.6968 85.1483 60.3792 85.0689C59.7439 84.91 59.0293 84.9894 58.3146 84.9894C57.2823 84.9894 55.6158 84.2748 54.9011 85.1483C54.5041 85.7041 54.2659 86.4982 53.9482 87.1334C54.5041 87.6098 55.1393 88.1647 55.6952 88.6411C55.854 88.8794 56.1716 89.1176 56.4098 89.2764Z" fill="#FED8BA"/>
<path d="M35.4457 60.8518C36.0809 59.9783 36.7162 59.1049 37.3504 58.2314C38.7798 56.3266 40.7649 53.7062 43.3059 54.2621C46.244 54.8973 46.5616 57.755 45.9264 60.1371C45.1323 62.7576 39.6532 70.1414 38.8592 72.7618C38.8592 72.7618 49.6575 79.9868 56.1688 84.3541C55.6923 85.2276 55.3747 87.0529 54.4218 87.5294C52.1985 88.7205 44.6559 84.7512 42.5913 83.8777C37.6681 81.8131 33.0635 78.9545 28.9343 75.6204C28.6167 75.3822 28.2197 75.0646 28.1403 74.5881C27.9815 74.1117 28.2197 73.5559 28.4579 73.0794C30.3637 68.8709 32.7459 64.7427 35.4457 60.8518Z" fill="#F98AA4"/>
<path d="M84.9933 97.2964C84.358 97.7728 83.564 98.0111 82.8494 97.6934C82.2935 97.4552 81.9758 96.8994 81.7377 96.4229C81.3406 95.5494 81.023 94.676 80.7848 93.7231C80.2289 91.4203 82.2141 88.9597 84.5169 90.5478C86.6608 91.8967 86.9785 95.7083 84.9933 97.2964Z" fill="#F98AA4"/>
<path d="M78.9562 97.3758C78.4003 97.217 77.6856 96.8199 77.4474 96.1847C77.2092 95.5505 77.368 94.5976 77.6062 93.8829C77.8444 93.1683 78.5591 93.3271 79.115 93.4859C79.5914 93.6447 80.1463 93.8035 80.6227 93.7241C80.6227 93.0094 79.8296 92.8506 79.7502 92.2154C79.7502 91.8978 79.7502 91.6596 79.909 91.4213C79.909 91.3419 79.9884 91.2625 80.0678 91.1831C80.1463 91.1831 80.1463 91.1831 80.2256 91.2625C81.4168 91.8978 82.6873 91.6596 83.7989 92.6918C84.99 93.7241 84.99 95.2328 83.8784 96.3435C82.6873 97.5346 80.7021 97.8522 79.1944 97.4552C79.115 97.4552 79.0355 97.3758 78.9562 97.3758Z" fill="#FED8BA"/>
<path d="M158.591 59.0254C157.162 56.9618 156.209 55.9296 154.144 55.1355C153.429 54.8973 152.636 54.7385 151.683 54.6591C149.698 55.2943 148.348 55.2943 146.443 54.6591C145.41 54.8179 144.616 54.1032 139.456 57.2001C137.312 58.4696 135.883 59.343 133.421 60.6929C132.707 61.0106 132.231 61.1694 132.152 61.1694C131.675 60.8518 126.672 51.6416 126.672 51.6416C126.672 51.6416 125.561 48.4653 125.084 48.4653C124.608 48.4653 121.274 48.6242 121.194 49.1006C121.115 49.6564 121.353 51.9592 121.75 52.1975C122.147 52.5151 123.417 53.3885 123.417 53.3885C123.417 53.3885 128.975 67.8385 131.04 67.6013C132.549 67.4425 138.344 65.0603 141.362 63.7104L141.997 63.4722L142.394 71.8089L142.235 82.3689L155.415 81.6543L155.176 70.7766C155.256 68.0768 155.176 67.2043 155.494 64.9809L159.464 66.4896L160.179 62.0429C159.941 61.3282 159.067 59.6606 158.591 59.0254Z" fill="#FCC7B5"/>
<path d="M122.704 44.8921C121.751 42.6687 118.019 43.0658 117.701 45.448C117.225 48.7831 123.657 51.4035 123.657 51.4035V51.1653C123.736 51.1653 123.419 46.6391 122.704 44.8921ZM121.751 46.7979C121.434 47.5126 120.64 47.8302 119.925 47.5126C119.21 47.1949 118.893 46.4009 119.21 45.6862C119.528 44.9716 120.322 44.6539 121.037 44.9716C121.672 45.3686 121.989 46.1626 121.751 46.7979Z" fill="#E654A0"/>
<path d="M122.309 50.7671C122.309 50.7671 122.548 50.8465 122.786 51.0847C122.945 51.1641 123.103 51.3229 123.342 51.4818C123.421 51.5611 123.5 51.6406 123.659 51.72C123.739 51.7994 123.897 51.9582 123.897 52.117C123.897 52.2758 123.818 52.4346 123.659 52.4346C123.5 52.514 123.421 52.514 123.262 52.4346C123.024 52.3552 122.865 52.2758 122.706 52.1964C122.389 52.0376 122.151 51.8788 122.071 51.8788C122.071 51.9582 122.071 51.9582 122.071 51.9582C122.071 51.9582 122.071 51.9582 121.992 51.8788V51.7994H122.071C122.151 51.7994 122.389 51.9582 122.706 52.0376C122.865 52.117 123.024 52.1964 123.183 52.2758C123.342 52.3552 123.58 52.2758 123.58 52.0376C123.58 51.7994 123.262 51.6406 123.103 51.5611C122.945 51.4023 122.786 51.3229 122.627 51.1641C122.468 50.9259 122.23 50.7671 122.309 50.7671Z" fill="#D78776"/>
<path d="M122.789 49.9731C122.789 49.9731 123.027 50.0526 123.345 50.2114C123.503 50.2908 123.742 50.4496 123.901 50.6084C123.98 50.6878 124.059 50.8466 124.139 50.926C124.218 51.0849 124.298 51.2437 124.218 51.4025C124.218 51.4819 124.139 51.5613 124.059 51.5613C123.98 51.5613 123.901 51.5613 123.821 51.5613C123.662 51.5613 123.583 51.4819 123.424 51.4819C123.186 51.4025 123.027 51.2437 122.868 51.1643C122.551 50.926 122.471 50.6878 122.471 50.6878C122.471 50.6878 122.63 50.8466 122.948 51.0849C123.106 51.1643 123.265 51.3231 123.503 51.4025C123.583 51.4819 123.742 51.4819 123.821 51.4819C123.98 51.4819 124.059 51.4819 124.059 51.3231C124.059 51.2437 124.059 51.0849 123.98 51.0054C123.901 50.926 123.821 50.7672 123.742 50.6878C123.583 50.529 123.424 50.3702 123.265 50.2908C123.027 50.132 122.789 50.0526 122.789 49.9731Z" fill="#D78776"/>
<path d="M125.085 48.6262C124.211 48.8644 123.338 49.1026 122.464 49.4203C122.385 49.4203 122.226 49.4997 122.147 49.5791C122.067 49.7379 122.226 49.9761 122.385 50.0555C122.782 50.2938 123.258 50.3732 123.655 50.2938C124.132 50.2938 124.529 50.135 124.926 49.9761" fill="#FCC7B5"/>
<path d="M124.999 50.0546C124.999 50.0546 124.92 50.134 124.761 50.134C124.602 50.2134 124.364 50.2928 124.126 50.2928C123.808 50.3722 123.49 50.3722 123.093 50.3722C122.935 50.3722 122.697 50.2928 122.539 50.2134C122.459 50.134 122.3 50.134 122.3 49.9752C122.221 49.8958 122.142 49.737 122.142 49.5782C122.142 49.4194 122.3 49.34 122.38 49.2605C122.459 49.1811 122.618 49.1811 122.697 49.1811C122.855 49.1017 123.093 49.1017 123.252 49.0223C123.57 48.9429 123.967 48.8635 124.205 48.7841C124.761 48.6253 125.079 48.5459 125.079 48.5459C125.079 48.5459 124.761 48.7047 124.205 48.8635C123.888 48.9429 123.57 49.0223 123.252 49.1811C123.093 49.2605 122.855 49.2605 122.697 49.34C122.539 49.4194 122.221 49.4194 122.221 49.5782C122.221 49.6576 122.221 49.737 122.3 49.8164C122.38 49.8958 122.459 49.9752 122.539 49.9752C122.697 50.0546 122.935 50.134 123.093 50.134C123.49 50.2134 123.808 50.134 124.046 50.134C124.602 50.134 124.999 49.9752 124.999 50.0546Z" fill="#D78776"/>
<path d="M160.185 98.4876C162.408 98.6464 164.631 97.4553 165.663 95.4701C166.695 93.5654 166.616 91.0244 165.346 89.2774C164.551 88.0863 163.282 87.2922 162.091 86.4982C160.662 85.5453 159.232 84.5934 157.882 83.72L159.153 94.7565L160.185 98.4876Z" fill="#E7515B"/>
<path d="M166.216 91.1831C166.216 91.1831 166.137 91.3419 165.978 91.5008C165.819 91.6596 165.501 91.8184 165.104 91.8978C164.31 92.0566 163.12 91.8978 161.929 91.3419C160.817 90.7067 160.023 89.9126 159.388 89.3568C159.07 89.0392 158.912 88.8009 158.753 88.6421C158.594 88.4833 158.515 88.4039 158.515 88.3245C158.515 88.3245 158.594 88.4039 158.753 88.5627C158.912 88.7215 159.15 88.9597 159.467 89.2774C160.023 89.8332 160.897 90.6273 162.009 91.2625C163.12 91.8184 164.231 92.0566 165.025 91.8978C165.422 91.8184 165.74 91.6596 165.898 91.5008C166.137 91.2625 166.216 91.1831 166.216 91.1831Z" fill="#263238"/>
<path d="M155.339 71.3334L155.656 65.0613C155.656 65.0613 153.512 63.2349 154.227 55.1365L153.195 54.8188C153.195 54.8188 152.559 64.9819 147.399 64.5848C142.238 64.1084 144.064 54.9776 144.064 54.9776C143.508 54.9776 142.952 55.2159 142.555 55.6129C142.555 55.6129 142.317 58.947 142.238 61.8056C141.683 62.8379 141.365 63.9496 141.444 65.0613C141.524 65.9348 141.842 66.8082 142.396 67.4425C142.555 69.3482 142.635 71.8892 142.635 71.8892L140.65 77.1301L140.968 78.9554L155.736 78.7966L156.133 76.8124L155.339 71.3334Z" fill="#3BDADE"/>
<path d="M153.112 64.2673C153.112 64.2673 153.033 64.5849 152.795 64.9026C152.636 65.2202 152.397 65.4585 152.397 65.4585C152.397 65.4585 152.477 65.1408 152.715 64.8232C152.874 64.5055 153.033 64.2673 153.112 64.2673Z" fill="white"/>
<path d="M153.749 69.507C153.749 69.507 153.432 69.2688 153.114 68.9512C152.796 68.6335 152.558 68.3159 152.558 68.3159C152.558 68.3159 152.876 68.5541 153.193 68.8717C153.511 69.1894 153.749 69.507 153.749 69.507Z" fill="white"/>
<path d="M145.177 65.6171C145.177 65.6171 144.86 65.9348 144.462 66.173C144.065 66.4112 143.669 66.6494 143.669 66.57C143.669 66.57 143.987 66.2524 144.383 66.0141C144.78 65.7759 145.177 65.5377 145.177 65.6171Z" fill="white"/>
<path d="M142.873 65.2203C142.873 65.2203 142.556 65.1409 142.238 64.9026C141.921 64.6644 141.604 64.5056 141.683 64.5056C141.683 64.5056 142 64.585 142.317 64.8232C142.635 64.9821 142.873 65.1409 142.873 65.2203Z" fill="white"/>
<path d="M142.869 58.8687C142.949 58.8687 142.949 59.2646 142.949 59.7411C142.949 60.2175 142.869 60.6146 142.869 60.5352C142.869 60.4557 142.79 60.1381 142.79 59.6617C142.79 59.2646 142.869 58.8687 142.869 58.8687Z" fill="white"/>
<path d="M153.588 59.9805C153.588 59.9805 153.588 60.2187 153.429 60.5363C153.271 60.7745 153.191 61.0127 153.112 61.0127C153.112 61.0127 153.112 60.7745 153.271 60.4569C153.429 60.1393 153.588 59.9805 153.588 59.9805Z" fill="white"/>
<path d="M148.195 68.2366C148.116 68.2366 148.036 67.919 148.036 67.6014C147.957 67.2043 147.957 66.8867 148.036 66.8867C148.116 66.8867 148.195 67.2043 148.195 67.522C148.274 67.919 148.274 68.2366 148.195 68.2366Z" fill="white"/>
<path d="M151.6 64.1084C151.6 64.1084 151.442 64.2672 151.283 64.3466C151.124 64.426 150.886 64.5054 150.886 64.426C150.886 64.426 151.045 64.2672 151.203 64.1878C151.362 64.1084 151.6 64.1084 151.6 64.1084Z" fill="white"/>
<path d="M155.181 66.4906C155.181 66.57 155.023 66.6494 154.864 66.6494C154.626 66.7289 154.467 66.7289 154.467 66.7289C154.467 66.6494 154.626 66.57 154.784 66.57C155.023 66.4112 155.181 66.4112 155.181 66.4906Z" fill="white"/>
<path d="M144.223 64.0291C144.223 64.0291 143.985 63.8703 143.826 63.5527C143.667 63.2351 143.509 62.9968 143.588 62.9968C143.588 62.9968 143.826 63.1556 143.985 63.4733C144.144 63.7909 144.223 64.0291 144.223 64.0291Z" fill="white"/>
<path d="M144.459 68.5543C144.379 68.5543 144.379 68.4749 144.22 68.3954C144.141 68.3161 144.062 68.2366 144.062 68.1572C144.062 68.1572 144.22 68.1572 144.3 68.3161C144.459 68.3954 144.459 68.5543 144.459 68.5543Z" fill="white"/>
<path d="M142.556 75.7793C142.476 75.7793 142.556 75.4616 142.635 75.144C142.715 74.8274 142.794 74.5098 142.873 74.5098C142.953 74.5098 142.873 74.8274 142.794 75.144C142.715 75.5411 142.556 75.7793 142.556 75.7793Z" fill="white"/>
<path d="M145.729 75.938C145.729 75.938 145.491 75.7792 145.173 75.4626C144.935 75.2243 144.776 74.9067 144.776 74.9067C144.776 74.9067 145.015 75.0656 145.332 75.3832C145.57 75.6214 145.729 75.8586 145.729 75.938Z" fill="white"/>
<path d="M144.302 77.6057C144.302 77.6851 144.064 77.6057 143.746 77.4469C143.429 77.3675 143.19 77.2086 143.19 77.2086C143.19 77.1292 143.429 77.2086 143.746 77.3675C144.064 77.4469 144.302 77.5263 144.302 77.6057Z" fill="white"/>
<path d="M148.423 75.4625C148.423 75.4625 148.343 75.7802 148.185 76.0978C148.026 76.4154 147.867 76.6536 147.788 76.6536C147.788 76.6536 147.867 76.336 148.026 76.0184C148.185 75.7008 148.343 75.3831 148.423 75.4625Z" fill="white"/>
<path d="M152.005 76.2566C152.005 76.2566 151.846 76.6536 151.37 76.9712C150.894 77.2889 150.498 77.3683 150.498 77.2889C150.498 77.2095 150.894 77.1301 151.291 76.8124C151.688 76.5742 151.926 76.2566 152.005 76.2566Z" fill="white"/>
<path d="M154.865 77.2095C154.865 77.2095 154.389 76.9713 153.912 76.5743C153.436 76.1772 153.039 75.8596 153.118 75.8596C153.118 75.8596 153.595 76.0978 154.071 76.4948C154.547 76.8919 154.944 77.2095 154.865 77.2095Z" fill="white"/>
<path d="M150.341 72.207C150.341 72.207 150.023 72.5247 149.626 72.9217C149.229 73.2393 148.832 73.5569 148.832 73.4775C148.832 73.4775 149.15 73.1599 149.547 72.7628C149.944 72.4453 150.261 72.207 150.341 72.207Z" fill="white"/>
<path d="M145.889 72.3657C145.889 72.3657 145.571 72.1275 145.254 71.8099C144.936 71.4923 144.698 71.1746 144.698 71.0952C144.698 71.0952 145.015 71.3334 145.333 71.6511C145.73 72.0481 145.968 72.3657 145.889 72.3657Z" fill="white"/>
<path d="M150.098 70.3021C150.098 70.3815 149.781 70.461 149.304 70.6198C148.828 70.7786 148.51 70.7786 148.51 70.7786C148.51 70.6992 148.828 70.6198 149.304 70.461C149.701 70.3021 150.098 70.2227 150.098 70.3021Z" fill="white"/>
<path d="M153.988 72.9999C153.988 72.9999 153.75 72.6823 153.512 72.2862C153.274 71.8892 153.194 71.4922 153.194 71.4922C153.194 71.4922 153.433 71.8098 153.671 72.2068C153.83 72.6039 153.988 72.9999 153.988 72.9999Z" fill="white"/>
<path d="M143.11 71.4138C143.189 71.4138 143.189 71.8109 143.11 72.2079C143.031 72.6843 143.031 73.002 142.951 73.002C142.872 73.002 142.872 72.6049 142.951 72.2079C142.951 71.7314 143.031 71.4138 143.11 71.4138Z" fill="white"/>
<path d="M143.581 48.7036C142.867 48.7831 142.073 48.7831 141.358 48.6242C140.643 48.386 139.929 47.9096 139.69 47.1959C139.373 46.4813 139.611 45.6078 140.246 45.2108C140.564 45.052 140.961 44.8931 141.12 44.5755C141.279 44.1785 141.04 43.7814 140.802 43.4638C140.326 42.5109 140.564 41.2404 141.358 40.5258C142.152 39.8111 143.422 39.6523 144.296 40.2082C144.455 38.5406 145.963 37.1123 147.63 37.1123C149.298 37.1123 150.886 38.4612 151.045 40.1288C151.124 40.6052 151.045 41.161 151.283 41.5581C151.6 42.0345 152.156 42.2727 152.553 42.6698C153.347 43.4638 153.188 44.7343 152.871 45.7666C152.553 46.7989 151.997 47.8302 151.997 48.8625" fill="#263238"/>
<path d="M146.44 54.7386C146.361 53.6269 146.281 52.674 146.281 52.674C146.281 52.674 144.058 52.5152 143.899 50.2918C143.74 48.0685 143.74 42.9874 143.74 42.9874L147.71 40.9229L151.759 44.1785L151.839 54.5004C151.839 55.9297 150.727 57.1198 149.377 57.1992C147.868 57.358 146.519 56.2463 146.44 54.7386Z" fill="#FCC7B5"/>
<path d="M146.28 52.6739C146.28 52.6739 147.789 52.6739 149.218 51.6416C149.218 51.6416 148.583 53.3091 146.36 53.2297L146.28 52.6739Z" fill="#D78776"/>
<path d="M142.708 43.6227C143.421 44.2579 144.453 44.3373 145.406 44.0197C146.28 43.7021 146.994 42.9874 147.55 42.2728C148.344 43.0669 149.456 43.3845 150.488 43.1462C150.647 45.1314 150.965 46.4019 151.759 48.3871C151.759 48.3871 151.6 49.2606 151.838 49.1811C152.076 47.7518 152.315 46.3225 152.632 44.8932C152.712 44.4168 152.791 43.8609 152.632 43.3845C152.394 42.908 151.918 42.5904 151.441 42.2728C150.885 41.8758 150.409 41.3993 149.853 41.0023C149.297 40.6052 148.662 40.2876 147.947 40.2082C147.233 40.1288 146.597 40.367 145.883 40.6052C145.168 40.8435 144.374 41.1611 143.739 41.6375C143.104 42.114 142.706 42.908 142.865 43.7021" fill="#263238"/>
<path d="M151.754 46.3214C151.991 46.242 152.229 46.1626 152.468 46.1626C152.706 46.1626 152.944 46.242 153.103 46.4802C153.182 46.639 153.182 46.7979 153.182 47.0361C153.103 47.3537 152.944 47.5919 152.626 47.6713C152.388 47.8302 152.071 47.8302 151.754 47.6713" fill="#E4BAAB"/>
<path d="M140.727 80.8602L136.916 138.503C136.599 138.583 133.025 139.218 133.105 139.774C133.184 140.33 142.315 140.012 142.315 140.012L147.635 89.9116L155.972 80.0662L140.727 80.8602Z" fill="#E4BAAB"/>
<path d="M160.263 136.518H160.183L157.722 116.351L155.34 81.0984L148.432 87.6087C148.273 87.9263 150.576 116.033 151.053 118.018C151.528 119.845 154.466 135.883 154.784 137.789C154.387 138.027 151.291 139.536 151.528 140.012C151.766 140.488 160.422 137.709 160.422 137.709L160.263 136.518Z" fill="#E4BAAB"/>
<path d="M155.735 77.6841L140.967 77.8429L136.283 97.772C136.283 97.772 135.092 102.616 140.887 102.854C146.684 103.092 149.384 100.551 154.147 102.457C157.244 103.648 161.769 101.425 161.61 100.869C158.991 94.7555 159.07 85.9414 155.735 77.6841Z" fill="#B1D4E8"/>
<path d="M160.253 102.298C160.253 102.298 160.253 102.219 160.174 102.06C160.174 101.901 160.095 101.663 160.015 101.345C159.856 100.71 159.539 99.8364 159.062 98.8041C158.586 97.7719 158.03 96.5808 157.554 95.073C157.078 93.6437 156.919 91.9762 156.761 90.2292C156.681 88.4823 156.681 86.8148 156.522 85.3865C156.443 83.8777 156.205 82.5278 155.966 81.4955C155.728 80.3839 155.331 79.5104 155.093 78.9545C154.934 78.6369 154.855 78.4781 154.775 78.3193C154.696 78.1605 154.617 78.0811 154.696 78.0811C154.696 78.0811 154.775 78.1605 154.855 78.3193C154.934 78.4781 155.093 78.6369 155.252 78.9545C155.569 79.5104 155.887 80.3839 156.205 81.4955C156.522 82.6072 156.681 83.9572 156.84 85.4659C156.919 86.9736 156.919 88.6411 157.078 90.3087C157.158 92.0556 157.395 93.6437 157.792 95.073C158.189 96.5014 158.824 97.6925 159.301 98.7247C159.777 99.757 160.015 100.631 160.174 101.266C160.253 101.583 160.333 101.822 160.333 101.98C160.253 102.219 160.253 102.298 160.253 102.298Z" fill="#455B64"/>
<path d="M146.52 85.9413C146.52 85.9413 146.52 85.9413 146.441 86.0206C146.361 86.0206 146.282 86.1001 146.203 86.0206C145.964 86.0206 145.647 85.7824 145.488 85.3854C145.329 84.9884 145.409 84.5119 145.409 83.9561C145.409 83.4002 145.409 82.8444 145.488 82.2101C145.567 81.019 145.567 79.9073 145.647 79.1133C145.647 78.7162 145.726 78.3986 145.726 78.1604C145.726 77.9222 145.726 77.8428 145.806 77.8428C145.806 77.8428 145.806 78.0016 145.806 78.1604C145.806 78.3986 145.806 78.7162 145.806 79.1133C145.806 79.9073 145.726 81.019 145.726 82.2101C145.726 82.8444 145.647 83.4002 145.647 83.9561C145.647 84.5119 145.567 84.9884 145.726 85.306C145.806 85.703 146.123 85.8618 146.361 85.9413C146.361 85.9413 146.52 85.8618 146.52 85.9413Z" fill="#455B64"/>
<path d="M146.448 78.5574C146.448 78.5574 146.607 78.3986 146.766 78.5574C146.845 78.6368 147.004 78.7162 147.004 78.875C147.004 79.0338 146.924 79.2721 146.766 79.2721C146.607 79.3515 146.368 79.3515 146.289 79.1926C146.21 79.0338 146.21 78.875 146.289 78.7956C146.368 78.6368 146.448 78.6368 146.448 78.5574C146.607 78.5574 146.607 78.6368 146.607 78.6368C146.607 78.6368 146.448 78.6368 146.368 78.875C146.368 78.9544 146.368 79.0338 146.368 79.1133C146.448 79.1926 146.527 79.1926 146.686 79.1926C146.766 79.1133 146.845 79.0338 146.845 78.9544C146.845 78.875 146.766 78.7956 146.686 78.7162C146.607 78.5574 146.448 78.5574 146.448 78.5574Z" fill="#455B64"/>
<path d="M156.138 81.6544C156.138 81.6544 156.058 81.6544 155.899 81.7338C155.741 81.7338 155.502 81.7338 155.185 81.7338C154.55 81.7338 153.676 81.575 152.882 81.0192C152.088 80.4633 151.691 79.5898 151.691 78.9546C151.691 78.637 151.691 78.3987 151.77 78.24C151.85 78.0811 151.85 78.0017 151.85 78.0017C151.85 78.0017 151.691 78.3987 151.77 78.9546C151.85 79.5104 152.247 80.3045 152.961 80.8603C153.676 81.4162 154.55 81.4956 155.185 81.575C155.741 81.6544 156.138 81.575 156.138 81.6544Z" fill="#263238"/>
<path d="M142.245 77.7634C142.245 77.7634 142.245 77.8428 142.324 78.0016C142.324 78.1605 142.403 78.3987 142.403 78.6369C142.403 79.1927 142.324 79.9074 142.086 80.7015C141.768 81.4161 141.371 82.0514 140.895 82.369C140.656 82.5278 140.418 82.6072 140.339 82.6072C140.18 82.6072 140.101 82.6072 140.101 82.6072C140.101 82.6072 140.418 82.6072 140.895 82.2896C141.292 81.972 141.689 81.4161 142.006 80.6221C142.324 79.9074 142.403 79.1927 142.403 78.6369C142.245 78.0811 142.165 77.7634 142.245 77.7634Z" fill="#263238"/>
<path d="M161.129 99.7569C161.129 99.7569 160.891 100.075 160.335 100.392C159.779 100.789 158.906 101.186 157.715 101.266C156.524 101.424 155.175 101.345 153.666 101.107C152.157 100.869 150.49 100.392 148.743 100.392C146.996 100.392 145.328 100.948 143.9 101.266C143.185 101.424 142.471 101.583 141.756 101.742C141.041 101.821 140.406 101.821 139.85 101.742C138.659 101.663 137.786 101.266 137.23 100.869C137.071 100.789 136.992 100.71 136.912 100.63C136.833 100.551 136.753 100.472 136.674 100.392C136.595 100.233 136.515 100.233 136.515 100.154C136.515 100.154 136.753 100.392 137.309 100.789C137.865 101.186 138.738 101.504 139.85 101.583C140.406 101.663 141.041 101.583 141.756 101.504C142.391 101.424 143.106 101.266 143.9 101.027C145.408 100.63 146.996 100.075 148.822 100.075C150.649 100.075 152.237 100.551 153.745 100.789C155.254 101.107 156.603 101.186 157.794 101.027C158.906 100.869 159.859 100.551 160.335 100.154C160.812 99.9952 161.129 99.6775 161.129 99.7569Z" fill="#263238"/>
<path d="M155.412 78.1614C155.412 78.1614 155.253 78.082 155.253 78.0026C155.173 77.9232 155.173 77.7644 155.173 77.7644C155.173 77.7644 155.332 77.8438 155.332 77.9232C155.412 78.082 155.412 78.1614 155.412 78.1614Z" fill="#455B64"/>
<path d="M156.199 79.9084C156.119 79.9084 156.04 79.7496 155.96 79.5114C155.881 79.2731 155.802 79.0349 155.881 79.0349C155.881 79.0349 156.04 79.1937 156.119 79.4319C156.199 79.6702 156.278 79.9084 156.199 79.9084Z" fill="#455B64"/>
<path d="M156.762 81.6552C156.683 81.6552 156.604 81.4964 156.524 81.2582C156.445 81.02 156.445 80.7817 156.445 80.7817C156.524 80.7817 156.604 80.9406 156.683 81.1788C156.762 81.4964 156.842 81.6552 156.762 81.6552Z" fill="#455B64"/>
<path d="M157.083 83.5601C157.004 83.5601 157.004 83.4012 156.924 83.0836C156.845 82.8454 156.924 82.6072 156.924 82.6072C157.004 82.6072 157.004 82.766 157.083 83.0836C157.163 83.3219 157.163 83.5601 157.083 83.5601Z" fill="#455B64"/>
<path d="M157.327 85.4658C157.247 85.4658 157.247 85.2276 157.168 84.9894C157.168 84.7512 157.168 84.5129 157.168 84.5129C157.247 84.5129 157.247 84.7512 157.327 84.9894C157.406 85.2276 157.327 85.4658 157.327 85.4658Z" fill="#455B64"/>
<path d="M157.404 87.2912C157.325 87.2912 157.325 87.053 157.325 86.8148C157.325 86.5766 157.325 86.3384 157.404 86.3384C157.484 86.3384 157.484 86.5766 157.484 86.8148C157.484 87.1324 157.484 87.2912 157.404 87.2912Z" fill="#455B64"/>
<path d="M157.479 89.197C157.4 89.197 157.4 88.9588 157.4 88.7206C157.4 88.4824 157.4 88.2441 157.479 88.2441C157.559 88.2441 157.559 88.4824 157.559 88.7206C157.559 88.9588 157.559 89.197 157.479 89.197Z" fill="#455B64"/>
<path d="M157.637 91.1028C157.558 91.1028 157.558 90.8646 157.479 90.6264C157.479 90.3881 157.479 90.1499 157.479 90.1499C157.558 90.1499 157.558 90.3881 157.637 90.6264C157.717 90.8646 157.717 91.1028 157.637 91.1028Z" fill="#455B64"/>
<path d="M157.96 92.929C157.88 92.929 157.88 92.7701 157.801 92.4525C157.721 92.2143 157.721 91.9761 157.801 91.9761C157.88 91.9761 157.88 92.1349 157.96 92.4525C157.96 92.7701 157.96 92.929 157.96 92.929Z" fill="#455B64"/>
<path d="M158.432 94.7553C158.353 94.7553 158.274 94.5965 158.194 94.3582C158.115 94.1201 158.115 93.8818 158.115 93.8818C158.194 93.8818 158.274 94.0406 158.353 94.2789C158.432 94.5965 158.432 94.7553 158.432 94.7553Z" fill="#455B64"/>
<path d="M159.148 96.5023C159.148 96.5023 158.989 96.3436 158.83 96.1053C158.751 95.8671 158.671 95.6289 158.671 95.6289C158.751 95.6289 158.83 95.7877 158.91 96.0259C159.068 96.3436 159.148 96.5023 159.148 96.5023Z" fill="#455B64"/>
<path d="M160.019 98.1699C160.019 98.1699 159.861 98.0111 159.702 97.7728C159.544 97.5346 159.544 97.3758 159.544 97.2964C159.544 97.2964 159.702 97.4552 159.861 97.6934C160.019 97.9316 160.099 98.1699 160.019 98.1699Z" fill="#455B64"/>
<path d="M160.82 99.917C160.741 99.917 160.661 99.7581 160.582 99.5199C160.503 99.2817 160.423 99.0435 160.503 99.0435C160.503 99.0435 160.661 99.2023 160.741 99.4405C160.82 99.6787 160.82 99.917 160.82 99.917Z" fill="#455B64"/>
<path d="M161.048 101.265C160.968 101.265 160.968 101.185 160.968 101.027C160.968 100.868 160.968 100.788 161.048 100.788C161.127 100.788 161.127 100.868 161.127 101.027C161.127 101.185 161.127 101.265 161.048 101.265Z" fill="#455B64"/>
<path d="M144.541 54.8178C144.541 54.8178 152.957 81.8925 158.356 85.9422L157.959 83.56C154.704 77.8437 150.813 66.8866 146.447 54.659C146.129 54.4208 144.7 54.5002 144.541 54.8178Z" fill="#E7515B"/>
<path d="M155.422 64.8212L158.36 71.3325C154.151 71.3325 149.547 70.3002 147.562 69.8238C147.403 69.665 147.244 69.5062 147.085 69.3474C146.847 69.1091 146.688 68.8709 146.609 68.6327C146.45 68.3151 146.291 67.8386 146.291 67.6004C146.291 67.2828 145.815 67.124 145.656 67.3622C145.497 67.6004 145.577 68.5533 146.132 69.5062C146.688 70.459 145.1 69.8238 144.465 69.5856C143.909 69.3474 142.084 68.7121 141.845 68.8709C141.528 69.0297 141.687 69.4267 142.241 69.665C142.797 69.9032 144.544 70.6179 144.385 70.9355C144.227 71.2531 141.29 70.062 141.29 70.062C141.29 70.062 140.734 69.7444 140.575 70.062C140.257 70.6973 143.512 71.7296 143.83 71.809C144.068 71.8884 143.909 72.206 143.671 72.1266C143.433 72.0472 140.734 70.8561 140.496 71.4913C140.257 71.9678 143.115 72.3648 143.591 72.9207C143.988 73.4765 141.448 72.4442 141.21 72.8412C141.131 73.0001 141.131 73.1589 142.639 73.5559C143.512 73.7941 145.1 73.9529 146.45 74.1117C148.912 74.8254 155.025 76.2547 159.472 76.0959C159.472 76.0959 165.744 76.1753 164.712 72.3648C163.52 68.3151 160.186 62.043 160.186 62.043L155.422 64.8212Z" fill="#FCC7B5"/>
<path d="M152.16 47.4331C152.081 47.4331 151.922 47.5125 151.922 47.5919C151.922 47.6713 152.001 47.8302 152.16 47.8302C152.24 47.8302 152.398 47.6713 152.319 47.5919C152.319 47.5125 152.16 47.4331 152.001 47.4331" fill="#E7515B"/>
<path d="M137.635 138.265C137.397 138.106 137 137.868 137 137.551C136.603 137.789 136.364 137.948 135.888 138.106L134.538 138.503C133.903 138.742 133.347 139.139 132.95 139.694L132.632 140.171H143.034L142.637 137.868C141.366 138.027 140.175 138.186 138.904 138.345C138.507 138.424 138.032 138.424 137.635 138.265Z" fill="#0F2E50"/>
<path d="M155.418 137.709C155.1 137.63 154.862 137.392 154.703 137.153C154.385 137.471 154.068 137.789 153.671 138.027L152.48 138.821C151.924 139.218 151.447 139.774 151.209 140.409L151.05 140.965L161.213 138.265L160.26 136.121C159.069 136.598 157.959 137.074 156.768 137.55C156.291 137.63 155.815 137.789 155.418 137.709Z" fill="#0F2E50"/>
<path d="M73.1054 81.9168C78.8498 81.9168 83.5066 77.2599 83.5066 71.5155C83.5066 65.7711 78.8498 61.1143 73.1054 61.1143C67.361 61.1143 62.7041 65.7711 62.7041 71.5155C62.7041 77.2599 67.361 81.9168 73.1054 81.9168Z" fill="white"/>
</svg>
