<svg width="255" height="182" viewBox="0 0 255 182" fill="none" xmlns="http://www.w3.org/2000/svg">
<path d="M160.845 181.772C160.845 181.772 166.042 173.157 172.672 172.25C223.445 165.676 254.031 166.432 254.031 161.142C254.031 154.568 197.23 149.278 127.096 149.278C56.9617 149.278 0.0859375 154.568 0.0859375 161.142C0.0859375 167.717 56.8863 173.006 127.02 173.006H138.773C138.847 173.006 156.475 178.598 160.845 181.772Z" fill="#D6B6F9"/>
<path opacity="0.2" d="M226.008 135.6C225.179 120.336 217.646 101.066 204.915 92.5264C197.08 87.2366 187.136 85.4226 179.98 78.9993C173.35 73.03 171.542 63.8102 169.433 55.573C165.139 38.7975 157.305 22.172 143.594 11.6678C117.831 -7.97958 79.487 0.0311813 59.0715 23.533C49.0526 35.0186 42.7249 49.7547 41.5199 65.0192C40.164 82.5517 39.3346 100.234 41.1425 117.842C41.7454 123.66 42.8759 130.008 44.9093 135.979C46.5672 140.814 48.7516 145.348 51.7644 149.052C56.4352 154.492 61.8589 156.91 65.7767 158.044C66.0777 158.119 66.3787 158.195 66.6807 158.27C68.7896 158.724 70.9739 158.875 73.1593 159.026H170.865C179.528 159.026 188.191 159.026 196.778 159.026C199.868 159.026 202.956 159.026 206.045 159.026H214.331C214.558 159.026 214.783 159.026 215.01 159.026C215.536 158.951 216.139 158.8 216.591 158.573C218.098 157.968 219.227 156.684 220.207 155.399C224.501 150.034 226.083 144.139 226.083 138.095C226.083 137.263 226.083 136.432 226.008 135.6Z" fill="#A0C9E0"/>
<path opacity="0.2" d="M220.285 155.4C224.58 150.034 226.161 144.139 226.161 138.095C226.161 137.263 226.161 136.432 226.086 135.6C225.333 132.2 223.826 128.95 221.717 126.306C215.615 118.674 205.369 115.121 195.652 115.121C187.892 115.121 180.059 117.086 172.449 115.651C160.02 113.308 151.055 102.729 142.166 93.6599C129.209 80.3603 113.238 68.5717 94.8573 66.4558C78.2841 64.5663 60.958 71.5946 50.7125 84.7432C45.0633 91.9225 41.974 100.688 41.4475 109.831C41.07 116.482 41.974 123.208 43.4809 129.706C46.4193 142.326 52.6714 154.266 65.9298 158.044C66.2318 158.119 66.5327 158.196 66.8337 158.272C68.9436 158.724 71.128 158.875 73.3124 159.026H171.018C179.681 159.026 188.344 159.026 196.933 159.026C200.021 159.026 203.109 159.026 206.199 159.026H214.485C214.711 159.026 214.937 159.026 215.163 159.026C215.69 158.951 216.293 158.8 216.745 158.573C218.101 157.893 219.23 156.684 220.285 155.4Z" fill="#598EB2"/>
<path d="M129.593 159.555H85.5238C80.2511 159.555 75.9568 155.247 75.9568 149.958V39.0984C75.9568 33.8086 80.2511 29.5012 85.5993 29.5012H129.669C134.941 29.5012 139.236 33.8086 139.236 39.0984V149.958C139.236 155.247 134.941 159.555 129.593 159.555Z" fill="#00333D"/>
<path d="M129.581 33.3577H121.069C119.939 33.3577 118.959 34.3391 118.959 35.5491V37.1355C118.959 38.3445 118.055 39.327 116.85 39.327H100.202C99.0721 39.327 98.0927 38.3445 98.0927 37.1355V35.5491C98.0927 34.3391 97.1887 33.3577 95.9827 33.3577H92.9699H85.5118C81.8204 33.3577 78.8076 36.3796 78.8076 40.083V148.221C78.8076 151.924 81.8204 154.946 85.5118 154.946H129.506C133.197 154.946 136.211 151.924 136.211 148.221V40.083C136.286 36.3796 133.272 33.3577 129.581 33.3577Z" fill="white"/>
<path d="M131.611 141.418L130.707 140.437L129.803 141.343V138.623H131.611V141.418ZM130.707 140.361L131.536 141.192V138.699H129.879V141.116L130.707 140.361Z" fill="#E654A0" stroke="#E654A0" stroke-width="0.2722"/>
<path d="M106.606 141.117L106.305 140.966C106.154 141.042 106.003 141.117 105.853 141.117C105.325 141.117 104.949 140.74 104.949 140.21C104.949 139.682 105.325 139.304 105.853 139.304C106.38 139.304 106.757 139.682 106.757 140.21C106.757 140.438 106.681 140.664 106.53 140.815L106.606 141.117ZM105.853 139.304C105.401 139.304 105.023 139.682 105.023 140.135C105.023 140.589 105.401 140.966 105.853 140.966C106.003 140.966 106.078 140.891 106.229 140.815L106.455 140.891L106.38 140.664C106.53 140.513 106.606 140.286 106.606 140.059C106.757 139.682 106.305 139.304 105.853 139.304Z" fill="#E654A0"/>
<path d="M105.853 139.304C105.325 139.304 104.949 139.682 104.949 140.21C104.949 140.74 105.325 141.117 105.853 141.117C106.003 141.117 106.154 141.042 106.305 140.966L106.606 141.117L106.53 140.815C106.681 140.664 106.757 140.438 106.757 140.21C106.757 139.682 106.38 139.304 105.853 139.304ZM105.853 139.304C105.401 139.304 105.023 139.682 105.023 140.135C105.023 140.589 105.401 140.966 105.853 140.966C106.003 140.966 106.078 140.891 106.229 140.815L106.455 140.891L106.38 140.664C106.53 140.513 106.606 140.286 106.606 140.059C106.757 139.682 106.305 139.304 105.853 139.304Z" stroke="#E654A0" stroke-width="0.2722"/>
<path d="M108.787 140.966L108.411 140.059L107.732 139.379H109.466L108.787 140.966ZM107.808 139.454L108.411 139.984L108.712 140.74L109.239 139.379L107.808 139.454Z" fill="#E654A0" stroke="#E654A0" stroke-width="0.2722"/>
<path d="M108.488 139.984H108.413L109.241 139.379L109.317 139.454L108.488 139.984Z" fill="#E654A0" stroke="#E654A0" stroke-width="0.2722"/>
<path d="M103.893 139.529C103.817 139.302 103.591 139.076 103.365 139.076C103.139 139.076 102.913 139.302 102.838 139.529C102.838 139.302 102.536 139.076 102.31 139.076C102.084 139.076 101.783 139.302 101.783 139.529C101.783 139.681 101.783 139.907 101.934 140.058C102.009 140.209 102.159 140.36 102.31 140.436C102.536 140.587 102.687 140.739 102.838 140.965C103.063 140.814 103.214 140.662 103.365 140.436C103.515 140.285 103.666 140.209 103.742 140.058C103.893 139.907 103.967 139.756 103.893 139.529Z" fill="#E654A0"/>
<path d="M133.575 143.837C133.575 143.837 133.575 143.762 133.575 143.534C133.575 143.308 133.575 143.006 133.575 142.628C133.575 141.872 133.575 140.739 133.575 139.227C133.575 136.281 133.575 131.973 133.575 126.608L133.651 126.683C121.372 126.683 102.991 126.683 82.5755 126.683L82.651 126.608C82.651 132.577 82.651 138.397 82.651 143.762L82.5755 143.686C97.2653 143.686 110.072 143.686 119.112 143.686C123.632 143.686 127.323 143.686 129.809 143.686C131.09 143.686 131.994 143.686 132.671 143.686C132.973 143.686 133.274 143.686 133.425 143.686C133.5 143.837 133.575 143.837 133.575 143.837C133.575 143.837 133.5 143.837 133.35 143.837C133.199 143.837 132.973 143.837 132.596 143.837C131.919 143.837 131.015 143.837 129.734 143.837C127.248 143.837 123.632 143.837 119.112 143.837C109.997 143.837 97.1898 143.837 82.5 143.837H82.4255V143.762C82.4255 138.321 82.4255 132.577 82.4255 126.608V126.532H82.5C102.991 126.532 121.297 126.532 133.575 126.532H133.651V126.608C133.651 131.973 133.651 136.281 133.651 139.227C133.651 140.664 133.651 141.797 133.651 142.628C133.651 143.006 133.651 143.308 133.651 143.459C133.575 143.762 133.575 143.837 133.575 143.837Z" fill="#263238"/>
<path d="M84.5535 129.54L84.489 140.876L98.6523 140.956L98.7157 129.621L84.5535 129.54Z" fill="#EBEBEB"/>
<path d="M98.757 129.632C98.606 129.632 98.5305 129.632 98.4551 129.632C98.305 129.632 98.003 129.632 97.7021 129.632C97.0246 129.632 96.0452 129.632 94.7647 129.632C92.2784 129.632 88.738 129.632 84.5192 129.632L84.5948 129.556C84.5948 132.957 84.5948 136.811 84.5192 140.892C84.5192 140.892 84.3682 140.74 84.4437 140.817H84.5192H84.6692H84.8957H85.3477C85.6487 140.817 86.0262 140.817 86.3272 140.817C87.0046 140.817 87.6076 140.817 88.2106 140.817C89.491 140.817 90.6959 140.817 91.9019 140.817C94.3117 140.817 96.4971 140.816 98.5305 140.892L98.4551 140.968C98.4551 137.566 98.5305 134.695 98.5305 132.73C98.5305 131.748 98.5305 130.992 98.5305 130.388C98.5305 130.161 98.5305 129.934 98.5305 129.783C98.6815 129.707 98.757 129.632 98.757 129.632C98.757 129.632 98.757 129.707 98.757 129.858C98.757 130.009 98.757 130.237 98.757 130.463C98.757 130.992 98.757 131.748 98.757 132.73C98.757 134.695 98.757 137.566 98.757 140.968V141.043H98.6815C96.6471 141.043 94.4627 141.043 92.0519 141.043C90.8469 141.043 89.642 141.043 88.3606 141.043C87.7586 141.043 87.0801 141.043 86.4782 141.043C86.1762 141.043 85.7997 141.043 85.4987 141.043H85.0467H84.8202H84.6692H84.5948C84.6692 141.118 84.5192 140.968 84.5192 140.968C84.5192 136.887 84.5948 133.032 84.5948 129.632V129.556H84.6692C88.888 129.632 92.4293 129.632 94.9147 129.632C96.1207 129.632 97.0991 129.632 97.7776 129.632C98.0785 129.632 98.3805 129.632 98.5305 129.632C98.5305 129.556 98.606 129.632 98.757 129.632Z" fill="#263238"/>
<path d="M85.073 130.289L85.0166 140.188L98.1994 140.264L98.2558 130.364L85.073 130.289Z" fill="#E0E0E0"/>
<path d="M84.9731 140.135L89.6439 134.014L92.4313 137.868L94.3892 135.828L98.156 140.21L84.9731 140.135Z" fill="#F5F5F5"/>
<path d="M93.7119 133.257C93.7119 133.862 93.2599 134.315 92.658 134.315C92.055 134.315 91.603 133.862 91.603 133.257C91.603 132.653 92.055 132.199 92.658 132.199C93.2599 132.199 93.7119 132.728 93.7119 133.257Z" fill="#F5F5F5"/>
<path d="M129.351 118.674L127.919 117.237L126.563 118.597V114.593H129.275L129.351 118.674ZM127.995 117.162L129.275 118.446V114.744H126.79V118.371L127.995 117.162Z" fill="#E654A0" stroke="#E654A0" stroke-width="0.2722"/>
<path d="M93.9503 118.295L93.2719 117.993C92.9709 118.144 92.6689 118.22 92.4434 118.22C91.4639 118.22 90.6355 117.388 90.6355 116.406C90.6355 115.424 91.4639 114.593 92.4434 114.593C93.4229 114.593 94.2513 115.424 94.2513 116.406C94.2513 116.86 94.1003 117.313 93.7993 117.616L93.9503 118.295ZM92.4434 114.744C91.5394 114.744 90.7865 115.5 90.7865 116.482C90.7865 117.388 91.5394 118.144 92.5189 118.144C92.7444 118.144 93.0464 118.069 93.3474 117.918L93.7993 118.144L93.7238 117.691C94.0258 117.388 94.1758 116.935 94.1758 116.558C94.1003 115.5 93.3474 114.744 92.4434 114.744Z" fill="#E654A0" stroke="#E654A0" stroke-width="0.2722"/>
<path d="M98.1722 117.993L97.4182 116.179L95.9868 114.895H99.3771L98.1722 117.993ZM96.2888 115.046L97.4937 116.179L98.0967 117.767L99.1506 115.121L96.2888 115.046Z" fill="#E654A0" stroke="#E654A0" stroke-width="0.2722"/>
<path d="M99.3247 114.904L97.4927 116.099L97.5752 116.225L99.4063 115.031L99.3247 114.904Z" fill="#E654A0" stroke="#E654A0" stroke-width="0.2722" stroke-linecap="round" stroke-linejoin="round"/>
<path d="M88.6052 115.272C88.5297 114.819 88.0022 114.441 87.5503 114.441C87.0228 114.441 86.6463 114.895 86.5708 115.348C86.4953 114.895 86.0434 114.441 85.5914 114.441C85.0649 114.441 84.6129 114.819 84.5374 115.272C84.4619 115.65 84.6129 116.028 84.7629 116.33C84.9894 116.632 85.2149 116.86 85.5169 117.086C85.8934 117.388 86.2698 117.766 86.6463 118.069C87.0228 117.69 87.3248 117.388 87.7013 117.086C88.0022 116.86 88.2287 116.557 88.4542 116.255C88.5297 116.028 88.6807 115.65 88.6052 115.272Z" fill="#E654A0"/>
<path d="M88.2992 58.294C89.5887 58.294 90.6346 57.2451 90.6346 55.9506C90.6346 54.6571 89.5887 53.6082 88.2992 53.6082C87.0097 53.6082 85.9639 54.6571 85.9639 55.9506C85.9639 57.2451 87.0097 58.294 88.2992 58.294Z" fill="#EBEBEB"/>
<path d="M105.93 148.371C105.93 148.9 105.478 149.278 105.026 149.278C104.5 149.278 104.122 148.824 104.122 148.371C104.122 147.842 104.574 147.464 105.026 147.464C105.478 147.464 105.93 147.917 105.93 148.371Z" fill="#AEAEAF"/>
<path d="M108.785 148.446C108.785 148.975 108.333 149.353 107.881 149.353C107.354 149.353 106.977 148.9 106.977 148.446C106.977 147.917 107.429 147.54 107.881 147.54C108.333 147.464 108.785 147.917 108.785 148.446Z" fill="#D9D8D7"/>
<path d="M111.574 148.446C111.574 148.975 111.122 149.353 110.67 149.353C110.142 149.353 109.766 148.9 109.766 148.446C109.766 147.917 110.218 147.54 110.67 147.54C111.197 147.464 111.574 147.917 111.574 148.446Z" fill="#D9D8D7"/>
<path d="M133.799 60.4854H82.7244V91.8469H133.799V60.4854Z" fill="#E0E0E0"/>
<path d="M87.4697 91.8459L102.159 72.1985L111.2 84.5166L117.377 77.9413L129.43 91.8459H87.4697Z" fill="#F5F5F5"/>
<path d="M115.042 69.7805C115.042 71.5944 113.535 73.1054 111.727 73.1054C109.92 73.1054 108.413 71.5944 108.413 69.7805C108.413 67.9665 109.92 66.4556 111.727 66.4556C113.611 66.5311 115.042 67.9665 115.042 69.7805Z" fill="#F5F5F5"/>
<path d="M133.717 121.016C133.717 120.336 133.717 91.9979 133.642 50.0577L133.717 50.1332C118.274 50.1332 100.947 50.1332 82.6419 50.1332L82.7174 50.0577C82.7174 76.5824 82.7174 101.141 82.7174 121.016L82.6419 120.941C113.604 121.016 133.19 121.016 133.717 121.016C133.19 121.016 113.604 121.016 82.6419 121.092H82.5664V121.016C82.5664 101.141 82.5664 76.5824 82.5664 50.0577V49.9822H82.6419C100.947 49.9822 118.349 49.9822 133.717 49.9822H133.793V50.0577C133.793 71.065 133.793 88.7485 133.793 101.293C133.793 107.565 133.793 112.477 133.793 115.802C133.793 117.465 133.793 118.749 133.793 119.656C133.793 120.109 133.793 120.412 133.793 120.639C133.717 120.941 133.717 121.016 133.717 121.016Z" fill="#E654A0"/>
<path d="M133.717 121.016C133.717 120.336 133.717 91.9979 133.642 50.0577L133.717 50.1332C118.274 50.1332 100.947 50.1332 82.6419 50.1332L82.7174 50.0577C82.7174 76.5824 82.7174 101.141 82.7174 121.016L82.6419 120.941C113.604 121.016 133.19 121.016 133.717 121.016ZM133.717 121.016C133.19 121.016 113.604 121.016 82.6419 121.092H82.5664V121.016C82.5664 101.141 82.5664 76.5824 82.5664 50.0577V49.9822H82.6419C100.947 49.9822 118.349 49.9822 133.717 49.9822H133.793V50.0577C133.793 71.065 133.793 88.7485 133.793 101.293C133.793 107.565 133.793 112.477 133.793 115.802C133.793 117.465 133.793 118.749 133.793 119.656C133.793 120.109 133.793 120.412 133.793 120.639C133.717 120.941 133.717 121.016 133.717 121.016Z" stroke="#E654A0" stroke-width="0.2722"/>
<path d="M114.213 103.182H129.279" stroke="#E654A0" stroke-width="0.5719" stroke-linecap="round" stroke-linejoin="round"/>
<path d="M114.213 106.583H129.279" stroke="#E654A0" stroke-width="0.5719" stroke-linecap="round" stroke-linejoin="round"/>
<path d="M99.3691 131.596H131.611" stroke="#E654A0" stroke-width="0.2722"/>
<path d="M99.3691 134.014H131.611" stroke="#E654A0" stroke-width="0.2722"/>
<path d="M99.3691 136.583H131.611" stroke="#E654A0" stroke-width="0.2722"/>
<path d="M101.7 135.147L102.604 132.125C102.755 131.445 102.981 130.689 103.283 129.857C103.508 129.102 104.187 128.271 104.789 127.666C105.693 126.76 106.145 126.76 106.748 126.23C106.823 126.23 106.899 126.155 106.899 126.079C107.049 126.004 107.124 125.928 107.2 125.853C107.727 125.248 107.2 124.416 106.145 124.492C105.316 124.567 104.036 124.795 101.851 126.986L101.776 127.062C100.645 128.497 99.5914 124.341 99.4404 122.754C99.2895 121.772 98.2355 121.092 97.2561 121.47L92.0578 123.888C91.6059 123.737 91.1539 123.737 90.5509 123.963C89.7979 124.265 89.346 125.021 89.5715 125.777L91.6814 134.241L85.5037 154.946H98.762L101.7 135.147Z" fill="#FBCCAD"/>
<path d="M111.941 116.105L107.798 124.265L105.764 123.661L95.3677 132.125C94.4637 132.881 93.1833 132.729 92.4303 131.899L88.437 127.288C88.437 127.288 96.4226 123.812 97.9295 121.016C99.4355 118.145 97.703 117.54 97.703 117.54L101.47 113.233L111.941 116.105Z" fill="#5282F7"/>
<path d="M106.594 99.4792C106.594 99.4792 100.567 98.1192 92.0548 89.882C83.5427 81.6447 79.5494 70.763 78.4954 70.8385C77.4405 70.914 72.9207 68.7981 64.2577 87.6905C55.5936 106.582 58.9839 110.966 60.7164 110.966C62.4498 110.966 74.1257 107.64 81.4328 108.471C88.7399 109.303 98.157 113.157 98.157 113.157L106.594 99.4792Z" fill="#6294F9"/>
<path d="M119.476 109.832L117.441 113.761L116.537 115.5C115.257 117.918 112.318 118.9 109.833 117.767L96.8757 113.233L104.409 95.9277L117.366 102.88C119.852 104.164 120.756 107.262 119.476 109.832Z" fill="#E7515B"/>
<path d="M119.476 109.832L117.441 113.761L116.537 115.5C115.257 117.918 112.318 118.9 109.833 117.767L96.8757 113.233L104.409 95.9277L117.366 102.88C119.852 104.164 120.756 107.262 119.476 109.832Z" fill="#3D71D8"/>
<path d="M64.9363 88.068C60.3411 98.2702 58.3822 107.413 60.642 108.471C62.9019 109.454 68.4011 102.048 73.0719 91.7714C77.6672 81.5692 79.6261 72.426 77.3662 71.368C75.1063 70.3101 69.5316 77.7913 64.9363 88.068Z" fill="#E7515B"/>
<path d="M64.9363 88.068C60.3411 98.2702 58.3822 107.413 60.642 108.471C62.9019 109.454 68.4011 102.048 73.0719 91.7714C77.6672 81.5692 79.6261 72.426 77.3662 71.368C75.1063 70.3101 69.5316 77.7913 64.9363 88.068Z" fill="#2358C1"/>
<path d="M120.608 115.501L117.068 114.367L119.252 110.211L121.888 111.873L120.608 115.501Z" fill="#2358C1"/>
<g opacity="0.6">
<path opacity="0.6" d="M119.252 110.211L117.068 114.367L117.745 114.594L119.553 110.437L119.252 110.211Z" fill="#0E3F8C"/>
</g>
<path d="M116.84 111.192C116.765 111.343 115.032 110.588 112.922 109.681C110.813 108.699 109.156 107.867 109.156 107.716C109.231 107.565 110.963 108.32 113.073 109.227C115.182 110.21 116.84 111.041 116.84 111.192Z" fill="#6E9CF9"/>
<path d="M117.897 108.699C117.822 108.775 116.24 108.169 114.357 107.188C112.473 106.281 110.967 105.374 111.042 105.299C111.118 105.223 112.7 105.827 114.582 106.81C116.466 107.716 117.973 108.624 117.897 108.699Z" fill="#6E9CF9"/>
<path d="M115.487 113.761C115.487 113.837 115.035 113.761 114.358 113.535C114.057 113.459 113.605 113.308 113.227 113.156C112.775 113.005 112.323 112.779 111.871 112.552C109.913 111.645 108.482 110.814 108.558 110.663C108.632 110.512 110.214 111.268 112.098 112.099C112.55 112.326 113.002 112.552 113.454 112.703C113.906 112.854 114.282 113.005 114.583 113.156C115.111 113.535 115.487 113.686 115.487 113.761Z" fill="#6E9CF9"/>
<path d="M74.2778 85.7256C74.2778 85.7256 69.0051 82.4762 66.1423 89.58C63.2794 96.6827 68.7786 97.8917 68.7786 97.8917C71.114 94.4158 72.9219 90.3349 74.2778 85.7256Z" fill="#6E9CF9"/>
<g opacity="0.5">
<path opacity="0.5" d="M79.9299 77.262C79.9299 77.262 79.8544 77.716 79.7034 78.6229C79.5534 79.5289 79.327 80.7389 78.9505 82.3253C78.725 83.0813 78.4985 83.9117 78.1975 84.8187C78.0465 85.2727 77.8955 85.7257 77.82 86.1797C77.7456 86.4062 77.6701 86.6327 77.5946 86.9347C77.5191 87.1622 77.4436 87.3887 77.2936 87.6906C76.9161 88.6731 76.5396 89.7311 76.0876 90.7891C76.0121 91.0911 75.8621 91.3176 75.7867 91.6205C75.7111 91.9225 75.5602 92.149 75.4102 92.451C75.1837 92.9805 74.8827 93.509 74.6562 94.0385C74.3552 94.567 74.1297 95.0964 73.9033 95.6249C73.7522 95.8524 73.6778 96.1544 73.5267 96.3809C73.3758 96.6074 73.2258 96.9104 73.0748 97.1369C72.4718 98.1194 71.9443 99.1018 71.4169 100.009C71.2669 100.235 71.1914 100.462 71.0404 100.688C70.8904 100.915 70.7394 101.142 70.5884 101.293C70.2874 101.671 69.9865 102.125 69.7599 102.502C69.2325 103.258 68.705 103.938 68.253 104.618C67.2736 105.827 66.3696 106.81 65.8432 107.49C65.2402 108.17 64.9392 108.548 64.9392 108.472C64.9392 108.472 65.2402 108.019 65.7677 107.338C66.2951 106.659 67.1236 105.601 68.103 104.392C68.555 103.711 69.007 103.031 69.5345 102.276C69.7599 101.897 70.0609 101.52 70.3629 101.067C70.5129 100.839 70.6639 100.688 70.8149 100.462C70.9649 100.235 71.0404 100.009 71.1914 99.7813C71.7189 98.8743 72.2463 97.8929 72.8483 96.9104C72.9993 96.6829 73.1503 96.3809 73.3003 96.1544C73.4513 95.9279 73.5267 95.6249 73.6778 95.3984C73.9033 94.8699 74.2042 94.3405 74.4307 93.812C74.6562 93.2825 74.9582 92.754 75.1837 92.2245C75.3347 91.9225 75.4857 91.696 75.5602 91.4695C75.6357 91.1665 75.7867 90.9401 75.8621 90.6381C76.3141 89.5801 76.6906 88.5976 77.0671 87.6152C77.1426 87.3887 77.2936 87.1622 77.3681 86.8592C77.4436 86.6327 77.5191 86.4062 77.5946 86.1042C77.7456 85.6502 77.8955 85.1972 78.0465 84.7433C78.3475 83.8363 78.574 83.0058 78.7995 82.2498C79.177 80.7389 79.478 79.4534 79.7034 78.6229C79.7034 77.716 79.8544 77.262 79.9299 77.262Z" fill="#0E3F8C"/>
</g>
<g opacity="0.4">
<path opacity="0.4" d="M89.7236 126.683C90.1756 127.59 90.7031 128.422 91.3805 129.178C92.059 129.857 93.0374 130.387 94.0924 130.236C95.0718 130.16 96.0513 129.329 96.0513 128.346C96.5033 128.724 97.2562 128.497 97.6327 128.044C98.0102 127.59 98.1602 126.986 98.2357 126.381C98.9142 126.759 99.7426 126.457 100.195 125.853C100.647 125.248 100.647 124.416 100.42 123.661C100.195 122.905 99.8181 122.3 99.3661 121.696C99.8936 121.772 100.42 121.772 100.798 121.545C101.25 121.318 101.551 120.714 101.25 120.335C101.099 120.109 100.798 119.958 100.496 119.883C99.7426 119.656 99.1396 119.43 98.3867 119.505C98.2357 119.505 98.6877 121.621 93.6404 124.567C90.7031 126.306 89.7236 126.683 89.7236 126.683Z" fill="#2358C1"/>
</g>
<path d="M101.177 129.782C101.177 129.782 100.799 129.706 100.273 129.782C99.7455 129.782 98.9915 129.934 98.2386 130.311C97.4856 130.689 96.8827 131.218 96.5817 131.596C96.2042 132.05 96.0542 132.352 96.0542 132.276C96.0542 132.276 96.0542 132.201 96.1297 132.05C96.2042 131.898 96.3552 131.747 96.5062 131.52C96.8827 131.067 97.4101 130.538 98.1631 130.16C98.916 129.782 99.7455 129.706 100.273 129.706C100.574 129.706 100.799 129.706 100.95 129.782C101.101 129.782 101.177 129.782 101.177 129.782Z" fill="#D3A17F"/>
<path d="M90.1011 125.323C90.9295 126.079 91.457 126.986 92.3609 127.818C92.7374 128.195 93.3404 128.876 93.8669 128.951C94.3943 129.027 94.6963 128.951 94.9218 128.497C95.0728 128.12 94.7708 127.59 94.5453 127.213C94.0179 126.381 93.4904 125.702 93.0384 125.021C92.8129 124.719 93.1139 124.644 93.1894 124.795C93.5659 125.172 94.1689 125.55 94.5453 126.004C94.9973 126.608 95.1483 127.439 96.3533 127.137C96.5042 127.137 96.6542 127.062 96.8052 126.911C97.2572 126.532 97.3327 125.928 97.1062 125.399C96.9562 125.021 96.6542 124.644 96.4287 124.341C96.9562 124.946 97.5582 125.626 98.3876 125.626C98.9141 125.702 99.3661 125.399 99.5926 124.946C99.8181 124.341 99.5171 123.812 99.1406 123.358C98.4621 122.528 97.7847 121.848 96.9562 121.167C96.6542 120.941 96.2777 120.79 95.9013 120.79C95.4493 120.79 94.9218 120.865 94.6208 121.243C94.0934 121.923 94.2444 122.528 94.2444 122.528C94.2444 122.528 93.1139 121.999 92.2099 122.528C91.306 123.132 91.0805 124.114 91.0805 124.114L90.1011 125.323Z" fill="#FBCCAD"/>
<path d="M95.9777 120.639C95.6012 120.26 95.5257 119.656 95.8267 119.127C96.0532 118.749 96.2787 118.372 96.5052 118.296C97.5591 117.918 102.154 118.749 102.154 119.732C102.08 120.79 101.778 121.243 99.2926 120.865C98.8406 120.79 98.1621 120.714 98.1621 120.714L97.5591 121.621L95.9777 120.639Z" fill="#FBCCAD"/>
<path d="M96.8102 124.946C96.8102 124.946 96.4337 124.265 95.6807 123.586C95.0022 122.905 94.2493 122.679 94.2493 122.604C94.2493 122.604 94.4748 122.604 94.7013 122.755C95.0022 122.905 95.3787 123.132 95.7552 123.435C96.1327 123.737 96.3582 124.114 96.5847 124.416C96.7346 124.719 96.8102 124.87 96.8102 124.946Z" fill="#D3A17F"/>
<path d="M97.6356 121.772C97.6356 121.772 97.3336 121.545 96.8816 121.319C96.6561 121.168 96.5051 121.092 96.3542 121.016C96.2042 120.94 96.1287 120.94 96.1287 120.94C96.1287 120.94 96.2042 120.94 96.4296 120.94C96.5807 121.016 96.8061 121.092 97.0326 121.243C97.3336 121.394 97.6356 121.696 97.6356 121.772Z" fill="#D3A17F"/>
<path d="M98.3915 120.79C98.3915 120.79 98.0151 120.865 97.4876 120.714C97.2611 120.639 97.0356 120.488 96.8846 120.412C96.7336 120.337 96.7346 120.185 96.7346 120.185C96.7346 120.185 97.0356 120.412 97.4876 120.563C98.0151 120.714 98.3915 120.714 98.3915 120.79Z" fill="#D3A17F"/>
<path d="M93.8708 126.155C93.8708 126.155 93.7198 125.929 93.4188 125.627C93.1923 125.248 92.8913 124.795 92.3638 124.418C91.8363 124.039 91.2334 123.964 90.8569 124.039C90.4804 124.115 90.2549 124.266 90.1794 124.266C90.1794 124.266 90.2549 124.19 90.3294 124.115C90.4049 124.039 90.6314 123.964 90.7814 123.964C91.2334 123.888 91.8363 123.964 92.3638 124.341C92.8913 124.72 93.1923 125.248 93.4188 125.627C93.7953 125.929 93.8708 126.155 93.8708 126.155Z" fill="#D3A17F"/>
<path d="M107.958 63.7349C100.801 63.7349 94.9258 69.6297 94.9258 76.8089C94.9258 83.9872 100.801 89.8821 107.958 89.8821C115.115 89.8821 120.99 83.9872 120.99 76.8089C120.99 69.6297 115.189 63.7349 107.958 63.7349ZM116.169 84.1382C114.135 86.4052 111.272 87.7661 108.033 87.7661C102.006 87.7661 97.1102 82.8538 97.1102 76.8089C97.1102 74.7685 97.7131 72.8036 98.6916 71.1406L116.169 84.1382ZM99.822 69.4787C101.856 67.2118 104.718 65.8508 107.958 65.8508C113.984 65.8508 118.881 70.7631 118.881 76.8089C118.881 78.8484 118.279 80.8133 117.299 82.4763L99.822 69.4787Z" fill="#E654A0" stroke="#E654A0" stroke-width="0.2722"/>
<path d="M93.1953 55.573H106.83" stroke="#E654A0" stroke-width="0.5444" stroke-linecap="round" stroke-linejoin="round"/>
<path d="M127.019 42.1235H133.422" stroke="#E654A0" stroke-width="0.5444" stroke-linecap="round" stroke-linejoin="round"/>
<path d="M127.019 43.9363H133.422" stroke="#E654A0" stroke-width="0.5444" stroke-linecap="round" stroke-linejoin="round"/>
<path d="M127.019 45.7493H133.422" stroke="#E654A0" stroke-width="0.5444" stroke-linecap="round" stroke-linejoin="round"/>
<path d="M85.8872 46.2033H86.7911C87.0176 46.2033 87.2431 45.9768 87.2431 45.7493V43.4069C87.2431 43.2559 87.1676 43.1804 87.0921 43.1049L85.3597 41.3664C85.2087 41.2154 84.9077 41.2154 84.6822 41.3664L82.9488 43.1049C82.8743 43.1804 82.7988 43.3314 82.7988 43.4069V45.7493C82.7988 45.9768 83.0243 46.2033 83.2508 46.2033H84.2303V44.9943C84.2303 44.5403 84.6067 44.2383 84.9832 44.2383C85.4352 44.2383 85.7362 44.6158 85.7362 44.9943L85.8872 46.2033Z" stroke="#E654A0" stroke-width="0.5444" stroke-linecap="round" stroke-linejoin="round"/>
<path d="M181.104 128.421L147.506 144.215L155.04 108.924C155.04 108.924 167.62 108.924 167.922 108.924C169.427 108.924 174.701 110.738 175.982 114.139C175.982 114.063 181.632 127.665 181.104 128.421Z" fill="#06BCD4"/>
<path d="M179.748 123.66L188.863 158.572L182.384 160.386C182.384 160.386 170.03 133.56 170.181 133.106C170.406 132.653 179.748 123.66 179.748 123.66Z" fill="#06BCD4"/>
<g opacity="0.2">
<g opacity="0.2">
<path opacity="0.2" d="M172.591 121.771C173.796 121.771 174.927 122.601 175.529 123.659C176.207 124.717 176.433 125.926 176.659 127.136C177.036 129.403 177.261 131.67 177.261 133.937C177.261 135.146 177.261 136.431 177.864 137.489C178.543 138.546 179.747 139.076 180.727 139.755C183.514 141.645 185.247 144.97 185.247 148.37C185.171 151.772 182.987 153.963 180.124 155.701L175.604 141.267L171.913 124.869L172.591 121.771Z" fill="black"/>
</g>
</g>
<path d="M173.722 116.407C173.797 116.407 173.495 117.994 173.119 119.958C172.742 121.923 172.366 123.51 172.29 123.51C172.215 123.51 172.516 121.923 172.893 119.958C173.27 117.919 173.646 116.331 173.722 116.407Z" fill="#263238"/>
<path d="M167.847 109.302C167.847 109.302 167.847 109.454 167.847 109.605C167.847 109.831 167.771 110.133 167.696 110.512C167.546 111.267 167.019 112.249 166.115 112.93C165.211 113.685 164.08 113.912 163.327 113.912C162.951 113.912 162.649 113.837 162.423 113.837C162.197 113.761 162.122 113.761 162.122 113.761C162.122 113.685 162.574 113.837 163.327 113.837C164.08 113.837 165.06 113.534 165.964 112.854C166.868 112.174 167.32 111.267 167.546 110.512C167.847 109.756 167.847 109.302 167.847 109.302Z" fill="#263238"/>
<path d="M165.585 118.069C165.51 118.069 165.735 117.539 166.112 116.935C166.489 116.33 166.79 115.877 166.866 115.877C166.941 115.877 166.715 116.406 166.338 117.011C165.962 117.615 165.66 118.069 165.585 118.069Z" fill="white"/>
<path d="M170.856 120.108C170.78 120.108 170.404 119.58 170.103 118.824C169.802 118.068 169.651 117.464 169.727 117.388C169.802 117.388 169.952 117.992 170.328 118.748C170.63 119.504 170.856 120.108 170.856 120.108Z" fill="white"/>
<path d="M172.136 114.29C172.136 114.365 171.534 114.214 170.856 113.911C170.178 113.609 169.651 113.307 169.726 113.232C169.726 113.156 170.253 113.458 170.931 113.685C171.609 113.987 172.212 114.214 172.136 114.29Z" fill="white"/>
<path d="M176.36 122.98C176.285 122.98 176.587 122.452 176.812 121.847C177.039 121.243 177.189 120.713 177.264 120.713C177.34 120.713 177.264 121.318 177.039 121.922C176.812 122.603 176.436 123.057 176.36 122.98Z" fill="white"/>
<path d="M180.427 138.547C180.427 138.623 179.899 138.32 179.372 137.942C178.844 137.565 178.393 137.186 178.468 137.186C178.468 137.111 178.995 137.414 179.523 137.791C180.05 138.169 180.502 138.472 180.427 138.547Z" fill="white"/>
<path d="M183.67 156.382C183.595 156.382 183.896 155.777 184.198 155.022C184.499 154.266 184.8 153.661 184.8 153.661C184.875 153.661 184.724 154.342 184.348 155.098C184.122 155.853 183.746 156.382 183.67 156.382Z" fill="white"/>
<path d="M159.266 97.4378C158.437 94.6414 158.815 89.9566 160.697 87.6897C162.58 85.4217 165.895 84.0618 168.909 83.7598C169.435 83.6843 169.963 83.6843 170.339 83.9108C170.791 84.1373 171.093 84.7422 170.791 85.1952C171.394 84.8932 172.073 84.5912 172.75 84.5157C173.429 84.4392 174.182 84.5912 174.634 85.1197C175.086 85.6492 175.086 86.5552 174.483 86.9337C175.312 86.7072 176.291 87.0092 176.818 87.6897C177.346 88.3691 177.421 89.3516 177.045 90.1076C176.668 90.8625 175.914 91.6185 175.237 92.148C174.558 92.6765 174.408 93.206 174.408 94.0364" fill="#263238"/>
<path d="M174.637 94.1884C175.164 90.184 172.453 86.4806 168.535 85.6491L168.158 85.5736C163.865 84.9697 160.927 88.2191 160.475 92.5264L158.366 108.32C157.988 110.965 159.796 113.383 162.434 113.761C165.145 114.214 167.631 112.249 168.008 109.529C168.158 108.547 168.234 107.866 168.234 107.791C168.234 107.791 172.453 108.017 173.281 103.938C173.657 102.048 174.185 97.9673 174.637 94.1884Z" fill="#F8B19A"/>
<path d="M168.144 107.941C168.144 107.941 165.582 107.563 163.172 105.296C163.172 105.296 163.85 108.47 167.993 108.923L168.144 107.941Z" fill="#E654A0"/>
<path d="M160.17 95.6993C160.095 95.6238 157.534 94.2638 157.082 97.1357C156.63 99.9311 159.493 99.8556 159.493 99.7801C159.493 99.6291 160.17 95.6993 160.17 95.6993Z" fill="#F8B19A"/>
<path d="M158.815 98.4958C158.815 98.4958 158.739 98.4958 158.664 98.5713C158.588 98.5713 158.438 98.5713 158.287 98.4958C157.986 98.3448 157.835 97.8163 157.911 97.2869C157.911 97.0604 158.062 96.8339 158.136 96.6074C158.287 96.3799 158.438 96.3044 158.588 96.3044C158.739 96.3044 158.815 96.3799 158.89 96.4564C158.89 96.5319 158.89 96.6074 158.89 96.6074C158.89 96.6074 158.966 96.6074 158.966 96.4564C158.966 96.3799 158.966 96.3044 158.89 96.2289C158.815 96.1534 158.739 96.1534 158.664 96.0779C158.438 96.0779 158.212 96.2289 158.062 96.4564C157.911 96.6829 157.835 96.9094 157.76 97.2113C157.684 97.8163 157.911 98.3448 158.287 98.5713C158.438 98.6478 158.664 98.6478 158.739 98.5713C158.815 98.5713 158.815 98.4958 158.815 98.4958Z" fill="#E654A0"/>
<path d="M177.353 89.2005C177.052 92.9029 172.306 93.6589 170.724 91.24C169.97 90.1065 169.368 88.8221 168.238 88.2181C167.485 87.7641 166.505 87.7641 165.677 88.0671C164.396 88.4446 163.493 89.6535 163.115 90.938C162.589 92.6764 162.589 94.3384 161.835 95.9258C161.759 96.1523 161.609 96.3788 161.383 96.5298C161.006 96.6818 160.554 96.3788 160.328 96.0768C159.951 95.4719 159.951 94.7924 159.951 94.1119C160.027 92.5255 160.253 91.0135 160.931 89.578C161.534 88.1426 162.589 86.9326 163.869 86.1022C165.526 85.0442 167.56 84.8167 169.444 85.1952C171.326 85.6481 173.059 86.7061 174.34 88.1426C174.943 88.8221 175.469 89.578 175.62 90.485" fill="#263238"/>
<path d="M154.816 148.598C155.194 148.598 175.005 141.947 175.005 141.947C175.005 141.947 183.97 139.983 185.025 145.726C186.079 151.544 176.813 158.346 176.813 158.346L160.391 166.658L151.879 159.932L153.084 154.869L154.816 148.598Z" fill="#F8B19A"/>
<path d="M162.049 156.002L151.05 162.729C150.372 163.106 150.145 164.013 150.523 164.694L157.755 176.86C157.755 176.86 159.035 177.842 157.152 168.849L166.794 163.559L162.049 156.002Z" fill="#1B1B1B"/>
<path d="M167.475 152.073C167.475 152.149 166.344 153.055 164.838 154.113C163.331 155.247 162.125 156.078 162.125 156.003C162.125 155.927 163.256 155.02 164.763 153.962C166.194 152.829 167.475 151.997 167.475 152.073Z" fill="#E654A0"/>
<path d="M157.003 157.966C159.865 152.601 162.502 145.724 165.139 137.865L167.851 152.979L169.432 161.669L176.59 160.686L175.234 128.494C175.234 128.494 173.651 121.844 167.851 121.467C162.879 121.164 158.51 124.036 155.421 130.686C152.333 137.337 148.792 142.399 148.792 142.399L157.003 157.966Z" fill="#F8B19A"/>
<path d="M133.645 161.669C133.645 161.669 140.802 167.11 150.068 163.332L157.073 158.646C157.073 158.646 156.396 150.485 154.136 147.008L152.101 147.538L153.457 145.875L150.068 140.812L141.178 149.578L133.645 161.669Z" fill="#094A7B"/>
<path d="M164.376 140.057C164.376 140.057 164.376 140.133 164.301 140.208C164.225 140.359 164.225 140.51 164.151 140.737C164 141.191 163.773 141.87 163.472 142.626C162.869 144.213 162.116 146.481 161.212 148.974C160.308 151.467 159.404 153.659 158.576 155.171C158.35 155.548 158.2 155.926 157.973 156.153C157.822 156.455 157.672 156.682 157.521 156.908C157.37 157.059 157.296 157.211 157.22 157.362C157.145 157.438 157.069 157.513 157.069 157.513C157.069 157.513 157.069 157.438 157.145 157.362C157.22 157.211 157.296 157.059 157.446 156.908C157.597 156.682 157.748 156.455 157.898 156.153C158.049 155.85 158.274 155.548 158.425 155.095C159.178 153.583 160.157 151.392 160.986 148.899C161.891 146.405 162.644 144.137 163.247 142.551C163.548 141.719 163.849 141.115 164 140.661C164.075 140.435 164.151 140.284 164.225 140.133C164.301 140.133 164.376 140.057 164.376 140.057Z" fill="#E654A0"/>
<path d="M165.508 140.132C165.508 140.132 165.583 140.283 165.658 140.586C165.733 140.888 165.809 141.341 165.96 141.87C166.185 143.004 166.487 144.515 166.788 146.178C167.089 147.841 167.316 149.352 167.467 150.485C167.541 151.014 167.617 151.468 167.617 151.77C167.617 152.072 167.617 152.224 167.617 152.224C167.617 152.224 167.541 152.072 167.541 151.77C167.467 151.392 167.391 151.014 167.316 150.485C167.089 149.352 166.864 147.841 166.563 146.178C166.261 144.515 166.035 143.004 165.809 141.87C165.733 141.341 165.658 140.888 165.583 140.586C165.508 140.283 165.508 140.132 165.508 140.132Z" fill="#E654A0"/>
<path d="M175.758 150.938C175.683 150.938 175.607 147.84 175.607 143.985C175.532 140.132 175.607 137.033 175.607 137.033C175.683 137.033 175.758 140.132 175.758 143.985C175.834 147.84 175.834 150.938 175.758 150.938Z" fill="#E654A0"/>
<path d="M167.241 152.449L169.427 164.843C169.577 165.825 170.481 166.506 171.46 166.354L185.548 164.465C185.548 164.465 186.376 163.181 177.261 161.669L176.055 150.863L167.241 152.449Z" fill="#1B1B1B"/>
<g opacity="0.2">
<g opacity="0.2">
<path opacity="0.2" d="M168.905 128.194C166.796 128.042 164.612 130.537 164.536 132.804C164.536 133.03 164.536 133.257 164.612 133.484C164.687 133.711 164.913 133.862 165.139 133.937C165.516 134.013 165.892 133.786 166.043 133.408C166.119 133.106 166.269 132.728 166.269 132.426C166.193 130.083 167.248 128.647 168.905 128.194Z" fill="black"/>
</g>
</g>
<path d="M183.147 160.084L184.729 164.467H196.933C196.933 164.467 196.255 163.409 193.769 163.183L189.249 162.729L188.119 158.724L183.147 160.084Z" fill="#F8B19A"/>
<path d="M158.43 107.262C158.43 107.262 150.369 108.698 147.356 112.551C145.021 115.65 136.131 132.879 132.591 139.832C131.462 142.023 130.708 144.366 130.407 146.708C129.728 151.847 129.276 160.386 133.721 161.595C133.721 161.595 138.769 158.951 141.179 153.812C141.556 153.056 141.932 152.226 142.46 151.545L145.849 146.482C145.849 146.482 149.692 142.25 151.424 138.774C153.383 134.995 154.663 132.502 154.663 132.502L155.492 130.612L158.128 109L158.43 107.262Z" fill="#06BCD4"/>
<path d="M153.081 124.567C153.081 124.643 152.177 124.567 151.273 123.963C150.369 123.358 149.993 122.527 150.067 122.527C150.143 122.527 150.595 123.207 151.424 123.812C152.252 124.416 153.081 124.567 153.081 124.567Z" fill="#8E4E9D"/>
<path d="M140.573 138.622C140.573 138.622 140.8 138.622 141.176 138.547C141.402 138.547 141.628 138.547 141.854 138.471C142.156 138.471 142.457 138.396 142.759 138.396C143.436 138.32 144.265 138.169 145.093 137.943C145.997 137.715 146.901 137.413 147.881 136.96C148.86 136.506 149.689 136.053 150.443 135.524C151.195 134.995 151.874 134.542 152.326 134.088C152.627 133.862 152.778 133.635 153.003 133.484C153.23 133.332 153.38 133.106 153.531 133.03C153.832 132.728 153.983 132.577 153.983 132.653C153.983 132.653 153.832 132.804 153.606 133.106C153.455 133.257 153.305 133.408 153.154 133.635C152.928 133.862 152.778 134.088 152.476 134.315C151.948 134.769 151.346 135.297 150.592 135.827C149.839 136.355 148.936 136.809 148.032 137.262C147.052 137.715 146.148 138.018 145.244 138.245C144.34 138.471 143.512 138.622 142.833 138.698C142.457 138.773 142.156 138.773 141.929 138.773C141.628 138.773 141.402 138.773 141.252 138.773C140.8 138.698 140.573 138.698 140.573 138.622Z" fill="#8E4E9D"/>
<path d="M134.781 150.866C134.781 150.866 134.857 150.639 134.932 150.336C135.083 150.034 135.309 149.581 135.611 148.976C136.288 147.918 137.493 146.558 139.227 145.727C140.959 144.82 142.767 144.669 143.972 144.744C144.575 144.82 145.102 144.895 145.479 144.971C145.855 145.046 146.006 145.122 146.006 145.122C146.006 145.198 145.253 144.895 143.972 144.895C142.767 144.82 140.959 145.046 139.302 145.878C137.644 146.709 136.439 147.994 135.685 149.052C135.083 150.11 134.781 150.866 134.781 150.866Z" fill="#8E4E9D"/>
<path d="M147.286 143.913C147.286 143.988 146.005 144.064 144.424 144.215C142.841 144.366 141.561 144.517 141.561 144.441C141.561 144.441 141.862 144.366 142.389 144.29C142.917 144.215 143.594 144.139 144.424 144.064C145.252 143.988 145.93 143.988 146.457 143.988C146.985 143.837 147.286 143.837 147.286 143.913Z" fill="#89479A"/>
<g opacity="0.2">
<g opacity="0.2">
<path opacity="0.2" d="M145.781 146.557C145.856 146.633 146.157 145.576 146.082 145.122C144.5 144.441 143.596 144.971 142.466 144.744C142.315 144.744 140.883 145.348 140.809 145.197C140.658 144.971 141.713 144.366 141.938 144.29C144.048 143.837 145.781 143.535 147.137 142.779C147.965 142.25 148.342 141.872 148.644 140.89C148.869 140.21 149.095 139.53 149.321 138.85C149.472 138.472 149.472 137.943 149.17 137.792C148.945 137.641 148.644 137.867 148.342 137.943C148.116 138.095 147.664 138.095 147.589 137.867C147.438 137.565 147.89 137.263 148.192 137.112C151.43 135.902 153.841 132.805 154.368 129.328L154.217 126.608L155.724 130.764L151.581 138.774C149.622 141.872 147.739 144.441 145.781 146.557Z" fill="black"/>
</g>
</g>
<path d="M145.331 128.572C145.255 128.572 145.18 127.438 145.029 126.003C144.954 124.567 144.879 123.433 144.954 123.433C145.029 123.433 145.104 124.567 145.255 126.003C145.406 127.438 145.406 128.572 145.331 128.572Z" fill="white"/>
<path d="M150.524 130.839C150.599 130.839 150.147 131.519 149.619 132.351C149.017 133.107 148.565 133.711 148.49 133.711C148.414 133.711 148.866 133.03 149.394 132.2C149.921 131.444 150.449 130.839 150.524 130.839Z" fill="white"/>
<path d="M143.147 137.942C143.072 137.942 142.921 137.565 142.695 137.035C142.544 136.507 142.394 136.129 142.469 136.054C142.544 136.054 142.695 136.431 142.921 136.96C143.147 137.489 143.223 137.942 143.147 137.942Z" fill="white"/>
<path d="M138.772 141.871C138.847 141.947 138.395 142.401 138.019 143.157C137.642 143.836 137.34 144.441 137.34 144.441C137.265 144.441 137.416 143.761 137.868 143.08C138.244 142.325 138.772 141.871 138.772 141.871Z" fill="white"/>
<path d="M137.711 138.547C137.635 138.547 137.41 137.867 137.183 136.96C136.958 136.053 136.807 135.374 136.807 135.374C136.882 135.374 137.108 136.053 137.334 136.96C137.56 137.792 137.711 138.547 137.711 138.547Z" fill="white"/>
<path d="M143.744 130.84C143.744 130.915 143.066 131.066 142.237 131.066C141.409 131.142 140.731 130.991 140.731 130.991C140.731 130.915 141.409 130.915 142.237 130.915C143.066 130.84 143.744 130.764 143.744 130.84Z" fill="white"/>
<path d="M151.347 127.061C151.272 127.061 151.347 126.608 151.423 126.078C151.498 125.55 151.498 125.096 151.498 125.096C151.574 125.096 151.648 125.55 151.574 126.078C151.574 126.683 151.423 127.061 151.347 127.061Z" fill="white"/>
<path d="M150.067 118.219C150.067 118.294 149.464 118.521 148.71 118.597C147.957 118.672 147.28 118.672 147.354 118.597C147.354 118.521 147.957 118.521 148.71 118.369C149.464 118.294 150.067 118.219 150.067 118.219Z" fill="white"/>
<path d="M197.156 118.294L190.679 123.357L188.192 124.491L190.679 120.713L196.027 116.783C196.479 116.481 197.006 116.632 197.307 117.085C197.608 117.464 197.608 117.992 197.156 118.294Z" fill="#263238"/>
<path d="M173.348 129.403C173.649 129.403 181.635 126.229 181.86 125.775C182.011 125.322 181.936 124.113 183.518 123.659C185.1 123.206 186.758 122.677 186.758 122.677L190.825 119.957C190.825 119.957 191.955 120.335 190.901 121.543C190.223 122.299 189.62 122.829 189.018 123.433C188.641 123.735 189.168 124.038 189.168 124.038L194.969 119.957C194.969 119.957 194.893 121.392 193.838 122.829L193.01 123.887C193.01 123.887 193.537 125.096 192.407 126.229C191.277 127.287 189.394 130.007 187.435 130.158C185.476 130.31 184.12 130.386 184.12 130.386L173.951 135.373L173.348 129.403Z" fill="#F8B19A"/>
<path d="M193.309 123.509C193.309 123.585 192.707 124.113 191.877 124.718C191.049 125.322 190.371 125.852 190.296 125.776C190.296 125.701 190.898 125.171 191.727 124.566C192.556 123.887 193.233 123.433 193.309 123.509Z" fill="#E654A0"/>
<path d="M151.352 110.284C151.352 110.284 156.323 107.791 159.337 109.605C161.748 111.04 163.48 117.464 165.137 121.015C165.589 121.922 166.418 122.527 166.795 122.98C168.452 124.945 168.904 128.27 168.904 128.27L180.43 126.154L181.635 133.484C181.635 133.484 170.411 141.872 164.008 139.983C157.303 137.942 155.118 129.781 155.118 129.781L151.352 110.284Z" fill="#06BCD4"/>
<path d="M166.268 132.653C166.268 132.653 166.268 132.653 166.268 132.577C166.268 132.502 166.268 132.426 166.268 132.275C166.268 132.123 166.268 131.972 166.268 131.821C166.268 131.67 166.268 131.444 166.343 131.217C166.419 130.763 166.569 130.159 167.021 129.63C167.473 129.101 168.076 128.572 168.904 128.194C171.767 127.665 175.759 126.909 180.354 126.078H180.43V126.154C180.806 128.421 181.258 130.914 181.71 133.484V133.56H181.636C179.301 135.146 176.739 136.809 173.876 138.093C173.575 138.244 173.349 138.32 173.047 138.471C172.746 138.622 172.52 138.698 172.219 138.774C171.918 138.849 171.691 139 171.39 139.076C171.089 139.151 170.863 139.227 170.562 139.378C170.035 139.604 169.507 139.68 168.904 139.832C168.603 139.907 168.377 139.907 168.076 139.983C167.775 140.058 167.548 140.058 167.247 140.134C166.117 140.285 165.063 140.285 164.008 140.058C162.953 139.907 161.973 139.453 161.145 138.849C159.488 137.716 158.208 136.204 157.228 134.693C156.249 133.181 155.57 131.595 155.043 130.235C154.516 128.798 154.064 127.514 153.687 126.305C153.31 125.171 153.009 124.113 152.708 123.357C152.406 122.526 152.181 121.922 152.03 121.543C151.954 121.317 151.879 121.166 151.879 121.09C151.954 121.241 152.03 121.392 152.105 121.543C152.256 121.997 152.557 122.601 152.783 123.357C153.085 124.189 153.386 125.171 153.762 126.305C154.139 127.438 154.591 128.798 155.118 130.159C155.646 131.595 156.4 133.106 157.304 134.618C158.282 136.129 159.488 137.64 161.22 138.698C162.877 139.907 165.063 140.209 167.172 139.907C167.473 139.907 167.699 139.832 168 139.755C168.302 139.68 168.528 139.68 168.829 139.604C169.356 139.453 169.883 139.378 170.411 139.151C170.712 139.076 170.938 139 171.239 138.849C171.541 138.774 171.767 138.622 172.068 138.546C172.37 138.471 172.595 138.32 172.897 138.244C173.123 138.093 173.424 138.018 173.65 137.867C176.513 136.582 179.074 134.92 181.409 133.332L181.334 133.409C180.882 130.763 180.505 128.345 180.129 126.078L180.204 126.154C175.534 126.985 171.616 127.74 168.679 128.27C167.85 128.572 167.247 129.101 166.795 129.63C166.343 130.159 166.192 130.763 166.117 131.217C166.042 131.444 166.042 131.67 166.042 131.821C166.042 131.972 166.042 132.123 166.042 132.275C166.042 132.426 166.042 132.502 166.042 132.577C166.268 132.577 166.268 132.653 166.268 132.653Z" fill="#8E4E9D"/>
<path d="M168.908 128.194C168.908 128.194 168.908 128.119 168.833 127.968C168.833 127.816 168.758 127.514 168.683 127.212C168.532 126.607 168.305 125.624 167.779 124.566C167.251 123.508 166.272 122.526 165.292 121.241C164.84 120.637 164.388 119.881 164.012 119.125C163.635 118.37 163.409 117.539 163.108 116.632C162.806 115.801 162.656 114.894 162.28 114.139C161.978 113.383 161.526 112.627 161.149 112.023C160.773 111.342 160.321 110.737 159.869 110.284C159.417 109.756 158.889 109.453 158.362 109.226C157.307 108.773 156.328 108.773 155.65 108.849C154.972 108.924 154.67 109 154.67 109C154.67 109 154.746 109 154.897 108.924C155.047 108.849 155.349 108.849 155.65 108.773C156.328 108.698 157.307 108.698 158.437 109.151C158.965 109.377 159.568 109.679 160.02 110.209C160.472 110.737 160.924 111.342 161.376 112.023C161.828 112.702 162.204 113.383 162.505 114.214C162.881 114.969 163.108 115.876 163.333 116.707C163.56 117.539 163.861 118.37 164.237 119.201C164.615 119.957 164.991 120.637 165.519 121.241C166.423 122.45 167.401 123.508 168.004 124.566C168.532 125.624 168.758 126.607 168.908 127.212C168.984 127.514 168.984 127.816 169.059 127.968C168.908 128.119 168.908 128.194 168.908 128.194Z" fill="#8E4E9D"/>
<path d="M151.648 113.685C151.573 113.685 151.648 113.08 151.799 112.399C151.95 111.72 152.1 111.115 152.1 111.19C152.176 111.19 152.1 111.795 151.95 112.476C151.875 113.155 151.724 113.685 151.648 113.685Z" fill="white"/>
<path d="M158.738 112.173C158.738 112.248 158.135 112.324 157.457 112.399C156.779 112.476 156.176 112.476 156.176 112.476C156.176 112.399 156.779 112.324 157.457 112.248C158.135 112.173 158.738 112.097 158.738 112.173Z" fill="white"/>
<path d="M154.749 120.637C154.673 120.637 154.523 120.034 154.448 119.202C154.297 118.371 154.297 117.767 154.297 117.767C154.372 117.767 154.523 118.371 154.598 119.202C154.749 119.958 154.824 120.637 154.749 120.637Z" fill="white"/>
<path d="M161.825 119.504C161.825 119.58 161.223 119.58 160.469 119.504C159.717 119.428 159.114 119.352 159.114 119.352C159.114 119.277 159.717 119.277 160.469 119.352C161.223 119.352 161.825 119.428 161.825 119.504Z" fill="white"/>
<path d="M157.984 126.758C157.909 126.758 158.135 126.077 158.436 125.322C158.737 124.566 158.964 123.961 159.039 123.961C159.115 123.961 158.888 124.642 158.587 125.398C158.285 126.228 157.984 126.833 157.984 126.758Z" fill="white"/>
<path d="M164.918 126.531C164.842 126.531 164.466 126.003 164.239 125.247C163.938 124.491 163.863 123.811 163.938 123.811C164.014 123.811 164.164 124.416 164.466 125.172C164.691 125.926 164.993 126.531 164.918 126.531Z" fill="white"/>
<path d="M161.824 131.67C161.824 131.746 161.372 131.595 160.769 131.368C160.242 131.142 159.79 130.915 159.79 130.915C159.79 130.84 160.242 130.991 160.845 131.217C161.448 131.368 161.824 131.595 161.824 131.67Z" fill="white"/>
<path d="M164.082 137.188C164.082 137.263 163.405 136.886 162.501 136.507C161.672 136.13 160.918 135.828 160.918 135.828C160.918 135.752 161.672 135.979 162.576 136.356C163.48 136.735 164.082 137.188 164.082 137.188Z" fill="white"/>
<path d="M169.437 135.222C169.513 135.297 169.061 135.827 168.458 136.431C167.856 137.035 167.329 137.564 167.329 137.488C167.253 137.413 167.705 136.884 168.308 136.279C168.91 135.676 169.362 135.146 169.437 135.222Z" fill="white"/>
<path d="M170.031 131.595C169.956 131.595 169.729 131.141 169.277 130.537C168.825 130.007 168.374 129.63 168.449 129.554C168.449 129.479 168.976 129.856 169.428 130.386C169.88 130.99 170.106 131.595 170.031 131.595Z" fill="white"/>
<path d="M173.281 133.409C173.205 133.409 173.431 132.804 173.657 132.048C173.883 131.293 174.034 130.688 174.109 130.688C174.185 130.688 174.109 131.368 173.883 132.123C173.657 132.879 173.355 133.484 173.281 133.409Z" fill="white"/>
<path d="M177.719 128.875C177.719 128.95 177.042 128.95 176.212 128.875C175.384 128.798 174.706 128.723 174.782 128.647C174.782 128.572 175.459 128.572 176.288 128.647C177.042 128.723 177.719 128.798 177.719 128.875Z" fill="white"/>
<path d="M177.797 133.635C177.797 133.711 177.269 134.013 176.592 134.316C175.913 134.618 175.311 134.844 175.236 134.769C175.236 134.693 175.763 134.391 176.441 134.089C177.119 133.786 177.721 133.56 177.797 133.635Z" fill="white"/>
<path d="M138.995 151.998C138.919 151.998 138.995 151.394 139.146 150.638C139.296 149.882 139.447 149.278 139.447 149.278C139.522 149.278 139.447 149.882 139.296 150.638C139.146 151.394 138.995 151.998 138.995 151.998Z" fill="white"/>
<path d="M136.436 154.87C136.436 154.945 135.759 154.719 135.005 154.493C134.252 154.191 133.649 153.964 133.649 153.888C133.649 153.812 134.327 154.04 135.08 154.266C135.834 154.568 136.436 154.795 136.436 154.87Z" fill="white"/>
<path d="M134.32 156.231C134.396 156.231 134.32 156.986 134.169 157.817C134.019 158.724 133.868 159.404 133.793 159.404C133.717 159.404 133.793 158.649 133.944 157.817C134.094 156.91 134.245 156.231 134.32 156.231Z" fill="white"/>
<path d="M134.25 145.348C134.325 145.425 133.798 145.878 133.196 146.483C132.593 147.087 132.216 147.616 132.141 147.616C132.065 147.616 132.442 147.011 133.045 146.331C133.648 145.727 134.175 145.348 134.25 145.348Z" fill="white"/>
<path d="M147.666 140.89C147.666 140.965 147.063 141.343 146.159 141.569C145.255 141.797 144.502 141.721 144.502 141.646C144.502 141.569 145.255 141.569 146.084 141.343C146.988 141.116 147.666 140.814 147.666 140.89Z" fill="white"/>
</svg>
