<svg width="238" height="181" viewBox="0 0 238 181" fill="none" xmlns="http://www.w3.org/2000/svg">
<path d="M0 173.524C0 177.394 53.2266 180.43 118.853 180.43C184.48 180.43 237.707 177.318 237.707 173.524C237.707 169.653 184.48 166.618 118.853 166.618C53.2266 166.618 0 169.73 0 173.524Z" fill="#D6B6F9"/>
<path opacity="0.2" d="M218.725 145.293C217.818 128.901 209.727 108.184 196.118 99.0009C187.726 93.3097 176.99 91.3364 169.354 84.4306C162.246 77.9798 160.281 68.1146 158.012 59.1594C153.325 41.1738 145.008 23.2644 130.265 11.9561C102.517 -9.14015 61.3119 -0.564766 39.3097 24.7055C28.4984 37.076 21.6938 52.937 20.4085 69.3282C18.972 88.2247 18.0647 107.197 20.0305 126.093C20.6353 132.316 21.845 139.222 24.0376 145.673C25.7766 150.833 28.196 155.69 31.4469 159.712C36.4376 165.556 42.2591 168.211 46.4931 169.426C46.7948 169.502 47.1736 169.577 47.4753 169.653C49.7441 170.108 52.0882 170.337 54.4312 170.412H159.449C168.748 170.412 178.048 170.412 187.348 170.412C190.674 170.412 194.002 170.412 197.328 170.412H206.25C206.552 170.412 206.779 170.412 207.005 170.412C207.611 170.337 208.215 170.185 208.745 169.957C210.333 169.274 211.542 167.908 212.677 166.542C217.289 160.774 218.952 154.4 218.952 147.949C218.801 147.114 218.801 146.204 218.725 145.293Z" fill="#B1D3DD"/>
<path opacity="0.2" d="M212.532 166.542C217.144 160.775 218.808 154.4 218.808 147.949C218.808 147.039 218.808 146.204 218.733 145.293C217.901 141.651 216.313 138.16 214.045 135.276C207.467 127.08 196.504 123.286 185.994 123.286C177.678 123.286 169.21 125.334 161.045 123.817C147.662 121.313 138.06 109.929 128.533 100.139C114.546 85.8728 97.4595 73.1234 77.65 70.8465C51.9439 67.8872 25.6329 85.038 21.1722 111.219C17.6942 131.785 23.6671 162.9 46.5764 169.426C46.878 169.502 47.2568 169.577 47.5585 169.654C49.8273 170.109 52.1714 170.337 54.5144 170.412H159.533C168.832 170.412 178.132 170.412 187.431 170.412C190.758 170.412 194.085 170.412 197.411 170.412H206.333C206.636 170.412 206.862 170.412 207.089 170.412C207.694 170.337 208.298 170.185 208.827 169.957C210.264 169.274 211.474 167.908 212.532 166.542Z" fill="#D6B6F9"/>
<path d="M93.6794 127.004L89.4453 129.812L93.3778 138.767L101.694 136.187C100.182 132.24 97.3092 129.053 93.6794 127.004Z" fill="#193B9A"/>
<path d="M136.548 166.543H132.768C131.71 166.543 130.727 166.087 129.971 165.404C129.215 164.645 128.231 164.266 127.173 164.266H124.98L124.149 168.212H142.295C141.992 166.77 141.085 165.556 139.875 164.797L138.438 163.962C138.741 165.252 137.909 166.543 136.548 166.543Z" fill="#15005D"/>
<path d="M117.422 124.348C115.23 119.036 108.727 117.063 103.963 120.174L93.6814 127.004C97.3102 128.977 100.183 132.24 101.772 136.187L107.668 134.366L112.432 141.65L120.371 131.102L117.422 124.348Z" fill="#CEA27E"/>
<path d="M138.287 164.037L135.414 162.368C133.524 161.229 132.012 159.484 131.181 157.435L120.294 131.178L112.354 141.726L125.435 161.837L124.905 164.265H127.098C128.156 164.265 129.14 164.72 129.895 165.403C130.651 166.162 131.634 166.542 132.692 166.542H136.473C137.909 166.542 138.741 165.252 138.287 164.037Z" fill="#CEA27E"/>
<path d="M83.9203 90.4253C84.6007 93.1572 87.2474 95.1304 90.0444 95.6616C94.052 96.345 97.8321 94.9791 100.403 91.8675C101.764 90.1217 103.276 88.2246 105.469 87.7697C106.3 87.6173 107.207 87.6173 108.115 87.5421C109.551 87.3147 110.761 86.2514 110.837 84.8103C110.912 83.1407 108.796 81.5463 109.627 80.0291C110.08 79.2704 111.139 79.0419 111.669 78.3595C112.198 77.6008 111.97 76.5376 111.517 75.7789C111.064 75.0203 110.383 74.3369 110.005 73.5021C108.947 71.0739 110.912 68.1907 113.408 67.2797C113.861 67.1274 114.314 67.0522 114.844 66.9761C113.18 65.9138 111.139 65.3065 109.097 65.3826L107.207 65.4578C101.991 65.6863 97.4543 69.1006 95.8669 74.0342L94.4298 78.4356C93.3716 81.5463 90.801 83.8232 87.6252 84.4305C87.021 84.5818 86.4157 84.7342 85.8103 84.9617C84.2229 86.1001 83.3912 88.377 83.9203 90.4253Z" fill="#6A0C4F"/>
<path d="M126.791 107.5L125.507 80.8638L121.046 73.4259L117.946 69.8592L116.963 68.7208C116.283 67.9622 115.602 67.3549 114.771 66.8237C114.317 66.8999 113.788 66.9761 113.334 67.1274C110.839 68.0383 108.873 70.9215 109.931 73.3507C110.31 74.1855 110.991 74.868 111.444 75.6266C111.898 76.3862 112.124 77.4485 111.595 78.2072C111.066 78.9658 110.007 79.1181 109.553 79.8767C108.722 81.3188 110.839 82.9122 110.763 84.658C110.688 86.1752 109.402 87.2385 108.041 87.3899C107.134 87.5412 106.303 87.466 105.396 87.6173C103.203 88.0733 101.766 89.9704 100.33 91.7151C97.7592 94.8268 93.9791 96.1927 89.9715 95.5103C87.1745 95.0543 84.5278 93.0811 83.8474 90.274C83.3182 88.3008 84.15 86.0239 85.6622 84.7341C84.2252 85.3405 83.0156 86.3276 82.1086 87.466C81.5033 88.2246 81.0504 89.0594 80.7477 89.9704L79.6133 93.2334C78.2523 97.1798 80.6716 101.429 84.7543 102.189L86.2666 102.491C92.3155 103.63 98.4396 101.354 102.295 96.4964L104.261 93.992C105.622 92.2463 107.663 91.184 109.931 91.1088C114.543 93.3847 118.702 96.7239 121.953 100.898L123.994 103.555L123.389 104.389L126.791 107.5Z" fill="#300030"/>
<path d="M120.974 73.426L124.075 77.2963L123.545 75.3231L120.974 73.426Z" fill="white" stroke="#231F20" stroke-width="0.9613"/>
<path d="M129.972 138.236L129.216 130.874L122.638 138.464L128.46 151.593C129.896 147.266 130.501 142.714 129.972 138.236Z" fill="#E5B690"/>
<path d="M135.798 129.508L135.571 127.536C135.042 122.602 131.186 118.657 126.346 118.126L120.45 117.442L119.013 118.581L129.674 127.687C131.337 129.129 133.605 129.812 135.798 129.508Z" fill="#F4CFA4"/>
<path d="M144.797 165.48L144.495 164.797C142.907 164.114 141.546 163.127 140.488 161.761C139.353 160.32 138.598 158.498 138.446 156.678L135.724 129.584C133.532 129.813 131.264 129.129 129.6 127.687L118.939 118.581L103.44 130.799C111.228 131.558 117.352 138.008 117.655 145.977L122.569 138.388L129.146 130.799L129.903 138.161C130.357 142.714 129.827 147.267 128.391 151.516L132.398 160.548L131.718 165.784H133.683C134.741 165.784 135.724 166.239 136.481 166.923C137.237 167.681 138.22 168.061 139.278 168.061H143.058C144.495 168.136 145.402 166.695 144.797 165.48Z" fill="#F4CFA4"/>
<path d="M143.123 168.136H139.342C138.284 168.136 137.301 167.68 136.545 166.998C135.789 166.239 134.807 165.859 133.747 165.859H131.782L131.102 171.323H154.237C152.8 169.047 150.684 167.302 148.188 166.314L144.786 164.948C144.711 164.948 144.635 164.873 144.559 164.873L144.862 165.556C145.391 166.694 144.484 168.136 143.123 168.136Z" fill="#15005D"/>
<path d="M99.7292 133.759L93.3776 138.767L56.6328 149.999L54.3649 160.016C52.55 168.06 57.3894 173.676 67.7476 174.511C68.5032 174.587 84.9094 175.726 87.4809 175.726C94.2094 175.726 100.56 172.31 104.265 166.619L115.38 149.543C114.397 141.272 107.895 134.746 99.7292 133.759Z" fill="#22439F"/>
<path d="M103.509 130.799L99.7292 133.758C107.895 134.745 114.397 141.272 115.38 149.467L117.649 145.977C117.421 138.084 111.297 131.558 103.509 130.799Z" fill="#345BB2"/>
<path d="M123.394 104.465L116.135 114.178L120.446 117.441L126.796 107.5L123.394 104.465Z" fill="#FFD9AD"/>
<path d="M141.388 117.139L126.72 89.2118L126.87 79.042C126.87 77.8284 126.418 76.6138 125.51 75.7791L123.544 73.9581C122.864 73.3508 121.881 73.1234 121.049 73.427L117.949 69.8604C117.118 70.5428 116.891 71.6812 117.344 72.6674L119.159 76.4625L117.194 73.8058C116.815 73.3508 116.437 72.971 115.908 72.6674L113.111 71.1501C112.506 70.7703 111.674 70.9978 111.371 71.6812C111.145 72.0611 111.296 72.516 111.599 72.8197L114.018 74.8681L116.134 81.2428C116.286 81.6226 116.211 82.0024 115.983 82.3061C115.605 82.8372 114.925 82.9885 114.396 82.6097L112.354 81.3189C111.296 80.6365 109.935 80.4841 108.726 80.9401L112.506 85.6452C113.489 86.935 114.925 87.8459 116.513 88.3009L119.688 89.2118L126.795 107.501L120.445 117.442L131.332 125.714C137.077 130.116 144.714 123.59 141.388 117.139Z" fill="#FFD9AD"/>
<path d="M126.796 107.501L135.794 117.366L122.638 96.7249L126.796 107.501Z" fill="#E5B690"/>
<path d="M122.03 100.974C118.779 96.8001 114.696 93.461 110.009 91.1841C107.817 91.2602 105.775 92.3225 104.338 94.0683L102.373 96.5716C98.5167 101.429 92.3925 103.706 86.3446 102.567L84.8323 102.264C80.7496 101.505 78.3294 97.2551 79.6903 93.3086L80.8247 90.0456C81.1274 89.1347 81.6565 88.2999 82.1857 87.5413H81.9592C76.6668 87.5413 71.6761 90.1218 68.6526 94.5232C60.9401 105.679 56.4044 118.807 55.6477 132.391L54.8921 146.203C54.5894 151.061 58.5209 155.158 63.3593 155.158H88.0833C93.8296 155.158 97.9124 149.542 96.1727 144.002C95.0392 140.588 94.963 136.945 95.7197 133.454L95.9462 132.315C96.6266 129.356 98.8193 126.928 101.693 125.865C104.717 124.803 106.909 122.223 107.514 119.111L109.329 109.549L115.453 114.786L123.391 104.237L123.996 103.402L122.03 100.974Z" fill="#B0D6EA"/>
<path d="M135.038 55.8203C141.635 55.8203 146.984 50.4518 146.984 43.8295C146.984 37.2074 141.635 31.8398 135.038 31.8398C128.441 31.8398 123.093 37.2074 123.093 43.8295C123.093 50.4518 128.441 55.8203 135.038 55.8203Z" fill="#FFE33F"/>
<path d="M137.839 39.7317C137.839 40.4141 138.368 40.8691 138.973 40.8691C139.653 40.8691 140.107 40.338 140.107 39.7317C140.107 39.0482 139.578 38.5932 138.973 38.5932C138.368 38.517 137.839 39.0482 137.839 39.7317Z" fill="#005085"/>
<path d="M129.896 39.7317C129.896 40.4141 130.425 40.8691 131.029 40.8691C131.71 40.8691 132.164 40.338 132.164 39.7317C132.164 39.0482 131.635 38.5932 131.029 38.5932C130.425 38.517 129.896 39.0482 129.896 39.7317Z" fill="#005085"/>
<path d="M129.824 49.0667C130.05 49.0667 130.202 48.9143 130.202 48.6868C130.202 45.955 132.394 43.8304 135.04 43.8304C137.762 43.8304 139.879 46.0311 139.879 48.6868C139.879 48.9143 140.031 49.0667 140.257 49.0667C140.484 49.0667 140.635 48.9143 140.635 48.6868C140.635 45.5762 138.141 43.0718 135.04 43.0718C131.94 43.0718 129.446 45.5762 129.446 48.6868C129.446 48.9143 129.596 49.0667 129.824 49.0667Z" fill="#005085"/>
<path d="M113.484 34.1918C117.827 34.1918 121.348 30.6583 121.348 26.2999C121.348 21.9406 117.827 18.407 113.484 18.407C109.141 18.407 105.621 21.9406 105.621 26.2999C105.621 30.6583 109.141 34.1918 113.484 34.1918Z" fill="#FFE33F"/>
<path d="M115.38 23.568C115.38 24.0229 115.759 24.3266 116.137 24.3266C116.589 24.3266 116.892 23.9478 116.892 23.568C116.892 23.1881 116.514 22.8093 116.137 22.8093C115.683 22.8093 115.38 23.1881 115.38 23.568Z" fill="#005085"/>
<path d="M110.162 23.568C110.162 24.0229 110.54 24.3266 110.918 24.3266C111.371 24.3266 111.674 23.9478 111.674 23.568C111.674 23.1881 111.296 22.8093 110.918 22.8093C110.464 22.8093 110.162 23.1881 110.162 23.568Z" fill="#005085"/>
<path d="M110.082 29.7152C110.233 29.7152 110.309 29.6391 110.309 29.4878C110.309 27.742 111.745 26.2999 113.485 26.2999C115.223 26.2999 116.66 27.742 116.66 29.4878C116.66 29.6391 116.736 29.7152 116.887 29.7152C117.037 29.7152 117.114 29.6391 117.114 29.4878C117.114 27.4384 115.45 25.7688 113.409 25.7688C111.367 25.7688 109.704 27.4384 109.704 29.4878C109.855 29.6391 109.931 29.7152 110.082 29.7152Z" fill="#005085"/>
<path d="M132.241 18.7868C135.332 18.7868 137.836 16.2724 137.836 13.1707C137.836 10.0691 135.332 7.55469 132.241 7.55469C129.151 7.55469 126.647 10.0691 126.647 13.1707C126.647 16.2724 129.151 18.7868 132.241 18.7868Z" fill="#FFE33F"/>
<path d="M133.607 11.1974C133.607 11.5011 133.833 11.7286 134.136 11.7286C134.439 11.7286 134.665 11.5011 134.665 11.1974C134.665 10.8938 134.439 10.6663 134.136 10.6663C133.833 10.6663 133.607 10.8938 133.607 11.1974Z" fill="#005085"/>
<path d="M129.825 11.1974C129.825 11.5011 130.052 11.7286 130.355 11.7286C130.657 11.7286 130.884 11.5011 130.884 11.1974C130.884 10.8938 130.657 10.6663 130.355 10.6663C130.128 10.6663 129.825 10.8938 129.825 11.1974Z" fill="#005085"/>
<path d="M129.823 15.5988C129.898 15.5988 129.973 15.5227 129.973 15.4475C129.973 14.1567 131.033 13.1706 132.242 13.1706C133.527 13.1706 134.51 14.2329 134.51 15.4475C134.51 15.5227 134.586 15.5988 134.661 15.5988C134.736 15.5988 134.813 15.5227 134.813 15.4475C134.813 14.0054 133.603 12.7908 132.166 12.7908C130.73 12.7908 129.52 14.0054 129.52 15.4475C129.595 15.5227 129.672 15.5988 129.823 15.5988Z" fill="#005085"/>
</svg>
