<svg width="217" height="182" viewBox="0 0 217 182" fill="none" xmlns="http://www.w3.org/2000/svg">
<path d="M0 175.293C0 178.808 48.5448 181.62 108.347 181.62C168.149 181.62 216.694 178.808 216.694 175.293C216.694 171.777 168.149 168.965 108.347 168.965C48.5448 168.965 0 171.856 0 175.293Z" fill="#D6B6F9"/>
<path opacity="0.2" d="M210.751 148.733C209.812 131.939 201.527 110.849 187.533 101.474C178.856 95.6944 167.912 93.663 160.095 86.5547C152.824 79.9928 150.792 69.9164 148.447 60.7768C143.679 42.4201 135.079 24.1419 119.993 12.5806C91.6158 -8.8227 49.403 -0.0744781 26.8105 25.7034C15.7884 38.3584 8.75291 54.5278 7.50219 71.322C6.01686 90.6164 5.07885 109.989 7.11133 129.283C7.73672 135.689 8.98744 142.641 11.2544 149.202C13.0524 154.436 15.4757 159.435 18.8372 163.575C23.9963 169.512 29.9375 172.246 34.2367 173.417C34.5496 173.496 34.941 173.573 35.2539 173.652C37.5981 174.121 39.9434 174.355 42.3672 174.434H150.01C159.547 174.434 169.084 174.434 178.621 174.434C182.061 174.434 185.423 174.434 188.863 174.434H198.008C198.321 174.434 198.556 174.434 198.79 174.434C199.416 174.355 200.041 174.199 200.509 173.965C202.151 173.261 203.402 171.855 204.497 170.528C209.266 164.669 210.985 158.186 210.907 151.545C210.828 150.609 210.828 149.671 210.751 148.733Z" fill="#DBB6C0"/>
<path opacity="0.2" d="M204.419 170.528C209.187 164.669 210.908 158.186 210.829 151.545C210.829 150.609 210.829 149.749 210.751 148.812C209.969 145.062 208.328 141.547 205.904 138.578C199.181 130.142 187.925 126.315 177.137 126.315C168.538 126.315 159.939 128.423 151.496 126.862C137.738 124.284 127.888 112.723 118.117 102.724C103.811 88.1172 86.3004 75.1503 65.9757 72.8845C41.3509 70.0724 15.3981 85.3051 8.83161 109.755C7.97168 112.801 7.50262 115.925 7.19001 119.128C6.56461 126.862 7.50262 134.673 9.22248 142.25C11.1768 150.686 14.3037 159.201 20.3229 165.372C31.7364 177.011 49.1685 174.511 64.0993 174.511C80.9066 174.511 97.7923 174.511 114.599 174.511C126.012 174.511 137.426 174.511 148.916 174.511C149.229 174.511 149.542 174.511 149.855 174.511C159.392 174.511 168.929 174.511 178.466 174.511C181.905 174.511 185.267 174.511 188.707 174.511H197.852C198.165 174.511 198.4 174.511 198.634 174.511C199.26 174.433 199.885 174.277 200.354 174.042C202.074 173.261 203.325 171.856 204.419 170.528Z" fill="#D6B6F9"/>
<path d="M93.9621 22.8914C66.7575 4.53465 51.0449 35.6239 51.0449 35.6239C65.0381 32.7343 71.761 43.201 71.761 43.201L90.2092 36.0927L93.9621 22.8914Z" fill="#314168"/>
<path d="M121.786 72.65C123.192 105.38 88.4839 102.412 88.4839 102.412C98.3338 92.023 92.8615 80.852 92.8615 80.852L108.574 68.8228L121.786 72.65Z" fill="#314168"/>
<path d="M84.8963 81.2434L67.3072 49.7628C66.3685 48.0443 64.1802 47.4195 62.4607 48.4347L62.3037 48.5132C60.5843 49.4509 59.9585 51.6382 60.9747 53.3567L78.5637 84.8362C79.5024 86.5547 81.6907 87.1795 83.4102 86.1643L83.5672 86.0858C85.2866 85.1491 85.9124 82.9618 84.8963 81.2434Z" fill="#314168"/>
<path d="M30.8743 78.8991C41.0371 57.1055 62.2995 55.699 62.2995 55.699L77.3088 82.5705C62.4564 103.896 40.0984 98.5839 40.0984 98.5839C51.043 94.0534 54.2475 87.9603 54.2475 87.9603C36.6595 98.6624 22.8223 96.6311 22.8223 96.6311C28.7634 82.649 45.4147 73.3534 45.4147 73.3534C37.2843 73.5094 30.8743 78.8991 30.8743 78.8991Z" fill="#D64100"/>
<path d="M64.5634 59.8391C54.8705 61.0887 49.4766 67.4947 49.4766 67.4947C55.4178 66.1666 58.5448 66.713 58.5448 66.713C45.8023 74.2126 40.7988 86.0074 40.7988 86.0074C49.867 87.4139 63.7042 81.9457 63.7042 81.9457C61.5149 86.3977 56.9028 90.8509 56.9028 90.8509C65.1108 88.8195 71.5992 84.3674 74.8048 78.1958L64.5634 59.8391Z" fill="#FFD62C"/>
<path d="M158.534 43.0449C167.68 32.8126 176.982 20.0791 184.252 5.23784L183.549 5.54972L184.175 5.15937C167.993 3.51937 151.733 4.84745 138.365 7.19071C139.694 21.5642 147.277 34.1397 158.534 43.0449Z" fill="#314168"/>
<path d="M155.332 47.1077C156.426 45.7796 157.52 44.4515 158.536 43.046C148.296 33.5934 141.339 20.9394 138.993 7.11328C137.274 7.26923 135.553 7.50365 133.834 7.73807C136.414 22.8138 143.997 36.7185 155.332 47.1077Z" fill="#DD4A3E"/>
<path d="M133.907 7.65967C87.7072 14.2991 67.2256 49.6069 67.2256 49.6069L84.9705 81.3994C84.9705 81.3994 125.464 82.4146 155.248 47.1067C143.992 36.7175 136.409 22.8139 133.907 7.65967ZM111.706 46.6389C108.032 39.9985 110.377 31.6406 117.022 27.9693C123.666 24.2979 132.031 26.6412 135.705 33.2806C139.379 39.921 137.034 48.2789 130.389 51.9502C123.745 55.6216 115.38 53.2783 111.706 46.6389Z" fill="#8FA1DB"/>
<path d="M135.707 33.2022C132.033 26.5627 123.669 24.2195 117.024 27.8908C110.379 31.5622 108.034 39.92 111.708 46.5604C115.382 53.1998 123.747 55.5431 130.392 51.8718C137.036 48.2004 139.382 39.8425 135.707 33.2022ZM115.227 44.685C112.647 39.9985 114.288 34.0614 118.978 31.4837C123.669 28.906 129.61 30.547 132.19 35.2335C134.769 39.92 133.127 45.8571 128.437 48.4348C123.747 51.0125 117.806 49.3725 115.227 44.685Z" fill="#DD4A3E"/>
<path d="M129.39 47.7496C133.709 44.5893 134.647 38.5285 131.483 34.2122C128.32 29.8959 122.255 28.9592 117.936 32.1195C113.617 35.2807 112.679 41.3416 115.842 45.6569C119.005 49.9731 125.07 50.9098 129.39 47.7496Z" fill="white"/>
<path d="M108.267 48.5133C103.655 40.2329 79.4994 53.5127 70.1968 69.7606C88.9579 70.4639 112.88 56.7937 108.267 48.5133Z" fill="#DD4A3E"/>
<path d="M121.167 94.5212C121.167 94.5212 107.956 91.3972 107.956 87.1785C107.956 85.3041 107.018 86.1634 106.705 87.3345C106.392 88.5066 102.327 84.9912 101.78 86.8666C101.233 88.7411 103.343 90.6155 105.923 92.0995C108.503 93.5835 119.682 97.2559 119.682 97.2559L121.167 94.5212Z" fill="#E654A0"/>
<path d="M144.545 80.4616C141.652 79.6798 142.434 76.8677 140.01 78.5087C138.682 79.4464 138.682 79.055 133.444 85.6169C129.77 90.226 123.36 97.5687 123.36 97.5687L123.75 98.6623C124.845 99.756 126.33 99.756 127.816 99.2871C135.242 97.0998 148.61 88.2731 146.264 84.2114C145.248 82.6489 145.951 80.8519 144.545 80.4616Z" fill="#E654A0"/>
<path d="M113.665 91.2412L133.443 94.0533C133.443 94.0533 127.58 100.146 126.095 99.5991L111.008 94.9126L113.665 91.2412Z" fill="#E654A0"/>
<path d="M162.752 68.2755L165.566 64.4482C165.566 64.4482 169.866 50.3091 165.879 48.0444C164.081 47.0282 165.489 46.6378 166.739 46.9507C168.068 47.2626 166.895 41.5609 169.006 42.1072C171.117 42.6546 171.664 45.6226 171.664 48.8251C171.664 52.0276 171.273 64.6041 167.911 68.2755C164.472 72.1038 162.752 68.2755 162.752 68.2755Z" fill="#E654A0"/>
<path d="M150.327 78.1185C150.327 78.1185 153.298 74.8375 154.471 74.0557C160.256 70.0725 166.587 59.9177 166.587 59.9177L170.809 60.62C170.809 60.62 165.258 89.21 153.845 86.5548C147.513 85.0698 150.327 78.1185 150.327 78.1185Z" fill="#E654A0"/>
<path d="M144.23 121.94C144.23 121.94 147.357 141.781 151.03 141.39C155.018 140.922 157.05 137.797 158.848 128.735C161.193 117.331 161.819 105.302 151.891 105.458C143.057 105.692 144.23 121.94 144.23 121.94Z" fill="#3F236F"/>
<path d="M149.781 120.143C149.781 120.143 147.201 124.752 145.169 127.174C145.169 127.174 147.045 135.376 147.514 136.625C148.062 137.875 149.781 120.143 149.781 120.143Z" fill="#17094A"/>
<path d="M150.245 135.453C150.948 134.673 151.964 134.36 152.903 134.594C154.857 134.985 160.095 138.11 161.658 144.983C164.081 155.841 165.879 166.934 167.286 170.215C168.537 173.183 158.297 176.933 157.671 175.995C156.499 174.277 162.83 170.058 161.893 166.778C160.485 161.779 144.538 141.702 150.245 135.453Z" fill="#E654A0"/>
<path d="M132.111 117.409C132.111 117.409 125.388 133.423 128.75 139.437C130.705 142.953 137.584 135.688 143.525 129.673C158.378 114.675 157.908 104.989 148.763 101.083C140.711 97.6461 132.111 117.409 132.111 117.409Z" fill="#3F236F"/>
<path d="M135.939 136.625C135.939 136.625 141.099 142.797 142.272 149.046C143.131 153.655 142.975 167.481 143.679 171.074C144.147 173.417 144.46 175.839 142.818 175.995C140.004 176.23 132.578 177.558 131.093 176.23C129.608 174.901 134.376 173.574 137.659 172.012C138.754 171.465 139.927 170.605 139.77 169.044C139.614 167.481 128.826 142.797 128.279 139.203C127.419 133.345 135.939 136.625 135.939 136.625Z" fill="#E654A0"/>
<path d="M141.492 71.009C141.492 71.009 142.429 76.7892 140.318 79.7583L148.605 80.7735V71.009H141.492Z" fill="#E654A0"/>
<path d="M136.878 63.1986C135.705 67.8852 138.832 74.0557 143.992 74.5245C148.526 74.9149 151.731 71.8694 152.904 67.1044C154.076 62.4169 151.419 57.6519 147.04 56.6367C142.585 55.5431 138.051 58.4336 136.878 63.1986Z" fill="#E654A0"/>
<path d="M150.169 68.9787C152.515 65.2289 151.498 60.3864 147.903 57.8862C148.606 58.1207 149.231 58.3551 149.935 58.8239C153.765 61.2457 153.921 66.3226 151.498 70.1498C149.075 73.9781 145.792 75.6966 141.726 73.8997C141.257 73.6653 140.867 73.4308 140.398 73.1189C144.15 74.2126 147.903 72.4941 150.169 68.9787Z" fill="#E654A0"/>
<path d="M141.256 77.8839C141.256 77.8839 150.559 78.2743 155.327 76.2439C155.327 76.2439 157.828 75.0718 158.375 80.9304C159.001 86.7891 160.017 112.644 160.017 112.644C160.017 112.644 143.836 116.707 132.97 111.317C132.97 111.317 135.549 104.677 136.331 97.2558C137.426 87.3354 139.067 77.4935 141.256 77.8839Z" fill="#E654A0"/>
<path d="M141.415 92.335C141.415 92.335 139.304 94.3653 136.724 95.459C136.724 95.459 135.083 104.599 135.161 104.912C135.161 105.223 141.415 92.335 141.415 92.335Z" fill="#D36784"/>
<path d="M150.244 55.1525C150.244 55.1525 144.85 53.1211 139.299 56.715C133.749 60.3079 145.24 59.1357 146.725 63.9007C148.133 68.7442 150.244 55.1525 150.244 55.1525Z" fill="#491D68"/>
<path d="M145.556 82.1026C145.556 82.1026 142.742 83.6641 141.726 89.3668C141.334 88.5076 140.084 85.0707 141.57 83.2738C150.012 72.963 142.35 66.8699 142.898 60.308C143.211 56.4022 145.947 53.6686 151.497 55.0751C158.376 56.8711 162.442 65.3859 163.848 72.963C164.396 75.6966 164.552 78.2743 164.474 80.3842C164.161 85.3051 162.05 88.5861 159.236 90.6164C160.409 88.4291 160.721 86.3988 160.721 86.3988C160.096 88.8205 158.376 90.6949 156.891 92.023C156.188 92.3349 155.406 92.5693 154.703 92.8037C155.484 91.0078 155.719 89.5228 155.719 89.5228C155.406 90.8509 154.703 91.9445 153.921 92.9597C150.09 93.8199 146.103 93.3511 143.289 92.023C141.022 87.8828 145.556 82.1026 145.556 82.1026Z" fill="#491D68"/>
<path d="M134.615 155.997C131.645 148.812 128.518 141 128.205 139.047C127.424 133.033 135.945 136.547 135.945 136.547C135.945 136.547 141.104 142.718 142.276 148.967C142.512 150.217 142.667 152.014 142.746 154.123C141.26 155.295 138.759 156.31 134.615 155.997Z" fill="#3F236F"/>
<path d="M149.546 135.453C150.484 135.766 151.266 133.657 152.282 133.813C154.237 134.204 160.178 138.11 161.663 144.983C161.82 145.765 161.976 146.546 162.132 147.327C160.256 148.968 157.207 150.998 153.299 151.467C149.938 145.062 144.465 133.579 149.546 135.453Z" fill="#3F236F"/>
<path d="M131.642 174.668C135.316 174.668 140.475 172.637 143.681 171.153C144.15 173.496 144.384 175.839 142.742 175.918C139.928 176.152 132.502 177.48 131.017 176.152C130.547 175.683 130.86 175.136 131.642 174.668Z" fill="#7F2A41"/>
<path d="M166.666 168.34C166.9 169.121 167.057 169.746 167.292 170.215C168.542 173.183 158.302 176.933 157.676 175.995C157.286 175.449 157.676 174.668 158.379 173.73C161.506 173.183 164.634 170.528 166.666 168.34Z" fill="#7F2A41"/>
<path d="M145.323 58.5109L139.381 56.7925C139.381 56.7925 136.254 57.8077 136.254 62.7296L145.323 63.0415V58.5109Z" fill="#491D68"/>
<path d="M65.21 65.3085C65.21 65.3085 64.1153 71.0887 66.1477 74.0578C66.1477 74.0578 56.6107 74.6826 57.4709 72.7297C58.4871 70.308 58.1742 63.9805 58.1742 63.9805L65.21 65.3085Z" fill="#FCE5D6"/>
<path d="M62.5661 137.172C61.9402 136.312 61.0026 135.922 59.9864 136.001C57.954 136.157 54.9829 137.329 52.6376 144.124C48.8858 154.826 44.5857 166.152 42.006 169.043C39.0359 172.402 50.9182 177.01 51.2311 176.541C52.5602 174.355 45.2899 170.527 46.6965 167.324C48.5729 162.325 67.491 144.202 62.5661 137.172Z" fill="#FBAC6F"/>
<path d="M53.0311 141.469C55.2988 137.719 53.3439 133.111 52.2493 128.892C52.1718 128.736 52.1718 128.58 52.0933 128.424C49.1222 116.941 47.8716 104.756 57.956 104.443C66.9457 104.131 66.008 121.706 66.008 121.706C66.008 121.706 66.1639 133.111 64.523 139.36C62.8025 148.969 47.7942 168.965 47.7942 168.965L42.6348 165.684C49.5136 148.5 49.4352 147.328 53.0311 141.469Z" fill="#26387B"/>
<path opacity="0.29" d="M57.0938 115.613C57.0938 115.613 64.4415 120.456 66.4739 122.955C66.4739 122.955 65.4577 132.72 64.7544 136.86C64.52 138.188 57.0938 115.613 57.0938 115.613Z" fill="#420959"/>
<path d="M73.2781 136.001C73.2781 136.001 68.0402 142.328 66.8681 148.577C66.0079 153.264 66.1638 167.403 65.4606 170.997C64.9917 173.417 64.6788 175.918 66.3983 175.995C69.2124 176.229 76.7955 177.557 78.2806 176.229C79.7666 174.901 74.9191 173.574 71.6361 171.933C70.464 171.387 69.3693 170.528 69.5253 168.887C69.6822 167.247 80.7043 142.172 81.1732 138.501C82.0334 132.642 73.2781 136.001 73.2781 136.001Z" fill="#FBAC6F"/>
<path d="M65.539 170.605C67.4144 171.074 69.1349 171.309 70.6984 171.387C71.0103 171.621 71.3232 171.777 71.6361 171.933C74.9976 173.574 79.8441 174.901 78.2806 176.229C76.7955 177.558 69.2124 176.229 66.3983 175.995C64.6788 175.839 64.9917 173.417 65.4606 170.996C65.4606 170.918 65.4606 170.762 65.539 170.605Z" fill="#15070D"/>
<path d="M69.8363 136.001C69.8363 136.001 64.6769 129.44 62.3316 126.471C49.0428 109.363 49.902 103.583 59.2046 99.6001C67.4136 96.0847 77.2625 117.878 77.2625 117.878C77.2625 117.878 83.6735 133.111 81.0153 139.594C79.5303 145.375 72.2601 167.247 71.3998 170.293H64.4425C64.8339 164.903 64.8339 150.53 65.6156 146.624C66.6318 140.298 69.8363 136.001 69.8363 136.001Z" fill="#26387B"/>
<path d="M65.4568 73.8221C57.7952 75.2277 58.4994 70.6971 56.9359 72.3371C52.011 77.7279 48.9624 109.363 48.9624 109.363C48.9624 109.363 61.6265 113.504 73.1959 109.286C73.1959 109.286 72.6485 103.583 71.7883 96.0062C70.8506 85.8513 67.7236 73.3533 65.4568 73.8221Z" fill="#E654A0"/>
<path d="M43.4134 166.622C44.3521 167.793 45.5242 168.965 47.0103 169.98C48.4953 172.402 52.0127 174.824 51.075 176.464C50.8406 176.855 38.8798 172.324 41.8509 168.965C42.3972 168.419 42.8671 167.637 43.4134 166.622Z" fill="#15070D"/>
<path d="M71.3054 54.9966C73.7281 59.3712 72.9464 66.558 67.9439 68.7453C63.4878 70.6197 59.423 68.6668 56.9993 64.2922C54.5765 59.9175 55.9831 54.3718 60.1263 51.7941C64.2695 49.2164 68.8816 50.622 71.3054 54.9966Z" fill="#F9DFCD"/>
<path d="M59.2661 64.4482C56.9208 60.2305 58.3284 53.5126 62.2371 50.8564C61.5339 51.0909 60.7521 51.4038 60.1263 51.7942C55.9831 54.3719 54.5765 59.9176 56.9993 64.2922C59.423 68.6668 63.4878 70.6197 67.9439 68.7453C68.4127 68.5109 68.8816 68.2765 69.3505 67.9636C65.2857 69.0572 61.5339 68.4324 59.2661 64.4482Z" fill="#E5C8B5"/>
<path d="M82.1714 68.1981C83.1101 67.7292 84.2822 66.7915 85.064 65.9323C87.7222 62.9642 93.9762 55.5431 91.9438 52.8094C90.7707 51.2469 92.0998 51.4029 93.116 52.1846C94.1322 52.8879 95.2268 47.5756 96.8688 48.8252C98.4323 50.0758 97.4936 52.6535 96.7119 55.6215C94.4451 63.6675 84.2822 72.7287 84.2822 72.7287L82.1714 68.1981Z" fill="#F9DFCD"/>
<path d="M68.1752 73.0405C77.9467 71.635 83.9663 67.1819 83.9663 67.1819L87.0148 70.0725C87.0148 70.0725 70.2075 88.0388 65.517 84.2116C59.1855 79.2121 59.5759 74.2912 68.1752 73.0405Z" fill="#F9DFCD"/>
<path d="M64.7373 84.9147C64.7373 84.9147 67.0051 85.7739 70.0537 84.6018L71.2258 91.2422C71.3043 91.4766 71.3043 91.7885 71.3828 92.1014L72.3204 100.381L64.7373 84.9147Z" fill="#D36784"/>
<path d="M54.6529 51.5599C54.6529 51.5599 58.0928 46.7949 64.8158 47.7326C67.2395 48.0445 68.0987 50.3103 70.444 49.4511C72.8678 48.6693 73.1022 53.9816 73.1022 53.9816C73.1022 53.9816 73.6495 54.2935 70.3665 54.4505C64.7373 54.7624 62.2361 51.9502 60.3596 55.6216C58.5617 59.4499 53.7937 54.4505 54.6529 51.5599Z" fill="#17094A"/>
<path d="M63.2492 52.4965C63.2492 52.4965 60.8254 57.1056 60.5125 59.9952C60.435 60.6985 59.2619 57.7304 58.5586 57.7304C57.8553 57.7304 57.5424 58.98 57.1511 60.1522C56.3693 62.5739 58.1672 65.7764 58.1672 65.7764C58.1672 65.7764 51.5228 62.9643 53.7121 54.0591C55.5101 46.6379 62.9362 50.4662 62.9362 50.4662" fill="#17094A"/>
<path d="M60.7481 58.6682C60.7481 58.6682 58.0909 56.0905 56.8393 58.7466C55.5112 61.4028 59.6544 63.0428 60.3577 62.1051" fill="#F9DFCD"/>
<path d="M68.1671 73.0405C70.4339 72.7287 72.4673 72.2598 74.2652 71.635C74.6556 73.119 76.4536 78.1185 78.4085 80.4617C72.7792 84.2116 66.3692 86.3978 64.0239 84.5234C57.7709 79.524 59.5688 74.2902 68.1671 73.0405Z" fill="#E654A0"/>
</svg>
