<svg width="85" height="85" viewBox="0 0 85 85" fill="none" xmlns="http://www.w3.org/2000/svg">
<path d="M46.9053 39.7038L57.0226 4.34088C57.2636 3.49301 57.154 2.54514 56.7249 1.77386C56.2975 1.00229 55.5505 0.407234 54.7039 0.164332C52.9387 -0.339739 50.9869 0.743712 50.4829 2.50894L40.3412 37.8269L4.97679 27.71C3.21281 27.2041 1.26136 28.2891 0.755385 30.0531C0.514066 30.8993 0.599302 31.8023 1.05302 32.62C1.48049 33.3916 2.22745 33.9867 3.07403 34.2295L38.4381 44.3449L28.3456 79.7543C28.1046 80.6022 28.2142 81.55 28.6433 82.3213C29.097 83.139 29.8176 83.6879 30.6643 83.9308C32.4279 84.4352 34.3797 83.3518 34.8857 81.5879L45.0026 46.2233L80.3655 56.3406C81.2136 56.5831 82.1612 56.472 82.9328 56.0445C83.7505 55.5908 84.2995 54.8701 84.542 54.0219C84.7849 53.1753 84.6737 52.2278 84.2446 51.4565C83.8169 50.6833 83.0699 50.0882 82.2237 49.8469L46.9053 39.7038Z" fill="url(#paint0_linear_1_9008)"/>
<defs>
<linearGradient id="paint0_linear_1_9008" x1="10.0291" y1="8.05239" x2="77.4219" y2="-2.20847" gradientUnits="userSpaceOnUse">
<stop stop-color="#FD4C67"/>
<stop offset="1" stop-color="#FC5F59"/>
</linearGradient>
</defs>
</svg>
