<svg width="103" height="96" viewBox="0 0 103 96" fill="none" xmlns="http://www.w3.org/2000/svg">
<path d="M96.2249 32.1278L68.4357 29.6671L57.4497 4.78732C56.3917 2.43139 54.0684 1 51.5335 1C48.9941 1 46.5671 2.53562 45.6129 4.78732L34.6266 29.6671H34.415L6.94533 32.1278C4.41055 32.3327 2.19104 34.0696 1.34444 36.4263C0.498109 38.782 1.24084 41.4437 3.24893 43.08L24.271 60.8997L24.1674 61.1005L18.0396 87.3156C17.5085 89.7722 18.4628 92.3333 20.5745 93.7642C22.5827 95.1997 25.4328 95.3006 27.6525 94.0741L51.5335 80.2512L51.7406 80.3516L75.4099 94.0741C77.6295 95.4051 80.3763 95.3006 82.4878 93.7642C84.5995 92.3333 85.5542 89.7722 85.0229 87.3156L78.7914 60.8997L79.0028 60.6943L99.818 43.08C101.718 41.4437 102.456 38.782 101.718 36.4263C100.979 34.0696 98.7599 32.3327 96.2249 32.1278ZM88.3008 41.8538L72.2402 55.472C70.4438 57.0076 69.7054 59.3636 70.2321 61.6153L74.9867 81.5822C75.1982 82.2977 74.6716 82.7075 74.46 82.8079C74.3519 82.9129 74.0368 83.013 73.7172 83.013C73.5055 83.013 73.2982 83.013 73.0866 82.8079L54.9103 72.467C52.9066 71.3409 50.2638 71.3409 48.2557 72.467L30.0837 82.9129C29.6606 83.1178 29.1338 83.1178 28.7105 82.8079C28.2873 82.5026 28.0756 81.9922 28.1836 81.5822L32.8303 61.5108C33.357 59.2593 32.6186 56.9029 30.822 55.3673L14.8696 41.8538C14.4465 41.5441 14.343 41.0332 14.4465 40.523C14.5504 40.3179 14.7619 39.7027 15.5044 39.7027L36.6349 37.8613C38.9582 37.6559 41.0697 36.2209 42.0243 34.0696L50.3673 15.1284C50.579 14.618 51.2137 14.3127 51.5335 14.3127L51.8487 14.4126C52.2718 14.5133 52.5871 14.7184 52.695 15.1284L61.0383 34.0696C61.9928 36.2209 64.0008 37.6559 66.4277 37.8613L87.5576 39.7027C88.0891 39.7027 88.5123 40.1127 88.6158 40.523C88.8275 41.0332 88.6158 41.5441 88.3008 41.8538Z" fill="url(#paint0_linear_1_7340)" stroke="#762DC4" stroke-opacity="0.15"/>
<defs>
<linearGradient id="paint0_linear_1_7340" x1="19.1038" y1="-0.245989" x2="107.322" y2="4.93739" gradientUnits="userSpaceOnUse">
<stop stop-color="#AD63FF"/>
<stop offset="1" stop-color="#AD63FF"/>
</linearGradient>
</defs>
</svg>
