<svg width="23" height="38" viewBox="0 0 23 38" fill="none" xmlns="http://www.w3.org/2000/svg">
<path d="M11.5003 21.0827C16.793 21.0827 21.0837 16.792 21.0837 11.4993C21.0837 6.20662 16.793 1.91602 11.5003 1.91602C6.20759 1.91602 1.91699 6.20662 1.91699 11.4993C1.91699 13.0324 2.27696 14.4813 2.91697 15.7663C3.08706 16.1078 3.14367 16.4981 3.04507 16.8666L2.47427 18.9999C2.22649 19.926 3.07371 20.7731 3.99979 20.5254L6.13307 19.9546C6.50159 19.856 6.8919 19.9127 7.23338 20.0827C8.51835 20.7227 9.96728 21.0827 11.5003 21.0827Z" stroke="#E654A0" stroke-width="1.75"/>
<path d="M7.66699 11.5H7.67562M11.4917 11.5H11.5003M15.325 11.5H15.3337" stroke="#E654A0" stroke-width="1.91667" stroke-linecap="round" stroke-linejoin="round"/>
<path d="M3.81 35.12C3.12333 35.12 2.53 34.97 2.03 34.67C1.53667 34.3633 1.15333 33.94 0.88 33.4C0.606667 32.8533 0.47 32.22 0.47 31.5C0.47 30.7867 0.606667 30.16 0.88 29.62C1.15333 29.0733 1.53667 28.6467 2.03 28.34C2.53 28.0333 3.12333 27.88 3.81 27.88C4.61 27.88 5.26 28.0733 5.76 28.46C6.26667 28.84 6.59 29.3733 6.73 30.06H5.8C5.69333 29.6267 5.47333 29.28 5.14 29.02C4.81333 28.7533 4.37 28.62 3.81 28.62C3.31 28.62 2.87333 28.7367 2.5 28.97C2.12667 29.1967 1.83667 29.5267 1.63 29.96C1.43 30.3867 1.33 30.9 1.33 31.5C1.33 32.1 1.43 32.6167 1.63 33.05C1.83667 33.4767 2.12667 33.8067 2.5 34.04C2.87333 34.2667 3.31 34.38 3.81 34.38C4.37 34.38 4.81333 34.2533 5.14 34C5.47333 33.74 5.69333 33.3967 5.8 32.97H6.73C6.59 33.6433 6.26667 34.17 5.76 34.55C5.26 34.93 4.61 35.12 3.81 35.12ZM7.88727 35V27.8H8.72727V30.89C8.89393 30.5833 9.1306 30.3467 9.43727 30.18C9.74393 30.0067 10.0773 29.92 10.4373 29.92C11.0106 29.92 11.4706 30.1 11.8173 30.46C12.1639 30.8133 12.3373 31.36 12.3373 32.1V35H11.5073V32.19C11.5073 31.1567 11.0906 30.64 10.2573 30.64C9.82393 30.64 9.4606 30.7967 9.16727 31.11C8.87393 31.4167 8.72727 31.8567 8.72727 32.43V35H7.88727ZM15.2599 35.12C14.8466 35.12 14.5033 35.05 14.2299 34.91C13.9566 34.77 13.7533 34.5833 13.6199 34.35C13.4866 34.1167 13.4199 33.8633 13.4199 33.59C13.4199 33.0833 13.6133 32.6933 13.9999 32.42C14.3866 32.1467 14.9133 32.01 15.5799 32.01H16.9199V31.95C16.9199 31.5167 16.8066 31.19 16.5799 30.97C16.3533 30.7433 16.0499 30.63 15.6699 30.63C15.3433 30.63 15.0599 30.7133 14.8199 30.88C14.5866 31.04 14.4399 31.2767 14.3799 31.59H13.5199C13.5533 31.23 13.6733 30.9267 13.8799 30.68C14.0933 30.4333 14.3566 30.2467 14.6699 30.12C14.9833 29.9867 15.3166 29.92 15.6699 29.92C16.3633 29.92 16.8833 30.1067 17.2299 30.48C17.5833 30.8467 17.7599 31.3367 17.7599 31.95V35H17.0099L16.9599 34.11C16.8199 34.39 16.6133 34.63 16.3399 34.83C16.0733 35.0233 15.7133 35.12 15.2599 35.12ZM15.3899 34.41C15.7099 34.41 15.9833 34.3267 16.2099 34.16C16.4433 33.9933 16.6199 33.7767 16.7399 33.51C16.8599 33.2433 16.9199 32.9633 16.9199 32.67V32.66H15.6499C15.1566 32.66 14.8066 32.7467 14.5999 32.92C14.3999 33.0867 14.2999 33.2967 14.2999 33.55C14.2999 33.81 14.3933 34.02 14.5799 34.18C14.7733 34.3333 15.0433 34.41 15.3899 34.41ZM20.8434 35C20.39 35 20.0334 34.89 19.7734 34.67C19.5134 34.45 19.3834 34.0533 19.3834 33.48V30.75H18.5234V30.04H19.3834L19.4934 28.85H20.2234V30.04H21.6834V30.75H20.2234V33.48C20.2234 33.7933 20.2867 34.0067 20.4134 34.12C20.54 34.2267 20.7634 34.28 21.0834 34.28H21.6034V35H20.8434Z" fill="#E654A0"/>
</svg>
