<svg width="41" height="37" viewBox="0 0 41 37" fill="none" xmlns="http://www.w3.org/2000/svg">
<g clip-path="url(#clip0_2452_558)">
<path d="M19.9994 5C19.3401 5 18.6956 5.1955 18.1475 5.56177C17.5993 5.92804 17.172 6.44863 16.9198 7.05772C16.6675 7.66681 16.6014 8.33703 16.7301 8.98363C16.8587 9.63024 17.1762 10.2242 17.6423 10.6904C18.1085 11.1565 18.7024 11.474 19.349 11.6026C19.9957 11.7312 20.6659 11.6652 21.275 11.4129C21.884 11.1606 22.4046 10.7334 22.7709 10.1852C23.1372 9.63707 23.3327 8.9926 23.3327 8.33333C23.3327 7.44928 22.9815 6.60143 22.3564 5.97631C21.7313 5.35119 20.8834 5 19.9994 5ZM19.9994 10C19.6697 10 19.3475 9.90225 19.0734 9.71912C18.7993 9.53598 18.5857 9.27568 18.4596 8.97114C18.3334 8.6666 18.3004 8.33148 18.3647 8.00818C18.429 7.68488 18.5878 7.38791 18.8208 7.15482C19.0539 6.92173 19.3509 6.763 19.6742 6.69869C19.9975 6.63438 20.3326 6.66739 20.6372 6.79353C20.9417 6.91968 21.202 7.1333 21.3851 7.40738C21.5683 7.68147 21.666 8.0037 21.666 8.33333C21.666 8.77536 21.4904 9.19928 21.1779 9.51184C20.8653 9.82441 20.4414 10 19.9994 10Z" fill="#616161"/>
<path d="M19.9993 19.9997C19.2976 20.0033 18.6052 19.8387 17.9802 19.5198C17.3551 19.2008 16.8156 18.7367 16.4068 18.1664C13.231 13.7855 11.6201 10.4922 11.6201 8.37721C11.6201 6.15492 12.5029 4.02365 14.0743 2.45225C15.6457 0.88085 17.777 -0.00195312 19.9993 -0.00195312C22.2216 -0.00195312 24.3529 0.88085 25.9243 2.45225C27.4956 4.02365 28.3785 6.15492 28.3785 8.37721C28.3785 10.4922 26.7676 13.7855 23.5918 18.1664C23.183 18.7367 22.6434 19.2008 22.0184 19.5198C21.3934 19.8387 20.701 20.0033 19.9993 19.9997ZM19.9993 1.81721C18.2596 1.8192 16.5918 2.51115 15.3617 3.74127C14.1316 4.9714 13.4396 6.63923 13.4376 8.37888C13.4376 10.0539 15.0151 13.1514 17.8785 17.1005C18.1215 17.4354 18.4404 17.7079 18.809 17.8958C19.1777 18.0837 19.5855 18.1816 19.9993 18.1816C20.413 18.1816 20.8209 18.0837 21.1895 17.8958C21.5581 17.7079 21.877 17.4354 22.1201 17.1005C24.9835 13.1514 26.561 10.0539 26.561 8.37888C26.559 6.63923 25.867 4.9714 24.6369 3.74127C23.4068 2.51115 21.7389 1.8192 19.9993 1.81721Z" fill="#616161"/>
</g>
<path d="M0.739512 34V27H2.88951C4.12285 27 5.02951 27.3133 5.60951 27.94C6.19618 28.5667 6.48951 29.4267 6.48951 30.52C6.48951 31.5933 6.19618 32.4433 5.60951 33.07C5.02951 33.69 4.12285 34 2.88951 34H0.739512ZM1.57951 33.3H2.86951C3.54951 33.3 4.08951 33.19 4.48951 32.97C4.89618 32.7433 5.18618 32.4233 5.35951 32.01C5.53285 31.59 5.61951 31.0933 5.61951 30.52C5.61951 29.9333 5.53285 29.43 5.35951 29.01C5.18618 28.59 4.89618 28.2667 4.48951 28.04C4.08951 27.8133 3.54951 27.7 2.86951 27.7H1.57951V33.3ZM8.1624 27.94C7.99574 27.94 7.85574 27.8867 7.7424 27.78C7.63574 27.6667 7.5824 27.5267 7.5824 27.36C7.5824 27.2 7.63574 27.0667 7.7424 26.96C7.85574 26.8533 7.99574 26.8 8.1624 26.8C8.3224 26.8 8.45907 26.8533 8.5724 26.96C8.68574 27.0667 8.7424 27.2 8.7424 27.36C8.7424 27.5267 8.68574 27.6667 8.5724 27.78C8.45907 27.8867 8.3224 27.94 8.1624 27.94ZM7.7424 34V29.04H8.5824V34H7.7424ZM11.945 34.12C11.3516 34.12 10.8583 33.97 10.465 33.67C10.0716 33.37 9.84165 32.9633 9.77498 32.45H10.635C10.6883 32.71 10.825 32.9367 11.045 33.13C11.2716 33.3167 11.575 33.41 11.955 33.41C12.3083 33.41 12.5683 33.3367 12.735 33.19C12.9016 33.0367 12.985 32.8567 12.985 32.65C12.985 32.35 12.875 32.15 12.655 32.05C12.4416 31.95 12.1383 31.86 11.745 31.78C11.4783 31.7267 11.2116 31.65 10.945 31.55C10.6783 31.45 10.455 31.31 10.275 31.13C10.095 30.9433 10.005 30.7 10.005 30.4C10.005 29.9667 10.165 29.6133 10.485 29.34C10.8116 29.06 11.2516 28.92 11.805 28.92C12.3316 28.92 12.7616 29.0533 13.095 29.32C13.435 29.58 13.6316 29.9533 13.685 30.44H12.855C12.8216 30.1867 12.7116 29.99 12.525 29.85C12.345 29.7033 12.1016 29.63 11.795 29.63C11.495 29.63 11.2616 29.6933 11.095 29.82C10.935 29.9467 10.855 30.1133 10.855 30.32C10.855 30.52 10.9583 30.6767 11.165 30.79C11.3783 30.9033 11.665 31 12.025 31.08C12.3316 31.1467 12.6216 31.23 12.895 31.33C13.175 31.4233 13.4016 31.5667 13.575 31.76C13.755 31.9467 13.845 32.22 13.845 32.58C13.8516 33.0267 13.6816 33.3967 13.335 33.69C12.995 33.9767 12.5316 34.12 11.945 34.12ZM17.325 34.12C16.8516 34.12 16.425 34.0133 16.045 33.8C15.6716 33.58 15.375 33.2767 15.155 32.89C14.9416 32.4967 14.835 32.04 14.835 31.52C14.835 31 14.9416 30.5467 15.155 30.16C15.375 29.7667 15.6716 29.4633 16.045 29.25C16.425 29.03 16.8516 28.92 17.325 28.92C17.9116 28.92 18.405 29.0733 18.805 29.38C19.2116 29.6867 19.4683 30.0967 19.575 30.61H18.715C18.6483 30.3033 18.485 30.0667 18.225 29.9C17.965 29.7267 17.6616 29.64 17.315 29.64C17.035 29.64 16.7716 29.71 16.525 29.85C16.2783 29.99 16.0783 30.2 15.925 30.48C15.7716 30.76 15.695 31.1067 15.695 31.52C15.695 31.9333 15.7716 32.28 15.925 32.56C16.0783 32.84 16.2783 33.0533 16.525 33.2C16.7716 33.34 17.035 33.41 17.315 33.41C17.6616 33.41 17.965 33.3267 18.225 33.16C18.485 32.9867 18.6483 32.7433 18.715 32.43H19.575C19.475 32.93 19.2216 33.3367 18.815 33.65C18.4083 33.9633 17.9116 34.12 17.325 34.12ZM23.0081 34.12C22.5414 34.12 22.1214 34.0133 21.7481 33.8C21.3748 33.5867 21.0781 33.2867 20.8581 32.9C20.6448 32.5067 20.5381 32.0467 20.5381 31.52C20.5381 30.9933 20.6481 30.5367 20.8681 30.15C21.0881 29.7567 21.3848 29.4533 21.7581 29.24C22.1381 29.0267 22.5614 28.92 23.0281 28.92C23.4948 28.92 23.9148 29.0267 24.2881 29.24C24.6614 29.4533 24.9548 29.7567 25.1681 30.15C25.3881 30.5367 25.4981 30.9933 25.4981 31.52C25.4981 32.0467 25.3881 32.5067 25.1681 32.9C24.9481 33.2867 24.6481 33.5867 24.2681 33.8C23.8948 34.0133 23.4748 34.12 23.0081 34.12ZM23.0081 33.4C23.2948 33.4 23.5614 33.33 23.8081 33.19C24.0548 33.05 24.2548 32.84 24.4081 32.56C24.5614 32.28 24.6381 31.9333 24.6381 31.52C24.6381 31.1067 24.5614 30.76 24.4081 30.48C24.2614 30.2 24.0648 29.99 23.8181 29.85C23.5714 29.71 23.3081 29.64 23.0281 29.64C22.7414 29.64 22.4748 29.71 22.2281 29.85C21.9814 29.99 21.7814 30.2 21.6281 30.48C21.4748 30.76 21.3981 31.1067 21.3981 31.52C21.3981 31.9333 21.4748 32.28 21.6281 32.56C21.7814 32.84 21.9781 33.05 22.2181 33.19C22.4648 33.33 22.7281 33.4 23.0081 33.4ZM27.8422 34L25.9622 29.04H26.8422L28.3322 33.19L29.8322 29.04H30.6922L28.8122 34H27.8422ZM33.6031 34.12C33.1298 34.12 32.7098 34.0133 32.3431 33.8C31.9764 33.58 31.6864 33.2767 31.4731 32.89C31.2664 32.5033 31.1631 32.0467 31.1631 31.52C31.1631 31 31.2664 30.5467 31.4731 30.16C31.6798 29.7667 31.9664 29.4633 32.3331 29.25C32.7064 29.03 33.1364 28.92 33.6231 28.92C34.1031 28.92 34.5164 29.03 34.8631 29.25C35.2164 29.4633 35.4864 29.7467 35.6731 30.1C35.8598 30.4533 35.9531 30.8333 35.9531 31.24C35.9531 31.3133 35.9498 31.3867 35.9431 31.46C35.9431 31.5333 35.9431 31.6167 35.9431 31.71H31.9931C32.0131 32.09 32.0998 32.4067 32.2531 32.66C32.4131 32.9067 32.6098 33.0933 32.8431 33.22C33.0831 33.3467 33.3364 33.41 33.6031 33.41C33.9498 33.41 34.2398 33.33 34.4731 33.17C34.7064 33.01 34.8764 32.7933 34.9831 32.52H35.8131C35.6798 32.98 35.4231 33.3633 35.0431 33.67C34.6698 33.97 34.1898 34.12 33.6031 34.12ZM33.6031 29.63C33.2031 29.63 32.8464 29.7533 32.5331 30C32.2264 30.24 32.0498 30.5933 32.0031 31.06H35.1231C35.1031 30.6133 34.9498 30.2633 34.6631 30.01C34.3764 29.7567 34.0231 29.63 33.6031 29.63ZM37.0665 34V29.04H37.8265L37.8965 29.99C38.0498 29.6633 38.2831 29.4033 38.5965 29.21C38.9098 29.0167 39.2965 28.92 39.7565 28.92V29.8H39.5265C39.2331 29.8 38.9631 29.8533 38.7165 29.96C38.4698 30.06 38.2731 30.2333 38.1265 30.48C37.9798 30.7267 37.9065 31.0667 37.9065 31.5V34H37.0665Z" fill="#616161"/>
<defs>
<clipPath id="clip0_2452_558">
<rect width="20" height="20" fill="white" transform="translate(9.99951)"/>
</clipPath>
</defs>
</svg>
