<svg width="41" height="37" viewBox="0 0 41 37" fill="none" xmlns="http://www.w3.org/2000/svg">
<g clip-path="url(#clip0_2452_168)">
<path d="M20.0003 5C19.3411 5 18.6966 5.1955 18.1484 5.56177C17.6003 5.92804 17.173 6.44863 16.9207 7.05772C16.6684 7.66681 16.6024 8.33703 16.731 8.98363C16.8597 9.63024 17.1771 10.2242 17.6433 10.6904C18.1095 11.1565 18.7034 11.474 19.35 11.6026C19.9966 11.7312 20.6669 11.6652 21.2759 11.4129C21.885 11.1606 22.4056 10.7334 22.7719 10.1852C23.1382 9.63707 23.3337 8.9926 23.3337 8.33333C23.3337 7.44928 22.9825 6.60143 22.3574 5.97631C21.7322 5.35119 20.8844 5 20.0003 5ZM20.0003 10C19.6707 10 19.3485 9.90225 19.0744 9.71912C18.8003 9.53598 18.5867 9.27568 18.4605 8.97114C18.3344 8.6666 18.3014 8.33148 18.3657 8.00818C18.43 7.68488 18.5887 7.38791 18.8218 7.15482C19.0549 6.92173 19.3519 6.763 19.6752 6.69869C19.9985 6.63438 20.3336 6.66739 20.6381 6.79353C20.9427 6.91968 21.203 7.1333 21.3861 7.40738C21.5692 7.68147 21.667 8.0037 21.667 8.33333C21.667 8.77536 21.4914 9.19928 21.1788 9.51184C20.8663 9.82441 20.4424 10 20.0003 10Z" fill="#E654A0"/>
<path d="M20.0003 19.9997C19.2985 20.0033 18.6062 19.8387 17.9811 19.5198C17.3561 19.2008 16.8166 18.7367 16.4078 18.1664C13.2319 13.7855 11.6211 10.4922 11.6211 8.37721C11.6211 6.15492 12.5039 4.02365 14.0753 2.45225C15.6467 0.88085 17.778 -0.00195312 20.0003 -0.00195312C22.2226 -0.00195312 24.3538 0.88085 25.9252 2.45225C27.4966 4.02365 28.3794 6.15492 28.3794 8.37721C28.3794 10.4922 26.7686 13.7855 23.5928 18.1664C23.1839 18.7367 22.6444 19.2008 22.0194 19.5198C21.3943 19.8387 20.702 20.0033 20.0003 19.9997ZM20.0003 1.81721C18.2606 1.8192 16.5928 2.51115 15.3627 3.74127C14.1325 4.9714 13.4406 6.63923 13.4386 8.37888C13.4386 10.0539 15.0161 13.1514 17.8794 17.1005C18.1225 17.4354 18.4414 17.7079 18.81 17.8958C19.1786 18.0837 19.5865 18.1816 20.0003 18.1816C20.414 18.1816 20.8219 18.0837 21.1905 17.8958C21.5591 17.7079 21.878 17.4354 22.1211 17.1005C24.9844 13.1514 26.5619 10.0539 26.5619 8.37888C26.5599 6.63923 25.868 4.9714 24.6379 3.74127C23.4077 2.51115 21.7399 1.8192 20.0003 1.81721Z" fill="#E654A0"/>
</g>
<path d="M0.74 34V27H2.89C4.12333 27 5.03 27.3133 5.61 27.94C6.19667 28.5667 6.49 29.4267 6.49 30.52C6.49 31.5933 6.19667 32.4433 5.61 33.07C5.03 33.69 4.12333 34 2.89 34H0.74ZM1.58 33.3H2.87C3.55 33.3 4.09 33.19 4.49 32.97C4.89667 32.7433 5.18667 32.4233 5.36 32.01C5.53333 31.59 5.62 31.0933 5.62 30.52C5.62 29.9333 5.53333 29.43 5.36 29.01C5.18667 28.59 4.89667 28.2667 4.49 28.04C4.09 27.8133 3.55 27.7 2.87 27.7H1.58V33.3ZM8.16289 27.94C7.99622 27.94 7.85622 27.8867 7.74289 27.78C7.63622 27.6667 7.58289 27.5267 7.58289 27.36C7.58289 27.2 7.63622 27.0667 7.74289 26.96C7.85622 26.8533 7.99622 26.8 8.16289 26.8C8.32289 26.8 8.45956 26.8533 8.57289 26.96C8.68622 27.0667 8.74289 27.2 8.74289 27.36C8.74289 27.5267 8.68622 27.6667 8.57289 27.78C8.45956 27.8867 8.32289 27.94 8.16289 27.94ZM7.74289 34V29.04H8.58289V34H7.74289ZM11.9455 34.12C11.3521 34.12 10.8588 33.97 10.4655 33.67C10.0721 33.37 9.84214 32.9633 9.77547 32.45H10.6355C10.6888 32.71 10.8255 32.9367 11.0455 33.13C11.2721 33.3167 11.5755 33.41 11.9555 33.41C12.3088 33.41 12.5688 33.3367 12.7355 33.19C12.9021 33.0367 12.9855 32.8567 12.9855 32.65C12.9855 32.35 12.8755 32.15 12.6555 32.05C12.4421 31.95 12.1388 31.86 11.7455 31.78C11.4788 31.7267 11.2121 31.65 10.9455 31.55C10.6788 31.45 10.4555 31.31 10.2755 31.13C10.0955 30.9433 10.0055 30.7 10.0055 30.4C10.0055 29.9667 10.1655 29.6133 10.4855 29.34C10.8121 29.06 11.2521 28.92 11.8055 28.92C12.3321 28.92 12.7621 29.0533 13.0955 29.32C13.4355 29.58 13.6321 29.9533 13.6855 30.44H12.8555C12.8221 30.1867 12.7121 29.99 12.5255 29.85C12.3455 29.7033 12.1021 29.63 11.7955 29.63C11.4955 29.63 11.2621 29.6933 11.0955 29.82C10.9355 29.9467 10.8555 30.1133 10.8555 30.32C10.8555 30.52 10.9588 30.6767 11.1655 30.79C11.3788 30.9033 11.6655 31 12.0255 31.08C12.3321 31.1467 12.6221 31.23 12.8955 31.33C13.1755 31.4233 13.4021 31.5667 13.5755 31.76C13.7555 31.9467 13.8455 32.22 13.8455 32.58C13.8521 33.0267 13.6821 33.3967 13.3355 33.69C12.9955 33.9767 12.5321 34.12 11.9455 34.12ZM17.3255 34.12C16.8521 34.12 16.4255 34.0133 16.0455 33.8C15.6721 33.58 15.3755 33.2767 15.1555 32.89C14.9421 32.4967 14.8355 32.04 14.8355 31.52C14.8355 31 14.9421 30.5467 15.1555 30.16C15.3755 29.7667 15.6721 29.4633 16.0455 29.25C16.4255 29.03 16.8521 28.92 17.3255 28.92C17.9121 28.92 18.4055 29.0733 18.8055 29.38C19.2121 29.6867 19.4688 30.0967 19.5755 30.61H18.7155C18.6488 30.3033 18.4855 30.0667 18.2255 29.9C17.9655 29.7267 17.6621 29.64 17.3155 29.64C17.0355 29.64 16.7721 29.71 16.5255 29.85C16.2788 29.99 16.0788 30.2 15.9255 30.48C15.7721 30.76 15.6955 31.1067 15.6955 31.52C15.6955 31.9333 15.7721 32.28 15.9255 32.56C16.0788 32.84 16.2788 33.0533 16.5255 33.2C16.7721 33.34 17.0355 33.41 17.3155 33.41C17.6621 33.41 17.9655 33.3267 18.2255 33.16C18.4855 32.9867 18.6488 32.7433 18.7155 32.43H19.5755C19.4755 32.93 19.2221 33.3367 18.8155 33.65C18.4088 33.9633 17.9121 34.12 17.3255 34.12ZM23.0086 34.12C22.5419 34.12 22.1219 34.0133 21.7486 33.8C21.3753 33.5867 21.0786 33.2867 20.8586 32.9C20.6453 32.5067 20.5386 32.0467 20.5386 31.52C20.5386 30.9933 20.6486 30.5367 20.8686 30.15C21.0886 29.7567 21.3853 29.4533 21.7586 29.24C22.1386 29.0267 22.5619 28.92 23.0286 28.92C23.4953 28.92 23.9153 29.0267 24.2886 29.24C24.6619 29.4533 24.9553 29.7567 25.1686 30.15C25.3886 30.5367 25.4986 30.9933 25.4986 31.52C25.4986 32.0467 25.3886 32.5067 25.1686 32.9C24.9486 33.2867 24.6486 33.5867 24.2686 33.8C23.8953 34.0133 23.4753 34.12 23.0086 34.12ZM23.0086 33.4C23.2953 33.4 23.5619 33.33 23.8086 33.19C24.0553 33.05 24.2553 32.84 24.4086 32.56C24.5619 32.28 24.6386 31.9333 24.6386 31.52C24.6386 31.1067 24.5619 30.76 24.4086 30.48C24.2619 30.2 24.0653 29.99 23.8186 29.85C23.5719 29.71 23.3086 29.64 23.0286 29.64C22.7419 29.64 22.4753 29.71 22.2286 29.85C21.9819 29.99 21.7819 30.2 21.6286 30.48C21.4753 30.76 21.3986 31.1067 21.3986 31.52C21.3986 31.9333 21.4753 32.28 21.6286 32.56C21.7819 32.84 21.9786 33.05 22.2186 33.19C22.4653 33.33 22.7286 33.4 23.0086 33.4ZM27.8427 34L25.9627 29.04H26.8427L28.3327 33.19L29.8327 29.04H30.6927L28.8127 34H27.8427ZM33.6036 34.12C33.1303 34.12 32.7103 34.0133 32.3436 33.8C31.9769 33.58 31.6869 33.2767 31.4736 32.89C31.2669 32.5033 31.1636 32.0467 31.1636 31.52C31.1636 31 31.2669 30.5467 31.4736 30.16C31.6803 29.7667 31.9669 29.4633 32.3336 29.25C32.7069 29.03 33.1369 28.92 33.6236 28.92C34.1036 28.92 34.5169 29.03 34.8636 29.25C35.2169 29.4633 35.4869 29.7467 35.6736 30.1C35.8603 30.4533 35.9536 30.8333 35.9536 31.24C35.9536 31.3133 35.9503 31.3867 35.9436 31.46C35.9436 31.5333 35.9436 31.6167 35.9436 31.71H31.9936C32.0136 32.09 32.1003 32.4067 32.2536 32.66C32.4136 32.9067 32.6103 33.0933 32.8436 33.22C33.0836 33.3467 33.3369 33.41 33.6036 33.41C33.9503 33.41 34.2403 33.33 34.4736 33.17C34.7069 33.01 34.8769 32.7933 34.9836 32.52H35.8136C35.6803 32.98 35.4236 33.3633 35.0436 33.67C34.6703 33.97 34.1903 34.12 33.6036 34.12ZM33.6036 29.63C33.2036 29.63 32.8469 29.7533 32.5336 30C32.2269 30.24 32.0503 30.5933 32.0036 31.06H35.1236C35.1036 30.6133 34.9503 30.2633 34.6636 30.01C34.3769 29.7567 34.0236 29.63 33.6036 29.63ZM37.067 34V29.04H37.827L37.897 29.99C38.0503 29.6633 38.2836 29.4033 38.597 29.21C38.9103 29.0167 39.297 28.92 39.757 28.92V29.8H39.527C39.2336 29.8 38.9636 29.8533 38.717 29.96C38.4703 30.06 38.2736 30.2333 38.127 30.48C37.9803 30.7267 37.907 31.0667 37.907 31.5V34H37.067Z" fill="#E654A0"/>
<defs>
<clipPath id="clip0_2452_168">
<rect width="20" height="20" fill="white" transform="translate(10)"/>
</clipPath>
</defs>
</svg>
