<svg width="31" height="37" viewBox="0 0 31 37" fill="none" xmlns="http://www.w3.org/2000/svg">
<path d="M19.875 12.25C20.3583 12.25 20.75 11.8583 20.75 11.375C20.75 10.8917 20.3583 10.5 19.875 10.5C19.3917 10.5 19 10.8917 19 11.375C19 11.8583 19.3917 12.25 19.875 12.25Z" fill="#616161"/>
<path d="M19.875 15.75C20.3583 15.75 20.75 15.3583 20.75 14.875C20.75 14.3917 20.3583 14 19.875 14C19.3917 14 19 14.3917 19 14.875C19 15.3583 19.3917 15.75 19.875 15.75Z" fill="#616161"/>
<path d="M16.375 11.375C16.375 11.8583 15.9833 12.25 15.5 12.25C15.0167 12.25 14.625 11.8583 14.625 11.375C14.625 10.8917 15.0167 10.5 15.5 10.5C15.9833 10.5 16.375 10.8917 16.375 11.375Z" fill="#616161"/>
<path d="M16.375 14.875C16.375 15.3583 15.9833 15.75 15.5 15.75C15.0167 15.75 14.625 15.3583 14.625 14.875C14.625 14.3917 15.0167 14 15.5 14C15.9833 14 16.375 14.3917 16.375 14.875Z" fill="#616161"/>
<path d="M11.125 12.25C11.6083 12.25 12 11.8583 12 11.375C12 10.8917 11.6083 10.5 11.125 10.5C10.6418 10.5 10.25 10.8917 10.25 11.375C10.25 11.8583 10.6418 12.25 11.125 12.25Z" fill="#616161"/>
<path d="M11.125 15.75C11.6083 15.75 12 15.3583 12 14.875C12 14.3917 11.6083 14 11.125 14C10.6418 14 10.25 14.3917 10.25 14.875C10.25 15.3583 10.6418 15.75 11.125 15.75Z" fill="#616161"/>
<path fill-rule="evenodd" clip-rule="evenodd" d="M11.125 1.53125C11.4874 1.53125 11.7813 1.82507 11.7813 2.1875V2.85488C12.3605 2.84374 12.9987 2.84374 13.7005 2.84375H17.2994C18.0013 2.84374 18.6395 2.84374 19.2188 2.85488V2.1875C19.2188 1.82507 19.5126 1.53125 19.875 1.53125C20.2374 1.53125 20.5313 1.82507 20.5313 2.1875V2.9112C20.7587 2.92855 20.9741 2.95034 21.1779 2.97774C22.2037 3.11567 23.0341 3.40627 23.689 4.06109C24.3437 4.71591 24.6343 5.54623 24.7723 6.57211C24.9063 7.56891 24.9063 8.84257 24.9063 10.4506V12.2994C24.9063 13.9073 24.9063 15.1811 24.7723 16.1779C24.6343 17.2037 24.3437 18.0341 23.689 18.689C23.0341 19.3437 22.2037 19.6343 21.1779 19.7723C20.1811 19.9062 18.9074 19.9062 17.2994 19.9062H13.7006C12.0926 19.9062 10.8189 19.9062 9.82211 19.7723C8.79624 19.6343 7.96591 19.3437 7.31109 18.689C6.65627 18.0341 6.36567 17.2037 6.22775 16.1779C6.09372 15.1811 6.09373 13.9074 6.09375 12.2994V10.4506C6.09373 8.84257 6.09372 7.56892 6.22775 6.57211C6.36567 5.54623 6.65627 4.71591 7.31109 4.06109C7.96591 3.40627 8.79624 3.11567 9.82211 2.97774C10.0259 2.95034 10.2413 2.92855 10.4688 2.9112V2.1875C10.4688 1.82507 10.7626 1.53125 11.125 1.53125ZM9.99699 4.27854C9.11667 4.39689 8.60947 4.61885 8.23916 4.98916C7.86885 5.35947 7.64689 5.86666 7.52854 6.74699C7.50849 6.89608 7.49174 7.05303 7.47772 7.21875H23.5223C23.5083 7.05303 23.4915 6.89608 23.4714 6.74699C23.3531 5.86666 23.1311 5.35947 22.7608 4.98916C22.3905 4.61885 21.8833 4.39689 21.0031 4.27854C20.1038 4.15764 18.9185 4.15625 17.25 4.15625H13.75C12.0815 4.15625 10.8962 4.15764 9.99699 4.27854ZM7.40625 10.5C7.40625 9.75275 7.40653 9.10236 7.4177 8.53125H23.5823C23.5935 9.10236 23.5938 9.75275 23.5938 10.5V12.25C23.5938 13.9185 23.5924 15.1038 23.4714 16.003C23.3531 16.8833 23.1311 17.3905 22.7608 17.7608C22.3905 18.1311 21.8833 18.3531 21.0031 18.4714C20.1038 18.5924 18.9185 18.5938 17.25 18.5938H13.75C12.0815 18.5938 10.8962 18.5924 9.99699 18.4714C9.11667 18.3531 8.60947 18.1311 8.23916 17.7608C7.86885 17.3905 7.64689 16.8833 7.52854 16.003C7.40764 15.1038 7.40625 13.9185 7.40625 12.25V10.5Z" fill="#616161"/>
<path d="M0.74 34V27H5.07V27.69H1.58V30.13H4.77V30.81H1.58V33.31H5.07V34H0.74ZM7.76453 34L5.88453 29.04H6.76453L8.25453 33.19L9.75453 29.04H10.6145L8.73453 34H7.76453ZM13.5255 34.12C13.0521 34.12 12.6321 34.0133 12.2655 33.8C11.8988 33.58 11.6088 33.2767 11.3955 32.89C11.1888 32.5033 11.0855 32.0467 11.0855 31.52C11.0855 31 11.1888 30.5467 11.3955 30.16C11.6021 29.7667 11.8888 29.4633 12.2555 29.25C12.6288 29.03 13.0588 28.92 13.5455 28.92C14.0255 28.92 14.4388 29.03 14.7855 29.25C15.1388 29.4633 15.4088 29.7467 15.5955 30.1C15.7821 30.4533 15.8755 30.8333 15.8755 31.24C15.8755 31.3133 15.8721 31.3867 15.8655 31.46C15.8655 31.5333 15.8655 31.6167 15.8655 31.71H11.9155C11.9355 32.09 12.0221 32.4067 12.1755 32.66C12.3355 32.9067 12.5321 33.0933 12.7655 33.22C13.0055 33.3467 13.2588 33.41 13.5255 33.41C13.8721 33.41 14.1621 33.33 14.3955 33.17C14.6288 33.01 14.7988 32.7933 14.9055 32.52H15.7355C15.6021 32.98 15.3455 33.3633 14.9655 33.67C14.5921 33.97 14.1121 34.12 13.5255 34.12ZM13.5255 29.63C13.1255 29.63 12.7688 29.7533 12.4555 30C12.1488 30.24 11.9721 30.5933 11.9255 31.06H15.0455C15.0255 30.6133 14.8721 30.2633 14.5855 30.01C14.2988 29.7567 13.9455 29.63 13.5255 29.63ZM16.9888 34V29.04H17.7488L17.7988 29.93C17.9588 29.6167 18.1888 29.37 18.4888 29.19C18.7888 29.01 19.1288 28.92 19.5088 28.92C20.0955 28.92 20.5622 29.1 20.9088 29.46C21.2622 29.8133 21.4388 30.36 21.4388 31.1V34H20.5988V31.19C20.5988 30.1567 20.1722 29.64 19.3188 29.64C18.8922 29.64 18.5355 29.7967 18.2488 30.11C17.9688 30.4167 17.8288 30.8567 17.8288 31.43V34H16.9888ZM24.6715 34C24.2182 34 23.8615 33.89 23.6015 33.67C23.3415 33.45 23.2115 33.0533 23.2115 32.48V29.75H22.3515V29.04H23.2115L23.3215 27.85H24.0515V29.04H25.5115V29.75H24.0515V32.48C24.0515 32.7933 24.1148 33.0067 24.2415 33.12C24.3682 33.2267 24.5915 33.28 24.9115 33.28H25.4315V34H24.6715ZM28.4787 34.12C27.8853 34.12 27.392 33.97 26.9987 33.67C26.6053 33.37 26.3753 32.9633 26.3087 32.45H27.1687C27.222 32.71 27.3587 32.9367 27.5787 33.13C27.8053 33.3167 28.1087 33.41 28.4887 33.41C28.842 33.41 29.102 33.3367 29.2687 33.19C29.4353 33.0367 29.5187 32.8567 29.5187 32.65C29.5187 32.35 29.4087 32.15 29.1887 32.05C28.9753 31.95 28.672 31.86 28.2787 31.78C28.012 31.7267 27.7453 31.65 27.4787 31.55C27.212 31.45 26.9887 31.31 26.8087 31.13C26.6287 30.9433 26.5387 30.7 26.5387 30.4C26.5387 29.9667 26.6987 29.6133 27.0187 29.34C27.3453 29.06 27.7853 28.92 28.3387 28.92C28.8653 28.92 29.2953 29.0533 29.6287 29.32C29.9687 29.58 30.1653 29.9533 30.2187 30.44H29.3887C29.3553 30.1867 29.2453 29.99 29.0587 29.85C28.8787 29.7033 28.6353 29.63 28.3287 29.63C28.0287 29.63 27.7953 29.6933 27.6287 29.82C27.4687 29.9467 27.3887 30.1133 27.3887 30.32C27.3887 30.52 27.492 30.6767 27.6987 30.79C27.912 30.9033 28.1987 31 28.5587 31.08C28.8653 31.1467 29.1553 31.23 29.4287 31.33C29.7087 31.4233 29.9353 31.5667 30.1087 31.76C30.2887 31.9467 30.3787 32.22 30.3787 32.58C30.3853 33.0267 30.2153 33.3967 29.8687 33.69C29.5287 33.9767 29.0653 34.12 28.4787 34.12Z" fill="#616161"/>
</svg>
