<svg width="28" height="37" viewBox="0 0 28 37" fill="none" xmlns="http://www.w3.org/2000/svg">
<g clip-path="url(#clip0_132_223)">
<path d="M15.115 0.694162C14.809 0.418692 14.4118 0.266266 14 0.266266C13.5882 0.266266 13.191 0.418692 12.885 0.694162L4 8.69083V17.3575C4 18.0647 4.28095 18.743 4.78105 19.2431C5.28115 19.7432 5.95942 20.0242 6.66667 20.0242H21.3333C22.0406 20.0242 22.7189 19.7432 23.219 19.2431C23.719 18.743 24 18.0647 24 17.3575V8.69083L15.115 0.694162ZM16.5 18.355H11.5V14.1667C11.5 13.5036 11.7634 12.8677 12.2322 12.3989C12.7011 11.9301 13.337 11.6667 14 11.6667C14.663 11.6667 15.2989 11.9301 15.7678 12.3989C16.2366 12.8677 16.5 13.5036 16.5 14.1667V18.355ZM22.3333 17.355C22.3333 17.6202 22.228 17.8746 22.0404 18.0621C21.8529 18.2496 21.5985 18.355 21.3333 18.355H18.1667V14.1667C18.1667 13.0616 17.7277 12.0018 16.9463 11.2204C16.1649 10.439 15.1051 10 14 10C12.8949 10 11.8351 10.439 11.0537 11.2204C10.2723 12.0018 9.83333 13.0616 9.83333 14.1667V18.355H6.66667C6.40145 18.355 6.1471 18.2496 5.95956 18.0621C5.77202 17.8746 5.66667 17.6202 5.66667 17.355V9.4325L14 1.9325L22.3333 9.4325V17.355Z" fill="#AAAAAA"/>
</g>
<path d="M0.74 34V27H1.58V30.09H5.21V27H6.05V34H5.21V30.78H1.58V34H0.74ZM9.73711 34.12C9.27044 34.12 8.85044 34.0133 8.47711 33.8C8.10378 33.5867 7.80711 33.2867 7.58711 32.9C7.37378 32.5067 7.26711 32.0467 7.26711 31.52C7.26711 30.9933 7.37711 30.5367 7.59711 30.15C7.81711 29.7567 8.11378 29.4533 8.48711 29.24C8.86711 29.0267 9.29044 28.92 9.75711 28.92C10.2238 28.92 10.6438 29.0267 11.0171 29.24C11.3904 29.4533 11.6838 29.7567 11.8971 30.15C12.1171 30.5367 12.2271 30.9933 12.2271 31.52C12.2271 32.0467 12.1171 32.5067 11.8971 32.9C11.6771 33.2867 11.3771 33.5867 10.9971 33.8C10.6238 34.0133 10.2038 34.12 9.73711 34.12ZM9.73711 33.4C10.0238 33.4 10.2904 33.33 10.5371 33.19C10.7838 33.05 10.9838 32.84 11.1371 32.56C11.2904 32.28 11.3671 31.9333 11.3671 31.52C11.3671 31.1067 11.2904 30.76 11.1371 30.48C10.9904 30.2 10.7938 29.99 10.5471 29.85C10.3004 29.71 10.0371 29.64 9.75711 29.64C9.47044 29.64 9.20378 29.71 8.95711 29.85C8.71044 29.99 8.51044 30.2 8.35711 30.48C8.20378 30.76 8.12711 31.1067 8.12711 31.52C8.12711 31.9333 8.20378 32.28 8.35711 32.56C8.51044 32.84 8.70711 33.05 8.94711 33.19C9.19378 33.33 9.45711 33.4 9.73711 33.4ZM13.3951 34V29.04H14.1551L14.2151 29.76C14.3751 29.4933 14.5884 29.2867 14.8551 29.14C15.1217 28.9933 15.4217 28.92 15.7551 28.92C16.1484 28.92 16.4851 29 16.7651 29.16C17.0517 29.32 17.2717 29.5633 17.4251 29.89C17.5984 29.59 17.8351 29.3533 18.1351 29.18C18.4417 29.0067 18.7717 28.92 19.1251 28.92C19.7184 28.92 20.1917 29.1 20.5451 29.46C20.8984 29.8133 21.0751 30.36 21.0751 31.1V34H20.2451V31.19C20.2451 30.6767 20.1417 30.29 19.9351 30.03C19.7284 29.77 19.4317 29.64 19.0451 29.64C18.6451 29.64 18.3117 29.7967 18.0451 30.11C17.7851 30.4167 17.6551 30.8567 17.6551 31.43V34H16.8151V31.19C16.8151 30.6767 16.7117 30.29 16.5051 30.03C16.2984 29.77 16.0017 29.64 15.6151 29.64C15.2217 29.64 14.8917 29.7967 14.6251 30.11C14.3651 30.4167 14.2351 30.8567 14.2351 31.43V34H13.3951ZM24.5704 34.12C24.0971 34.12 23.6771 34.0133 23.3104 33.8C22.9437 33.58 22.6537 33.2767 22.4404 32.89C22.2337 32.5033 22.1304 32.0467 22.1304 31.52C22.1304 31 22.2337 30.5467 22.4404 30.16C22.6471 29.7667 22.9337 29.4633 23.3004 29.25C23.6737 29.03 24.1037 28.92 24.5904 28.92C25.0704 28.92 25.4837 29.03 25.8304 29.25C26.1837 29.4633 26.4537 29.7467 26.6404 30.1C26.8271 30.4533 26.9204 30.8333 26.9204 31.24C26.9204 31.3133 26.9171 31.3867 26.9104 31.46C26.9104 31.5333 26.9104 31.6167 26.9104 31.71H22.9604C22.9804 32.09 23.0671 32.4067 23.2204 32.66C23.3804 32.9067 23.5771 33.0933 23.8104 33.22C24.0504 33.3467 24.3037 33.41 24.5704 33.41C24.9171 33.41 25.2071 33.33 25.4404 33.17C25.6737 33.01 25.8437 32.7933 25.9504 32.52H26.7804C26.6471 32.98 26.3904 33.3633 26.0104 33.67C25.6371 33.97 25.1571 34.12 24.5704 34.12ZM24.5704 29.63C24.1704 29.63 23.8137 29.7533 23.5004 30C23.1937 30.24 23.0171 30.5933 22.9704 31.06H26.0904C26.0704 30.6133 25.9171 30.2633 25.6304 30.01C25.3437 29.7567 24.9904 29.63 24.5704 29.63Z" fill="#AAAAAA"/>
<defs>
<clipPath id="clip0_132_223">
<rect width="20" height="20" fill="white" transform="translate(4)"/>
</clipPath>
</defs>
</svg>
