<svg width="40" height="36" viewBox="0 0 40 36" fill="none" xmlns="http://www.w3.org/2000/svg">
<g clip-path="url(#clip0_94_1271)">
<path d="M15.5625 10.2917C14.7837 10.2917 14.0225 10.0827 13.3749 9.69128C12.7274 9.29983 12.2227 8.74344 11.9247 8.09248C11.6267 7.44152 11.5487 6.72522 11.7007 6.03416C11.8526 5.3431 12.2276 4.70832 12.7783 4.2101C13.3289 3.71188 14.0305 3.37258 14.7943 3.23512C15.5581 3.09766 16.3498 3.16821 17.0693 3.43785C17.7888 3.70748 18.4038 4.1641 18.8364 4.74995C19.2691 5.3358 19.5 6.02457 19.5 6.72917C19.4988 7.67368 19.0836 8.57921 18.3455 9.24708C17.6073 9.91495 16.6064 10.2906 15.5625 10.2917ZM15.5625 4.75C15.1299 4.75 14.7069 4.86608 14.3472 5.08355C13.9875 5.30102 13.7071 5.61013 13.5415 5.97177C13.3759 6.33342 13.3326 6.73136 13.417 7.11528C13.5014 7.49921 13.7098 7.85186 14.0157 8.12865C14.3216 8.40544 14.7114 8.59394 15.1357 8.67031C15.5601 8.74667 15.9999 8.70748 16.3996 8.55768C16.7993 8.40788 17.141 8.15421 17.3813 7.82873C17.6217 7.50326 17.75 7.12061 17.75 6.72917C17.75 6.20426 17.5195 5.70085 17.1093 5.32969C16.6991 4.95852 16.1427 4.75 15.5625 4.75ZM22.125 18.2083V17.8125C22.125 16.2378 21.4336 14.7276 20.2029 13.6141C18.9722 12.5006 17.303 11.875 15.5625 11.875C13.822 11.875 12.1528 12.5006 10.9221 13.6141C9.6914 14.7276 9 16.2378 9 17.8125L9 18.2083C9 18.4183 9.09219 18.6197 9.25628 18.7681C9.42038 18.9166 9.64294 19 9.875 19C10.1071 19 10.3296 18.9166 10.4937 18.7681C10.6578 18.6197 10.75 18.4183 10.75 18.2083V17.8125C10.75 16.6577 11.257 15.5502 12.1595 14.7336C13.0621 13.9171 14.2861 13.4583 15.5625 13.4583C16.8389 13.4583 18.0629 13.9171 18.9655 14.7336C19.868 15.5502 20.375 16.6577 20.375 17.8125V18.2083C20.375 18.4183 20.4672 18.6197 20.6313 18.7681C20.7954 18.9166 21.0179 19 21.25 19C21.4821 19 21.7046 18.9166 21.8687 18.7681C22.0328 18.6197 22.125 18.4183 22.125 18.2083ZM30 14.25C30 13.1802 29.6577 12.1333 29.0145 11.2356C28.3713 10.338 27.4547 9.62792 26.3753 9.19123C25.2959 8.75453 24.0998 8.60984 22.9315 8.77463C21.7632 8.93941 20.6726 9.40663 19.7914 10.1199C19.7045 10.1889 19.6337 10.2728 19.5829 10.3668C19.5321 10.4607 19.5024 10.5628 19.4955 10.6672C19.4886 10.7716 19.5046 10.8762 19.5427 10.975C19.5807 11.0737 19.64 11.1647 19.7171 11.2426C19.7942 11.3205 19.8876 11.3839 19.9919 11.4289C20.0962 11.474 20.2093 11.4999 20.3247 11.5052C20.4402 11.5105 20.5556 11.495 20.6644 11.4597C20.7732 11.4244 20.8732 11.3699 20.9586 11.2995C21.5881 10.7901 22.3671 10.4565 23.2016 10.3389C24.0361 10.2213 24.8903 10.3247 25.6612 10.6367C26.4322 10.9486 27.0868 11.4558 27.5462 12.097C28.0055 12.7382 28.25 13.4859 28.25 14.25C28.25 14.46 28.3422 14.6613 28.5063 14.8098C28.6704 14.9583 28.8929 15.0417 29.125 15.0417C29.3571 15.0417 29.5796 14.9583 29.7437 14.8098C29.9078 14.6613 30 14.46 30 14.25ZM24.3125 7.125C23.5337 7.125 22.7725 6.91606 22.1249 6.52461C21.4774 6.13316 20.9727 5.57677 20.6747 4.92581C20.3767 4.27485 20.2987 3.55855 20.4507 2.86749C20.6026 2.17643 20.9776 1.54166 21.5283 1.04343C22.0789 0.545209 22.7805 0.205914 23.5443 0.068454C24.3081 -0.0690058 25.0998 0.00154358 25.8193 0.271181C26.5388 0.540818 27.1538 0.997433 27.5864 1.58328C28.0191 2.16913 28.25 2.85791 28.25 3.5625C28.2488 4.50701 27.8336 5.41254 27.0955 6.08041C26.3573 6.74828 25.3564 7.12395 24.3125 7.125ZM24.3125 1.58333C23.8799 1.58333 23.4569 1.69941 23.0972 1.91688C22.7375 2.13436 22.4571 2.44346 22.2915 2.80511C22.1259 3.16675 22.0826 3.5647 22.167 3.94862C22.2514 4.33254 22.4598 4.68519 22.7657 4.96198C23.0716 5.23878 23.4614 5.42727 23.8857 5.50364C24.3101 5.58001 24.7499 5.54081 25.1496 5.39101C25.5493 5.24121 25.891 4.98754 26.1313 4.66207C26.3717 4.3366 26.5 3.95394 26.5 3.5625C26.5 3.03759 26.2695 2.53419 25.8593 2.16302C25.4491 1.79185 24.8927 1.58333 24.3125 1.58333Z" fill="#AAAAAA"/>
</g>
<path d="M0.74 33V26H1.72L4.24 30.88L6.74 26H7.73V33H6.89V27.5L4.55 32H3.92L1.58 27.51V33H0.74ZM10.8068 33.12C10.3935 33.12 10.0501 33.05 9.7768 32.91C9.50346 32.77 9.30013 32.5833 9.1668 32.35C9.03346 32.1167 8.9668 31.8633 8.9668 31.59C8.9668 31.0833 9.16013 30.6933 9.5468 30.42C9.93346 30.1467 10.4601 30.01 11.1268 30.01H12.4668V29.95C12.4668 29.5167 12.3535 29.19 12.1268 28.97C11.9001 28.7433 11.5968 28.63 11.2168 28.63C10.8901 28.63 10.6068 28.7133 10.3668 28.88C10.1335 29.04 9.9868 29.2767 9.9268 29.59H9.0668C9.10013 29.23 9.22013 28.9267 9.4268 28.68C9.64013 28.4333 9.90346 28.2467 10.2168 28.12C10.5301 27.9867 10.8635 27.92 11.2168 27.92C11.9101 27.92 12.4301 28.1067 12.7768 28.48C13.1301 28.8467 13.3068 29.3367 13.3068 29.95V33H12.5568L12.5068 32.11C12.3668 32.39 12.1601 32.63 11.8868 32.83C11.6201 33.0233 11.2601 33.12 10.8068 33.12ZM10.9368 32.41C11.2568 32.41 11.5301 32.3267 11.7568 32.16C11.9901 31.9933 12.1668 31.7767 12.2868 31.51C12.4068 31.2433 12.4668 30.9633 12.4668 30.67V30.66H11.1968C10.7035 30.66 10.3535 30.7467 10.1468 30.92C9.9468 31.0867 9.8468 31.2967 9.8468 31.55C9.8468 31.81 9.94013 32.02 10.1268 32.18C10.3201 32.3333 10.5901 32.41 10.9368 32.41ZM16.3902 33C15.9369 33 15.5802 32.89 15.3202 32.67C15.0602 32.45 14.9302 32.0533 14.9302 31.48V28.75H14.0702V28.04H14.9302L15.0402 26.85H15.7702V28.04H17.2302V28.75H15.7702V31.48C15.7702 31.7933 15.8336 32.0067 15.9602 32.12C16.0869 32.2267 16.3102 32.28 16.6302 32.28H17.1502V33H16.3902ZM20.4407 33.12C19.9674 33.12 19.5407 33.0133 19.1607 32.8C18.7874 32.58 18.4907 32.2767 18.2707 31.89C18.0574 31.4967 17.9507 31.04 17.9507 30.52C17.9507 30 18.0574 29.5467 18.2707 29.16C18.4907 28.7667 18.7874 28.4633 19.1607 28.25C19.5407 28.03 19.9674 27.92 20.4407 27.92C21.0274 27.92 21.5207 28.0733 21.9207 28.38C22.3274 28.6867 22.584 29.0967 22.6907 29.61H21.8307C21.764 29.3033 21.6007 29.0667 21.3407 28.9C21.0807 28.7267 20.7774 28.64 20.4307 28.64C20.1507 28.64 19.8874 28.71 19.6407 28.85C19.394 28.99 19.194 29.2 19.0407 29.48C18.8874 29.76 18.8107 30.1067 18.8107 30.52C18.8107 30.9333 18.8874 31.28 19.0407 31.56C19.194 31.84 19.394 32.0533 19.6407 32.2C19.8874 32.34 20.1507 32.41 20.4307 32.41C20.7774 32.41 21.0807 32.3267 21.3407 32.16C21.6007 31.9867 21.764 31.7433 21.8307 31.43H22.6907C22.5907 31.93 22.3374 32.3367 21.9307 32.65C21.524 32.9633 21.0274 33.12 20.4407 33.12ZM23.8638 33V25.8H24.7038V28.89C24.8705 28.5833 25.1072 28.3467 25.4138 28.18C25.7205 28.0067 26.0538 27.92 26.4138 27.92C26.9872 27.92 27.4472 28.1 27.7938 28.46C28.1405 28.8133 28.3138 29.36 28.3138 30.1V33H27.4838V30.19C27.4838 29.1567 27.0672 28.64 26.2338 28.64C25.8005 28.64 25.4372 28.7967 25.1438 29.11C24.8505 29.4167 24.7038 29.8567 24.7038 30.43V33H23.8638ZM31.8165 33.12C31.3432 33.12 30.9232 33.0133 30.5565 32.8C30.1898 32.58 29.8998 32.2767 29.6865 31.89C29.4798 31.5033 29.3765 31.0467 29.3765 30.52C29.3765 30 29.4798 29.5467 29.6865 29.16C29.8932 28.7667 30.1798 28.4633 30.5465 28.25C30.9198 28.03 31.3498 27.92 31.8365 27.92C32.3165 27.92 32.7298 28.03 33.0765 28.25C33.4298 28.4633 33.6998 28.7467 33.8865 29.1C34.0732 29.4533 34.1665 29.8333 34.1665 30.24C34.1665 30.3133 34.1632 30.3867 34.1565 30.46C34.1565 30.5333 34.1565 30.6167 34.1565 30.71H30.2065C30.2265 31.09 30.3132 31.4067 30.4665 31.66C30.6265 31.9067 30.8232 32.0933 31.0565 32.22C31.2965 32.3467 31.5498 32.41 31.8165 32.41C32.1632 32.41 32.4532 32.33 32.6865 32.17C32.9198 32.01 33.0898 31.7933 33.1965 31.52H34.0265C33.8932 31.98 33.6365 32.3633 33.2565 32.67C32.8832 32.97 32.4032 33.12 31.8165 33.12ZM31.8165 28.63C31.4165 28.63 31.0598 28.7533 30.7465 29C30.4398 29.24 30.2632 29.5933 30.2165 30.06H33.3365C33.3165 29.6133 33.1632 29.2633 32.8765 29.01C32.5898 28.7567 32.2365 28.63 31.8165 28.63ZM37.1798 33.12C36.5865 33.12 36.0932 32.97 35.6998 32.67C35.3065 32.37 35.0765 31.9633 35.0098 31.45H35.8698C35.9232 31.71 36.0598 31.9367 36.2798 32.13C36.5065 32.3167 36.8098 32.41 37.1898 32.41C37.5432 32.41 37.8032 32.3367 37.9698 32.19C38.1365 32.0367 38.2198 31.8567 38.2198 31.65C38.2198 31.35 38.1098 31.15 37.8898 31.05C37.6765 30.95 37.3732 30.86 36.9798 30.78C36.7132 30.7267 36.4465 30.65 36.1798 30.55C35.9132 30.45 35.6898 30.31 35.5098 30.13C35.3298 29.9433 35.2398 29.7 35.2398 29.4C35.2398 28.9667 35.3998 28.6133 35.7198 28.34C36.0465 28.06 36.4865 27.92 37.0398 27.92C37.5665 27.92 37.9965 28.0533 38.3298 28.32C38.6698 28.58 38.8665 28.9533 38.9198 29.44H38.0898C38.0565 29.1867 37.9465 28.99 37.7598 28.85C37.5798 28.7033 37.3365 28.63 37.0298 28.63C36.7298 28.63 36.4965 28.6933 36.3298 28.82C36.1698 28.9467 36.0898 29.1133 36.0898 29.32C36.0898 29.52 36.1932 29.6767 36.3998 29.79C36.6132 29.9033 36.8998 30 37.2598 30.08C37.5665 30.1467 37.8565 30.23 38.1298 30.33C38.4098 30.4233 38.6365 30.5667 38.8098 30.76C38.9898 30.9467 39.0798 31.22 39.0798 31.58C39.0865 32.0267 38.9165 32.3967 38.5698 32.69C38.2298 32.9767 37.7665 33.12 37.1798 33.12Z" fill="#AAAAAA"/>
<defs>
<clipPath id="clip0_94_1271">
<rect width="21" height="19" fill="white" transform="translate(9)"/>
</clipPath>
</defs>
</svg>
