<svg width="41" height="36" viewBox="0 0 41 36" fill="none" xmlns="http://www.w3.org/2000/svg">
<path d="M30.1574 1.90504C29.8339 1.77027 29.4775 1.73484 29.1338 1.80327C28.79 1.87171 28.4744 2.0409 28.2272 2.28931L25.9375 4.579L21.877 0.518476C21.5449 0.186496 21.0946 0 20.625 0C20.1554 0 19.7051 0.186496 19.373 0.518476L15.3125 4.579L13.0228 2.28931C12.7752 2.04173 12.4597 1.87314 12.1162 1.80484C11.7727 1.73654 11.4167 1.77161 11.0932 1.90561C10.7697 2.03961 10.4931 2.26652 10.2986 2.55766C10.104 2.84881 10.0001 3.19111 10 3.54129V12.9143C10.0014 14.088 10.4683 15.2132 11.2982 16.0432C12.1282 16.8731 13.2534 17.34 14.4271 17.3414H26.8229C27.9966 17.34 29.1219 16.8731 29.9518 16.0432C30.7817 15.2132 31.2486 14.088 31.25 12.9143V3.54129C31.2501 3.19108 31.1463 2.84871 30.9519 2.55746C30.7574 2.26621 30.4809 2.03917 30.1574 1.90504ZM29.4792 12.9143C29.4792 13.6188 29.1993 14.2944 28.7012 14.7926C28.203 15.2907 27.5274 15.5706 26.8229 15.5706H14.4271C13.7226 15.5706 13.047 15.2907 12.5488 14.7926C12.0507 14.2944 11.7708 13.6188 11.7708 12.9143V3.54129L14.6865 6.45697C14.8526 6.62296 15.0777 6.7162 15.3125 6.7162C15.5473 6.7162 15.7724 6.62296 15.9385 6.45697L20.625 1.77046L25.3115 6.45697C25.4776 6.62296 25.7027 6.7162 25.9375 6.7162C26.1723 6.7162 26.3975 6.62296 26.5635 6.45697L29.4792 3.54129V12.9143Z" fill="#E654A0"/>
<path d="M0.74 32.75V25.75H3.04C3.58667 25.75 4.03667 25.84 4.39 26.02C4.74333 26.2 5.00333 26.4433 5.17 26.75C5.34333 27.0567 5.43 27.4033 5.43 27.79C5.43 28.17 5.34667 28.5133 5.18 28.82C5.01333 29.1267 4.75333 29.3733 4.4 29.56C4.04667 29.74 3.59333 29.83 3.04 29.83H1.58V32.75H0.74ZM1.58 29.12H3.02C3.58 29.12 3.97667 29.0033 4.21 28.77C4.45 28.53 4.57 28.2033 4.57 27.79C4.57 27.37 4.45 27.0433 4.21 26.81C3.97667 26.57 3.58 26.45 3.02 26.45H1.58V29.12ZM6.48102 32.75V27.79H7.24102L7.31102 28.74C7.46435 28.4133 7.69768 28.1533 8.01102 27.96C8.32435 27.7667 8.71102 27.67 9.17102 27.67V28.55H8.94102C8.64768 28.55 8.37768 28.6033 8.13102 28.71C7.88435 28.81 7.68768 28.9833 7.54102 29.23C7.39435 29.4767 7.32102 29.8167 7.32102 30.25V32.75H6.48102ZM12.1583 32.87C11.6849 32.87 11.2649 32.7633 10.8983 32.55C10.5316 32.33 10.2416 32.0267 10.0283 31.64C9.82161 31.2533 9.71828 30.7967 9.71828 30.27C9.71828 29.75 9.82161 29.2967 10.0283 28.91C10.2349 28.5167 10.5216 28.2133 10.8883 28C11.2616 27.78 11.6916 27.67 12.1783 27.67C12.6583 27.67 13.0716 27.78 13.4183 28C13.7716 28.2133 14.0416 28.4967 14.2283 28.85C14.4149 29.2033 14.5083 29.5833 14.5083 29.99C14.5083 30.0633 14.5049 30.1367 14.4983 30.21C14.4983 30.2833 14.4983 30.3667 14.4983 30.46H10.5483C10.5683 30.84 10.6549 31.1567 10.8083 31.41C10.9683 31.6567 11.1649 31.8433 11.3983 31.97C11.6383 32.0967 11.8916 32.16 12.1583 32.16C12.5049 32.16 12.7949 32.08 13.0283 31.92C13.2616 31.76 13.4316 31.5433 13.5383 31.27H14.3683C14.2349 31.73 13.9783 32.1133 13.5983 32.42C13.2249 32.72 12.7449 32.87 12.1583 32.87ZM12.1583 28.38C11.7583 28.38 11.4016 28.5033 11.0883 28.75C10.7816 28.99 10.6049 29.3433 10.5583 29.81H13.6783C13.6583 29.3633 13.5049 29.0133 13.2183 28.76C12.9316 28.5067 12.5783 28.38 12.1583 28.38ZM15.6216 32.75V27.79H16.3816L16.4416 28.51C16.6016 28.2433 16.815 28.0367 17.0816 27.89C17.3483 27.7433 17.6483 27.67 17.9816 27.67C18.375 27.67 18.7116 27.75 18.9916 27.91C19.2783 28.07 19.4983 28.3133 19.6516 28.64C19.825 28.34 20.0616 28.1033 20.3616 27.93C20.6683 27.7567 20.9983 27.67 21.3516 27.67C21.945 27.67 22.4183 27.85 22.7716 28.21C23.125 28.5633 23.3016 29.11 23.3016 29.85V32.75H22.4716V29.94C22.4716 29.4267 22.3683 29.04 22.1616 28.78C21.955 28.52 21.6583 28.39 21.2716 28.39C20.8716 28.39 20.5383 28.5467 20.2716 28.86C20.0116 29.1667 19.8816 29.6067 19.8816 30.18V32.75H19.0416V29.94C19.0416 29.4267 18.9383 29.04 18.7316 28.78C18.525 28.52 18.2283 28.39 17.8416 28.39C17.4483 28.39 17.1183 28.5467 16.8516 28.86C16.5916 29.1667 16.4616 29.6067 16.4616 30.18V32.75H15.6216ZM25.077 26.69C24.9103 26.69 24.7703 26.6367 24.657 26.53C24.5503 26.4167 24.497 26.2767 24.497 26.11C24.497 25.95 24.5503 25.8167 24.657 25.71C24.7703 25.6033 24.9103 25.55 25.077 25.55C25.237 25.55 25.3736 25.6033 25.487 25.71C25.6003 25.8167 25.657 25.95 25.657 26.11C25.657 26.2767 25.6003 26.4167 25.487 26.53C25.3736 26.6367 25.237 26.69 25.077 26.69ZM24.657 32.75V27.79H25.497V32.75H24.657ZM28.7695 32.87C28.1829 32.87 27.7162 32.6933 27.3695 32.34C27.0229 31.98 26.8495 31.43 26.8495 30.69V27.79H27.6895V30.6C27.6895 31.6333 28.1129 32.15 28.9595 32.15C29.3929 32.15 29.7495 31.9967 30.0295 31.69C30.3162 31.3767 30.4595 30.9333 30.4595 30.36V27.79H31.2995V32.75H30.5395L30.4795 31.86C30.3262 32.1733 30.0962 32.42 29.7895 32.6C29.4895 32.78 29.1495 32.87 28.7695 32.87ZM32.6822 32.75V27.79H33.4422L33.5022 28.51C33.6622 28.2433 33.8755 28.0367 34.1422 27.89C34.4089 27.7433 34.7089 27.67 35.0422 27.67C35.4355 27.67 35.7722 27.75 36.0522 27.91C36.3389 28.07 36.5589 28.3133 36.7122 28.64C36.8855 28.34 37.1222 28.1033 37.4222 27.93C37.7289 27.7567 38.0589 27.67 38.4122 27.67C39.0055 27.67 39.4789 27.85 39.8322 28.21C40.1855 28.5633 40.3622 29.11 40.3622 29.85V32.75H39.5322V29.94C39.5322 29.4267 39.4289 29.04 39.2222 28.78C39.0155 28.52 38.7189 28.39 38.3322 28.39C37.9322 28.39 37.5989 28.5467 37.3322 28.86C37.0722 29.1667 36.9422 29.6067 36.9422 30.18V32.75H36.1022V29.94C36.1022 29.4267 35.9989 29.04 35.7922 28.78C35.5855 28.52 35.2889 28.39 34.9022 28.39C34.5089 28.39 34.1789 28.5467 33.9122 28.86C33.6522 29.1667 33.5222 29.6067 33.5222 30.18V32.75H32.6822Z" fill="#E654A0"/>
</svg>
