<svg width="29" height="38" viewBox="0 0 29 38" fill="none" xmlns="http://www.w3.org/2000/svg">
<path fill-rule="evenodd" clip-rule="evenodd" d="M14.7915 14.6172C10.5889 14.6172 7 15.2526 7 17.7973C7 20.342 10.5661 21.0002 14.7915 21.0002C18.994 21.0002 22.5819 20.3638 22.5819 17.8201C22.5819 15.2764 19.0168 14.6172 14.7915 14.6172Z" stroke="#616161" stroke-width="1.875" stroke-linecap="round" stroke-linejoin="round"/>
<path fill-rule="evenodd" clip-rule="evenodd" d="M14.7911 10.9874C17.549 10.9874 19.7843 8.7511 19.7843 5.9932C19.7843 3.2353 17.549 1 14.7911 1C12.0332 1 9.7969 3.2353 9.7969 5.9932C9.78759 8.74178 12.0084 10.9781 14.7559 10.9874H14.7911Z" stroke="#616161" stroke-width="1.78571" stroke-linecap="round" stroke-linejoin="round"/>
<path d="M0.74 35V28H3.04C3.58667 28 4.03667 28.09 4.39 28.27C4.74333 28.45 5.00333 28.6933 5.17 29C5.34333 29.3067 5.43 29.6533 5.43 30.04C5.43 30.42 5.34667 30.7633 5.18 31.07C5.01333 31.3767 4.75333 31.6233 4.4 31.81C4.04667 31.99 3.59333 32.08 3.04 32.08H1.58V35H0.74ZM1.58 31.37H3.02C3.58 31.37 3.97667 31.2533 4.21 31.02C4.45 30.78 4.57 30.4533 4.57 30.04C4.57 29.62 4.45 29.2933 4.21 29.06C3.97667 28.82 3.58 28.7 3.02 28.7H1.58V31.37ZM6.48102 35V30.04H7.24102L7.31102 30.99C7.46435 30.6633 7.69768 30.4033 8.01102 30.21C8.32435 30.0167 8.71102 29.92 9.17102 29.92V30.8H8.94102C8.64768 30.8 8.37768 30.8533 8.13102 30.96C7.88435 31.06 7.68768 31.2333 7.54102 31.48C7.39435 31.7267 7.32102 32.0667 7.32102 32.5V35H6.48102ZM12.1883 35.12C11.7216 35.12 11.3016 35.0133 10.9283 34.8C10.5549 34.5867 10.2583 34.2867 10.0383 33.9C9.82495 33.5067 9.71828 33.0467 9.71828 32.52C9.71828 31.9933 9.82828 31.5367 10.0483 31.15C10.2683 30.7567 10.5649 30.4533 10.9383 30.24C11.3183 30.0267 11.7416 29.92 12.2083 29.92C12.6749 29.92 13.0949 30.0267 13.4683 30.24C13.8416 30.4533 14.1349 30.7567 14.3483 31.15C14.5683 31.5367 14.6783 31.9933 14.6783 32.52C14.6783 33.0467 14.5683 33.5067 14.3483 33.9C14.1283 34.2867 13.8283 34.5867 13.4483 34.8C13.0749 35.0133 12.6549 35.12 12.1883 35.12ZM12.1883 34.4C12.4749 34.4 12.7416 34.33 12.9883 34.19C13.2349 34.05 13.4349 33.84 13.5883 33.56C13.7416 33.28 13.8183 32.9333 13.8183 32.52C13.8183 32.1067 13.7416 31.76 13.5883 31.48C13.4416 31.2 13.2449 30.99 12.9983 30.85C12.7516 30.71 12.4883 30.64 12.2083 30.64C11.9216 30.64 11.6549 30.71 11.4083 30.85C11.1616 30.99 10.9616 31.2 10.8083 31.48C10.6549 31.76 10.5783 32.1067 10.5783 32.52C10.5783 32.9333 10.6549 33.28 10.8083 33.56C10.9616 33.84 11.1583 34.05 11.3983 34.19C11.6449 34.33 11.9083 34.4 12.1883 34.4ZM16.1163 35V30.75H15.3663V30.04H16.1163V29.18C16.1163 28.7 16.2363 28.35 16.4762 28.13C16.7163 27.91 17.0663 27.8 17.5263 27.8H18.0263V28.52H17.6562C17.4029 28.52 17.2229 28.5733 17.1163 28.68C17.0096 28.78 16.9563 28.9533 16.9563 29.2V30.04H20.0363V35H19.1963V30.75H16.9563V35H16.1163ZM19.6263 29.09C19.4663 29.09 19.3296 29.0367 19.2163 28.93C19.1029 28.8167 19.0463 28.6767 19.0463 28.51C19.0463 28.35 19.1029 28.2167 19.2163 28.11C19.3296 28.0033 19.4663 27.95 19.6263 27.95C19.7929 27.95 19.9296 28.0033 20.0363 28.11C20.1496 28.2167 20.2062 28.35 20.2062 28.51C20.2062 28.6767 20.1496 28.8167 20.0363 28.93C19.9296 29.0367 19.7929 29.09 19.6263 29.09ZM21.5201 35V27.8H22.3601V35H21.5201ZM25.9669 35.12C25.4935 35.12 25.0735 35.0133 24.7069 34.8C24.3402 34.58 24.0502 34.2767 23.8369 33.89C23.6302 33.5033 23.5269 33.0467 23.5269 32.52C23.5269 32 23.6302 31.5467 23.8369 31.16C24.0435 30.7667 24.3302 30.4633 24.6969 30.25C25.0702 30.03 25.5002 29.92 25.9869 29.92C26.4669 29.92 26.8802 30.03 27.2269 30.25C27.5802 30.4633 27.8502 30.7467 28.0369 31.1C28.2235 31.4533 28.3169 31.8333 28.3169 32.24C28.3169 32.3133 28.3135 32.3867 28.3069 32.46C28.3069 32.5333 28.3069 32.6167 28.3069 32.71H24.3569C24.3769 33.09 24.4635 33.4067 24.6169 33.66C24.7769 33.9067 24.9735 34.0933 25.2069 34.22C25.4469 34.3467 25.7002 34.41 25.9669 34.41C26.3135 34.41 26.6035 34.33 26.8369 34.17C27.0702 34.01 27.2402 33.7933 27.3469 33.52H28.1769C28.0435 33.98 27.7869 34.3633 27.4069 34.67C27.0335 34.97 26.5535 35.12 25.9669 35.12ZM25.9669 30.63C25.5669 30.63 25.2102 30.7533 24.8969 31C24.5902 31.24 24.4135 31.5933 24.3669 32.06H27.4869C27.4669 31.6133 27.3135 31.2633 27.0269 31.01C26.7402 30.7567 26.3869 30.63 25.9669 30.63Z" fill="#616161"/>
</svg>
