<svg width="24" height="24" viewBox="0 0 24 24" fill="none" xmlns="http://www.w3.org/2000/svg">
<path d="M23.3741 12.2672C23.3741 11.4506 23.3078 10.6339 23.1753 9.83398H11.9277V14.4504H18.3715C18.1065 15.9336 17.2451 17.2669 15.9861 18.1002V21.1H19.8292C22.082 19.0168 23.3741 15.9336 23.3741 12.2672Z" fill="#4285F4"/>
<path d="M11.9296 24.0002C15.1432 24.0002 17.8598 22.9336 19.831 21.1004L15.988 18.1006C14.9113 18.8339 13.5364 19.2505 11.9296 19.2505C8.81536 19.2505 6.18154 17.134 5.23734 14.3008H1.27832V17.4006C3.29924 21.4504 7.42391 24.0002 11.9296 24.0002Z" fill="#25D366"/>
<path d="M5.23949 14.3001C4.74246 12.8168 4.74246 11.2003 5.23949 9.70034V6.61719H1.27984C-0.426615 10.0003 -0.426615 14.0001 1.27984 17.3832L5.23949 14.3001Z" fill="#FBBC04"/>
<path d="M11.9296 4.75045C13.6358 4.71712 15.2757 5.36708 16.5015 6.55035L19.9139 3.11721C17.7439 1.084 14.8947 -0.0326061 11.9296 0.000725308C7.42391 0.000725308 3.29924 2.56724 1.27832 6.61701L5.23734 9.71684C6.18154 6.867 8.81536 4.75045 11.9296 4.75045Z" fill="#EA4335"/>
</svg>
