<svg width="31" height="19" viewBox="0 0 31 19" fill="none" xmlns="http://www.w3.org/2000/svg">
<path fill-rule="evenodd" clip-rule="evenodd" d="M15.2302 16.1479C13.6171 17.4964 11.5244 18.3105 9.23775 18.3105C4.13588 18.3105 0 14.2579 0 9.25879C0 4.25964 4.13588 0.207031 9.23775 0.207031C11.5244 0.207031 13.6171 1.02115 15.2302 2.36972C16.8434 1.02115 18.936 0.207031 21.2227 0.207031C26.3246 0.207031 30.4604 4.25964 30.4604 9.25879C30.4604 14.2579 26.3246 18.3105 21.2227 18.3105C18.936 18.3105 16.8434 17.4964 15.2302 16.1479Z" fill="#ED0006"/>
<path fill-rule="evenodd" clip-rule="evenodd" d="M15.228 16.1479C17.214 14.4876 18.4733 12.0173 18.4733 9.25879C18.4733 6.50028 17.214 4.02997 15.228 2.36972C16.8412 1.02115 18.9338 0.207031 21.2205 0.207031C26.3224 0.207031 30.4582 4.25964 30.4582 9.25879C30.4582 14.2579 26.3224 18.3105 21.2205 18.3105C18.9338 18.3105 16.8412 17.4964 15.228 16.1479Z" fill="#F9A000"/>
<path fill-rule="evenodd" clip-rule="evenodd" d="M15.2301 16.1482C17.2161 14.488 18.4754 12.0177 18.4754 9.25917C18.4754 6.50067 17.2161 4.03037 15.2301 2.37012C13.2441 4.03037 11.9849 6.50067 11.9849 9.25917C11.9849 12.0177 13.2441 14.488 15.2301 16.1482Z" fill="#FF5E00"/>
</svg>
