<svg width="23" height="27" viewBox="0 0 23 27" fill="none" xmlns="http://www.w3.org/2000/svg">
<path fill-rule="evenodd" clip-rule="evenodd" d="M6.50465 25.7058L6.95451 22.7769L5.95238 22.753H1.16699L4.49267 1.13967C4.50303 1.07423 4.53652 1.01347 4.58544 0.97025C4.63459 0.92703 4.69724 0.90332 4.76278 0.90332H12.8317C15.5106 0.90332 17.3592 1.47457 18.3243 2.60225C18.7768 3.13126 19.065 3.68423 19.2045 4.29253C19.3507 4.93095 19.3531 5.6936 19.2105 6.62395L19.2001 6.69162V7.28781L19.6527 7.55059C20.0336 7.7578 20.3365 7.99489 20.5688 8.26632C20.9557 8.71877 21.2061 9.29372 21.3119 9.97512C21.4213 10.676 21.3851 11.5103 21.2061 12.4547C20.9996 13.5409 20.6659 14.4871 20.215 15.2611C19.8006 15.9743 19.2724 16.5661 18.6452 17.0245C18.0464 17.4601 17.3351 17.7908 16.5308 18.0025C15.7513 18.2104 14.8627 18.3154 13.888 18.3154H13.2601C12.8112 18.3154 12.3751 18.4811 12.0327 18.7782C11.6893 19.0815 11.4623 19.4959 11.3927 19.9491L11.3452 20.2129L10.5503 25.3753L10.5144 25.5648C10.5048 25.6248 10.4884 25.6547 10.4643 25.6749C10.4428 25.6934 10.412 25.7058 10.3819 25.7058H6.50465Z" fill="#28356A"/>
<path fill-rule="evenodd" clip-rule="evenodd" d="M20.0798 6.76074C20.0559 6.91856 20.0282 7.07983 19.9974 7.24555C18.9333 12.8454 15.2927 14.7799 10.6432 14.7799H8.27583C7.70717 14.7799 7.22791 15.203 7.13948 15.778L5.5841 25.8902C5.52652 26.2679 5.81036 26.608 6.18192 26.608H10.3808C10.8779 26.608 11.3003 26.2377 11.3786 25.7351L11.4198 25.5166L12.2104 20.3744L12.2612 20.0923C12.3386 19.588 12.7619 19.2175 13.259 19.2175H13.887C17.955 19.2175 21.1398 17.5248 22.0706 12.6258C22.4592 10.5794 22.258 8.87063 21.2291 7.66886C20.9178 7.30655 20.5316 7.00574 20.0798 6.76074Z" fill="#298FC2"/>
<path fill-rule="evenodd" clip-rule="evenodd" d="M18.967 6.30551C18.8043 6.25686 18.6366 6.2129 18.4646 6.17314C18.2916 6.13436 18.1145 6.10003 17.9321 6.0699C17.2938 5.9642 16.5943 5.91406 15.8452 5.91406H9.52078C9.36488 5.91406 9.21693 5.95012 9.08465 6.01532C8.79285 6.15906 8.57623 6.44209 8.5237 6.78859L7.1782 15.523L7.13965 15.7776C7.22808 15.2027 7.70734 14.7796 8.276 14.7796H10.6434C15.2929 14.7796 18.9335 12.8441 19.9976 7.24524C20.0294 7.07953 20.0561 6.91825 20.08 6.76044C19.8108 6.61398 19.5193 6.48877 19.2053 6.38208C19.1277 6.35565 19.0477 6.33021 18.967 6.30551Z" fill="#22284F"/>
<path fill-rule="evenodd" clip-rule="evenodd" d="M8.52515 6.78829C8.57768 6.44179 8.7943 6.15876 9.08609 6.01601C9.21934 5.95056 9.36633 5.9145 9.52222 5.9145H15.8466C16.5957 5.9145 17.2952 5.96488 17.9335 6.07059C18.1159 6.10047 18.293 6.13505 18.466 6.17382C18.6381 6.21334 18.8058 6.25754 18.9684 6.30595C19.0491 6.33065 19.1291 6.35633 19.2075 6.38177C19.5214 6.48846 19.8132 6.61467 20.0824 6.76013C20.399 4.69075 20.0797 3.28177 18.9882 2.00591C17.7846 0.601131 15.6126 0 12.8332 0H4.76406C4.19637 0 3.71205 0.423064 3.62434 0.999004L0.263484 22.8346C0.197221 23.2665 0.522271 23.6563 0.947318 23.6563H5.92884L8.52515 6.78829Z" fill="#28356A"/>
</svg>
