<svg width="335" height="196" viewBox="0 0 335 196" fill="none" xmlns="http://www.w3.org/2000/svg">
<g clip-path="url(#clip0_2128_9048)">
<rect width="335" height="222" rx="24" fill="#E654A0"/>
<path d="M29.323 141.928C29.3977 141.928 29.463 141.958 29.519 142.019L30.058 142.6C29.6473 143.076 29.148 143.447 28.56 143.713C27.9767 143.979 27.2697 144.112 26.439 144.112C25.7203 144.112 25.067 143.988 24.479 143.741C23.891 143.489 23.3893 143.139 22.974 142.691C22.5587 142.238 22.2367 141.697 22.008 141.067C21.7793 140.437 21.665 139.744 21.665 138.988C21.665 138.232 21.784 137.539 22.022 136.909C22.26 136.279 22.5937 135.738 23.023 135.285C23.457 134.832 23.975 134.482 24.577 134.235C25.179 133.983 25.844 133.857 26.572 133.857C27.286 133.857 27.916 133.971 28.462 134.2C29.008 134.429 29.4887 134.739 29.904 135.131L29.456 135.754C29.428 135.801 29.3907 135.84 29.344 135.873C29.302 135.901 29.2437 135.915 29.169 135.915C29.085 135.915 28.9823 135.871 28.861 135.782C28.7397 135.689 28.581 135.586 28.385 135.474C28.189 135.362 27.944 135.262 27.65 135.173C27.356 135.08 26.9943 135.033 26.565 135.033C26.047 135.033 25.5733 135.124 25.144 135.306C24.7147 135.483 24.3437 135.742 24.031 136.083C23.723 136.424 23.4827 136.839 23.31 137.329C23.1373 137.819 23.051 138.372 23.051 138.988C23.051 139.613 23.1397 140.171 23.317 140.661C23.499 141.151 23.744 141.566 24.052 141.907C24.3647 142.243 24.731 142.5 25.151 142.677C25.5757 142.854 26.033 142.943 26.523 142.943C26.8217 142.943 27.09 142.927 27.328 142.894C27.5707 142.857 27.7923 142.801 27.993 142.726C28.1983 142.651 28.3873 142.558 28.56 142.446C28.7373 142.329 28.9123 142.192 29.085 142.033C29.1643 141.963 29.2437 141.928 29.323 141.928ZM35.3216 140.808C34.7476 140.827 34.2576 140.873 33.8516 140.948C33.4502 141.018 33.1212 141.111 32.8646 141.228C32.6126 141.345 32.4282 141.482 32.3116 141.641C32.1996 141.8 32.1436 141.977 32.1436 142.173C32.1436 142.36 32.1739 142.521 32.2346 142.656C32.2952 142.791 32.3769 142.903 32.4796 142.992C32.5869 143.076 32.7106 143.139 32.8506 143.181C32.9952 143.218 33.1492 143.237 33.3126 143.237C33.5319 143.237 33.7326 143.216 33.9146 143.174C34.0966 143.127 34.2669 143.062 34.4256 142.978C34.5889 142.894 34.7429 142.794 34.8876 142.677C35.0369 142.56 35.1816 142.427 35.3216 142.278V140.808ZM31.2966 137.91C31.6886 137.532 32.1109 137.25 32.5636 137.063C33.0162 136.876 33.5179 136.783 34.0686 136.783C34.4652 136.783 34.8176 136.848 35.1256 136.979C35.4336 137.11 35.6926 137.292 35.9026 137.525C36.1126 137.758 36.2712 138.041 36.3786 138.372C36.4859 138.703 36.5396 139.067 36.5396 139.464V144H35.9866C35.8652 144 35.7719 143.981 35.7066 143.944C35.6412 143.902 35.5899 143.823 35.5526 143.706L35.4126 143.034C35.2259 143.207 35.0439 143.361 34.8666 143.496C34.6892 143.627 34.5026 143.739 34.3066 143.832C34.1106 143.921 33.9006 143.988 33.6766 144.035C33.4572 144.086 33.2122 144.112 32.9416 144.112C32.6662 144.112 32.4072 144.075 32.1646 144C31.9219 143.921 31.7096 143.804 31.5276 143.65C31.3502 143.496 31.2079 143.302 31.1006 143.069C30.9979 142.831 30.9466 142.551 30.9466 142.229C30.9466 141.949 31.0236 141.681 31.1776 141.424C31.3316 141.163 31.5812 140.932 31.9266 140.731C32.2719 140.53 32.7222 140.367 33.2776 140.241C33.8329 140.11 34.5142 140.036 35.3216 140.017V139.464C35.3216 138.913 35.2026 138.498 34.9646 138.218C34.7266 137.933 34.3789 137.791 33.9216 137.791C33.6136 137.791 33.3546 137.831 33.1446 137.91C32.9392 137.985 32.7596 138.071 32.6056 138.169C32.4562 138.262 32.3256 138.349 32.2136 138.428C32.1062 138.503 31.9989 138.54 31.8916 138.54C31.8076 138.54 31.7352 138.519 31.6746 138.477C31.6139 138.43 31.5626 138.374 31.5206 138.309L31.2966 137.91ZM39.7605 138.33C39.9845 137.845 40.2599 137.467 40.5865 137.196C40.9132 136.921 41.3122 136.783 41.7835 136.783C41.9329 136.783 42.0752 136.799 42.2105 136.832C42.3505 136.865 42.4742 136.916 42.5815 136.986L42.4905 137.917C42.4625 138.034 42.3925 138.092 42.2805 138.092C42.2152 138.092 42.1195 138.078 41.9935 138.05C41.8675 138.022 41.7252 138.008 41.5665 138.008C41.3425 138.008 41.1419 138.041 40.9645 138.106C40.7919 138.171 40.6355 138.269 40.4955 138.4C40.3602 138.526 40.2365 138.685 40.1245 138.876C40.0172 139.063 39.9192 139.277 39.8305 139.52V144H38.5775V136.909H39.2915C39.4269 136.909 39.5202 136.935 39.5715 136.986C39.6229 137.037 39.6579 137.126 39.6765 137.252L39.7605 138.33ZM48.1637 138.596C47.9304 138.283 47.6784 138.066 47.4077 137.945C47.1371 137.819 46.8337 137.756 46.4977 137.756C45.8397 137.756 45.3334 137.992 44.9787 138.463C44.6241 138.934 44.4467 139.606 44.4467 140.479C44.4467 140.941 44.4864 141.338 44.5657 141.669C44.6451 141.996 44.7617 142.266 44.9157 142.481C45.0697 142.691 45.2587 142.845 45.4827 142.943C45.7067 143.041 45.9611 143.09 46.2457 143.09C46.6564 143.09 47.0134 142.997 47.3167 142.81C47.6247 142.623 47.9071 142.36 48.1637 142.019V138.596ZM49.4097 133.689V144H48.6677C48.4904 144 48.3784 143.914 48.3317 143.741L48.2197 142.88C47.9164 143.244 47.5711 143.538 47.1837 143.762C46.7964 143.986 46.3484 144.098 45.8397 144.098C45.4337 144.098 45.0651 144.021 44.7337 143.867C44.4024 143.708 44.1201 143.477 43.8867 143.174C43.6534 142.871 43.4737 142.493 43.3477 142.04C43.2217 141.587 43.1587 141.067 43.1587 140.479C43.1587 139.956 43.2287 139.471 43.3687 139.023C43.5087 138.57 43.7094 138.178 43.9707 137.847C44.2321 137.516 44.5517 137.257 44.9297 137.07C45.3124 136.879 45.7417 136.783 46.2177 136.783C46.6517 136.783 47.0227 136.858 47.3307 137.007C47.6434 137.152 47.9211 137.355 48.1637 137.616V133.689H49.4097ZM56.4927 137.854C56.7961 137.532 57.1321 137.275 57.5007 137.084C57.8694 136.893 58.2941 136.797 58.7747 136.797C59.1621 136.797 59.5027 136.862 59.7967 136.993C60.0954 137.119 60.3427 137.301 60.5387 137.539C60.7394 137.772 60.8911 138.055 60.9937 138.386C61.0964 138.717 61.1477 139.084 61.1477 139.485V144H59.8947V139.485C59.8947 138.948 59.7711 138.533 59.5237 138.239C59.2811 137.94 58.9101 137.791 58.4107 137.791C58.0421 137.791 57.6967 137.88 57.3747 138.057C57.0574 138.234 56.7634 138.475 56.4927 138.778V144H55.2397V133.689H56.4927V137.854ZM66.1754 136.797C66.6934 136.797 67.16 136.883 67.5754 137.056C67.9907 137.229 68.3454 137.474 68.6394 137.791C68.9334 138.108 69.1574 138.493 69.3114 138.946C69.47 139.394 69.5494 139.896 69.5494 140.451C69.5494 141.011 69.47 141.515 69.3114 141.963C69.1574 142.411 68.9334 142.794 68.6394 143.111C68.3454 143.428 67.9907 143.673 67.5754 143.846C67.16 144.014 66.6934 144.098 66.1754 144.098C65.6527 144.098 65.1814 144.014 64.7614 143.846C64.346 143.673 63.9914 143.428 63.6974 143.111C63.4034 142.794 63.177 142.411 63.0184 141.963C62.8644 141.515 62.7874 141.011 62.7874 140.451C62.7874 139.896 62.8644 139.394 63.0184 138.946C63.177 138.493 63.4034 138.108 63.6974 137.791C63.9914 137.474 64.346 137.229 64.7614 137.056C65.1814 136.883 65.6527 136.797 66.1754 136.797ZM66.1754 143.125C66.8754 143.125 67.398 142.892 67.7434 142.425C68.0887 141.954 68.2614 141.298 68.2614 140.458C68.2614 139.613 68.0887 138.955 67.7434 138.484C67.398 138.013 66.8754 137.777 66.1754 137.777C65.8207 137.777 65.5104 137.838 65.2444 137.959C64.983 138.08 64.7637 138.255 64.5864 138.484C64.4137 138.713 64.283 138.995 64.1944 139.331C64.1104 139.662 64.0684 140.038 64.0684 140.458C64.0684 141.298 64.241 141.954 64.5864 142.425C64.9364 142.892 65.466 143.125 66.1754 143.125ZM72.5577 133.689V144H71.3117V133.689H72.5577ZM79.3383 138.596C79.105 138.283 78.853 138.066 78.5823 137.945C78.3117 137.819 78.0083 137.756 77.6723 137.756C77.0143 137.756 76.508 137.992 76.1533 138.463C75.7987 138.934 75.6213 139.606 75.6213 140.479C75.6213 140.941 75.661 141.338 75.7403 141.669C75.8197 141.996 75.9363 142.266 76.0903 142.481C76.2443 142.691 76.4333 142.845 76.6573 142.943C76.8813 143.041 77.1357 143.09 77.4203 143.09C77.831 143.09 78.188 142.997 78.4913 142.81C78.7993 142.623 79.0817 142.36 79.3383 142.019V138.596ZM80.5843 133.689V144H79.8423C79.665 144 79.553 143.914 79.5063 143.741L79.3943 142.88C79.091 143.244 78.7457 143.538 78.3583 143.762C77.971 143.986 77.523 144.098 77.0143 144.098C76.6083 144.098 76.2397 144.021 75.9083 143.867C75.577 143.708 75.2947 143.477 75.0613 143.174C74.828 142.871 74.6483 142.493 74.5223 142.04C74.3963 141.587 74.3333 141.067 74.3333 140.479C74.3333 139.956 74.4033 139.471 74.5433 139.023C74.6833 138.57 74.884 138.178 75.1453 137.847C75.4067 137.516 75.7263 137.257 76.1043 137.07C76.487 136.879 76.9163 136.783 77.3923 136.783C77.8263 136.783 78.1973 136.858 78.5053 137.007C78.818 137.152 79.0957 137.355 79.3383 137.616V133.689H80.5843ZM87.4383 139.681C87.4383 139.392 87.3963 139.128 87.3123 138.89C87.233 138.647 87.114 138.44 86.9553 138.267C86.8013 138.09 86.6123 137.954 86.3883 137.861C86.1643 137.763 85.91 137.714 85.6253 137.714C85.028 137.714 84.5543 137.889 84.2043 138.239C83.859 138.584 83.6443 139.065 83.5603 139.681H87.4383ZM88.4463 143.006C88.2923 143.193 88.108 143.356 87.8933 143.496C87.6786 143.631 87.4476 143.743 87.2003 143.832C86.9576 143.921 86.7056 143.986 86.4443 144.028C86.183 144.075 85.924 144.098 85.6673 144.098C85.1773 144.098 84.7246 144.016 84.3093 143.853C83.8986 143.685 83.5416 143.442 83.2383 143.125C82.9396 142.803 82.7063 142.406 82.5383 141.935C82.3703 141.464 82.2863 140.922 82.2863 140.311C82.2863 139.816 82.361 139.354 82.5103 138.925C82.6643 138.496 82.8836 138.125 83.1683 137.812C83.453 137.495 83.8006 137.247 84.2113 137.07C84.622 136.888 85.084 136.797 85.5973 136.797C86.022 136.797 86.414 136.869 86.7733 137.014C87.1373 137.154 87.45 137.359 87.7113 137.63C87.9773 137.896 88.185 138.227 88.3343 138.624C88.4836 139.016 88.5583 139.464 88.5583 139.968C88.5583 140.164 88.5373 140.295 88.4953 140.36C88.4533 140.425 88.374 140.458 88.2573 140.458H83.5183C83.5323 140.906 83.593 141.296 83.7003 141.627C83.8123 141.958 83.9663 142.236 84.1623 142.46C84.3583 142.679 84.5916 142.845 84.8623 142.957C85.133 143.064 85.4363 143.118 85.7723 143.118C86.085 143.118 86.3533 143.083 86.5773 143.013C86.806 142.938 87.002 142.859 87.1653 142.775C87.3286 142.691 87.464 142.614 87.5713 142.544C87.6833 142.469 87.779 142.432 87.8583 142.432C87.961 142.432 88.0403 142.472 88.0963 142.551L88.4463 143.006ZM91.4118 138.33C91.6358 137.845 91.9111 137.467 92.2378 137.196C92.5645 136.921 92.9635 136.783 93.4348 136.783C93.5841 136.783 93.7265 136.799 93.8618 136.832C94.0018 136.865 94.1255 136.916 94.2328 136.986L94.1418 137.917C94.1138 138.034 94.0438 138.092 93.9318 138.092C93.8665 138.092 93.7708 138.078 93.6448 138.05C93.5188 138.022 93.3765 138.008 93.2178 138.008C92.9938 138.008 92.7931 138.041 92.6158 138.106C92.4431 138.171 92.2868 138.269 92.1468 138.4C92.0115 138.526 91.8878 138.685 91.7758 138.876C91.6685 139.063 91.5705 139.277 91.4818 139.52V144H90.2288V136.909H90.9428C91.0781 136.909 91.1715 136.935 91.2228 136.986C91.2741 137.037 91.3091 137.126 91.3278 137.252L91.4118 138.33ZM107.311 133.969V144H106.632C106.524 144 106.433 143.981 106.359 143.944C106.289 143.907 106.219 143.844 106.149 143.755L100.346 136.195C100.355 136.312 100.362 136.426 100.367 136.538C100.371 136.65 100.374 136.755 100.374 136.853V144H99.1837V133.969H99.8837C99.9443 133.969 99.9957 133.974 100.038 133.983C100.08 133.988 100.117 133.999 100.15 134.018C100.182 134.032 100.215 134.055 100.248 134.088C100.28 134.116 100.315 134.153 100.353 134.2L106.156 141.753C106.146 141.632 106.137 141.515 106.128 141.403C106.123 141.286 106.121 141.177 106.121 141.074V133.969H107.311ZM113.359 140.808C112.785 140.827 112.295 140.873 111.889 140.948C111.488 141.018 111.159 141.111 110.902 141.228C110.65 141.345 110.466 141.482 110.349 141.641C110.237 141.8 110.181 141.977 110.181 142.173C110.181 142.36 110.211 142.521 110.272 142.656C110.333 142.791 110.414 142.903 110.517 142.992C110.624 143.076 110.748 143.139 110.888 143.181C111.033 143.218 111.187 143.237 111.35 143.237C111.569 143.237 111.77 143.216 111.952 143.174C112.134 143.127 112.304 143.062 112.463 142.978C112.626 142.894 112.78 142.794 112.925 142.677C113.074 142.56 113.219 142.427 113.359 142.278V140.808ZM109.334 137.91C109.726 137.532 110.148 137.25 110.601 137.063C111.054 136.876 111.555 136.783 112.106 136.783C112.503 136.783 112.855 136.848 113.163 136.979C113.471 137.11 113.73 137.292 113.94 137.525C114.15 137.758 114.309 138.041 114.416 138.372C114.523 138.703 114.577 139.067 114.577 139.464V144H114.024C113.903 144 113.809 143.981 113.744 143.944C113.679 143.902 113.627 143.823 113.59 143.706L113.45 143.034C113.263 143.207 113.081 143.361 112.904 143.496C112.727 143.627 112.54 143.739 112.344 143.832C112.148 143.921 111.938 143.988 111.714 144.035C111.495 144.086 111.25 144.112 110.979 144.112C110.704 144.112 110.445 144.075 110.202 144C109.959 143.921 109.747 143.804 109.565 143.65C109.388 143.496 109.245 143.302 109.138 143.069C109.035 142.831 108.984 142.551 108.984 142.229C108.984 141.949 109.061 141.681 109.215 141.424C109.369 141.163 109.619 140.932 109.964 140.731C110.309 140.53 110.76 140.367 111.315 140.241C111.87 140.11 112.552 140.036 113.359 140.017V139.464C113.359 138.913 113.24 138.498 113.002 138.218C112.764 137.933 112.416 137.791 111.959 137.791C111.651 137.791 111.392 137.831 111.182 137.91C110.977 137.985 110.797 138.071 110.643 138.169C110.494 138.262 110.363 138.349 110.251 138.428C110.144 138.503 110.036 138.54 109.929 138.54C109.845 138.54 109.773 138.519 109.712 138.477C109.651 138.43 109.6 138.374 109.558 138.309L109.334 137.91ZM116.615 144V136.909H117.364C117.541 136.909 117.651 136.995 117.693 137.168L117.784 137.896C118.045 137.574 118.339 137.31 118.666 137.105C118.993 136.9 119.371 136.797 119.8 136.797C120.276 136.797 120.661 136.93 120.955 137.196C121.254 137.462 121.468 137.821 121.599 138.274C121.702 138.017 121.832 137.796 121.991 137.609C122.154 137.422 122.336 137.268 122.537 137.147C122.738 137.026 122.95 136.937 123.174 136.881C123.403 136.825 123.634 136.797 123.867 136.797C124.24 136.797 124.572 136.858 124.861 136.979C125.155 137.096 125.402 137.268 125.603 137.497C125.808 137.726 125.965 138.008 126.072 138.344C126.179 138.675 126.233 139.056 126.233 139.485V144H124.98V139.485C124.98 138.93 124.859 138.51 124.616 138.225C124.373 137.936 124.023 137.791 123.566 137.791C123.361 137.791 123.165 137.828 122.978 137.903C122.796 137.973 122.635 138.078 122.495 138.218C122.355 138.358 122.243 138.535 122.159 138.75C122.08 138.96 122.04 139.205 122.04 139.485V144H120.787V139.485C120.787 138.916 120.673 138.491 120.444 138.211C120.215 137.931 119.882 137.791 119.443 137.791C119.135 137.791 118.85 137.875 118.589 138.043C118.328 138.206 118.087 138.43 117.868 138.715V144H116.615ZM133.013 139.681C133.013 139.392 132.971 139.128 132.887 138.89C132.807 138.647 132.688 138.44 132.53 138.267C132.376 138.09 132.187 137.954 131.963 137.861C131.739 137.763 131.484 137.714 131.2 137.714C130.602 137.714 130.129 137.889 129.779 138.239C129.433 138.584 129.219 139.065 129.135 139.681H133.013ZM134.021 143.006C133.867 143.193 133.682 143.356 133.468 143.496C133.253 143.631 133.022 143.743 132.775 143.832C132.532 143.921 132.28 143.986 132.019 144.028C131.757 144.075 131.498 144.098 131.242 144.098C130.752 144.098 130.299 144.016 129.884 143.853C129.473 143.685 129.116 143.442 128.813 143.125C128.514 142.803 128.281 142.406 128.113 141.935C127.945 141.464 127.861 140.922 127.861 140.311C127.861 139.816 127.935 139.354 128.085 138.925C128.239 138.496 128.458 138.125 128.743 137.812C129.027 137.495 129.375 137.247 129.786 137.07C130.196 136.888 130.658 136.797 131.172 136.797C131.596 136.797 131.988 136.869 132.348 137.014C132.712 137.154 133.024 137.359 133.286 137.63C133.552 137.896 133.759 138.227 133.909 138.624C134.058 139.016 134.133 139.464 134.133 139.968C134.133 140.164 134.112 140.295 134.07 140.36C134.028 140.425 133.948 140.458 133.832 140.458H129.093C129.107 140.906 129.167 141.296 129.275 141.627C129.387 141.958 129.541 142.236 129.737 142.46C129.933 142.679 130.166 142.845 130.437 142.957C130.707 143.064 131.011 143.118 131.347 143.118C131.659 143.118 131.928 143.083 132.152 143.013C132.38 142.938 132.576 142.859 132.74 142.775C132.903 142.691 133.038 142.614 133.146 142.544C133.258 142.469 133.353 142.432 133.433 142.432C133.535 142.432 133.615 142.472 133.671 142.551L134.021 143.006Z" fill="white"/>
<path d="M158.469 142.894L158.462 144H152.281V133.969H158.462V135.075H153.639V138.407H157.545V139.471H153.639V142.894H158.469ZM166.031 144H164.834C164.731 144 164.65 143.974 164.589 143.923C164.533 143.867 164.486 143.806 164.449 143.741L162.664 140.962C162.645 141.027 162.624 141.093 162.601 141.158C162.582 141.219 162.554 141.275 162.517 141.326L160.865 143.741C160.818 143.806 160.767 143.867 160.711 143.923C160.66 143.974 160.587 144 160.494 144H159.381L161.866 140.36L159.479 136.909H160.676C160.779 136.909 160.853 136.925 160.9 136.958C160.947 136.991 160.989 137.037 161.026 137.098L162.769 139.758C162.806 139.623 162.865 139.492 162.944 139.366L164.47 137.126C164.512 137.061 164.556 137.009 164.603 136.972C164.654 136.93 164.715 136.909 164.785 136.909H165.933L163.546 140.297L166.031 144ZM168.573 142.292C168.801 142.6 169.051 142.817 169.322 142.943C169.592 143.069 169.896 143.132 170.232 143.132C170.894 143.132 171.403 142.896 171.758 142.425C172.112 141.954 172.29 141.282 172.29 140.409C172.29 139.947 172.248 139.55 172.164 139.219C172.084 138.888 171.968 138.617 171.814 138.407C171.66 138.192 171.471 138.036 171.247 137.938C171.023 137.84 170.768 137.791 170.484 137.791C170.078 137.791 169.721 137.884 169.413 138.071C169.109 138.258 168.829 138.521 168.573 138.862V142.292ZM168.51 138.008C168.808 137.639 169.154 137.343 169.546 137.119C169.938 136.895 170.386 136.783 170.89 136.783C171.3 136.783 171.671 136.862 172.003 137.021C172.334 137.175 172.616 137.406 172.85 137.714C173.083 138.017 173.263 138.395 173.389 138.848C173.515 139.301 173.578 139.821 173.578 140.409C173.578 140.932 173.508 141.419 173.368 141.872C173.228 142.32 173.025 142.71 172.759 143.041C172.497 143.368 172.175 143.627 171.793 143.818C171.415 144.005 170.988 144.098 170.512 144.098C170.078 144.098 169.704 144.026 169.392 143.881C169.084 143.732 168.811 143.526 168.573 143.265V146.401H167.32V136.909H168.069C168.246 136.909 168.356 136.995 168.398 137.168L168.51 138.008ZM176.623 136.909V144H175.377V136.909H176.623ZM176.889 134.683C176.889 134.804 176.864 134.919 176.812 135.026C176.766 135.129 176.7 135.222 176.616 135.306C176.537 135.385 176.441 135.448 176.329 135.495C176.222 135.542 176.108 135.565 175.986 135.565C175.865 135.565 175.751 135.542 175.643 135.495C175.541 135.448 175.45 135.385 175.37 135.306C175.291 135.222 175.228 135.129 175.181 135.026C175.135 134.919 175.111 134.804 175.111 134.683C175.111 134.562 175.135 134.447 175.181 134.34C175.228 134.228 175.291 134.132 175.37 134.053C175.45 133.969 175.541 133.904 175.643 133.857C175.751 133.81 175.865 133.787 175.986 133.787C176.108 133.787 176.222 133.81 176.329 133.857C176.441 133.904 176.537 133.969 176.616 134.053C176.7 134.132 176.766 134.228 176.812 134.34C176.864 134.447 176.889 134.562 176.889 134.683ZM179.994 138.33C180.218 137.845 180.493 137.467 180.82 137.196C181.146 136.921 181.545 136.783 182.017 136.783C182.166 136.783 182.308 136.799 182.444 136.832C182.584 136.865 182.707 136.916 182.815 136.986L182.724 137.917C182.696 138.034 182.626 138.092 182.514 138.092C182.448 138.092 182.353 138.078 182.227 138.05C182.101 138.022 181.958 138.008 181.8 138.008C181.576 138.008 181.375 138.041 181.198 138.106C181.025 138.171 180.869 138.269 180.729 138.4C180.593 138.526 180.47 138.685 180.358 138.876C180.25 139.063 180.152 139.277 180.064 139.52V144H178.811V136.909H179.525C179.66 136.909 179.753 136.935 179.805 136.986C179.856 137.037 179.891 137.126 179.91 137.252L179.994 138.33ZM190.168 136.909L186.213 146.093C186.171 146.186 186.118 146.261 186.052 146.317C185.992 146.373 185.896 146.401 185.765 146.401H184.841L186.136 143.587L183.21 136.909H184.288C184.396 136.909 184.48 136.937 184.54 136.993C184.606 137.044 184.65 137.103 184.673 137.168L186.57 141.634C186.645 141.83 186.708 142.035 186.759 142.25C186.825 142.031 186.895 141.823 186.969 141.627L188.81 137.168C188.838 137.093 188.885 137.033 188.95 136.986C189.02 136.935 189.097 136.909 189.181 136.909H190.168ZM203.777 138.988C203.777 139.739 203.658 140.423 203.42 141.039C203.182 141.655 202.846 142.182 202.412 142.621C201.978 143.06 201.456 143.4 200.844 143.643C200.238 143.881 199.566 144 198.828 144H195.083V133.969H198.828C199.566 133.969 200.238 134.09 200.844 134.333C201.456 134.571 201.978 134.912 202.412 135.355C202.846 135.794 203.182 136.321 203.42 136.937C203.658 137.553 203.777 138.237 203.777 138.988ZM202.384 138.988C202.384 138.372 202.3 137.821 202.132 137.336C201.964 136.851 201.726 136.44 201.418 136.104C201.11 135.768 200.737 135.511 200.298 135.334C199.86 135.157 199.37 135.068 198.828 135.068H196.441V142.901H198.828C199.37 142.901 199.86 142.812 200.298 142.635C200.737 142.458 201.11 142.203 201.418 141.872C201.726 141.536 201.964 141.125 202.132 140.64C202.3 140.155 202.384 139.604 202.384 138.988ZM209.245 140.808C208.671 140.827 208.181 140.873 207.775 140.948C207.374 141.018 207.045 141.111 206.788 141.228C206.536 141.345 206.352 141.482 206.235 141.641C206.123 141.8 206.067 141.977 206.067 142.173C206.067 142.36 206.097 142.521 206.158 142.656C206.219 142.791 206.3 142.903 206.403 142.992C206.51 143.076 206.634 143.139 206.774 143.181C206.919 143.218 207.073 143.237 207.236 143.237C207.455 143.237 207.656 143.216 207.838 143.174C208.02 143.127 208.19 143.062 208.349 142.978C208.512 142.894 208.666 142.794 208.811 142.677C208.96 142.56 209.105 142.427 209.245 142.278V140.808ZM205.22 137.91C205.612 137.532 206.034 137.25 206.487 137.063C206.94 136.876 207.441 136.783 207.992 136.783C208.389 136.783 208.741 136.848 209.049 136.979C209.357 137.11 209.616 137.292 209.826 137.525C210.036 137.758 210.195 138.041 210.302 138.372C210.409 138.703 210.463 139.067 210.463 139.464V144H209.91C209.789 144 209.695 143.981 209.63 143.944C209.565 143.902 209.513 143.823 209.476 143.706L209.336 143.034C209.149 143.207 208.967 143.361 208.79 143.496C208.613 143.627 208.426 143.739 208.23 143.832C208.034 143.921 207.824 143.988 207.6 144.035C207.381 144.086 207.136 144.112 206.865 144.112C206.59 144.112 206.331 144.075 206.088 144C205.845 143.921 205.633 143.804 205.451 143.65C205.274 143.496 205.131 143.302 205.024 143.069C204.921 142.831 204.87 142.551 204.87 142.229C204.87 141.949 204.947 141.681 205.101 141.424C205.255 141.163 205.505 140.932 205.85 140.731C206.195 140.53 206.646 140.367 207.201 140.241C207.756 140.11 208.438 140.036 209.245 140.017V139.464C209.245 138.913 209.126 138.498 208.888 138.218C208.65 137.933 208.302 137.791 207.845 137.791C207.537 137.791 207.278 137.831 207.068 137.91C206.863 137.985 206.683 138.071 206.529 138.169C206.38 138.262 206.249 138.349 206.137 138.428C206.03 138.503 205.922 138.54 205.815 138.54C205.731 138.54 205.659 138.519 205.598 138.477C205.537 138.43 205.486 138.374 205.444 138.309L205.22 137.91ZM214.582 144.112C214.022 144.112 213.591 143.956 213.287 143.643C212.989 143.33 212.839 142.88 212.839 142.292V137.952H211.985C211.911 137.952 211.848 137.931 211.796 137.889C211.745 137.842 211.719 137.772 211.719 137.679V137.182L212.881 137.035L213.168 134.844C213.182 134.774 213.213 134.718 213.259 134.676C213.311 134.629 213.376 134.606 213.455 134.606H214.085V137.049H216.136V137.952H214.085V142.208C214.085 142.507 214.158 142.728 214.302 142.873C214.447 143.018 214.634 143.09 214.862 143.09C214.993 143.09 215.105 143.074 215.198 143.041C215.296 143.004 215.38 142.964 215.45 142.922C215.52 142.88 215.579 142.843 215.625 142.81C215.677 142.773 215.721 142.754 215.758 142.754C215.824 142.754 215.882 142.794 215.933 142.873L216.297 143.468C216.083 143.669 215.824 143.827 215.52 143.944C215.217 144.056 214.904 144.112 214.582 144.112ZM222.268 139.681C222.268 139.392 222.226 139.128 222.142 138.89C222.062 138.647 221.943 138.44 221.785 138.267C221.631 138.09 221.442 137.954 221.218 137.861C220.994 137.763 220.739 137.714 220.455 137.714C219.857 137.714 219.384 137.889 219.034 138.239C218.688 138.584 218.474 139.065 218.39 139.681H222.268ZM223.276 143.006C223.122 143.193 222.937 143.356 222.723 143.496C222.508 143.631 222.277 143.743 222.03 143.832C221.787 143.921 221.535 143.986 221.274 144.028C221.012 144.075 220.753 144.098 220.497 144.098C220.007 144.098 219.554 144.016 219.139 143.853C218.728 143.685 218.371 143.442 218.068 143.125C217.769 142.803 217.536 142.406 217.368 141.935C217.2 141.464 217.116 140.922 217.116 140.311C217.116 139.816 217.19 139.354 217.34 138.925C217.494 138.496 217.713 138.125 217.998 137.812C218.282 137.495 218.63 137.247 219.041 137.07C219.451 136.888 219.913 136.797 220.427 136.797C220.851 136.797 221.243 136.869 221.603 137.014C221.967 137.154 222.279 137.359 222.541 137.63C222.807 137.896 223.014 138.227 223.164 138.624C223.313 139.016 223.388 139.464 223.388 139.968C223.388 140.164 223.367 140.295 223.325 140.36C223.283 140.425 223.203 140.458 223.087 140.458H218.348C218.362 140.906 218.422 141.296 218.53 141.627C218.642 141.958 218.796 142.236 218.992 142.46C219.188 142.679 219.421 142.845 219.692 142.957C219.962 143.064 220.266 143.118 220.602 143.118C220.914 143.118 221.183 143.083 221.407 143.013C221.635 142.938 221.831 142.859 221.995 142.775C222.158 142.691 222.293 142.614 222.401 142.544C222.513 142.469 222.608 142.432 222.688 142.432C222.79 142.432 222.87 142.472 222.926 142.551L223.276 143.006Z" fill="white"/>
<path d="M26.816 160.528L26.464 161.128L25.08 160.328C24.984 160.269 24.8987 160.211 24.824 160.152C24.7493 160.093 24.6827 160.019 24.624 159.928C24.7093 160.104 24.752 160.299 24.752 160.512V162.096H24.048V160.52C24.048 160.413 24.0533 160.315 24.064 160.224C24.08 160.133 24.1093 160.045 24.152 159.96C24.0933 160.035 24.0293 160.101 23.96 160.16C23.8907 160.219 23.8107 160.275 23.72 160.328L22.344 161.12L21.992 160.52L23.368 159.72C23.5707 159.597 23.7733 159.533 23.976 159.528C23.8693 159.517 23.7653 159.499 23.664 159.472C23.568 159.44 23.4693 159.392 23.368 159.328L21.984 158.52L22.336 157.92L23.72 158.72C23.816 158.779 23.9013 158.84 23.976 158.904C24.0507 158.968 24.1173 159.045 24.176 159.136C24.0907 158.949 24.048 158.749 24.048 158.536V156.952H24.752V158.528C24.752 158.635 24.744 158.736 24.728 158.832C24.7173 158.923 24.6907 159.011 24.648 159.096C24.7067 159.021 24.7707 158.955 24.84 158.896C24.9093 158.837 24.9893 158.779 25.08 158.72L26.456 157.928L26.808 158.528L25.432 159.328C25.3413 159.387 25.2507 159.432 25.16 159.464C25.0693 159.496 24.9733 159.517 24.872 159.528C24.9733 159.539 25.0693 159.56 25.16 159.592C25.2507 159.619 25.3413 159.661 25.432 159.72L26.816 160.528ZM33.7729 160.528L33.4209 161.128L32.0369 160.328C31.9409 160.269 31.8555 160.211 31.7809 160.152C31.7062 160.093 31.6395 160.019 31.5809 159.928C31.6662 160.104 31.7089 160.299 31.7089 160.512V162.096H31.0049V160.52C31.0049 160.413 31.0102 160.315 31.0209 160.224C31.0369 160.133 31.0662 160.045 31.1089 159.96C31.0502 160.035 30.9862 160.101 30.9169 160.16C30.8475 160.219 30.7675 160.275 30.6769 160.328L29.3009 161.12L28.9489 160.52L30.3249 159.72C30.5275 159.597 30.7302 159.533 30.9329 159.528C30.8262 159.517 30.7222 159.499 30.6209 159.472C30.5249 159.44 30.4262 159.392 30.3249 159.328L28.9409 158.52L29.2929 157.92L30.6769 158.72C30.7729 158.779 30.8582 158.84 30.9329 158.904C31.0075 158.968 31.0742 159.045 31.1329 159.136C31.0475 158.949 31.0049 158.749 31.0049 158.536V156.952H31.7089V158.528C31.7089 158.635 31.7009 158.736 31.6849 158.832C31.6742 158.923 31.6475 159.011 31.6049 159.096C31.6635 159.021 31.7275 158.955 31.7969 158.896C31.8662 158.837 31.9462 158.779 32.0369 158.72L33.4129 157.928L33.7649 158.528L32.3889 159.328C32.2982 159.387 32.2075 159.432 32.1169 159.464C32.0262 159.496 31.9302 159.517 31.8289 159.528C31.9302 159.539 32.0262 159.56 32.1169 159.592C32.2075 159.619 32.2982 159.661 32.3889 159.72L33.7729 160.528ZM40.7298 160.528L40.3777 161.128L38.9938 160.328C38.8977 160.269 38.8124 160.211 38.7377 160.152C38.6631 160.093 38.5964 160.019 38.5377 159.928C38.6231 160.104 38.6657 160.299 38.6657 160.512V162.096H37.9617V160.52C37.9617 160.413 37.9671 160.315 37.9777 160.224C37.9937 160.133 38.0231 160.045 38.0657 159.96C38.0071 160.035 37.9431 160.101 37.8737 160.16C37.8044 160.219 37.7244 160.275 37.6337 160.328L36.2577 161.12L35.9057 160.52L37.2817 159.72C37.4844 159.597 37.6871 159.533 37.8897 159.528C37.7831 159.517 37.6791 159.499 37.5777 159.472C37.4817 159.44 37.3831 159.392 37.2817 159.328L35.8977 158.52L36.2497 157.92L37.6337 158.72C37.7297 158.779 37.8151 158.84 37.8897 158.904C37.9644 158.968 38.0311 159.045 38.0897 159.136C38.0044 158.949 37.9617 158.749 37.9617 158.536V156.952H38.6657V158.528C38.6657 158.635 38.6577 158.736 38.6417 158.832C38.6311 158.923 38.6044 159.011 38.5617 159.096C38.6204 159.021 38.6844 158.955 38.7537 158.896C38.8231 158.837 38.9031 158.779 38.9938 158.72L40.3698 157.928L40.7217 158.528L39.3457 159.328C39.2551 159.387 39.1644 159.432 39.0738 159.464C38.9831 159.496 38.8871 159.517 38.7857 159.528C38.8871 159.539 38.9831 159.56 39.0738 159.592C39.1644 159.619 39.2551 159.661 39.3457 159.72L40.7298 160.528ZM47.6866 160.528L47.3346 161.128L45.9506 160.328C45.8546 160.269 45.7693 160.211 45.6946 160.152C45.62 160.093 45.5533 160.019 45.4946 159.928C45.58 160.104 45.6226 160.299 45.6226 160.512V162.096H44.9186V160.52C44.9186 160.413 44.924 160.315 44.9346 160.224C44.9506 160.133 44.98 160.045 45.0226 159.96C44.964 160.035 44.9 160.101 44.8306 160.16C44.7613 160.219 44.6813 160.275 44.5906 160.328L43.2146 161.12L42.8626 160.52L44.2386 159.72C44.4413 159.597 44.644 159.533 44.8466 159.528C44.74 159.517 44.636 159.499 44.5346 159.472C44.4386 159.44 44.34 159.392 44.2386 159.328L42.8546 158.52L43.2066 157.92L44.5906 158.72C44.6866 158.779 44.772 158.84 44.8466 158.904C44.9213 158.968 44.988 159.045 45.0466 159.136C44.9613 158.949 44.9186 158.749 44.9186 158.536V156.952H45.6226V158.528C45.6226 158.635 45.6146 158.736 45.5986 158.832C45.588 158.923 45.5613 159.011 45.5186 159.096C45.5773 159.021 45.6413 158.955 45.7106 158.896C45.78 158.837 45.86 158.779 45.9506 158.72L47.3266 157.928L47.6786 158.528L46.3026 159.328C46.212 159.387 46.1213 159.432 46.0306 159.464C45.94 159.496 45.844 159.517 45.7426 159.528C45.844 159.539 45.94 159.56 46.0306 159.592C46.1213 159.619 46.212 159.661 46.3026 159.72L47.6866 160.528ZM54.6435 160.528L54.2915 161.128L52.9075 160.328C52.8115 160.269 52.7262 160.211 52.6515 160.152C52.5768 160.093 52.5102 160.019 52.4515 159.928C52.5368 160.104 52.5795 160.299 52.5795 160.512V162.096H51.8755V160.52C51.8755 160.413 51.8808 160.315 51.8915 160.224C51.9075 160.133 51.9368 160.045 51.9795 159.96C51.9208 160.035 51.8568 160.101 51.7875 160.16C51.7182 160.219 51.6382 160.275 51.5475 160.328L50.1715 161.12L49.8195 160.52L51.1955 159.72C51.3982 159.597 51.6008 159.533 51.8035 159.528C51.6968 159.517 51.5928 159.499 51.4915 159.472C51.3955 159.44 51.2968 159.392 51.1955 159.328L49.8115 158.52L50.1635 157.92L51.5475 158.72C51.6435 158.779 51.7288 158.84 51.8035 158.904C51.8782 158.968 51.9448 159.045 52.0035 159.136C51.9182 158.949 51.8755 158.749 51.8755 158.536V156.952H52.5795V158.528C52.5795 158.635 52.5715 158.736 52.5555 158.832C52.5448 158.923 52.5182 159.011 52.4755 159.096C52.5342 159.021 52.5982 158.955 52.6675 158.896C52.7368 158.837 52.8168 158.779 52.9075 158.72L54.2835 157.928L54.6355 158.528L53.2595 159.328C53.1688 159.387 53.0782 159.432 52.9875 159.464C52.8968 159.496 52.8008 159.517 52.6995 159.528C52.8008 159.539 52.8968 159.56 52.9875 159.592C53.0782 159.619 53.1688 159.661 53.2595 159.72L54.6435 160.528ZM61.6004 160.528L61.2484 161.128L59.8644 160.328C59.7684 160.269 59.683 160.211 59.6084 160.152C59.5337 160.093 59.467 160.019 59.4084 159.928C59.4937 160.104 59.5364 160.299 59.5364 160.512V162.096H58.8324V160.52C58.8324 160.413 58.8377 160.315 58.8484 160.224C58.8644 160.133 58.8937 160.045 58.9364 159.96C58.8777 160.035 58.8137 160.101 58.7444 160.16C58.675 160.219 58.595 160.275 58.5044 160.328L57.1284 161.12L56.7764 160.52L58.1524 159.72C58.355 159.597 58.5577 159.533 58.7604 159.528C58.6537 159.517 58.5497 159.499 58.4484 159.472C58.3524 159.44 58.2537 159.392 58.1524 159.328L56.7684 158.52L57.1204 157.92L58.5044 158.72C58.6004 158.779 58.6857 158.84 58.7604 158.904C58.835 158.968 58.9017 159.045 58.9604 159.136C58.875 158.949 58.8324 158.749 58.8324 158.536V156.952H59.5364V158.528C59.5364 158.635 59.5284 158.736 59.5124 158.832C59.5017 158.923 59.475 159.011 59.4324 159.096C59.491 159.021 59.555 158.955 59.6244 158.896C59.6937 158.837 59.7737 158.779 59.8644 158.72L61.2404 157.928L61.5924 158.528L60.2164 159.328C60.1257 159.387 60.035 159.432 59.9444 159.464C59.8537 159.496 59.7577 159.517 59.6564 159.528C59.7577 159.539 59.8537 159.56 59.9444 159.592C60.035 159.619 60.1257 159.661 60.2164 159.72L61.6004 160.528ZM68.5572 160.528L68.2052 161.128L66.8212 160.328C66.7252 160.269 66.6399 160.211 66.5652 160.152C66.4906 160.093 66.4239 160.019 66.3652 159.928C66.4506 160.104 66.4932 160.299 66.4932 160.512V162.096H65.7892V160.52C65.7892 160.413 65.7946 160.315 65.8052 160.224C65.8212 160.133 65.8506 160.045 65.8932 159.96C65.8346 160.035 65.7706 160.101 65.7012 160.16C65.6319 160.219 65.5519 160.275 65.4612 160.328L64.0852 161.12L63.7332 160.52L65.1092 159.72C65.3119 159.597 65.5146 159.533 65.7172 159.528C65.6106 159.517 65.5066 159.499 65.4052 159.472C65.3092 159.44 65.2106 159.392 65.1092 159.328L63.7252 158.52L64.0772 157.92L65.4612 158.72C65.5572 158.779 65.6426 158.84 65.7172 158.904C65.7919 158.968 65.8586 159.045 65.9172 159.136C65.8319 158.949 65.7892 158.749 65.7892 158.536V156.952H66.4932V158.528C66.4932 158.635 66.4852 158.736 66.4692 158.832C66.4586 158.923 66.4319 159.011 66.3892 159.096C66.4479 159.021 66.5119 158.955 66.5812 158.896C66.6506 158.837 66.7306 158.779 66.8212 158.72L68.1972 157.928L68.5492 158.528L67.1732 159.328C67.0826 159.387 66.9919 159.432 66.9012 159.464C66.8106 159.496 66.7146 159.517 66.6132 159.528C66.7146 159.539 66.8106 159.56 66.9012 159.592C66.9919 159.619 67.0826 159.661 67.1732 159.72L68.5572 160.528ZM75.5141 160.528L75.1621 161.128L73.7781 160.328C73.6821 160.269 73.5968 160.211 73.5221 160.152C73.4475 160.093 73.3808 160.019 73.3221 159.928C73.4075 160.104 73.4501 160.299 73.4501 160.512V162.096H72.7461V160.52C72.7461 160.413 72.7515 160.315 72.7621 160.224C72.7781 160.133 72.8075 160.045 72.8501 159.96C72.7915 160.035 72.7275 160.101 72.6581 160.16C72.5888 160.219 72.5088 160.275 72.4181 160.328L71.0421 161.12L70.6901 160.52L72.0661 159.72C72.2688 159.597 72.4715 159.533 72.6741 159.528C72.5675 159.517 72.4635 159.499 72.3621 159.472C72.2661 159.44 72.1675 159.392 72.0661 159.328L70.6821 158.52L71.0341 157.92L72.4181 158.72C72.5141 158.779 72.5995 158.84 72.6741 158.904C72.7488 158.968 72.8155 159.045 72.8741 159.136C72.7888 158.949 72.7461 158.749 72.7461 158.536V156.952H73.4501V158.528C73.4501 158.635 73.4421 158.736 73.4261 158.832C73.4155 158.923 73.3888 159.011 73.3461 159.096C73.4048 159.021 73.4688 158.955 73.5381 158.896C73.6075 158.837 73.6875 158.779 73.7781 158.72L75.1541 157.928L75.5061 158.528L74.1301 159.328C74.0395 159.387 73.9488 159.432 73.8581 159.464C73.7675 159.496 73.6715 159.517 73.5701 159.528C73.6715 159.539 73.7675 159.56 73.8581 159.592C73.9488 159.619 74.0395 159.661 74.1301 159.72L75.5141 160.528ZM82.471 160.528L82.119 161.128L80.735 160.328C80.639 160.269 80.5537 160.211 80.479 160.152C80.4043 160.093 80.3377 160.019 80.279 159.928C80.3643 160.104 80.407 160.299 80.407 160.512V162.096H79.703V160.52C79.703 160.413 79.7083 160.315 79.719 160.224C79.735 160.133 79.7643 160.045 79.807 159.96C79.7483 160.035 79.6843 160.101 79.615 160.16C79.5457 160.219 79.4657 160.275 79.375 160.328L77.999 161.12L77.647 160.52L79.023 159.72C79.2257 159.597 79.4283 159.533 79.631 159.528C79.5243 159.517 79.4203 159.499 79.319 159.472C79.223 159.44 79.1243 159.392 79.023 159.328L77.639 158.52L77.991 157.92L79.375 158.72C79.471 158.779 79.5563 158.84 79.631 158.904C79.7057 158.968 79.7723 159.045 79.831 159.136C79.7457 158.949 79.703 158.749 79.703 158.536V156.952H80.407V158.528C80.407 158.635 80.399 158.736 80.383 158.832C80.3723 158.923 80.3457 159.011 80.303 159.096C80.3617 159.021 80.4257 158.955 80.495 158.896C80.5643 158.837 80.6443 158.779 80.735 158.72L82.111 157.928L82.463 158.528L81.087 159.328C80.9963 159.387 80.9057 159.432 80.815 159.464C80.7243 159.496 80.6283 159.517 80.527 159.528C80.6283 159.539 80.7243 159.56 80.815 159.592C80.9057 159.619 80.9963 159.661 81.087 159.72L82.471 160.528ZM89.4279 160.528L89.0759 161.128L87.6919 160.328C87.5959 160.269 87.5105 160.211 87.4359 160.152C87.3612 160.093 87.2945 160.019 87.2359 159.928C87.3212 160.104 87.3639 160.299 87.3639 160.512V162.096H86.6599V160.52C86.6599 160.413 86.6652 160.315 86.6759 160.224C86.6919 160.133 86.7212 160.045 86.7639 159.96C86.7052 160.035 86.6412 160.101 86.5719 160.16C86.5025 160.219 86.4225 160.275 86.3319 160.328L84.9559 161.12L84.6039 160.52L85.9799 159.72C86.1825 159.597 86.3852 159.533 86.5879 159.528C86.4812 159.517 86.3772 159.499 86.2759 159.472C86.1799 159.44 86.0812 159.392 85.9799 159.328L84.5959 158.52L84.9479 157.92L86.3319 158.72C86.4279 158.779 86.5132 158.84 86.5879 158.904C86.6625 158.968 86.7292 159.045 86.7879 159.136C86.7025 158.949 86.6599 158.749 86.6599 158.536V156.952H87.3639V158.528C87.3639 158.635 87.3559 158.736 87.3399 158.832C87.3292 158.923 87.3025 159.011 87.2599 159.096C87.3185 159.021 87.3825 158.955 87.4519 158.896C87.5212 158.837 87.6012 158.779 87.6919 158.72L89.0679 157.928L89.4199 158.528L88.0439 159.328C87.9532 159.387 87.8625 159.432 87.7719 159.464C87.6812 159.496 87.5852 159.517 87.4839 159.528C87.5852 159.539 87.6812 159.56 87.7719 159.592C87.8625 159.619 87.9532 159.661 88.0439 159.72L89.4279 160.528ZM96.3847 160.528L96.0327 161.128L94.6487 160.328C94.5527 160.269 94.4674 160.211 94.3927 160.152C94.3181 160.093 94.2514 160.019 94.1927 159.928C94.2781 160.104 94.3207 160.299 94.3207 160.512V162.096H93.6167V160.52C93.6167 160.413 93.6221 160.315 93.6327 160.224C93.6487 160.133 93.6781 160.045 93.7207 159.96C93.6621 160.035 93.5981 160.101 93.5287 160.16C93.4594 160.219 93.3794 160.275 93.2887 160.328L91.9127 161.12L91.5607 160.52L92.9367 159.72C93.1394 159.597 93.3421 159.533 93.5447 159.528C93.4381 159.517 93.3341 159.499 93.2327 159.472C93.1367 159.44 93.0381 159.392 92.9367 159.328L91.5527 158.52L91.9047 157.92L93.2887 158.72C93.3847 158.779 93.4701 158.84 93.5447 158.904C93.6194 158.968 93.6861 159.045 93.7447 159.136C93.6594 158.949 93.6167 158.749 93.6167 158.536V156.952H94.3207V158.528C94.3207 158.635 94.3127 158.736 94.2967 158.832C94.2861 158.923 94.2594 159.011 94.2167 159.096C94.2754 159.021 94.3394 158.955 94.4087 158.896C94.4781 158.837 94.5581 158.779 94.6487 158.72L96.0247 157.928L96.3767 158.528L95.0007 159.328C94.9101 159.387 94.8194 159.432 94.7287 159.464C94.6381 159.496 94.5421 159.517 94.4407 159.528C94.5421 159.539 94.6381 159.56 94.7287 159.592C94.8194 159.619 94.9101 159.661 95.0007 159.72L96.3847 160.528Z" fill="white"/>
<path d="M151.888 168.12C151.888 167.981 151.912 167.851 151.96 167.728C152.013 167.605 152.083 167.499 152.168 167.408C152.259 167.317 152.365 167.245 152.488 167.192C152.611 167.139 152.741 167.112 152.88 167.112C153.019 167.112 153.149 167.139 153.272 167.192C153.395 167.245 153.501 167.317 153.592 167.408C153.683 167.499 153.755 167.605 153.808 167.728C153.861 167.851 153.888 167.981 153.888 168.12C153.888 168.264 153.861 168.397 153.808 168.52C153.755 168.637 153.683 168.741 153.592 168.832C153.501 168.923 153.395 168.992 153.272 169.04C153.149 169.093 153.019 169.12 152.88 169.12C152.741 169.12 152.611 169.093 152.488 169.04C152.365 168.992 152.259 168.923 152.168 168.832C152.083 168.741 152.013 168.637 151.96 168.52C151.912 168.397 151.888 168.264 151.888 168.12ZM155.829 168.12C155.829 167.981 155.853 167.851 155.901 167.728C155.955 167.605 156.024 167.499 156.109 167.408C156.2 167.317 156.307 167.245 156.429 167.192C156.552 167.139 156.683 167.112 156.821 167.112C156.96 167.112 157.091 167.139 157.213 167.192C157.336 167.245 157.443 167.317 157.533 167.408C157.624 167.499 157.696 167.605 157.749 167.728C157.803 167.851 157.829 167.981 157.829 168.12C157.829 168.264 157.803 168.397 157.749 168.52C157.696 168.637 157.624 168.741 157.533 168.832C157.443 168.923 157.336 168.992 157.213 169.04C157.091 169.093 156.96 169.12 156.821 169.12C156.683 169.12 156.552 169.093 156.429 169.04C156.307 168.992 156.2 168.923 156.109 168.832C156.024 168.741 155.955 168.637 155.901 168.52C155.853 168.397 155.829 168.264 155.829 168.12ZM159.771 168.12C159.771 167.981 159.795 167.851 159.843 167.728C159.896 167.605 159.965 167.499 160.051 167.408C160.141 167.317 160.248 167.245 160.371 167.192C160.493 167.139 160.624 167.112 160.763 167.112C160.901 167.112 161.032 167.139 161.155 167.192C161.277 167.245 161.384 167.317 161.475 167.408C161.565 167.499 161.637 167.605 161.691 167.728C161.744 167.851 161.771 167.981 161.771 168.12C161.771 168.264 161.744 168.397 161.691 168.52C161.637 168.637 161.565 168.741 161.475 168.832C161.384 168.923 161.277 168.992 161.155 169.04C161.032 169.093 160.901 169.12 160.763 169.12C160.624 169.12 160.493 169.093 160.371 169.04C160.248 168.992 160.141 168.923 160.051 168.832C159.965 168.741 159.896 168.637 159.843 168.52C159.795 168.397 159.771 168.264 159.771 168.12ZM163.712 168.12C163.712 167.981 163.736 167.851 163.784 167.728C163.837 167.605 163.906 167.499 163.992 167.408C164.082 167.317 164.189 167.245 164.312 167.192C164.434 167.139 164.565 167.112 164.704 167.112C164.842 167.112 164.973 167.139 165.096 167.192C165.218 167.245 165.325 167.317 165.416 167.408C165.506 167.499 165.578 167.605 165.632 167.728C165.685 167.851 165.712 167.981 165.712 168.12C165.712 168.264 165.685 168.397 165.632 168.52C165.578 168.637 165.506 168.741 165.416 168.832C165.325 168.923 165.218 168.992 165.096 169.04C164.973 169.093 164.842 169.12 164.704 169.12C164.565 169.12 164.434 169.093 164.312 169.04C164.189 168.992 164.082 168.923 163.992 168.832C163.906 168.741 163.837 168.637 163.784 168.52C163.736 168.397 163.712 168.264 163.712 168.12ZM167.653 168.12C167.653 167.981 167.677 167.851 167.725 167.728C167.778 167.605 167.848 167.499 167.933 167.408C168.024 167.317 168.13 167.245 168.253 167.192C168.376 167.139 168.506 167.112 168.645 167.112C168.784 167.112 168.914 167.139 169.037 167.192C169.16 167.245 169.266 167.317 169.357 167.408C169.448 167.499 169.52 167.605 169.573 167.728C169.626 167.851 169.653 167.981 169.653 168.12C169.653 168.264 169.626 168.397 169.573 168.52C169.52 168.637 169.448 168.741 169.357 168.832C169.266 168.923 169.16 168.992 169.037 169.04C168.914 169.093 168.784 169.12 168.645 169.12C168.506 169.12 168.376 169.093 168.253 169.04C168.13 168.992 168.024 168.923 167.933 168.832C167.848 168.741 167.778 168.637 167.725 168.52C167.677 168.397 167.653 168.264 167.653 168.12ZM171.594 168.12C171.594 167.981 171.618 167.851 171.666 167.728C171.72 167.605 171.789 167.499 171.874 167.408C171.965 167.317 172.072 167.245 172.194 167.192C172.317 167.139 172.448 167.112 172.586 167.112C172.725 167.112 172.856 167.139 172.978 167.192C173.101 167.245 173.208 167.317 173.298 167.408C173.389 167.499 173.461 167.605 173.514 167.728C173.568 167.851 173.594 167.981 173.594 168.12C173.594 168.264 173.568 168.397 173.514 168.52C173.461 168.637 173.389 168.741 173.298 168.832C173.208 168.923 173.101 168.992 172.978 169.04C172.856 169.093 172.725 169.12 172.586 169.12C172.448 169.12 172.317 169.093 172.194 169.04C172.072 168.992 171.965 168.923 171.874 168.832C171.789 168.741 171.72 168.637 171.666 168.52C171.618 168.397 171.594 168.264 171.594 168.12ZM176.559 169.168C176.49 169.355 176.381 169.493 176.231 169.584C176.087 169.675 175.938 169.72 175.783 169.72H175.183L179.991 157.744C180.055 157.573 180.151 157.443 180.279 157.352C180.413 157.261 180.565 157.216 180.735 157.216H181.343L176.559 169.168ZM182.93 168.12C182.93 167.981 182.954 167.851 183.002 167.728C183.055 167.605 183.125 167.499 183.21 167.408C183.301 167.317 183.407 167.245 183.53 167.192C183.653 167.139 183.783 167.112 183.922 167.112C184.061 167.112 184.191 167.139 184.314 167.192C184.437 167.245 184.543 167.317 184.634 167.408C184.725 167.499 184.797 167.605 184.85 167.728C184.903 167.851 184.93 167.981 184.93 168.12C184.93 168.264 184.903 168.397 184.85 168.52C184.797 168.637 184.725 168.741 184.634 168.832C184.543 168.923 184.437 168.992 184.314 169.04C184.191 169.093 184.061 169.12 183.922 169.12C183.783 169.12 183.653 169.093 183.53 169.04C183.407 168.992 183.301 168.923 183.21 168.832C183.125 168.741 183.055 168.637 183.002 168.52C182.954 168.397 182.93 168.264 182.93 168.12ZM186.871 168.12C186.871 167.981 186.895 167.851 186.943 167.728C186.996 167.605 187.066 167.499 187.151 167.408C187.242 167.317 187.348 167.245 187.471 167.192C187.594 167.139 187.724 167.112 187.863 167.112C188.002 167.112 188.132 167.139 188.255 167.192C188.378 167.245 188.484 167.317 188.575 167.408C188.666 167.499 188.738 167.605 188.791 167.728C188.844 167.851 188.871 167.981 188.871 168.12C188.871 168.264 188.844 168.397 188.791 168.52C188.738 168.637 188.666 168.741 188.575 168.832C188.484 168.923 188.378 168.992 188.255 169.04C188.132 169.093 188.002 169.12 187.863 169.12C187.724 169.12 187.594 169.093 187.471 169.04C187.348 168.992 187.242 168.923 187.151 168.832C187.066 168.741 186.996 168.637 186.943 168.52C186.895 168.397 186.871 168.264 186.871 168.12ZM190.812 168.12C190.812 167.981 190.836 167.851 190.884 167.728C190.938 167.605 191.007 167.499 191.092 167.408C191.183 167.317 191.29 167.245 191.412 167.192C191.535 167.139 191.666 167.112 191.804 167.112C191.943 167.112 192.074 167.139 192.196 167.192C192.319 167.245 192.426 167.317 192.516 167.408C192.607 167.499 192.679 167.605 192.732 167.728C192.786 167.851 192.812 167.981 192.812 168.12C192.812 168.264 192.786 168.397 192.732 168.52C192.679 168.637 192.607 168.741 192.516 168.832C192.426 168.923 192.319 168.992 192.196 169.04C192.074 169.093 191.943 169.12 191.804 169.12C191.666 169.12 191.535 169.093 191.412 169.04C191.29 168.992 191.183 168.923 191.092 168.832C191.007 168.741 190.938 168.637 190.884 168.52C190.836 168.397 190.812 168.264 190.812 168.12ZM194.754 168.12C194.754 167.981 194.778 167.851 194.826 167.728C194.879 167.605 194.948 167.499 195.034 167.408C195.124 167.317 195.231 167.245 195.354 167.192C195.476 167.139 195.607 167.112 195.746 167.112C195.884 167.112 196.015 167.139 196.138 167.192C196.26 167.245 196.367 167.317 196.458 167.408C196.548 167.499 196.62 167.605 196.674 167.728C196.727 167.851 196.754 167.981 196.754 168.12C196.754 168.264 196.727 168.397 196.674 168.52C196.62 168.637 196.548 168.741 196.458 168.832C196.367 168.923 196.26 168.992 196.138 169.04C196.015 169.093 195.884 169.12 195.746 169.12C195.607 169.12 195.476 169.093 195.354 169.04C195.231 168.992 195.124 168.923 195.034 168.832C194.948 168.741 194.879 168.637 194.826 168.52C194.778 168.397 194.754 168.264 194.754 168.12ZM198.695 168.12C198.695 167.981 198.719 167.851 198.767 167.728C198.82 167.605 198.89 167.499 198.975 167.408C199.066 167.317 199.172 167.245 199.295 167.192C199.418 167.139 199.548 167.112 199.687 167.112C199.826 167.112 199.956 167.139 200.079 167.192C200.202 167.245 200.308 167.317 200.399 167.408C200.49 167.499 200.562 167.605 200.615 167.728C200.668 167.851 200.695 167.981 200.695 168.12C200.695 168.264 200.668 168.397 200.615 168.52C200.562 168.637 200.49 168.741 200.399 168.832C200.308 168.923 200.202 168.992 200.079 169.04C199.956 169.093 199.826 169.12 199.687 169.12C199.548 169.12 199.418 169.093 199.295 169.04C199.172 168.992 199.066 168.923 198.975 168.832C198.89 168.741 198.82 168.637 198.767 168.52C198.719 168.397 198.695 168.264 198.695 168.12Z" fill="white"/>
<path d="M22.74 37.16C22.3667 37.16 22.08 37.0533 21.88 36.84C21.68 36.6267 21.58 36.3333 21.58 35.96V23.94C21.58 23.5533 21.6867 23.26 21.9 23.06C22.1133 22.8467 22.4067 22.74 22.78 22.74C23.1133 22.74 23.3733 22.8067 23.56 22.94C23.76 23.06 23.94 23.2733 24.1 23.58L29.04 32.72H28.4L33.34 23.58C33.5 23.2733 33.6733 23.06 33.86 22.94C34.0467 22.8067 34.3067 22.74 34.64 22.74C35.0133 22.74 35.3 22.8467 35.5 23.06C35.7 23.26 35.8 23.5533 35.8 23.94V35.96C35.8 36.3333 35.7 36.6267 35.5 36.84C35.3133 37.0533 35.0267 37.16 34.64 37.16C34.2667 37.16 33.98 37.0533 33.78 36.84C33.58 36.6267 33.48 36.3333 33.48 35.96V26.7H33.92L29.72 34.36C29.5867 34.5867 29.4467 34.7533 29.3 34.86C29.1533 34.9667 28.9533 35.02 28.7 35.02C28.4467 35.02 28.24 34.9667 28.08 34.86C27.92 34.74 27.78 34.5733 27.66 34.36L23.42 26.68H23.9V35.96C23.9 36.3333 23.8 36.6267 23.6 36.84C23.4133 37.0533 23.1267 37.16 22.74 37.16ZM43.3233 37.2C42.3099 37.2 41.4299 36.9933 40.6833 36.58C39.9366 36.1667 39.3566 35.58 38.9433 34.82C38.5299 34.0467 38.3233 33.14 38.3233 32.1C38.3233 31.3133 38.4366 30.6133 38.6633 30C38.9033 29.3733 39.2433 28.84 39.6833 28.4C40.1233 27.9467 40.6499 27.6067 41.2633 27.38C41.8766 27.14 42.5633 27.02 43.3233 27.02C44.3366 27.02 45.2166 27.2267 45.9633 27.64C46.7099 28.0533 47.2899 28.64 47.7033 29.4C48.1166 30.16 48.3233 31.06 48.3233 32.1C48.3233 32.8867 48.2033 33.5933 47.9633 34.22C47.7366 34.8467 47.4033 35.3867 46.9633 35.84C46.5233 36.28 45.9966 36.62 45.3833 36.86C44.7699 37.0867 44.0833 37.2 43.3233 37.2ZM43.3233 35.3C43.8166 35.3 44.2499 35.18 44.6233 34.94C44.9966 34.7 45.2833 34.3467 45.4833 33.88C45.6966 33.4 45.8033 32.8067 45.8033 32.1C45.8033 31.0333 45.5766 30.24 45.1233 29.72C44.6699 29.1867 44.0699 28.92 43.3233 28.92C42.8299 28.92 42.3966 29.04 42.0233 29.28C41.6499 29.5067 41.3566 29.86 41.1433 30.34C40.9433 30.8067 40.8433 31.3933 40.8433 32.1C40.8433 33.1533 41.0699 33.9533 41.5233 34.5C41.9766 35.0333 42.5766 35.3 43.3233 35.3ZM55.1067 37.2C54.0801 37.2 53.1867 36.9933 52.4267 36.58C51.6667 36.1533 51.0801 35.5533 50.6667 34.78C50.2534 34.0067 50.0467 33.1 50.0467 32.06C50.0467 31.2733 50.1601 30.5733 50.3867 29.96C50.6267 29.3333 50.9667 28.8067 51.4067 28.38C51.8467 27.94 52.3801 27.6067 53.0067 27.38C53.6334 27.14 54.3334 27.02 55.1067 27.02C55.5467 27.02 56.0201 27.08 56.5267 27.2C57.0467 27.32 57.5334 27.52 57.9867 27.8C58.2001 27.9333 58.3401 28.0933 58.4067 28.28C58.4734 28.4667 58.4867 28.66 58.4467 28.86C58.4067 29.0467 58.3201 29.2133 58.1867 29.36C58.0667 29.4933 57.9134 29.58 57.7267 29.62C57.5401 29.6467 57.3334 29.6 57.1067 29.48C56.8134 29.3067 56.5134 29.18 56.2067 29.1C55.9001 29.0067 55.6067 28.96 55.3267 28.96C54.8867 28.96 54.5001 29.0333 54.1667 29.18C53.8334 29.3133 53.5467 29.5133 53.3067 29.78C53.0801 30.0333 52.9067 30.3533 52.7867 30.74C52.6667 31.1267 52.6067 31.5733 52.6067 32.08C52.6067 33.0667 52.8401 33.8467 53.3067 34.42C53.7867 34.98 54.4601 35.26 55.3267 35.26C55.6067 35.26 55.8934 35.22 56.1867 35.14C56.4934 35.06 56.8001 34.9333 57.1067 34.76C57.3334 34.64 57.5334 34.6 57.7067 34.64C57.8934 34.68 58.0467 34.7733 58.1667 34.92C58.2867 35.0533 58.3601 35.22 58.3867 35.42C58.4134 35.6067 58.3867 35.7933 58.3067 35.98C58.2401 36.1667 58.1067 36.32 57.9067 36.44C57.4667 36.7067 57.0001 36.9 56.5067 37.02C56.0134 37.14 55.5467 37.2 55.1067 37.2ZM63.3817 37.2C62.6751 37.2 62.0417 37.0667 61.4817 36.8C60.9351 36.52 60.5017 36.1467 60.1817 35.68C59.8751 35.2133 59.7217 34.6867 59.7217 34.1C59.7217 33.38 59.9084 32.8133 60.2817 32.4C60.6551 31.9733 61.2617 31.6667 62.1017 31.48C62.9417 31.2933 64.0684 31.2 65.4817 31.2H66.4817V32.64H65.5017C64.6751 32.64 64.0151 32.68 63.5217 32.76C63.0284 32.84 62.6751 32.98 62.4617 33.18C62.2617 33.3667 62.1617 33.6333 62.1617 33.98C62.1617 34.42 62.3151 34.78 62.6217 35.06C62.9284 35.34 63.3551 35.48 63.9017 35.48C64.3417 35.48 64.7284 35.38 65.0617 35.18C65.4084 34.9667 65.6817 34.68 65.8817 34.32C66.0817 33.96 66.1817 33.5467 66.1817 33.08V30.78C66.1817 30.1133 66.0351 29.6333 65.7417 29.34C65.4484 29.0467 64.9551 28.9 64.2617 28.9C63.8751 28.9 63.4551 28.9467 63.0017 29.04C62.5617 29.1333 62.0951 29.2933 61.6017 29.52C61.3484 29.64 61.1217 29.6733 60.9217 29.62C60.7351 29.5667 60.5884 29.46 60.4817 29.3C60.3751 29.1267 60.3217 28.94 60.3217 28.74C60.3217 28.54 60.3751 28.3467 60.4817 28.16C60.5884 27.96 60.7684 27.8133 61.0217 27.72C61.6351 27.4667 62.2217 27.2867 62.7817 27.18C63.3551 27.0733 63.8751 27.02 64.3417 27.02C65.3017 27.02 66.0884 27.1667 66.7017 27.46C67.3284 27.7533 67.7951 28.2 68.1017 28.8C68.4084 29.3867 68.5617 30.1467 68.5617 31.08V35.88C68.5617 36.2933 68.4617 36.6133 68.2617 36.84C68.0617 37.0533 67.7751 37.16 67.4017 37.16C67.0284 37.16 66.7351 37.0533 66.5217 36.84C66.3217 36.6133 66.2217 36.2933 66.2217 35.88V34.92H66.3817C66.2884 35.3867 66.1017 35.7933 65.8217 36.14C65.5551 36.4733 65.2151 36.7333 64.8017 36.92C64.3884 37.1067 63.9151 37.2 63.3817 37.2ZM72.5792 37.16C72.1659 37.16 71.8459 37.0533 71.6192 36.84C71.4059 36.6133 71.2992 36.2933 71.2992 35.88V28.32C71.2992 27.9067 71.4059 27.5933 71.6192 27.38C71.8326 27.1667 72.1326 27.06 72.5192 27.06C72.9059 27.06 73.2059 27.1667 73.4192 27.38C73.6326 27.5933 73.7392 27.9067 73.7392 28.32V29.58H73.5392C73.7259 28.78 74.0926 28.1733 74.6392 27.76C75.1859 27.3467 75.9126 27.1 76.8192 27.02C77.0992 26.9933 77.3192 27.0667 77.4792 27.24C77.6526 27.4 77.7526 27.6533 77.7792 28C77.8059 28.3333 77.7259 28.6067 77.5392 28.82C77.3659 29.02 77.0992 29.14 76.7392 29.18L76.2992 29.22C75.4859 29.3 74.8726 29.5533 74.4592 29.98C74.0459 30.3933 73.8392 30.98 73.8392 31.74V35.88C73.8392 36.2933 73.7326 36.6133 73.5192 36.84C73.3059 37.0533 72.9926 37.16 72.5792 37.16ZM82.935 37.2C82.0817 37.2 81.3283 36.9933 80.675 36.58C80.035 36.1667 79.535 35.58 79.175 34.82C78.815 34.0467 78.635 33.14 78.635 32.1C78.635 31.0467 78.815 30.1467 79.175 29.4C79.535 28.64 80.035 28.0533 80.675 27.64C81.3283 27.2267 82.0817 27.02 82.935 27.02C83.7483 27.02 84.455 27.22 85.055 27.62C85.6683 28.02 86.0817 28.5467 86.295 29.2H86.075V24C86.075 23.5867 86.1817 23.2733 86.395 23.06C86.6083 22.8467 86.915 22.74 87.315 22.74C87.715 22.74 88.0217 22.8467 88.235 23.06C88.4617 23.2733 88.575 23.5867 88.575 24V35.88C88.575 36.2933 88.4683 36.6133 88.255 36.84C88.0417 37.0533 87.735 37.16 87.335 37.16C86.935 37.16 86.6283 37.0533 86.415 36.84C86.2017 36.6133 86.095 36.2933 86.095 35.88V34.32L86.315 34.92C86.115 35.6133 85.7083 36.1667 85.095 36.58C84.4817 36.9933 83.7617 37.2 82.935 37.2ZM83.635 35.3C84.1283 35.3 84.5617 35.18 84.935 34.94C85.3083 34.7 85.595 34.3467 85.795 33.88C86.0083 33.4 86.115 32.8067 86.115 32.1C86.115 31.0333 85.8883 30.24 85.435 29.72C84.9817 29.1867 84.3817 28.92 83.635 28.92C83.1417 28.92 82.7083 29.04 82.335 29.28C81.9617 29.5067 81.6683 29.86 81.455 30.34C81.255 30.8067 81.155 31.3933 81.155 32.1C81.155 33.1533 81.3817 33.9533 81.835 34.5C82.2883 35.0333 82.8883 35.3 83.635 35.3Z" fill="white"/>
<path d="M33.8718 66.135C33.2598 66.135 32.7648 65.946 32.3868 65.568C32.0268 65.19 31.8468 64.704 31.8468 64.11C31.8468 63.534 32.0268 63.066 32.3868 62.706C32.7648 62.328 33.2598 62.139 33.8718 62.139C34.5018 62.139 34.9878 62.328 35.3298 62.706C35.6898 63.066 35.8698 63.534 35.8698 64.11C35.8698 64.704 35.6898 65.19 35.3298 65.568C34.9878 65.946 34.5018 66.135 33.8718 66.135ZM40.839 66.135C40.227 66.135 39.732 65.946 39.354 65.568C38.994 65.19 38.814 64.704 38.814 64.11C38.814 63.534 38.994 63.066 39.354 62.706C39.732 62.328 40.227 62.139 40.839 62.139C41.469 62.139 41.955 62.328 42.297 62.706C42.657 63.066 42.837 63.534 42.837 64.11C42.837 64.704 42.657 65.19 42.297 65.568C41.955 65.946 41.469 66.135 40.839 66.135ZM47.8063 66.135C47.1943 66.135 46.6993 65.946 46.3213 65.568C45.9613 65.19 45.7813 64.704 45.7813 64.11C45.7813 63.534 45.9613 63.066 46.3213 62.706C46.6993 62.328 47.1943 62.139 47.8063 62.139C48.4363 62.139 48.9223 62.328 49.2643 62.706C49.6243 63.066 49.8043 63.534 49.8043 64.11C49.8043 64.704 49.6243 65.19 49.2643 65.568C48.9223 65.946 48.4363 66.135 47.8063 66.135ZM54.7736 66.135C54.1616 66.135 53.6666 65.946 53.2886 65.568C52.9286 65.19 52.7486 64.704 52.7486 64.11C52.7486 63.534 52.9286 63.066 53.2886 62.706C53.6666 62.328 54.1616 62.139 54.7736 62.139C55.4036 62.139 55.8896 62.328 56.2316 62.706C56.5916 63.066 56.7716 63.534 56.7716 64.11C56.7716 64.704 56.5916 65.19 56.2316 65.568C55.8896 65.946 55.4036 66.135 54.7736 66.135ZM69.3409 66.135C68.7289 66.135 68.2339 65.946 67.8559 65.568C67.4959 65.19 67.3159 64.704 67.3159 64.11C67.3159 63.534 67.4959 63.066 67.8559 62.706C68.2339 62.328 68.7289 62.139 69.3409 62.139C69.9709 62.139 70.4569 62.328 70.7989 62.706C71.1589 63.066 71.3389 63.534 71.3389 64.11C71.3389 64.704 71.1589 65.19 70.7989 65.568C70.4569 65.946 69.9709 66.135 69.3409 66.135ZM76.3082 66.135C75.6962 66.135 75.2012 65.946 74.8232 65.568C74.4632 65.19 74.2832 64.704 74.2832 64.11C74.2832 63.534 74.4632 63.066 74.8232 62.706C75.2012 62.328 75.6962 62.139 76.3082 62.139C76.9382 62.139 77.4242 62.328 77.7662 62.706C78.1262 63.066 78.3062 63.534 78.3062 64.11C78.3062 64.704 78.1262 65.19 77.7662 65.568C77.4242 65.946 76.9382 66.135 76.3082 66.135ZM83.2754 66.135C82.6634 66.135 82.1684 65.946 81.7904 65.568C81.4304 65.19 81.2504 64.704 81.2504 64.11C81.2504 63.534 81.4304 63.066 81.7904 62.706C82.1684 62.328 82.6634 62.139 83.2754 62.139C83.9054 62.139 84.3914 62.328 84.7334 62.706C85.0934 63.066 85.2734 63.534 85.2734 64.11C85.2734 64.704 85.0934 65.19 84.7334 65.568C84.3914 65.946 83.9054 66.135 83.2754 66.135ZM90.2427 66.135C89.6307 66.135 89.1357 65.946 88.7577 65.568C88.3977 65.19 88.2177 64.704 88.2177 64.11C88.2177 63.534 88.3977 63.066 88.7577 62.706C89.1357 62.328 89.6307 62.139 90.2427 62.139C90.8727 62.139 91.3587 62.328 91.7007 62.706C92.0607 63.066 92.2407 63.534 92.2407 64.11C92.2407 64.704 92.0607 65.19 91.7007 65.568C91.3587 65.946 90.8727 66.135 90.2427 66.135ZM104.81 66.135C104.198 66.135 103.703 65.946 103.325 65.568C102.965 65.19 102.785 64.704 102.785 64.11C102.785 63.534 102.965 63.066 103.325 62.706C103.703 62.328 104.198 62.139 104.81 62.139C105.44 62.139 105.926 62.328 106.268 62.706C106.628 63.066 106.808 63.534 106.808 64.11C106.808 64.704 106.628 65.19 106.268 65.568C105.926 65.946 105.44 66.135 104.81 66.135ZM111.777 66.135C111.165 66.135 110.67 65.946 110.292 65.568C109.932 65.19 109.752 64.704 109.752 64.11C109.752 63.534 109.932 63.066 110.292 62.706C110.67 62.328 111.165 62.139 111.777 62.139C112.407 62.139 112.893 62.328 113.235 62.706C113.595 63.066 113.775 63.534 113.775 64.11C113.775 64.704 113.595 65.19 113.235 65.568C112.893 65.946 112.407 66.135 111.777 66.135ZM118.745 66.135C118.133 66.135 117.638 65.946 117.26 65.568C116.9 65.19 116.72 64.704 116.72 64.11C116.72 63.534 116.9 63.066 117.26 62.706C117.638 62.328 118.133 62.139 118.745 62.139C119.375 62.139 119.861 62.328 120.203 62.706C120.563 63.066 120.743 63.534 120.743 64.11C120.743 64.704 120.563 65.19 120.203 65.568C119.861 65.946 119.375 66.135 118.745 66.135ZM125.712 66.135C125.1 66.135 124.605 65.946 124.227 65.568C123.867 65.19 123.687 64.704 123.687 64.11C123.687 63.534 123.867 63.066 124.227 62.706C124.605 62.328 125.1 62.139 125.712 62.139C126.342 62.139 126.828 62.328 127.17 62.706C127.53 63.066 127.71 63.534 127.71 64.11C127.71 64.704 127.53 65.19 127.17 65.568C126.828 65.946 126.342 66.135 125.712 66.135ZM140.279 66.135C139.667 66.135 139.172 65.946 138.794 65.568C138.434 65.19 138.254 64.704 138.254 64.11C138.254 63.534 138.434 63.066 138.794 62.706C139.172 62.328 139.667 62.139 140.279 62.139C140.909 62.139 141.395 62.328 141.737 62.706C142.097 63.066 142.277 63.534 142.277 64.11C142.277 64.704 142.097 65.19 141.737 65.568C141.395 65.946 140.909 66.135 140.279 66.135ZM147.246 66.135C146.634 66.135 146.139 65.946 145.761 65.568C145.401 65.19 145.221 64.704 145.221 64.11C145.221 63.534 145.401 63.066 145.761 62.706C146.139 62.328 146.634 62.139 147.246 62.139C147.876 62.139 148.362 62.328 148.704 62.706C149.064 63.066 149.244 63.534 149.244 64.11C149.244 64.704 149.064 65.19 148.704 65.568C148.362 65.946 147.876 66.135 147.246 66.135ZM154.214 66.135C153.602 66.135 153.107 65.946 152.729 65.568C152.369 65.19 152.189 64.704 152.189 64.11C152.189 63.534 152.369 63.066 152.729 62.706C153.107 62.328 153.602 62.139 154.214 62.139C154.844 62.139 155.33 62.328 155.672 62.706C156.032 63.066 156.212 63.534 156.212 64.11C156.212 64.704 156.032 65.19 155.672 65.568C155.33 65.946 154.844 66.135 154.214 66.135ZM161.181 66.135C160.569 66.135 160.074 65.946 159.696 65.568C159.336 65.19 159.156 64.704 159.156 64.11C159.156 63.534 159.336 63.066 159.696 62.706C160.074 62.328 160.569 62.139 161.181 62.139C161.811 62.139 162.297 62.328 162.639 62.706C162.999 63.066 163.179 63.534 163.179 64.11C163.179 64.704 162.999 65.19 162.639 65.568C162.297 65.946 161.811 66.135 161.181 66.135Z" fill="white"/>
<path fill-rule="evenodd" clip-rule="evenodd" d="M278.045 38.8679H273.53L270.143 25.6798C269.983 25.0732 269.641 24.5368 269.139 24.2841C267.887 23.6488 266.506 23.1433 265 22.8883V22.3806H272.275C273.279 22.3806 274.032 23.1433 274.157 24.0291L275.914 33.5421L280.428 22.3806H284.818L278.045 38.8679ZM287.326 38.8679H283.061L286.573 22.3806H290.838L287.326 38.8679ZM296.357 26.9477C296.483 26.0597 297.236 25.552 298.114 25.552C299.495 25.4245 300.999 25.6795 302.254 26.3125L303.007 22.7627C301.752 22.255 300.371 22 299.118 22C294.979 22 291.967 24.2837 291.967 27.4533C291.967 29.8645 294.1 31.1306 295.606 31.8933C297.236 32.6538 297.863 33.1615 297.738 33.9221C297.738 35.0628 296.483 35.5706 295.23 35.5706C293.724 35.5706 292.218 35.1903 290.84 34.5551L290.087 38.1071C291.593 38.7401 293.222 38.9951 294.728 38.9951C299.369 39.1204 302.254 36.8388 302.254 33.4143C302.254 29.1018 296.357 28.849 296.357 26.9477ZM317.176 38.8679L313.79 22.3806H310.153C309.4 22.3806 308.647 22.8883 308.396 23.6488L302.125 38.8679H306.515L307.392 36.4589H312.786L313.288 38.8679H317.176ZM310.786 26.8202L312.038 33.034H308.527L310.786 26.8202Z" fill="white"/>
<path fill-rule="evenodd" clip-rule="evenodd" d="M294.531 161.667C292.144 163.662 289.049 164.867 285.666 164.867C278.118 164.867 272 158.871 272 151.476C272 144.08 278.118 138.085 285.666 138.085C289.049 138.085 292.145 139.289 294.531 141.284C296.917 139.289 300.013 138.085 303.396 138.085C310.943 138.085 317.062 144.08 317.062 151.476C317.062 158.871 310.943 164.867 303.396 164.867C300.013 164.867 296.917 163.662 294.531 161.667Z" fill="#ED0006"/>
<path fill-rule="evenodd" clip-rule="evenodd" d="M294.528 161.667C297.466 159.211 299.329 155.557 299.329 151.476C299.329 147.395 297.466 143.74 294.528 141.284C296.915 139.289 300.011 138.085 303.393 138.085C310.941 138.085 317.059 144.08 317.059 151.476C317.059 158.871 310.941 164.867 303.393 164.867C300.011 164.867 296.915 163.662 294.528 161.667Z" fill="#F9A000"/>
<path fill-rule="evenodd" clip-rule="evenodd" d="M294.531 161.667C297.469 159.211 299.332 155.556 299.332 151.476C299.332 147.395 297.469 143.74 294.531 141.284C291.593 143.74 289.73 147.395 289.73 151.476C289.73 155.556 291.593 159.211 294.531 161.667Z" fill="#FF5E00"/>
</g>
<defs>
<clipPath id="clip0_2128_9048">
<rect width="335" height="196" rx="30" fill="white"/>
</clipPath>
</defs>
</svg>
